<svg xmlns="http://www.w3.org/2000/svg" xmlns:xlink="http://www.w3.org/1999/xlink" viewBox="0 0 477.41 414.43"><defs><style>.cls-1{isolation:isolate;}.cls-2{fill:#774f4f;}.cls-3,.cls-40{fill:#dfeef4;}.cls-3{opacity:0.5;}.cls-4{fill:#d0864d;}.cls-5{fill:#f9ca87;}.cls-6{fill:#ffdbab;}.cls-7{fill:#b5c8cc;}.cls-11,.cls-8{fill:#67728f;}.cls-44,.cls-8{opacity:0.2;mix-blend-mode:multiply;}.cls-9{fill:#d06b1c;}.cls-10{fill:#dd8688;}.cls-12{fill:#5e6682;}.cls-13{fill:#e8e4e3;}.cls-14{fill:#a67171;}.cls-15{fill:#956564;}.cls-16{fill:#d0cccb;}.cls-17{fill:url(#_ÂÁ_Ï_ÌÌ_È_ËÂÌÚ_5);}.cls-18{fill:url(#_ÂÁ_Ï_ÌÌ_È_ËÂÌÚ_5-2);}.cls-19{fill:#96aeb3;}.cls-20{fill:#889da6;}.cls-21{fill:#f3f3f3;}.cls-22{fill:#ffb5a7;}.cls-23{fill:#b44f36;}.cls-24{fill:#85656a;}.cls-25{fill:#de8789;}.cls-26{fill:#c7757c;}.cls-27{fill:#f2eff6;}.cls-28{fill:url(#_ÂÁ_Ï_ÌÌ_È_ËÂÌÚ_5-3);}.cls-29{fill:#686c8a;}.cls-30{fill:#ea6060;}.cls-31{fill:#5e863a;}.cls-32{fill:#c3c0bf;}.cls-33{fill:#a67f6d;}.cls-34{fill:#967363;}.cls-35{fill:#8696ba;}.cls-36{fill:#fbcb8c;}.cls-37{fill:#edba85;}.cls-38{fill:#ffe7ca;}.cls-39{fill:#78aaab;}.cls-41{fill:#666b73;}.cls-42{fill:#bd967e;}.cls-43{fill:#deb69d;}.cls-45{fill:#7380a0;}.cls-46{fill:#c78f8f;}.cls-47{fill:#b3b0af;}.cls-48{fill:#dbd8d7;}.cls-49{fill:url(#_ÂÁ_Ï_ÌÌ_È_ËÂÌÚ_5-4);}.cls-50{fill:#bfbcbb;}.cls-51{fill:url(#_ÂÁ_Ï_ÌÌ_È_ËÂÌÚ_5-5);}.cls-52{fill:#c4c1c0;}.cls-53{fill:url(#_ÂÁ_Ï_ÌÌ_È_ËÂÌÚ_5-6);}.cls-54{fill:#eab250;}.cls-55{fill:url(#_ÂÁ_Ï_ÌÌ_È_ËÂÌÚ_5-7);}.cls-56{fill:#ffb4a6;}.cls-57{fill:#ffd400;}.cls-58{fill:url(#_ÂÁ_Ï_ÌÌ_È_ËÂÌÚ_5-8);}.cls-59{fill:#bf8273;}.cls-60{fill:url(#_ÂÁ_Ï_ÌÌ_È_ËÂÌÚ_5-9);}.cls-61{fill:url(#_ÂÁ_Ï_ÌÌ_È_ËÂÌÚ_5-10);}.cls-62{fill:url(#_ÂÁ_Ï_ÌÌ_È_ËÂÌÚ_5-11);}.cls-63{fill:url(#_ÂÁ_Ï_ÌÌ_È_ËÂÌÚ_5-12);}.cls-64{fill:url(#_ÂÁ_Ï_ÌÌ_È_ËÂÌÚ_5-13);}.cls-65{fill:url(#_ÂÁ_Ï_ÌÌ_È_ËÂÌÚ_13);}.cls-66{fill:#be8173;}.cls-67{fill:#aa7668;}.cls-68{fill:#ffb4a5;}.cls-69{fill:url(#_ÂÁ_Ï_ÌÌ_È_ËÂÌÚ_5-14);}.cls-70{fill:url(#_ÂÁ_Ï_ÌÌ_È_ËÂÌÚ_5-15);}.cls-71{fill:url(#_ÂÁ_Ï_ÌÌ_È_ËÂÌÚ_5-16);}.cls-72{fill:url(#_ÂÁ_Ï_ÌÌ_È_ËÂÌÚ_5-17);}.cls-73{fill:url(#_ÂÁ_Ï_ÌÌ_È_ËÂÌÚ_5-18);}.cls-74{fill:url(#_ÂÁ_Ï_ÌÌ_È_ËÂÌÚ_5-19);}.cls-75{fill:#382e2d;}.cls-76{fill:url(#_ÂÁ_Ï_ÌÌ_È_ËÂÌÚ_5-20);}.cls-77{fill:#84656a;}.cls-78{fill:#fff4e9;}</style><linearGradient id="_ÂÁ_Ï_ÌÌ_È_ËÂÌÚ_5" x1="122.65" y1="240.74" x2="118.32" y2="232.29" gradientUnits="userSpaceOnUse"><stop offset="0" stop-color="#ffb7a7"/><stop offset="1" stop-color="#ff9595"/></linearGradient><linearGradient id="_ÂÁ_Ï_ÌÌ_È_ËÂÌÚ_5-2" x1="131.49" y1="240.74" x2="127.17" y2="232.29" xlink:href="#_ÂÁ_Ï_ÌÌ_È_ËÂÌÚ_5"/><linearGradient id="_ÂÁ_Ï_ÌÌ_È_ËÂÌÚ_5-3" x1="100.99" y1="210.83" x2="84.1" y2="215.99" xlink:href="#_ÂÁ_Ï_ÌÌ_È_ËÂÌÚ_5"/><linearGradient id="_ÂÁ_Ï_ÌÌ_È_ËÂÌÚ_5-4" x1="327.37" y1="248.69" x2="322.77" y2="239.71" gradientTransform="matrix(1, 0, 0, 1, 5.79, 0)" xlink:href="#_ÂÁ_Ï_ÌÌ_È_ËÂÌÚ_5"/><linearGradient id="_ÂÁ_Ï_ÌÌ_È_ËÂÌÚ_5-5" x1="306.05" y1="275.79" x2="302.26" y2="268.4" xlink:href="#_ÂÁ_Ï_ÌÌ_È_ËÂÌÚ_5"/><linearGradient id="_ÂÁ_Ï_ÌÌ_È_ËÂÌÚ_5-6" x1="274.36" y1="250" x2="276.13" y2="230.27" xlink:href="#_ÂÁ_Ï_ÌÌ_È_ËÂÌÚ_5"/><linearGradient id="_ÂÁ_Ï_ÌÌ_È_ËÂÌÚ_5-7" x1="293.36" y1="207.74" x2="293.01" y2="201.33" xlink:href="#_ÂÁ_Ï_ÌÌ_È_ËÂÌÚ_5"/><linearGradient id="_ÂÁ_Ï_ÌÌ_È_ËÂÌÚ_5-8" x1="310.82" y1="216.33" x2="313.1" y2="190.87" xlink:href="#_ÂÁ_Ï_ÌÌ_È_ËÂÌÚ_5"/><linearGradient id="_ÂÁ_Ï_ÌÌ_È_ËÂÌÚ_5-9" x1="354.19" y1="213.25" x2="354.19" y2="203.79" xlink:href="#_ÂÁ_Ï_ÌÌ_È_ËÂÌÚ_5"/><linearGradient id="_ÂÁ_Ï_ÌÌ_È_ËÂÌÚ_5-10" x1="305.27" y1="269.31" x2="301.9" y2="261.46" gradientTransform="matrix(0.99, -0.1, 0.1, 0.99, -2.98, -21.42)" xlink:href="#_ÂÁ_Ï_ÌÌ_È_ËÂÌÚ_5"/><linearGradient id="_ÂÁ_Ï_ÌÌ_È_ËÂÌÚ_5-11" x1="381.04" y1="109.38" x2="369.42" y2="106.99" gradientTransform="translate(20.9 45.2) rotate(15.9)" xlink:href="#_ÂÁ_Ï_ÌÌ_È_ËÂÌÚ_5"/><linearGradient id="_ÂÁ_Ï_ÌÌ_È_ËÂÌÚ_5-12" x1="168.07" y1="-333.47" x2="156.47" y2="-335.85" gradientTransform="translate(-21.14 233.58) rotate(70.3)" xlink:href="#_ÂÁ_Ï_ÌÌ_È_ËÂÌÚ_5"/><linearGradient id="_ÂÁ_Ï_ÌÌ_È_ËÂÌÚ_5-13" x1="304.85" y1="269.1" x2="301.72" y2="261.8" gradientTransform="matrix(0.99, -0.1, 0.1, 0.99, -2.98, -21.42)" xlink:href="#_ÂÁ_Ï_ÌÌ_È_ËÂÌÚ_5"/><linearGradient id="_ÂÁ_Ï_ÌÌ_È_ËÂÌÚ_13" x1="426.96" y1="-48.96" x2="439.61" y2="-41.36" gradientTransform="translate(-84.24 66.56) rotate(25.04)" xlink:href="#_ÂÁ_Ï_ÌÌ_È_ËÂÌÚ_5"/><linearGradient id="_ÂÁ_Ï_ÌÌ_È_ËÂÌÚ_5-14" x1="-182.96" y1="279.2" x2="-188.23" y2="268.9" gradientTransform="matrix(-1, 0, 0.63, 1, -133.08, 0)" xlink:href="#_ÂÁ_Ï_ÌÌ_È_ËÂÌÚ_5"/><linearGradient id="_ÂÁ_Ï_ÌÌ_È_ËÂÌÚ_5-15" x1="-231.06" y1="279.2" x2="-236.34" y2="268.9" gradientTransform="matrix(-1, 0, 0.81, 1, -210.92, 0)" xlink:href="#_ÂÁ_Ï_ÌÌ_È_ËÂÌÚ_5"/><linearGradient id="_ÂÁ_Ï_ÌÌ_È_ËÂÌÚ_5-16" x1="-82.16" y1="168.97" x2="-82.16" y2="156.22" gradientTransform="matrix(-1, 0, 0, 1, 148.88, 0)" xlink:href="#_ÂÁ_Ï_ÌÌ_È_ËÂÌÚ_5"/><linearGradient id="_ÂÁ_Ï_ÌÌ_È_ËÂÌÚ_5-17" x1="-40.33" y1="176.86" x2="-40.33" y2="168.07" gradientTransform="matrix(-1, 0, 0, 1, 148.88, 0)" xlink:href="#_ÂÁ_Ï_ÌÌ_È_ËÂÌÚ_5"/><linearGradient id="_ÂÁ_Ï_ÌÌ_È_ËÂÌÚ_5-18" x1="-36.85" y1="169.15" x2="-50.76" y2="170.77" gradientTransform="matrix(-1, 0, 0, 1, 148.88, 0)" xlink:href="#_ÂÁ_Ï_ÌÌ_È_ËÂÌÚ_5"/><linearGradient id="_ÂÁ_Ï_ÌÌ_È_ËÂÌÚ_5-19" x1="-76.17" y1="192.62" x2="-93.61" y2="194.65" gradientTransform="matrix(-1, 0, 0, 1, 148.88, 0)" xlink:href="#_ÂÁ_Ï_ÌÌ_È_ËÂÌÚ_5"/><linearGradient id="_ÂÁ_Ï_ÌÌ_È_ËÂÌÚ_5-20" x1="462.57" y1="152.03" x2="458.09" y2="122.53" gradientTransform="matrix(0.91, 0.37, -0.41, 0.94, -132.92, -152.62)" xlink:href="#_ÂÁ_Ï_ÌÌ_È_ËÂÌÚ_5"/></defs><g class="cls-1"><g id="_1" data-name="1"><ellipse class="cls-2" cx="238.97" cy="282.24" rx="232.91" ry="6.53"/><path class="cls-3" d="M94,238.08,72.75,197V166.2H77.4v-7H48.9v7h4.65V197L32.27,238.08A4.15,4.15,0,0,0,36,244.14H90.35A4.15,4.15,0,0,0,94,238.08Z"/><path class="cls-4" d="M82.9,216.61H43.4L32.27,238.08A4.15,4.15,0,0,0,36,244.14H90.35A4.15,4.15,0,0,0,94,238.08Z"/><path class="cls-5" d="M52.57,221.38a2.65,2.65,0,0,0-3.15,2.68,2.89,2.89,0,0,0,2.92,3,2.74,2.74,0,0,0,3-2.59A2.81,2.81,0,0,0,52.57,221.38Z"/><path class="cls-6" d="M80.68,230.69a2.64,2.64,0,0,0-3.15,2.68,2.88,2.88,0,0,0,2.92,2.95,2.73,2.73,0,0,0,3-2.58A2.8,2.8,0,0,0,80.68,230.69Z"/><path class="cls-5" d="M44.74,232.76a1.61,1.61,0,0,0-1.91,1.63,1.76,1.76,0,0,0,1.77,1.79,1.66,1.66,0,0,0,1.81-1.57A1.71,1.71,0,0,0,44.74,232.76Z"/><path class="cls-5" d="M70.33,220.55a1.61,1.61,0,0,0-1.91,1.63A1.76,1.76,0,0,0,70.19,224,1.67,1.67,0,0,0,72,222.4,1.7,1.7,0,0,0,70.33,220.55Z"/><path class="cls-5" d="M61.62,226.71c-2.84-.23-5.2,1.29-5.22,4.44a4.79,4.79,0,0,0,4.83,4.9,4.53,4.53,0,0,0,4.94-4.29A4.64,4.64,0,0,0,61.62,226.71Z"/><path class="cls-7" d="M94,238.08,72.75,197V166.2H77.4v-7H48.9v7h4.65V197L32.27,238.08A4.15,4.15,0,0,0,36,244.14H90.35A4.15,4.15,0,0,0,94,238.08Zm-2.52,2.61a1.32,1.32,0,0,1-1.16.66H36a1.32,1.32,0,0,1-1.16-.66,1.3,1.3,0,0,1,0-1.33l21.6-41.65V166H70v31.68l21.6,41.65A1.33,1.33,0,0,1,91.51,240.69Z"/><path class="cls-8" d="M94,238.08,72.75,197V166.2H77.4v-7H67.51v7H62.86V197l18.81,41.05A4.15,4.15,0,0,1,78,244.14H90.35A4.15,4.15,0,0,0,94,238.08Z"/><path class="cls-5" d="M69.09,134.18A2.64,2.64,0,0,0,66,136.86a2.88,2.88,0,0,0,2.91,2.95,2.73,2.73,0,0,0,3-2.58A2.8,2.8,0,0,0,69.09,134.18Z"/><path class="cls-5" d="M61.5,127.58h0a2.65,2.65,0,0,1-2.68-2.71,2.52,2.52,0,0,1,.79-1.88,2.92,2.92,0,0,1,4,.29,2.6,2.6,0,0,1,.59,1.9A2.57,2.57,0,0,1,61.5,127.58Zm-.09-3.42a.88.88,0,0,0-.6.18.7.7,0,0,0-.19.54.85.85,0,0,0,.86.87c.53,0,.84-.24.88-.73a.73.73,0,0,0-.16-.55,1,1,0,0,0-.66-.31h-.13Z"/><path class="cls-5" d="M60.41,155.27H60.3a5.69,5.69,0,0,1-5.73-5.82,5.24,5.24,0,0,1,1.62-4,5.94,5.94,0,0,1,4.58-1.38,6,6,0,0,1,4.16,2,5.61,5.61,0,0,1-4.52,9.14Zm-.27-9.36a4,4,0,0,0-2.71.92,3.44,3.44,0,0,0-1,2.63,3.87,3.87,0,0,0,3.93,4,3.77,3.77,0,0,0,3.19-6.12,4.19,4.19,0,0,0-2.89-1.38h0A4.1,4.1,0,0,0,60.14,145.91Z"/><path class="cls-5" d="M60.05,152a.77.77,0,0,1-.25,0,2.66,2.66,0,0,1-1.71-1.62,2.15,2.15,0,0,1,.24-1.91.82.82,0,0,1,1.13-.22.83.83,0,0,1,.22,1.14.47.47,0,0,0,0,.45,1,1,0,0,0,.67.61.81.81,0,0,1-.25,1.59Z"/><path class="cls-9" d="M102.7,175.27a17.45,17.45,0,0,1,2,7.84c.17,2.7.31,6.4.23,9.11-.26,9.26-.2,9.58.6,11.41-1.8-1.08-4.88-2.31-6.36-3.74a11.33,11.33,0,0,1-3.2-5.18,12.92,12.92,0,0,1,.36-6.72C97.57,183.41,100.11,179.26,102.7,175.27Z"/><path class="cls-9" d="M93.53,190.12c-.31-6.29-2.82-11.78-5-17.69a11.19,11.19,0,0,0-3.8,6.77,34.73,34.73,0,0,0-1,8.77,16.54,16.54,0,0,0,.86,4.62c.49,1.4,1.54,3,3.09,3.24,1,1.39,3.75.43,4.81-.88S93.61,191.81,93.53,190.12Z"/><path class="cls-9" d="M102.53,182.48s2.3-.78.82-5.81c-.9-3-4.09-5.91-6.83-5.26-1.61-1.32-8-.76-10.06,3.35-3.07,5,.22,10.52,1.68,12.15a13.41,13.41,0,0,0,2.68,2.4Z"/><path class="cls-10" d="M88.88,194.91c1-.73,2.35-4.7,1.28-8.92l3.46,1.22,4.07,5.55s-.39,1.94.21,2.42c1.17.92.19,2.82-3.4,2.84C90.37,198.05,88,195.58,88.88,194.91Z"/><path class="cls-11" d="M108.38,210.17a44.66,44.66,0,0,0-3.36-7.89c-.86-1.46-6-8.46-7.51-4.84a4.69,4.69,0,0,0-.26,1.79,38.64,38.64,0,0,0,2.6,13.5A9,9,0,0,0,101,215a3.45,3.45,0,0,0,2,1.38c1.58.28,3-.9,4.17-2a4.16,4.16,0,0,0,1.53-2.3A4.31,4.31,0,0,0,108.38,210.17Z"/><path class="cls-11" d="M98.42,196.54a11.16,11.16,0,0,1-6.81-.2,16.61,16.61,0,0,0-3.45-1.14c-2-.23-3.93.89-5.65,1.89a96.63,96.63,0,0,0-5.11,13.55A52.6,52.6,0,0,0,76.22,228c.17,1.16.23,3.31,1.1,4.09a3.65,3.65,0,0,0,2.61.93,20.31,20.31,0,0,0,5.45.06,16.23,16.23,0,0,0,6.69-3.21,22.9,22.9,0,0,0,6.79-7.24,31.54,31.54,0,0,0,2.72-8.26,26.7,26.7,0,0,0,.93-6.27C102.46,204,100.51,200.14,98.42,196.54Z"/><path class="cls-12" d="M101.58,214.62h0a.24.24,0,0,1-.17-.27,26.65,26.65,0,0,0,.93-6.22,15.47,15.47,0,0,0-.58-3.89.23.23,0,0,1,.15-.28.22.22,0,0,1,.27.16,15.1,15.1,0,0,1,.6,4,26.81,26.81,0,0,1-.93,6.33A.23.23,0,0,1,101.58,214.62Z"/><path class="cls-12" d="M93.35,212.61l-17.29,7.06a41,41,0,0,0,.16,8.36c.17,1.16.23,3.31,1.1,4.09a3.65,3.65,0,0,0,2.61.93,25.49,25.49,0,0,0,4.45.17l13.73-9.67Z"/><path class="cls-13" d="M100.25,206.11,89,218.86l1.05.77,11.85.82,4.68-1.32L119,206.53l-.67-1.49a18.5,18.5,0,0,0-8.43,2.28C107.13,206.05,103.75,206,100.25,206.11Z"/><polygon class="cls-14" points="100.69 207.71 89.44 220.15 101.89 222 106.57 220.68 119.63 206.29 109.96 208.38 100.69 207.71"/><path class="cls-15" d="M89.44,220.37a.27.27,0,0,1-.15-.05.23.23,0,0,1,0-.32l11.24-12.44a.21.21,0,0,1,.18-.07l9.24.66,9.44-2.08a.22.22,0,0,1,.26.17.21.21,0,0,1-.16.26L110,208.59h-.07l-9.16-.66L89.6,220.3A.2.2,0,0,1,89.44,220.37Z"/><polygon class="cls-15" points="101.89 222 106.57 220.68 119.63 206.29 109.96 208.38 99.76 221.75 101.89 222"/><path class="cls-13" d="M109.9,207.32a31,31,0,0,1,5.82-5.12l.29.22a45.42,45.42,0,0,0-4.79,4.42Z"/><path class="cls-16" d="M108.44,207.58h0a35.78,35.78,0,0,0-6.22-.5h0a.12.12,0,0,1-.12-.1.11.11,0,0,1,.11-.12,36.33,36.33,0,0,1,6.27.5.11.11,0,0,1,.09.13A.12.12,0,0,1,108.44,207.58Z"/><path class="cls-16" d="M112.59,207a.11.11,0,0,1-.11-.08.11.11,0,0,1,.08-.14s3.23-.89,5-1.16a.11.11,0,0,1,.13.09.11.11,0,0,1-.09.13c-1.74.27-4.93,1.15-5,1.16Z"/><path class="cls-17" d="M122.21,234a27.09,27.09,0,0,0,1.94,4.35l-1.13,2.2a2.18,2.18,0,0,1-1.65-.94c-.67-.94-3.44-3.12-4.69-4.71Z"/><path class="cls-13" d="M121.44,239.78c.45-.37.69.35,1,.19s0-1.64.88-2,1.31.44,1.88,1a7.38,7.38,0,0,0,3.21,1.7c.69.25,2.27.29,1.82,1.19s-7,1-7.67.44a5.12,5.12,0,0,1-.6-1.13C121.63,240.58,121.22,240,121.44,239.78Z"/><path class="cls-18" d="M131.05,234a27.71,27.71,0,0,0,1.95,4.35l-1.13,2.2a2.19,2.19,0,0,1-1.66-.94c-.67-.94-3.43-3.12-4.69-4.71Z"/><path class="cls-13" d="M130.28,239.78c.45-.37.7.35,1,.19s0-1.64.88-2,1.32.44,1.88,1a7.38,7.38,0,0,0,3.21,1.7c.69.25,2.27.29,1.82,1.19s-7,1-7.67.44a4.74,4.74,0,0,1-.59-1.13C130.48,240.58,130.06,240,130.28,239.78Z"/><path class="cls-19" d="M82.52,232.12s-.6,7.23,3.65,10.06c1.1.74,5.12.56,7.51.44,9-.44,12.53-5.16,21.82-16.65,0,0,5.52,7.59,11.42,12.23a7.88,7.88,0,0,0,5.6-3.39s-3.78-8.22-6.7-13.74-5.39-10.28-9-10.95c-3-.54-6,.89-16.58,10.62,0,0-4.54,4-6.42,6a36.28,36.28,0,0,1-6.19,4.53A7.38,7.38,0,0,1,82.52,232.12Z"/><path class="cls-20" d="M126.92,238.42a.19.19,0,0,1-.14,0c-5.85-4.6-11.41-12.2-11.46-12.27a.22.22,0,0,1,.05-.31.23.23,0,0,1,.31.05c0,.07,5.53,7.56,11.31,12.13a7.86,7.86,0,0,0,5.35-3.29.21.21,0,0,1,.31,0,.21.21,0,0,1,0,.3,8,8,0,0,1-5.78,3.48Z"/><path class="cls-13" d="M94.81,195.69l-2.42,3.07s2.94.86,4.75-.11Z"/><path class="cls-21" d="M89.76,192.16l5,3.53-2.35,3.82a12.35,12.35,0,0,1-5.41-5Z"/><path class="cls-21" d="M94.81,195.69l2.35,3.46a6.52,6.52,0,0,0,2.49-3l-1.78-2.6Z"/><path class="cls-7" d="M77.32,232.12s2.21,10.95,11.17,10.5,11.49-3.87,20.78-15.36a56.13,56.13,0,0,0,8.84,11.6,11,11,0,0,0,6.75-3.64s-2.77-7.08-5.09-12.6-4.53-11.83-8.18-12.5c-3-.54-6,.89-16.58,10.62,0,0-4.53,4-6.41,6a36.73,36.73,0,0,1-6.19,4.53A7.41,7.41,0,0,1,77.32,232.12Z"/><path class="cls-11" d="M82.08,213.39a11.12,11.12,0,0,1,5.19-1.88c1.8-.23,3.62.14,4.55,1.7a3.87,3.87,0,0,1,.29,3,10.34,10.34,0,0,1-1.67,3.25A13.14,13.14,0,0,1,82,223.85c-2.66.43-5.69,0-7.47-2.09a8.81,8.81,0,0,1-1.82-4.8,20.18,20.18,0,0,1,9.8-19.87,23.06,23.06,0,0,1,4.64,8.33A22.64,22.64,0,0,0,82.08,213.39Z"/><path class="cls-22" d="M97.92,193.16a8,8,0,0,1-6.68-5.38,12.94,12.94,0,0,1-.52-7.11c.45-1.75,2.63-7.21,8.06-5.16,0,0,4.41,1.69,4,8.82C102.38,190.73,98.77,193.05,97.92,193.16Z"/><path class="cls-22" d="M90.83,183.84s-1.83-2.11-2.74-1.2c-1.06,1.07.58,4.47,3.49,3.63Z"/><path class="cls-23" d="M100,181.46c.25.23.62-.37,1.61-.39.81,0,1.09.81,1.23.71s-.18-1.37-1.4-1.36C100,180.43,99.85,181.3,100,181.46Z"/><path class="cls-23" d="M96.87,181.57c-.27.26-1-.51-2.31-.3-1,.17-1.81.86-1.94.74s.67-1.43,2.36-1.56C96.46,180.35,97.14,181.32,96.87,181.57Z"/><path class="cls-24" d="M101.85,183.11a.9.9,0,0,1-.52.9c-.31.09-.58-.17-.6-.58a.91.91,0,0,1,.52-.9C101.56,182.44,101.83,182.7,101.85,183.11Z"/><path class="cls-24" d="M99.89,183.73a1.86,1.86,0,0,1,1.21-.87c.63-.16.66.46,1.23.5a.61.61,0,0,0,.56-.56.32.32,0,0,1-.44.09c-.22-.14-.71-.86-1.48-.69A1.3,1.3,0,0,0,99.89,183.73Z"/><path class="cls-24" d="M96.06,183.54a.8.8,0,0,0-.37-1c-.32-.1-.66.17-.77.62a.79.79,0,0,0,.37,1C95.6,184.26,96,184,96.06,183.54Z"/><path class="cls-24" d="M96.56,183.42a1.6,1.6,0,0,0-1.47-.35c-.74.11-.73.54-1.29.78a.71.71,0,0,1-.83-.35.36.36,0,0,0,.5-.11A2.44,2.44,0,0,1,95,182.32,1.33,1.33,0,0,1,96.56,183.42Z"/><path class="cls-25" d="M88.83,184.72c.39.55,1,.8,1.3.6s.18-.8-.21-1.35-.94-.84-1.21-.64S88.43,184.17,88.83,184.72Z"/><path class="cls-25" d="M98.76,187.65l.3-.05a2.43,2.43,0,0,0,.79-.28,1.68,1.68,0,0,0,.47-.39,1.05,1.05,0,0,0,.18-.31.59.59,0,0,0,.06-.2v-.22h0v0a1.48,1.48,0,0,0-.11-.14l-.08-.07-.13-.09-.25-.18a2.82,2.82,0,0,1-.46-.38,2.24,2.24,0,0,1-.58-1,2.37,2.37,0,0,1,0-1,4,4,0,0,1,.2-.73l.12-.26h0a.09.09,0,0,0,0-.12.09.09,0,0,0-.12,0l-.14.27a3.75,3.75,0,0,0-.28.75,2.75,2.75,0,0,0-.05,1.16,2.54,2.54,0,0,0,.59,1.21,3.63,3.63,0,0,0,.48.48l.25.21.11.09,0,0s0-.07,0,0,0,0,0,0h0v0s0,.05,0,.08a.64.64,0,0,1-.08.19,1.11,1.11,0,0,1-.3.31,2.33,2.33,0,0,1-.63.32l-.28.08a.16.16,0,0,0-.12.19.16.16,0,0,0,.18.13Z"/><path class="cls-9" d="M99.65,174.42c-.11,3.75-7,4.09-8,7,0,0-.16,1.86-1.27,2L89.09,182s.09-4.68,2.23-6.79C94.18,172.37,99.37,171.61,99.65,174.42Z"/><path class="cls-26" d="M95.49,188.3a19.41,19.41,0,0,0,2.34.43,9,9,0,0,0,2.12,0s-.78,1.91-2.42,1.7S95.49,188.3,95.49,188.3Z"/><path class="cls-27" d="M97.49,189.83a1.32,1.32,0,0,0,1.55-.68A10.44,10.44,0,0,1,97.5,189a11.28,11.28,0,0,1-1.43-.28A1.89,1.89,0,0,0,97.49,189.83Z"/><path class="cls-23" d="M98.62,170.5a2,2,0,0,0-1.41.09,1.68,1.68,0,0,0-1.09.94.27.27,0,0,0,.06.27.28.28,0,0,0,.4,0c.09-.07.12-.22.19-.31a1.48,1.48,0,0,1,.33-.28,3.24,3.24,0,0,1,.83-.37,5,5,0,0,0,.69-.19.09.09,0,0,0,0-.16Z"/><path class="cls-23" d="M88.85,181.05a3.08,3.08,0,0,1-1-.18.23.23,0,0,1-.12-.29.22.22,0,0,1,.29-.12,2.49,2.49,0,0,0,2.23-.27.21.21,0,0,1,.3.06.21.21,0,0,1-.05.3A2.8,2.8,0,0,1,88.85,181.05Z"/><path class="cls-23" d="M87.89,179.39c-.7,0-1.15,0-1.2,0a.23.23,0,0,1-.19-.25.21.21,0,0,1,.25-.19,14.24,14.24,0,0,0,7-1.23,12.48,12.48,0,0,0,4.63-3.47.22.22,0,0,1,.31,0,.21.21,0,0,1,.06.3,12.75,12.75,0,0,1-4.8,3.61A14,14,0,0,1,87.89,179.39Z"/><path class="cls-23" d="M86.39,193.06a.22.22,0,0,1-.2-.14,18.13,18.13,0,0,1-.57-11.35.22.22,0,0,1,.43.11,17.68,17.68,0,0,0,.55,11.07.22.22,0,0,1-.12.29Z"/><path class="cls-23" d="M88,192.61a.23.23,0,0,1-.2-.12,7.44,7.44,0,0,1-.8-3.27.22.22,0,0,1,.22-.23h0a.22.22,0,0,1,.22.22,7.32,7.32,0,0,0,.75,3.08.23.23,0,0,1-.09.3Z"/><path class="cls-23" d="M86.58,177.35h0a.22.22,0,0,1-.16-.27,6.36,6.36,0,0,1,2.72-3.76.22.22,0,0,1,.31.06.24.24,0,0,1-.07.31,6,6,0,0,0-2.54,3.51A.21.21,0,0,1,86.58,177.35Z"/><path class="cls-23" d="M96.38,172.55l-.09,0a6.46,6.46,0,0,0-2.78-.48.21.21,0,0,1-.23-.21.22.22,0,0,1,.21-.23,6.85,6.85,0,0,1,3,.51.22.22,0,0,1,.12.29A.21.21,0,0,1,96.38,172.55Z"/><path class="cls-23" d="M102.84,178.39a.22.22,0,0,1-.21-.16,5.52,5.52,0,0,0-2.74-3.2.23.23,0,0,1-.1-.3.24.24,0,0,1,.3-.1,6,6,0,0,1,3,3.47.23.23,0,0,1-.14.28Z"/><path class="cls-23" d="M103.3,198.65a.22.22,0,0,1-.22-.22c0-1.6,0-3.78.12-5.89.09-2.43.18-4.72.1-6.19a.22.22,0,0,1,.21-.23.21.21,0,0,1,.23.21c.08,1.49,0,3.79-.09,6.23-.08,2.1-.16,4.27-.13,5.86a.23.23,0,0,1-.21.23Z"/><path class="cls-23" d="M101.53,196.88a.22.22,0,0,1-.22-.22s0-2,.15-3.71a.22.22,0,0,1,.44,0c-.15,1.67-.15,3.65-.15,3.67A.22.22,0,0,1,101.53,196.88Z"/><path class="cls-12" d="M82.08,213.61a.28.28,0,0,1-.13,0,.22.22,0,0,1-.08-.26,22,22,0,0,1,4.84-8.11.22.22,0,0,1,.31,0,.23.23,0,0,1,0,.32,20.82,20.82,0,0,0-4.48,7.26,13,13,0,0,1,4.69-1.48c2.23-.28,3.91.36,4.77,1.8a.24.24,0,0,1-.08.31.23.23,0,0,1-.3-.08c-1-1.73-3.15-1.74-4.33-1.59a10.7,10.7,0,0,0-5.08,1.82A.2.2,0,0,1,82.08,213.61Z"/><path class="cls-12" d="M77.73,217.88a.23.23,0,0,1-.11,0,.22.22,0,0,1-.08-.3,13.1,13.1,0,0,1,3.83-4,5.5,5.5,0,0,0-3,1.21.22.22,0,0,1-.31,0,.23.23,0,0,1,0-.32,5.54,5.54,0,0,1,4-1.3.2.2,0,0,1,.19.17.21.21,0,0,1-.1.23,13.88,13.88,0,0,0-4.27,4.2A.21.21,0,0,1,77.73,217.88Z"/><path class="cls-12" d="M85.39,207.42a.22.22,0,0,1-.21-.16.23.23,0,0,1,.15-.28l1.62-.51a.22.22,0,1,1,.13.42l-1.62.52Z"/><path class="cls-12" d="M94.52,201.28a9.76,9.76,0,0,1-2.63-.36,10.31,10.31,0,0,1-6-5l-.12-.2a.22.22,0,1,1,.38-.24l.12.21A10,10,0,0,0,92,200.5a8.73,8.73,0,0,0,6.74-.77,3.37,3.37,0,0,0,1.65-2.35.23.23,0,0,1,.25-.19.22.22,0,0,1,.19.25A3.87,3.87,0,0,1,99,200.11,8.45,8.45,0,0,1,94.52,201.28Z"/><path class="cls-19" d="M118.11,239.09A.24.24,0,0,1,118,239a57.28,57.28,0,0,1-8.88-11.66,25.34,25.34,0,0,1-1.93-5.68.21.21,0,0,1,.17-.26.22.22,0,0,1,.26.18,24.29,24.29,0,0,0,1.9,5.56,56.15,56.15,0,0,0,8.73,11.47,10.91,10.91,0,0,0,6.49-3.56.22.22,0,1,1,.33.29,11.06,11.06,0,0,1-6.89,3.72Z"/><path class="cls-19" d="M109.27,227.48h-.06c-1.77-.52-3-3.05-3.09-3.15a.22.22,0,0,1,.4-.2s1.23,2.46,2.81,2.93a.21.21,0,0,1,.15.27A.21.21,0,0,1,109.27,227.48Z"/><path class="cls-19" d="M112,215.75h-.06a3.15,3.15,0,0,1-2-1.67.22.22,0,0,1,.1-.3.23.23,0,0,1,.3.11,2.72,2.72,0,0,0,1.76,1.43.22.22,0,0,1,.16.27A.23.23,0,0,1,112,215.75Z"/><path class="cls-28" d="M89.92,212c1.74-.07,3.18-1.81,4.83-2.73a6.46,6.46,0,0,1,3.17-.52l-1.18,1.33c0,.47.17.62.74.76,1.11.26,4.26-.23,4.33.33s-1,1-3.48,1.25c0,0,3.69-.77,3.83.14s-4,.66-4,1.11,2.57.07,2.57.56-2.59.88-4.31.78a16.89,16.89,0,0,0-2.92-.09,5.73,5.73,0,0,0-2,1.53c-.41.42-1.59-.15-2.18-1.69C88.9,213.61,89.23,212.1,89.92,212Z"/><path class="cls-19" d="M80.9,235.35a.24.24,0,0,1-.18-.09,5.36,5.36,0,0,1-.91-1.95.17.17,0,0,1,0-.17A.18.18,0,0,1,80,233a9.06,9.06,0,0,0,4.6-2.27.23.23,0,0,1,.38.17A5.06,5.06,0,0,1,83.53,234a3.86,3.86,0,0,1-2.61,1.34Zm-.6-1.92a4.69,4.69,0,0,0,.7,1.46,3.46,3.46,0,0,0,2.21-1.19,5.2,5.2,0,0,0,1.23-2.22A9.59,9.59,0,0,1,80.3,233.43Z"/><path class="cls-3" d="M332,138.87H307.18v4.44h3.27v88.42a5.77,5.77,0,0,0,5.77,5.77H323a5.77,5.77,0,0,0,5.77-5.77V143.31H332Z"/><path class="cls-29" d="M310.45,162.91v68.82a5.77,5.77,0,0,0,5.77,5.77H323a5.77,5.77,0,0,0,5.77-5.77V162.91Z"/><path class="cls-7" d="M307.18,138.87v4.44h3.27v88.42a5.77,5.77,0,0,0,5.77,5.77H323a5.77,5.77,0,0,0,5.77-5.77V143.31H332v-4.44Zm12.4,95.27h0a5.77,5.77,0,0,1-5.77-5.77V144h11.55v84.39A5.77,5.77,0,0,1,319.58,234.14Z"/><path class="cls-21" d="M317.83,230.08a1.34,1.34,0,0,1-1.33-1.33v-60.7a1.33,1.33,0,0,1,2.66,0v60.7A1.33,1.33,0,0,1,317.83,230.08Z"/><path class="cls-3" d="M361.57,138.87h-24.8v4.44H340v88.42a5.77,5.77,0,0,0,5.78,5.77h6.72a5.77,5.77,0,0,0,5.77-5.77V143.31h3.27Z"/><path class="cls-30" d="M340,190.69v41a5.77,5.77,0,0,0,5.78,5.77h6.72a5.77,5.77,0,0,0,5.77-5.77v-41Z"/><path class="cls-7" d="M336.77,138.87v4.44H340v88.42a5.77,5.77,0,0,0,5.78,5.77h6.72a5.77,5.77,0,0,0,5.77-5.77V143.31h3.27v-4.44Zm12.4,95.27h0a5.77,5.77,0,0,1-5.77-5.77V144h11.54v84.39A5.77,5.77,0,0,1,349.17,234.14Z"/><path class="cls-21" d="M347.42,230.08a1.33,1.33,0,0,1-1.33-1.33V196.06a1.33,1.33,0,1,1,2.66,0v32.69A1.34,1.34,0,0,1,347.42,230.08Z"/><path class="cls-3" d="M391.15,138.87h-24.8v4.44h3.27v88.42a5.77,5.77,0,0,0,5.77,5.77h6.72a5.77,5.77,0,0,0,5.78-5.77V143.31h3.26Z"/><path class="cls-31" d="M369.62,176v55.74a5.77,5.77,0,0,0,5.77,5.77h6.72a5.77,5.77,0,0,0,5.78-5.77V176Z"/><path class="cls-7" d="M366.35,138.87v4.44h3.27v88.42a5.77,5.77,0,0,0,5.77,5.77h6.72a5.77,5.77,0,0,0,5.78-5.77V143.31h3.26v-4.44Zm12.4,95.27h0a5.77,5.77,0,0,1-5.77-5.77V144h11.54v84.39A5.77,5.77,0,0,1,378.75,234.14Z"/><path class="cls-21" d="M377,230.08a1.34,1.34,0,0,1-1.33-1.33V180.19a1.33,1.33,0,1,1,2.66,0v48.56A1.33,1.33,0,0,1,377,230.08Z"/><path class="cls-3" d="M420.74,138.87H395.93v4.44h3.27v88.42A5.77,5.77,0,0,0,405,237.5h6.73a5.77,5.77,0,0,0,5.77-5.77V143.31h3.27Z"/><path class="cls-4" d="M399.2,160.11v71.62A5.77,5.77,0,0,0,405,237.5h6.73a5.77,5.77,0,0,0,5.77-5.77V160.11Z"/><path class="cls-7" d="M395.93,138.87v4.44h3.27v88.42A5.77,5.77,0,0,0,405,237.5h6.73a5.77,5.77,0,0,0,5.77-5.77V143.31h3.27v-4.44Zm12.41,95.27h0a5.77,5.77,0,0,1-5.78-5.77V144h11.55v84.39A5.77,5.77,0,0,1,408.34,234.14Z"/><path class="cls-21" d="M406.59,230.08a1.33,1.33,0,0,1-1.33-1.33V165.48a1.33,1.33,0,0,1,2.66,0v63.27A1.34,1.34,0,0,1,406.59,230.08Z"/><path class="cls-32" d="M428.93,261.48a1.33,1.33,0,0,1-1.33-1.33V171.26H300.32v87.49a1.33,1.33,0,1,1-2.65,0V169.93A1.33,1.33,0,0,1,299,168.6H428.93a1.33,1.33,0,0,1,1.32,1.33v90.22A1.33,1.33,0,0,1,428.93,261.48Z"/><rect class="cls-33" x="291.87" y="255.94" width="144.17" height="24.51"/><path class="cls-34" d="M341,263.75c-17,0-34.28-.18-41.46-.52a1.33,1.33,0,0,1-1.26-1.39,1.35,1.35,0,0,1,1.39-1.27c14.32.71,68.89.71,81.1,0a1.33,1.33,0,1,1,.15,2.66C374.76,263.57,358,263.75,341,263.75Z"/><path class="cls-34" d="M356.31,271.28a1.33,1.33,0,0,1-.05-2.66c.29,0,29.25-1.05,43.12-1.05a1.33,1.33,0,0,1,0,2.66c-13.82,0-42.74,1-43,1Z"/><rect class="cls-21" x="33.25" y="245.99" width="64.63" height="18.48" transform="translate(131.14 510.46) rotate(180)"/><rect class="cls-11" x="96.21" y="242.9" width="62.29" height="24.03" transform="translate(254.71 509.84) rotate(180)"/><rect class="cls-35" x="29.57" y="242.9" width="67.31" height="7.39" transform="translate(126.45 493.2) rotate(180)"/><rect class="cls-35" x="29.57" y="259.54" width="67.31" height="7.39" transform="translate(126.45 526.48) rotate(180)"/><rect class="cls-35" x="96.21" y="242.9" width="4.02" height="24.03" transform="translate(196.44 509.84) rotate(180)"/><rect class="cls-35" x="109.33" y="242.9" width="8.91" height="24.03" transform="translate(227.57 509.84) rotate(180)"/><rect class="cls-35" x="126.1" y="242.9" width="8.91" height="24.03" transform="translate(261.1 509.84) rotate(180)"/><rect class="cls-35" x="142.87" y="242.9" width="8.91" height="24.03" transform="translate(294.64 509.84) rotate(180)"/><path class="cls-16" d="M38.26,256.19a.6.6,0,0,1,0-1.18c.4,0,40.46-1.1,47.57-.73a.56.56,0,0,1,.49.61.55.55,0,0,1-.54.56c-7.07-.36-47.1.73-47.5.74Z"/><rect class="cls-21" x="89.69" y="267.5" width="72.89" height="11.96"/><rect class="cls-36" x="21.34" y="266.26" width="70.24" height="14.2"/><rect class="cls-37" x="90.83" y="266.26" width="75.91" height="2.99"/><rect class="cls-37" x="90.83" y="277.47" width="75.91" height="2.99"/><rect class="cls-37" x="87.05" y="266.26" width="4.53" height="14.2"/><path class="cls-16" d="M127.48,272.17h0c-2.29-.07-9.41-.07-16.3-.07s-13.58,0-15-.08a.36.36,0,0,1-.34-.38.35.35,0,0,1,.38-.34c1.41.07,8,.07,15,.07s14,0,16.32.08a.36.36,0,0,1,.35.37A.36.36,0,0,1,127.48,272.17Z"/><path class="cls-16" d="M105.81,275.15a.36.36,0,1,1,0-.72c.33,0,33.64-.3,46.41-.15a.36.36,0,0,1,.36.36.37.37,0,0,1-.37.36h0c-12.76-.15-46.06.15-46.4.15Z"/><path class="cls-16" d="M145.21,273.06a.35.35,0,0,1-.36-.35.37.37,0,0,1,.35-.37c.1,0,9.88-.15,12.05-.15a.36.36,0,0,1,.36.36.37.37,0,0,1-.36.37c-2.16,0-11.94.14-12,.14Z"/><rect class="cls-38" x="30.4" y="266.26" width="3.35" height="14.2"/><rect class="cls-38" x="37.16" y="266.26" width="3.35" height="14.2"/><rect class="cls-38" x="76.3" y="266.26" width="3.35" height="14.2"/><path class="cls-3" d="M444.23,210h0V194.24H420.87V210h0a11.47,11.47,0,0,0-11.47,11.47v59h46.3v-59A11.48,11.48,0,0,0,444.23,210Z"/><rect class="cls-39" x="409.4" y="224.08" width="46.29" height="56.37"/><path class="cls-7" d="M444.23,210h0V194.24H420.87V210h0a11.47,11.47,0,0,0-11.47,11.47v59h46.3v-59A11.48,11.48,0,0,0,444.23,210Zm7.39,66.43H413.48v-55a7.4,7.4,0,0,1,7.39-7.39h4.07V198.32h15.2V214h4.08a7.4,7.4,0,0,1,7.39,7.39Z"/><rect class="cls-40" x="419.17" y="232.46" width="26.76" height="23.36"/><path class="cls-8" d="M444.23,210h0V194.24H433.61V214c6.34,0,9.8,1.06,9.8,7.39v59H455.7v-59A11.48,11.48,0,0,0,444.23,210Z"/><path class="cls-41" d="M448.87,194.38c-.08,4.15-7.41,4.33-16.44,4.17s-16.35-.62-16.27-4.77c0-2.47,4.33-6.62,16.48-6.4S448.91,191.91,448.87,194.38Z"/><rect class="cls-42" x="141.22" y="111.17" width="75.96" height="169.29"/><rect class="cls-33" x="143.71" y="114.04" width="70.97" height="26.32"/><rect class="cls-33" x="143.71" y="144.79" width="70.97" height="26.32"/><rect class="cls-33" x="143.71" y="175.54" width="70.97" height="26.32"/><rect class="cls-33" x="143.71" y="206.28" width="70.97" height="26.32"/><path class="cls-33" d="M143.71,236.69V277.2h19.86V236.69Zm17.91,38.56h-16V238.64h16Z"/><path class="cls-43" d="M145.25,238.07v37.75H162V238.07Zm15.47,36.6H146.57V239.21h14.15Z"/><path class="cls-33" d="M169.27,236.69V277.2h19.86V236.69Zm17.9,38.56H171.22V238.64h15.95Z"/><path class="cls-43" d="M170.81,238.07v37.75h16.78V238.07Zm15.46,36.6H172.12V239.21h14.15Z"/><path class="cls-33" d="M194.82,236.69V277.2h19.86V236.69Zm17.91,38.56H196.78V238.64h15.95Z"/><path class="cls-43" d="M196.36,238.07v37.75h16.79V238.07Zm15.47,36.6H197.68V239.21h14.15Z"/><g class="cls-44"><rect class="cls-33" x="143.71" y="114.04" width="70.97" height="10.6"/><rect class="cls-33" x="143.71" y="144.79" width="70.97" height="10.6"/><rect class="cls-33" x="143.71" y="175.54" width="70.97" height="10.6"/><rect class="cls-33" x="143.71" y="206.28" width="70.97" height="10.6"/></g><rect class="cls-7" x="146.24" y="118.76" width="5.43" height="21.61"/><rect class="cls-19" x="146.24" y="133.86" width="5.43" height="3.17"/><rect class="cls-19" x="146.24" y="121.75" width="5.43" height="3.17"/><rect class="cls-45" x="188.02" y="121.61" width="2.85" height="18.77"/><rect class="cls-11" x="188.02" y="134.72" width="2.85" height="2.75"/><rect class="cls-11" x="188.02" y="124.2" width="2.85" height="2.75"/><rect class="cls-36" x="154.37" y="117.04" width="4.7" height="23.33"/><rect class="cls-37" x="155.37" y="119.76" width="2.71" height="17.91"/><rect class="cls-13" x="201.72" y="123.83" width="4.7" height="16.55"/><rect class="cls-16" x="202.71" y="125.75" width="2.71" height="12.7"/><rect class="cls-46" x="160.52" y="122.56" width="4.34" height="17.82"/><rect class="cls-45" x="208.5" y="118.08" width="3.66" height="22.29"/><rect class="cls-16" x="167.4" y="118.67" width="2.08" height="21.7"/><rect class="cls-46" x="193.31" y="118.67" width="2.08" height="21.7"/><rect class="cls-6" x="196.83" y="117" width="2.58" height="23.38"/><rect class="cls-13" x="173.18" y="119.67" width="3.71" height="20.71"/><rect class="cls-16" x="173.18" y="121.93" width="3.71" height="2.35"/><rect class="cls-16" x="173.18" y="135.76" width="3.71" height="2.35"/><rect class="cls-37" x="180.06" y="117.41" width="5.06" height="22.97"/><rect class="cls-6" x="180.06" y="121.61" width="5.06" height="14.56"/><rect class="cls-7" x="206.74" y="180.24" width="5.43" height="21.61" transform="translate(418.9 382.09) rotate(180)"/><rect class="cls-19" x="206.74" y="195.34" width="5.43" height="3.17" transform="translate(418.9 393.85) rotate(180)"/><rect class="cls-19" x="206.74" y="183.22" width="5.43" height="3.17" transform="translate(418.9 369.61) rotate(180)"/><rect class="cls-45" x="167.53" y="183.09" width="2.85" height="18.76" transform="translate(337.91 384.94) rotate(180)"/><rect class="cls-11" x="167.53" y="196.2" width="2.85" height="2.75" transform="translate(337.91 395.15) rotate(180)"/><rect class="cls-11" x="167.53" y="185.68" width="2.85" height="2.75" transform="translate(337.91 374.1) rotate(180)"/><rect class="cls-36" x="199.32" y="178.52" width="4.7" height="23.33" transform="translate(403.34 380.37) rotate(180)"/><rect class="cls-37" x="200.31" y="181.23" width="2.71" height="17.91" transform="translate(403.34 380.37) rotate(180)"/><rect class="cls-13" x="151.98" y="185.3" width="4.7" height="16.55" transform="translate(308.66 387.15) rotate(180)"/><rect class="cls-16" x="152.97" y="187.23" width="2.71" height="12.7" transform="translate(308.66 387.15) rotate(180)"/><rect class="cls-46" x="193.53" y="184.04" width="4.34" height="17.82" transform="translate(391.4 385.89) rotate(180)"/><rect class="cls-45" x="146.24" y="179.56" width="3.66" height="22.29" transform="translate(296.13 381.41) rotate(180)"/><rect class="cls-16" x="188.92" y="180.15" width="2.08" height="21.7" transform="translate(379.92 382) rotate(180)"/><rect class="cls-46" x="163.01" y="180.15" width="2.08" height="21.7" transform="translate(328.1 382) rotate(180)"/><rect class="cls-6" x="158.99" y="178.47" width="2.58" height="23.38" transform="translate(320.55 380.33) rotate(180)"/><rect class="cls-13" x="181.5" y="181.14" width="3.71" height="20.71" transform="translate(366.72 382.99) rotate(180)"/><rect class="cls-16" x="181.5" y="183.4" width="3.71" height="2.35" transform="translate(366.72 369.16) rotate(180)"/><rect class="cls-16" x="181.5" y="197.24" width="3.71" height="2.35" transform="translate(366.72 396.83) rotate(180)"/><rect class="cls-16" x="181.5" y="190.38" width="3.71" height="2.35" transform="translate(366.72 383.12) rotate(180)"/><rect class="cls-37" x="173.27" y="178.88" width="5.06" height="22.97" transform="translate(351.61 380.73) rotate(180)"/><rect class="cls-6" x="173.27" y="183.09" width="5.06" height="14.56" transform="translate(351.61 380.73) rotate(180)"/><rect class="cls-7" x="189.24" y="149.49" width="5.43" height="21.61"/><rect class="cls-19" x="190.14" y="158.53" width="3.62" height="3.17"/><rect class="cls-19" x="190.14" y="164.59" width="3.62" height="3.17"/><rect class="cls-19" x="190.14" y="152.48" width="3.62" height="3.17"/><rect class="cls-45" x="200.9" y="152.34" width="2.85" height="18.76"/><rect class="cls-11" x="200.9" y="160.19" width="2.85" height="2.75"/><rect class="cls-11" x="200.9" y="165.45" width="2.85" height="2.75"/><rect class="cls-11" x="200.9" y="154.93" width="2.85" height="2.75"/><rect class="cls-36" x="168.48" y="146.69" width="4.7" height="24.42"/><rect class="cls-37" x="169.48" y="149.53" width="2.71" height="18.74"/><rect class="cls-13" x="182.18" y="154.56" width="4.7" height="16.55"/><rect class="cls-16" x="183.18" y="156.48" width="2.71" height="12.7"/><rect class="cls-46" x="205.56" y="153.29" width="3.07" height="17.82"/><rect class="cls-45" x="209.99" y="148.81" width="3.66" height="22.29"/><rect class="cls-16" x="161.74" y="149.4" width="2.08" height="21.7"/><rect class="cls-46" x="158.44" y="149.4" width="2.08" height="21.7"/><rect class="cls-6" x="196.29" y="147.73" width="2.58" height="23.38"/><rect class="cls-13" x="153.11" y="150.4" width="3.71" height="20.71"/><rect class="cls-16" x="153.11" y="152.66" width="3.71" height="2.35"/><rect class="cls-16" x="153.11" y="166.49" width="3.71" height="2.35"/><rect class="cls-37" x="146.28" y="148.13" width="5.06" height="22.97"/><rect class="cls-6" x="146.28" y="152.34" width="5.06" height="14.56"/><rect class="cls-7" x="163.28" y="210.99" width="5.43" height="21.61" transform="translate(331.99 443.58) rotate(180)"/><rect class="cls-19" x="163.28" y="220.32" width="5.43" height="1.72" transform="translate(331.99 442.35) rotate(180)"/><rect class="cls-19" x="163.28" y="216.97" width="5.43" height="1.72" transform="translate(331.99 435.66) rotate(180)"/><rect class="cls-45" x="179.88" y="213.83" width="2.85" height="18.76" transform="translate(362.6 446.43) rotate(180)"/><rect class="cls-11" x="180.51" y="216.43" width="1.58" height="12.94" transform="translate(362.6 445.79) rotate(180)"/><rect class="cls-36" x="186.03" y="208.18" width="4.7" height="24.42" transform="translate(376.75 440.78) rotate(180)"/><rect class="cls-37" x="187.02" y="211.02" width="2.71" height="18.74" transform="translate(376.75 440.78) rotate(180)"/><rect class="cls-13" x="172.33" y="216.05" width="4.7" height="16.55" transform="translate(349.35 448.65) rotate(180)"/><rect class="cls-16" x="173.32" y="219.96" width="2.71" height="8.74" transform="translate(349.35 448.65) rotate(180)"/><rect class="cls-45" x="145.56" y="210.31" width="3.66" height="22.29" transform="translate(294.78 442.91) rotate(180)"/><rect class="cls-16" x="195.39" y="210.9" width="2.08" height="21.7" transform="translate(392.85 443.49) rotate(180)"/><rect class="cls-46" x="198.69" y="210.9" width="2.08" height="21.7" transform="translate(399.45 443.49) rotate(180)"/><rect class="cls-6" x="158.17" y="209.22" width="2.58" height="23.38" transform="translate(318.92 441.82) rotate(180)"/><rect class="cls-13" x="202.39" y="211.89" width="3.71" height="20.71" transform="translate(408.5 444.49) rotate(180)"/><rect class="cls-16" x="202.39" y="214.15" width="3.71" height="2.35" transform="translate(408.5 430.65) rotate(180)"/><rect class="cls-16" x="202.39" y="227.99" width="3.71" height="2.35" transform="translate(408.5 458.33) rotate(180)"/><rect class="cls-37" x="207.87" y="216.14" width="5.06" height="16.46" transform="translate(420.8 448.74) rotate(180)"/><rect class="cls-6" x="207.87" y="219.15" width="5.06" height="10.43" transform="translate(420.8 448.74) rotate(180)"/><rect class="cls-46" x="150.58" y="214.78" width="3.07" height="17.82" transform="translate(304.23 447.38) rotate(180)"/><rect class="cls-14" x="151.07" y="217.33" width="2.08" height="12.72" transform="translate(304.23 447.38) rotate(180)"/><rect class="cls-21" x="408.44" y="238.44" width="11.01" height="2.74"/><rect class="cls-7" x="398.11" y="238.15" width="10.62" height="3.25"/><rect class="cls-19" x="408.61" y="238.15" width="11.47" height="0.68"/><rect class="cls-19" x="408.61" y="240.72" width="11.47" height="0.68"/><rect class="cls-19" x="408.04" y="238.15" width="0.68" height="3.25"/><rect class="cls-21" x="397.95" y="241.6" width="9.02" height="4.2" transform="translate(804.92 487.4) rotate(180)"/><rect class="cls-37" x="406.71" y="241.29" width="14.1" height="4.77" transform="translate(827.52 487.34) rotate(180)"/><rect class="cls-36" x="397.37" y="241.29" width="9.44" height="0.76" transform="translate(804.19 483.33) rotate(180)"/><rect class="cls-36" x="397.37" y="245.29" width="9.44" height="0.76" transform="translate(804.19 491.35) rotate(180)"/><rect class="cls-36" x="406.71" y="241.29" width="0.63" height="4.77" transform="translate(814.05 487.34) rotate(180)"/><rect class="cls-36" x="409.79" y="241.29" width="1.59" height="4.77" transform="translate(821.15 487.37) rotate(-180)"/><rect class="cls-36" x="417.45" y="241.29" width="1.59" height="4.77" transform="translate(836.47 487.37) rotate(-180)"/><rect class="cls-21" x="408.51" y="246.37" width="12.53" height="4.92"/><rect class="cls-35" x="396.75" y="245.98" width="12.08" height="5.62"/><rect class="cls-45" x="408.7" y="245.98" width="13.05" height="0.93"/><rect class="cls-45" x="408.7" y="250.67" width="13.05" height="0.93"/><rect class="cls-45" x="408.05" y="245.98" width="0.78" height="5.62"/><polygon class="cls-16" points="378.04 251.6 369.89 237.94 369.89 234.14 378.04 247.81 378.04 251.6"/><polygon class="cls-32" points="378.03 248.02 401.13 248.02 392.99 234.14 369.89 234.14 378.03 248.02"/><path class="cls-47" d="M393,234.14H369.9l5.1,8.71s1.51-3.07,9-3.07A14.32,14.32,0,0,1,396.9,248h4.22Z"/><rect class="cls-13" x="369.9" y="234.14" width="23.1" height="3.8" transform="translate(762.89 472.08) rotate(180)"/><rect class="cls-16" x="389.52" y="247.81" width="11.6" height="3.8" transform="translate(790.65 499.41) rotate(180)"/><polygon class="cls-16" points="401.13 251.6 392.99 237.94 392.99 234.14 401.13 247.81 401.13 251.6"/><rect class="cls-13" x="368.38" y="247.81" width="23.1" height="3.8" transform="translate(759.85 499.41) rotate(180)"/><rect class="cls-46" x="369.64" y="248.67" width="20.57" height="2.06" transform="translate(759.85 499.41) rotate(180)"/><rect class="cls-46" x="371.16" y="234.94" width="20.57" height="2.06" transform="translate(762.89 471.94) rotate(180)"/><path class="cls-6" d="M375.34,234.14c.58,1.2,2.8,2.1,5.45,2.1s4.88-.9,5.46-2.1Z"/><path class="cls-16" d="M255.32,249.08s.06-2,4.43-2.82a9.8,9.8,0,0,0,3.25-1c3.68.32,7.4.82,10.52.36,0,0-1,1.45-3.9,2.06a18.72,18.72,0,0,0-4.61,1.49Z"/><rect class="cls-16" x="267.03" y="247.85" width="8.13" height="2.06"/><path class="cls-21" d="M244.7,249.91h22.88v-2.06a34.81,34.81,0,0,0-7.05-.76c-3.8,0-5.21,2-5.21,2a5.69,5.69,0,0,0-4.23-1.92,28.14,28.14,0,0,0-6.39,1.08Z"/><path class="cls-16" d="M253.82,250h3.07a2.43,2.43,0,0,0-1.51-.5A2.67,2.67,0,0,0,253.82,250Z"/><rect class="cls-35" x="243.56" y="249.87" width="24.56" height="0.8"/><rect class="cls-45" x="268.12" y="249.87" width="8.02" height="0.8" transform="translate(544.26 500.54) rotate(180)"/><path class="cls-16" d="M257.22,248.92a.14.14,0,0,1-.11-.06.13.13,0,0,1,0-.18c.09-.06,2.32-1.53,9.17-.2a.13.13,0,0,1,.1.15.13.13,0,0,1-.15.11c-6.74-1.31-8.95.14-9,.16Z"/><path class="cls-16" d="M257.91,249.46a.12.12,0,0,1-.13-.12.12.12,0,0,1,.12-.14s2.49-.07,4.92-.11h0a.13.13,0,0,1,.13.13.13.13,0,0,1-.13.13c-2.42,0-4.88.11-4.91.11Z"/><path class="cls-16" d="M253.06,249.35h-7.3a.13.13,0,0,1-.13-.13.13.13,0,0,1,.13-.13h7.3a.13.13,0,0,1,.13.13A.12.12,0,0,1,253.06,249.35Z"/><path class="cls-16" d="M252.92,248.63h0a12.46,12.46,0,0,0-4.5-.18.12.12,0,0,1-.14-.11.13.13,0,0,1,.11-.15,12.69,12.69,0,0,1,4.61.19.12.12,0,0,1,.08.16A.12.12,0,0,1,252.92,248.63Z"/><rect class="cls-32" x="217.05" y="250.08" width="222.29" height="30.36"/><path class="cls-47" d="M439.34,250.08H217.05v2.27c3.14.25,6.32-.22,9.48-.11,4.56.16,9.15.27,13.72.49,14.73.71,29.68-1.55,44.49-.91,7.56.33,15,0,22.53,0,6.22,0,12.4.64,18.65.65,8.55,0,20.89-1.06,29.49-.65,9.87.48,15.88,1.29,25.85,1.3,7.79,0,15.52-.64,23.28-.86,3.67-.1,7.32-.62,10.95-.23,8,.87,15.95.24,23.85,0Z"/><path class="cls-47" d="M233,273.06c.1.91.89,1.5,2.1,1.49.88,0,2.06-.52,2-1.7s-1-1.62-2.22-1.54S232.88,272.17,233,273.06Z"/><path class="cls-47" d="M272.34,273.17c.1.91.89,1.5,2.1,1.49.89,0,2.06-.52,2.06-1.7s-1-1.62-2.22-1.54S272.24,272.27,272.34,273.17Z"/><path class="cls-47" d="M366.25,261.24c.1.91.88,1.5,2.1,1.49.88,0,2.06-.52,2-1.7s-1-1.62-2.22-1.54S366.15,260.35,366.25,261.24Z"/><path class="cls-47" d="M411.68,258.75c.1.9.89,1.5,2.1,1.49.89,0,2.06-.53,2.05-1.7s-1-1.62-2.21-1.54S411.58,257.85,411.68,258.75Z"/><path class="cls-47" d="M342.17,274.8c.1.9.89,1.5,2.1,1.49.89,0,2.06-.53,2.06-1.7s-1-1.63-2.22-1.55S342.08,273.9,342.17,274.8Z"/><path class="cls-47" d="M392.7,275.34c.1.9.89,1.5,2.1,1.49.89,0,2.07-.53,2.06-1.7s-1-1.62-2.22-1.54S392.61,274.44,392.7,275.34Z"/><path class="cls-47" d="M430.44,261.79c.1.9.89,1.5,2.1,1.48.89,0,2.06-.52,2-1.7s-1-1.62-2.21-1.54S430.34,260.89,430.44,261.79Z"/><path class="cls-47" d="M306.06,269.38c.1.9.89,1.5,2.1,1.48.89,0,2.07-.52,2.06-1.7s-1-1.62-2.22-1.54S306,268.48,306.06,269.38Z"/><path class="cls-47" d="M281.24,276.49c.06.62.6,1,1.43,1,.61,0,1.42-.36,1.41-1.16s-.69-1.12-1.52-1.06S281.17,275.88,281.24,276.49Z"/><path class="cls-47" d="M337.08,270.63c.07.62.61,1,1.44,1a1.29,1.29,0,0,0,1.41-1.16c0-.75-.7-1.11-1.52-1.06S337,270,337.08,270.63Z"/><path class="cls-47" d="M302.81,273.78c.07.62.61,1,1.44,1,.61,0,1.42-.36,1.41-1.17s-.69-1.11-1.52-1.05S302.75,273.16,302.81,273.78Z"/><path class="cls-47" d="M256.51,258.86c.1.9.89,1.5,2.1,1.49.89,0,2.06-.53,2.05-1.7s-1-1.63-2.22-1.55S256.41,258,256.51,258.86Z"/><path class="cls-47" d="M227,263.79a1,1,0,0,0,1.1.85,1,1,0,0,0,1.07-1c0-.63-.53-.93-1.16-.89S227,263.28,227,263.79Z"/><path class="cls-47" d="M240.15,269.17c0-.52-.43-.91-1.12-1a1.07,1.07,0,0,0-1.26.85c-.06.63.49,1,1.18,1S240.16,269.68,240.15,269.17Z"/><path class="cls-47" d="M278.32,268.3c0-.52-.43-.9-1.12-1a1.08,1.08,0,0,0-1.26.86c-.06.62.49,1,1.18,1S278.33,268.82,278.32,268.3Z"/><path class="cls-47" d="M307.06,255.91c0-.53-.43-.91-1.12-1a1.09,1.09,0,0,0-1.27.86c-.05.63.49,1,1.19,1S307.06,256.42,307.06,255.91Z"/><path class="cls-47" d="M366.26,267.29c0-.52-.42-.9-1.12-1a1.09,1.09,0,0,0-1.26.86c-.05.62.49,1,1.18,1S366.27,267.81,366.26,267.29Z"/><path class="cls-47" d="M386.87,275.64c0-.52-.43-.9-1.12-1a1.09,1.09,0,0,0-1.27.86c-.05.62.49,1,1.19,1S386.87,276.16,386.87,275.64Z"/><path class="cls-47" d="M343.71,256.23c0-.52-.43-.9-1.12-1a1.08,1.08,0,0,0-1.26.86c-.06.62.49,1,1.18,1S343.71,256.75,343.71,256.23Z"/><path class="cls-47" d="M331.24,276.4c0-.52-.43-.91-1.12-1a1.07,1.07,0,0,0-1.26.86c-.06.62.49,1,1.18,1S331.24,276.92,331.24,276.4Z"/><path class="cls-47" d="M384.48,257.42c0-.52-.43-.9-1.12-1a1.09,1.09,0,0,0-1.26.86c-.06.62.49,1,1.18,1S384.49,257.94,384.48,257.42Z"/><path class="cls-47" d="M373.74,274.12c0-.52-.42-.9-1.11-1a1.09,1.09,0,0,0-1.27.86c-.05.62.49,1,1.19,1S373.75,274.64,373.74,274.12Z"/><path class="cls-47" d="M430.67,256.45c0-.52-.42-.91-1.11-1a1.09,1.09,0,0,0-1.27.86c-.05.63.49,1,1.18,1S430.68,257,430.67,256.45Z"/><path class="cls-47" d="M416.47,264.47c0-.52-.43-.9-1.12-1a1.08,1.08,0,0,0-1.26.86c-.06.62.49,1,1.18,1S416.48,265,416.47,264.47Z"/><path class="cls-47" d="M435.88,273.8c0-.53-.43-.91-1.12-1a1.08,1.08,0,0,0-1.26.86c-.06.63.49,1,1.18,1S435.89,274.31,435.88,273.8Z"/><path class="cls-47" d="M401.83,271.41c0-.52-.43-.9-1.12-1a1.09,1.09,0,0,0-1.26.86c-.06.62.49,1,1.18,1S401.84,271.93,401.83,271.41Z"/><path class="cls-47" d="M429.37,267.18c0-.52-.42-.9-1.12-1a1.09,1.09,0,0,0-1.26.86c-.06.62.49,1,1.18,1S429.38,267.7,429.37,267.18Z"/><path class="cls-47" d="M228.44,254.64c0-.52-.43-.91-1.12-1a1.08,1.08,0,0,0-1.26.86c-.06.63.49,1,1.18,1S228.45,255.15,228.44,254.64Z"/><path class="cls-47" d="M257.93,265.16c0-.53-.42-.91-1.11-1a1.09,1.09,0,0,0-1.27.86c-.05.63.49,1,1.18,1S257.94,265.67,257.93,265.16Z"/><path class="cls-47" d="M286.78,255.18c0-.52-.43-.91-1.12-1a1.08,1.08,0,0,0-1.27.86c-.05.62.5,1,1.19,1S286.78,255.7,286.78,255.18Z"/><path class="cls-47" d="M251.32,275.24c0-.52-.43-.9-1.12-1a1.08,1.08,0,0,0-1.26.86c-.06.62.49,1,1.18,1S251.33,275.76,251.32,275.24Z"/><path class="cls-47" d="M233,269.37c0-.33-.27-.58-.72-.61a.69.69,0,0,0-.81.55c0,.4.32.62.76.64S233,269.7,233,269.37Z"/><path class="cls-47" d="M264.34,255.49c0-.33-.28-.58-.72-.61a.69.69,0,0,0-.81.55c0,.4.31.62.76.64S264.34,255.82,264.34,255.49Z"/><path class="cls-47" d="M282.66,257.77c0-.34-.27-.58-.71-.62s-.78.12-.81.55.31.63.75.64S282.67,258.1,282.66,257.77Z"/><path class="cls-47" d="M315.73,255c0-.33-.27-.58-.71-.62s-.77.12-.81.55.31.63.76.64S315.74,255.28,315.73,255Z"/><path class="cls-47" d="M304.3,260.35c0-.34-.28-.58-.72-.62a.69.69,0,0,0-.81.55c0,.4.31.63.76.64S304.3,260.68,304.3,260.35Z"/><path class="cls-47" d="M334.77,272.38c0-.33-.28-.58-.72-.61a.69.69,0,0,0-.81.55c0,.4.32.62.76.64S334.77,272.71,334.77,272.38Z"/><path class="cls-47" d="M370.55,265.44c0-.33-.27-.58-.72-.61a.69.69,0,0,0-.81.55c0,.4.32.62.76.64S370.56,265.77,370.55,265.44Z"/><path class="cls-47" d="M378.68,255.9c0-.33-.27-.58-.71-.62s-.77.12-.81.55.31.63.76.64S378.69,256.23,378.68,255.9Z"/><path class="cls-47" d="M312.1,266.53c0-.34-.27-.58-.71-.62a.69.69,0,0,0-.81.55c0,.4.31.63.76.64S312.11,266.86,312.1,266.53Z"/><path class="cls-47" d="M314,275.53c0-.34-.28-.58-.72-.62a.69.69,0,0,0-.81.55c0,.4.32.63.76.64S314,275.86,314,275.53Z"/><path class="cls-47" d="M327.12,263.71c0-.34-.27-.58-.72-.62s-.77.12-.81.55.32.63.76.64S327.12,264,327.12,263.71Z"/><path class="cls-47" d="M342.36,261.32c0-.33-.27-.58-.72-.62a.7.7,0,0,0-.81.56c0,.4.32.62.76.64S342.36,261.65,342.36,261.32Z"/><path class="cls-47" d="M390.5,272.6c0-.34-.27-.58-.71-.62s-.78.12-.81.55.31.63.75.64S390.51,272.93,390.5,272.6Z"/><path class="cls-47" d="M399.83,260c0-.33-.27-.58-.72-.62s-.77.12-.81.55.32.63.76.64S399.83,260.35,399.83,260Z"/><path class="cls-47" d="M429.27,274.66c0-.33-.28-.58-.72-.62s-.77.12-.81.55.31.63.76.65S429.27,275,429.27,274.66Z"/><path class="cls-47" d="M427.91,259.8c0-.33-.27-.58-.71-.61a.69.69,0,0,0-.81.55c0,.4.31.63.76.64S427.92,260.13,427.91,259.8Z"/><path class="cls-47" d="M418.15,261.43c0-.33-.27-.58-.71-.62s-.77.12-.81.55.31.63.76.64S418.16,261.76,418.15,261.43Z"/><path class="cls-47" d="M416.57,275.34c0-.33-.27-.58-.72-.61a.69.69,0,0,0-.81.55c0,.4.32.63.76.64S416.57,275.67,416.57,275.34Z"/><path class="cls-47" d="M272,270.24c0-.33-.28-.58-.72-.62s-.77.12-.81.55.31.63.76.64S272,270.57,272,270.24Z"/><path class="cls-47" d="M223.67,256.36c0-.33-.27-.58-.71-.62s-.78.12-.81.55.31.63.75.64S223.68,256.69,223.67,256.36Z"/><path class="cls-47" d="M221.94,277c0-.33-.27-.58-.72-.61a.69.69,0,0,0-.81.55c0,.4.32.62.76.64S221.94,277.29,221.94,277Z"/><path class="cls-48" d="M422.1,273.77c-1.21-.08-2.22.44-2.22,1.54s1.17,1.69,2.05,1.7c1.21,0,2-.58,2.1-1.49S423.36,273.85,422.1,273.77Z"/><path class="cls-48" d="M379.55,270.7c-1.2-.09-2.21.44-2.22,1.54s1.17,1.69,2.06,1.7c1.21,0,2-.59,2.1-1.49S380.82,270.78,379.55,270.7Z"/><path class="cls-48" d="M249.61,256c-1.21-.08-2.21.45-2.22,1.55s1.17,1.69,2.06,1.7c1.21,0,2-.59,2.1-1.49S250.87,256.07,249.61,256Z"/><path class="cls-48" d="M327.21,255.55c-1.2-.08-2.21.45-2.21,1.54s1.16,1.69,2.05,1.7c1.21,0,2-.58,2.1-1.49S328.48,255.63,327.21,255.55Z"/><path class="cls-48" d="M345.4,265c-1.21-.08-2.22.45-2.22,1.54s1.17,1.69,2.05,1.7c1.21,0,2-.58,2.1-1.49S346.66,265.1,345.4,265Z"/><path class="cls-48" d="M365.34,275.58c-.83-.06-1.52.3-1.52,1.05s.8,1.16,1.41,1.17c.83,0,1.37-.4,1.44-1S366.21,275.64,365.34,275.58Z"/><path class="cls-48" d="M297.06,274.64c-.82-.06-1.51.3-1.52,1.05s.8,1.16,1.41,1.17c.83,0,1.37-.4,1.44-1S297.93,274.7,297.06,274.64Z"/><path class="cls-48" d="M351.57,273.3c-.83-.05-1.52.31-1.52,1.06s.8,1.15,1.41,1.16c.83,0,1.37-.4,1.43-1S352.43,273.36,351.57,273.3Z"/><path class="cls-48" d="M405.07,260.14c-1.2-.08-2.21.45-2.22,1.54s1.17,1.69,2.06,1.7c1.21,0,2-.58,2.1-1.49S406.33,260.23,405.07,260.14Z"/><path class="cls-48" d="M435.33,266.55c-.63,0-1.16.26-1.16.89a1,1,0,0,0,1.07,1,1,1,0,0,0,1.1-.85C436.4,267,436,266.6,435.33,266.55Z"/><path class="cls-48" d="M411.55,270.93c.7,0,1.24-.37,1.19-1a1.09,1.09,0,0,0-1.27-.86c-.69.06-1.11.44-1.12,1S410.83,271,411.55,270.93Z"/><path class="cls-48" d="M379.89,266.3c.69,0,1.24-.37,1.18-1a1.07,1.07,0,0,0-1.26-.85c-.69.05-1.11.44-1.12,1S379.17,266.32,379.89,266.3Z"/><path class="cls-48" d="M270.19,277.84c.69,0,1.24-.38,1.18-1a1.09,1.09,0,0,0-1.26-.86c-.7.06-1.11.44-1.12,1S269.46,277.86,270.19,277.84Z"/><path class="cls-48" d="M301.77,266.42c.7,0,1.24-.38,1.19-1a1.08,1.08,0,0,0-1.27-.86c-.69.05-1.11.44-1.12,1S301.05,266.44,301.77,266.42Z"/><path class="cls-48" d="M326.25,271.8c.69,0,1.24-.37,1.18-1a1.09,1.09,0,0,0-1.26-.86c-.69.06-1.11.44-1.12,1S325.52,271.82,326.25,271.8Z"/><path class="cls-48" d="M273.73,262.08c.69,0,1.24-.38,1.18-1a1.09,1.09,0,0,0-1.26-.86c-.69.06-1.11.44-1.12,1S273,262.1,273.73,262.08Z"/><path class="cls-48" d="M246.66,265.25c.69,0,1.24-.38,1.18-1s-.75-.9-1.26-.86c-.69.06-1.11.44-1.12,1S245.94,265.27,246.66,265.25Z"/><path class="cls-48" d="M221.61,274.69c.69,0,1.24-.37,1.18-1a1.09,1.09,0,0,0-1.26-.86c-.7.06-1.11.44-1.12,1S220.88,274.71,221.61,274.69Z"/><path class="cls-48" d="M258.69,276.54c.69,0,1.24-.38,1.18-1a1.09,1.09,0,0,0-1.26-.86c-.7.06-1.11.44-1.12,1S258,276.56,258.69,276.54Z"/><path class="cls-48" d="M225.43,269.6c.7,0,1.24-.38,1.19-1a1.09,1.09,0,0,0-1.27-.86c-.69.06-1.11.44-1.11,1S224.71,269.62,225.43,269.6Z"/><path class="cls-48" d="M422.25,257.12c.7,0,1.24-.37,1.19-1a1.08,1.08,0,0,0-1.27-.85c-.69,0-1.11.44-1.12,1S421.53,257.14,422.25,257.12Z"/><path class="cls-48" d="M399.55,266.05c.7,0,1.24-.37,1.19-1a1.09,1.09,0,0,0-1.27-.86c-.69.06-1.11.44-1.12,1S398.83,266.07,399.55,266.05Z"/><path class="cls-48" d="M362.79,259c.69,0,1.23-.37,1.18-1a1.09,1.09,0,0,0-1.26-.86c-.7.06-1.12.44-1.12,1S362.06,259.06,362.79,259Z"/><path class="cls-48" d="M406.17,276.14c.69,0,1.24-.38,1.18-1a1.09,1.09,0,0,0-1.26-.86c-.7.06-1.11.44-1.12,1S405.44,276.16,406.17,276.14Z"/><path class="cls-48" d="M424.06,270c.44,0,.79-.24.76-.64a.69.69,0,0,0-.81-.55c-.45,0-.72.28-.72.61S423.59,270,424.06,270Z"/><path class="cls-48" d="M392.72,256.07c.44,0,.79-.24.76-.64a.69.69,0,0,0-.81-.55c-.45,0-.71.28-.72.61S392.25,256.08,392.72,256.07Z"/><path class="cls-48" d="M375.41,259.93c.44,0,.79-.24.75-.64s-.48-.57-.81-.55-.71.29-.71.62S374.94,260,375.41,259.93Z"/><path class="cls-48" d="M336,258.42c.45,0,.79-.24.76-.64a.71.71,0,0,0-.81-.56c-.44,0-.71.29-.72.62S335.51,258.43,336,258.42Z"/><path class="cls-48" d="M319.83,271.65c.44,0,.79-.24.76-.64s-.49-.57-.81-.55-.71.29-.72.62S319.37,271.67,319.83,271.65Z"/><path class="cls-48" d="M282.6,264.86c.44,0,.79-.24.76-.64a.69.69,0,0,0-.81-.55c-.44,0-.71.28-.72.62S282.14,264.87,282.6,264.86Z"/><path class="cls-48" d="M278.37,256.47c.45,0,.8-.24.76-.64s-.49-.57-.81-.55-.71.29-.72.62S277.91,256.49,278.37,256.47Z"/><path class="cls-48" d="M339.2,277.55c.45,0,.8-.24.76-.64a.69.69,0,0,0-.81-.55c-.44,0-.71.28-.71.61S338.74,277.56,339.2,277.55Z"/><path class="cls-48" d="M329.94,264.28c.44,0,.79-.24.75-.64s-.48-.57-.81-.55-.71.28-.71.62S329.47,264.3,329.94,264.28Z"/><path class="cls-48" d="M316.81,264.1c.44,0,.79-.24.76-.64a.69.69,0,0,0-.81-.55c-.45,0-.71.28-.72.62S316.34,264.12,316.81,264.1Z"/><path class="cls-48" d="M263.81,270.43c.44,0,.79-.24.75-.64s-.48-.58-.81-.56-.71.29-.71.62S263.34,270.44,263.81,270.43Z"/><path class="cls-48" d="M265.48,263.23c.45,0,.8-.24.76-.64s-.48-.57-.81-.55-.71.29-.71.62S265,263.25,265.48,263.23Z"/><path class="cls-48" d="M228.37,277c.44,0,.79-.24.76-.64a.69.69,0,0,0-.81-.55c-.45,0-.72.28-.72.62S227.9,277,228.37,277Z"/><path class="cls-48" d="M239.77,259.4c.44,0,.79-.24.76-.64a.69.69,0,0,0-.81-.55c-.45,0-.71.28-.72.62S239.3,259.41,239.77,259.4Z"/><path class="cls-48" d="M242.35,275.24c.44,0,.79-.24.76-.65s-.49-.57-.81-.55-.71.29-.72.62S241.89,275.25,242.35,275.24Z"/><path class="cls-48" d="M387.71,267.46c.44,0,.79-.24.75-.64s-.48-.58-.81-.55-.71.28-.71.62S387.24,267.47,387.71,267.46Z"/><path class="cls-48" d="M436.85,255.05c.45,0,.8-.24.76-.64s-.49-.57-.81-.55-.71.29-.72.62S436.39,255.07,436.85,255.05Z"/><path class="cls-48" d="M435.12,277.54c.44,0,.79-.24.76-.64a.69.69,0,0,0-.81-.55c-.45,0-.72.28-.72.61S434.65,277.55,435.12,277.54Z"/><path class="cls-49" d="M332.39,241.53a45.5,45.5,0,0,0,2,4.9l-1.12,2.18a2.16,2.16,0,0,1-1.64-.93c-.67-.94-3.51-3.67-4.75-5.25Z"/><path class="cls-13" d="M331.73,247.82c.44-.37.69.34,1,.18s0-1.62.87-2,1.31.43,1.87,1a7.14,7.14,0,0,0,3.49,1.68c1.08.29,2.29.54,1.84,1.44s-7.33.74-7.95.18a4.85,4.85,0,0,1-.59-1.12C331.92,248.61,331.51,248,331.73,247.82Z"/><path class="cls-16" d="M304.28,227.2c1.76-1.32,9-12.83,15.14-12,3.82.54,5.77,4.81,9.24,13.63,2.32,5.87,5.83,14.31,5.83,14.31a12.56,12.56,0,0,1-6.75,2.63s-8.65-8.19-9.64-13.13c0,0-2.3,6.91-6.69,10.09l-14.15-2.08-1.1-7Z"/><path class="cls-50" d="M313.59,241.05a.24.24,0,0,1-.15-.06.23.23,0,0,1,0-.31,25.58,25.58,0,0,0,4.42-7.93,8.07,8.07,0,0,1-2.09-4.36.23.23,0,0,1,.19-.25.21.21,0,0,1,.24.19,7.61,7.61,0,0,0,2.06,4.19.22.22,0,0,1,.06.23c0,.05-1.74,5.19-4.56,8.23A.24.24,0,0,1,313.59,241.05Z"/><path class="cls-50" d="M327.74,246a.2.2,0,0,1-.15-.06c-.36-.34-8.71-8.3-9.7-13.25a25,25,0,0,1-1-7.84.22.22,0,1,1,.43,0,24.73,24.73,0,0,0,1,7.72c.69,3.46,5.25,8.6,7.82,11.27a20.33,20.33,0,0,0,7.36-2.93.23.23,0,0,1,.18,0,.24.24,0,0,1,.15.13l.87,2a.21.21,0,0,1-.05.25,12.64,12.64,0,0,1-6.89,2.69Zm-1.25-1.77c.67.69,1.15,1.16,1.33,1.33a12.56,12.56,0,0,0,6.41-2.48l-.71-1.65A20.82,20.82,0,0,1,326.49,244.26Z"/><path class="cls-50" d="M321.51,221.75h-.07a5.33,5.33,0,0,1-3.21-3,.23.23,0,0,1,.12-.29.21.21,0,0,1,.28.13,4.91,4.91,0,0,0,2.94,2.79.21.21,0,0,1,.14.27A.21.21,0,0,1,321.51,221.75Z"/><path class="cls-6" d="M303.7,198c0,.73,3.66-.41,6.72-1.18s5.21-1.42,5.71-1.92-.66-3.34-1.59-4.6-2.13-2.27-2.67-2.13-2.53,2.6-4.32,4.51C306.28,194.06,303.67,197.29,303.7,198Z"/><path class="cls-37" d="M311.52,187.69c-.52.8.6.8,2.46,3.47s1.49,4.35,2.5,4c1.2-.41-.15-3.48-1-4.89S312.32,186.48,311.52,187.69Z"/><path class="cls-37" d="M312.42,191a.22.22,0,0,1-.19-.12,2.87,2.87,0,0,0-.94-1,.22.22,0,0,1-.07-.3.21.21,0,0,1,.3-.06,3.2,3.2,0,0,1,1.1,1.18.22.22,0,0,1-.2.32Z"/><path class="cls-51" d="M306.73,270.72c-.62,2.38-1.24,4.87-1.24,4.87l-1.86,1.47-.92-1.38a57.72,57.72,0,0,1,.08-6Z"/><path class="cls-21" d="M305,275.15c1,.23.77.76.81,2.41a6.67,6.67,0,0,0,.59,2.86c.39.74,1.12,1,1.05,1.84-.1,1.3-3.71,1.49-4.68-.77-.88-2-.49-6.19,0-6.11s.21.72.49.8S303.62,274.81,305,275.15Z"/><path class="cls-13" d="M300,233.85c2.55,1.78,11.58,4.56,14.6,7.48s.54,10.91-.88,16.34-5,14.5-5,14.5-6.15,0-8-2.45a91.71,91.71,0,0,1,2.12-19.12H290.6c-3.71,0-7.22-10.5-6.76-14.94C284.35,230.84,300,233.85,300,233.85Z"/><path class="cls-52" d="M302.79,250.81H290.6c-2.08,0-6.46-5.24-7-14.85a.21.21,0,0,1,.2-.23.22.22,0,0,1,.23.21c.58,9.53,4.9,14.44,6.61,14.44h11.84a9.07,9.07,0,0,1-.45-2.79.21.21,0,0,1,.21-.22h0a.22.22,0,0,1,.21.22,7.55,7.55,0,0,0,.56,2.89.24.24,0,0,1,0,.22A.23.23,0,0,1,302.79,250.81Z"/><path class="cls-52" d="M308.72,272.39c-.25,0-6.28,0-8.22-2.54a.2.2,0,0,1,0-.13,105.31,105.31,0,0,1,2.12-19.16c.35-1.77,1-4.09,1-4.11a.21.21,0,0,1,.27-.15.22.22,0,0,1,.15.26s-.66,2.33-1,4.08A113.83,113.83,0,0,0,301,267.09a14.74,14.74,0,0,0,8.75,2.49.21.21,0,0,1,.19.09.22.22,0,0,1,0,.21l-1,2.38A.21.21,0,0,1,308.72,272.39Zm-7.83-2.75c1.7,2.09,6.77,2.3,7.69,2.32l.81-1.93a15.31,15.31,0,0,1-8.45-2.43C300.9,268.71,300.89,269.42,300.89,269.64Z"/><path class="cls-52" d="M310.17,246.57a.23.23,0,0,1-.2-.11,4.39,4.39,0,0,1-.46-2.36.23.23,0,0,1,.24-.2.22.22,0,0,1,.19.24,3.82,3.82,0,0,0,.42,2.12.23.23,0,0,1-.09.29Z"/><path class="cls-19" d="M283.09,233.46s0,1.84.68,2.49,5,1.52,9.54.58c5.1-1.05,9.19-3.33,10.85-6.8,1.31-2.74-.94-3.18-.94-3.18Z"/><path class="cls-7" d="M300.8,204.61c3,.54,5.91,3.09,8.83,4.23S317,211,318,214.15c1.24,3.69-1.52,6.19-7.81,4.78-6-1.35-7.61-2-8.3-1.85Z"/><path class="cls-19" d="M313.49,219.54a15.33,15.33,0,0,1-3.31-.4c-2.56-.58-4.29-1-5.55-1.32a10,10,0,0,0-2.66-.52.22.22,0,0,1-.07-.43,8.93,8.93,0,0,1,2.83.53c1.26.31,3,.74,5.55,1.31,3.37.76,5.89.43,7.11-.92a3.44,3.44,0,0,0,.44-3.57,5,5,0,0,0-1.87-2.39.22.22,0,1,1,.25-.35,5.35,5.35,0,0,1,2,2.6,3.9,3.9,0,0,1-.53,4A5.48,5.48,0,0,1,313.49,219.54Z"/><path class="cls-53" d="M275.39,231c-.65,3.47-.58,13.88-1.45,16.92,0,0-1.66.36-2.46.65-1.53.56-3.1,1.49-3,2h8c1.23,0,5-13.64,5.42-19.13Z"/><path class="cls-54" d="M285.91,192s-1.69-1.24-3.64,1.58a4.34,4.34,0,0,0,1.09,5.71,4.26,4.26,0,0,0,3.78.71c3-.91,1.72-5,1.72-5Z"/><path class="cls-55" d="M287.31,196.62c.8,3,.87,7.45-.65,7.67a9.74,9.74,0,0,0,8.1,3.11c5.49-.29,4.92-3,4.92-3a41.67,41.67,0,0,1-4.2-.65,19.83,19.83,0,0,1-.21-2.82l-7.38-5Z"/><path class="cls-10" d="M295.41,203.64l0-.07a19.85,19.85,0,0,1-.18-2.61l-7.38-5-.58.65c.8,3,.87,7.45-.65,7.67a8.38,8.38,0,0,0,2.61,2A10,10,0,0,0,295.41,203.64Z"/><path class="cls-54" d="M285.77,195.54s-2.54-1-3.44-5.43c-.94-4.58,2.09-9.14,5.89-8.7,2.38-2.71,9.32-.33,10.73,3.9a5.13,5.13,0,0,1-.57,4.9l-11.22,5.3Z"/><path class="cls-56" d="M295.54,202a7.67,7.67,0,0,1-7.12-4.23,12.51,12.51,0,0,1-1.46-6.72c.19-1.74.78-6.71,6.91-6.35,0,0,4.82-.4,5.1,8.2C299.17,199.1,296.34,201.79,295.54,202Z"/><path class="cls-56" d="M287.49,194.06s-2-1.76-2.78-.76c-.86,1.16,1.16,4.18,3.84,3Z"/><path class="cls-10" d="M285.7,195.18c.45.48,1.1.63,1.33.4s.07-.79-.39-1.26-1-.68-1.24-.45S285.25,194.71,285.7,195.18Z"/><path class="cls-10" d="M295.5,196.59l.28-.09a2.32,2.32,0,0,0,.73-.38,1.73,1.73,0,0,0,.4-.44,1.1,1.1,0,0,0,.14-.33.62.62,0,0,0,0-.2.45.45,0,0,0,0-.11.2.2,0,0,0,0-.07v-.05h0l0-.05a.73.73,0,0,0-.13-.13l-.09-.05-.14-.07-.26-.13a3.12,3.12,0,0,1-.49-.31,2.08,2.08,0,0,1-.69-.85,2.26,2.26,0,0,1-.17-1,3.65,3.65,0,0,1,.1-.71l.07-.27h0a.1.1,0,0,0-.08-.12.09.09,0,0,0-.12.06l-.09.28a3.11,3.11,0,0,0-.17.75,2.66,2.66,0,0,0,.1,1.13,2.56,2.56,0,0,0,.74,1.09,4,4,0,0,0,.52.4l.27.16.12.07,0,0,0,0,0,0h0v.11a1.21,1.21,0,0,1-.05.18,1.3,1.3,0,0,1-.23.33,2.18,2.18,0,0,1-.55.39l-.26.11a.19.19,0,0,0-.1.23.18.18,0,0,0,.21.11Z"/><path class="cls-54" d="M294.51,182.17c.86,2.27-3.8,5.74-6.7,8.26-.3,1.29.58,3.51-.7,3.31-1-.17-1.41-5.29-.16-8A6.39,6.39,0,0,1,294.51,182.17Z"/><path class="cls-57" d="M296.06,189.42c0,.39.55.29,1.42.51s1.32.55,1.37.26-.11-.65-1.05-1C297.18,188.91,296,188.87,296.06,189.42Z"/><path class="cls-57" d="M292.64,189.69c.05.39-1,.5-2,.93s-1.8,1.21-1.91.93,0-1,1.51-1.74S292.58,189.25,292.64,189.69Z"/><path class="cls-26" d="M292.64,197.38a17,17,0,0,0,2.06.45,8,8,0,0,0,1.87.07s-.75,1.66-2.19,1.43S292.64,197.38,292.64,197.38Z"/><path class="cls-27" d="M294.36,198.79a1.17,1.17,0,0,0,1.39-.55,8.55,8.55,0,0,1-1.36-.16,11.63,11.63,0,0,1-1.25-.28A1.66,1.66,0,0,0,294.36,198.79Z"/><path class="cls-24" d="M298,191.77a.89.89,0,0,1-.43.93c-.3.11-.58-.12-.63-.51a.88.88,0,0,1,.43-.93C297.66,191.15,297.94,191.38,298,191.77Z"/><path class="cls-24" d="M296.14,192.55a1.83,1.83,0,0,1,1.11-1c.6-.21.68.38,1.24.38a.6.6,0,0,0,.5-.6.3.3,0,0,1-.42.12c-.22-.11-.77-.77-1.5-.53A1.26,1.26,0,0,0,296.14,192.55Z"/><path class="cls-24" d="M292.38,192.7a.78.78,0,0,0-.45-.93c-.32-.07-.63.23-.7.67a.79.79,0,0,0,.45.93C292,193.44,292.31,193.14,292.38,192.7Z"/><path class="cls-24" d="M292.86,192.54a1.57,1.57,0,0,0-1.47-.22c-.71.17-.66.59-1.19.87a.69.69,0,0,1-.84-.26.36.36,0,0,0,.48-.15,2.45,2.45,0,0,1,1.35-1.18A1.29,1.29,0,0,1,292.86,192.54Z"/><path class="cls-7" d="M286.66,204.29a5.44,5.44,0,0,0-4.19.21s-.11,9-.32,14.43-.51,13.33,1.12,14.63,8.31,2.17,14-.43,6.29-4.66,6.4-6-.33-3-.33-4.56.43-3.68.33-6.18-2-8.35-2.28-9.65-.54-2.17-.54-2.17l-1.12-.18a9.13,9.13,0,0,1-6.2,2.57C288.38,207,286.66,204.29,286.66,204.29Z"/><path class="cls-7" d="M282.47,204.5c-1.59.65-4.3,3.26-6,11.71s-1.77,12.66-1.7,14,1.3,1.73,2.82,2a5.79,5.79,0,0,0,4.33-.58c1.09-.79,2.17-6.57,3-10.84s2-8.1,2-8.1Z"/><path class="cls-58" d="M307.92,196.05c-.49.56-1.67.86-2.17,1.88s.29,3.54.79,5.56c.71,2.84,2.26,10,4.63,12.58,2.17,2.39,4.45,2.53,5.86,1.37,1.22-1,.72-4.33-1.31-7-2.79-3.69-6.28-9.18-6.14-10.41s2.06-1.44,3.69-3.14c1.31-1.37,1.77-3.83,1.12-3.91s-.86,1.29-1.3,1.92-1.09,1.16-1.31,1.16.58-.49.87-1.85.25-2.56-.26-2.51-.75,1.15-1.15,2.43a4,4,0,0,1-1.62,2c-.29.07.83-2.75,0-2.75S308.78,195,307.92,196.05Z"/><path class="cls-19" d="M279.21,232.63a9.21,9.21,0,0,1-1.62-.15c-1.87-.36-2.85-1.06-2.85-2a.21.21,0,0,1,.21-.22.22.22,0,0,1,.22.22c0,1,1.56,1.41,2.5,1.59a5.62,5.62,0,0,0,4.17-.54c.92-.68,2-5.86,2.73-9.64l.22-1.07s.62-2.92,1-4.32a.21.21,0,0,1,.27-.15.22.22,0,0,1,.15.27c-.43,1.39-1,4.26-1.05,4.29L285,222c-1.05,5.18-1.92,9.19-2.91,9.91A4.89,4.89,0,0,1,279.21,232.63Z"/><path class="cls-19" d="M285.29,219.9a.2.2,0,0,1-.15-.06.21.21,0,0,1,0-.31l1.44-1.44a.21.21,0,0,1,.31,0,.22.22,0,0,1,0,.3l-1.45,1.45A.2.2,0,0,1,285.29,219.9Z"/><path class="cls-19" d="M303.8,227.49h0a.21.21,0,0,1-.2-.23,10.25,10.25,0,0,0-.23-2.34,13.59,13.59,0,0,1-.28-2.31c0-.6.07-1.29.15-2.09a30.4,30.4,0,0,0,.18-4.08,26.18,26.18,0,0,0-.94-4.8.22.22,0,0,1,.42-.11,26.13,26.13,0,0,1,.95,4.89,28.11,28.11,0,0,1-.18,4.14c-.08.79-.14,1.47-.14,2.05a13.64,13.64,0,0,0,.26,2.23,10,10,0,0,1,.24,2.45A.21.21,0,0,1,303.8,227.49Z"/><path class="cls-19" d="M303.51,215.2a.27.27,0,0,1-.15,0,.22.22,0,0,1,0-.31c.47-.53.38-2.19.3-2.79a.22.22,0,0,1,.19-.24.21.21,0,0,1,.24.18c0,.24.29,2.37-.41,3.14A.2.2,0,0,1,303.51,215.2Z"/><path class="cls-19" d="M296.57,221.05a.23.23,0,0,1-.2-.11.22.22,0,0,1,.09-.29,18,18,0,0,0,3.47-2.4.22.22,0,1,1,.29.33,19.17,19.17,0,0,1-3.55,2.45A.2.2,0,0,1,296.57,221.05Z"/><path class="cls-19" d="M298.15,221.18a.22.22,0,0,1-.21-.17.21.21,0,0,1,.16-.26,2,2,0,0,0,1-.62.22.22,0,0,1,.3,0,.22.22,0,0,1,0,.31,2.34,2.34,0,0,1-1.22.76Z"/><path class="cls-10" d="M314.57,216.85a1.67,1.67,0,0,1-1.27-.59.22.22,0,0,1,0-.31.22.22,0,0,1,.3,0,1.25,1.25,0,0,0,.94.44.21.21,0,0,1,.21.21A.21.21,0,0,1,314.57,216.85Z"/><path class="cls-57" d="M284,190.53a.24.24,0,0,1-.2-.14.22.22,0,0,1,.12-.28,16.57,16.57,0,0,0,7.31-5.88.22.22,0,0,1,.3,0,.22.22,0,0,1,.06.3,16.94,16.94,0,0,1-7.51,6Z"/><path class="cls-57" d="M285,191.78a.22.22,0,0,1-.22-.2.21.21,0,0,1,.2-.23,3.39,3.39,0,0,0,1.57-.69.22.22,0,0,1,.31,0,.22.22,0,0,1,0,.3,3.93,3.93,0,0,1-1.81.78Z"/><path class="cls-57" d="M285.57,183.4a.21.21,0,0,1-.19-.11.22.22,0,0,1,.09-.3,5.66,5.66,0,0,1,1.85-.69,3.11,3.11,0,0,1,2,.32.2.2,0,0,1,.08.29.21.21,0,0,1-.29.08,2.71,2.71,0,0,0-1.72-.26,5.56,5.56,0,0,0-1.72.64A.19.19,0,0,1,285.57,183.4Z"/><path class="cls-57" d="M289.52,182.05a.21.21,0,0,1-.13-.38,3.61,3.61,0,0,1,2.57-.79.21.21,0,0,1,.2.23.23.23,0,0,1-.24.2,3.25,3.25,0,0,0-2.26.7A.23.23,0,0,1,289.52,182.05Z"/><path class="cls-57" d="M285.21,199.08h0a3.06,3.06,0,0,1-2-1,3.09,3.09,0,0,1-.77-2.13,5.94,5.94,0,0,1,.7-2.24.22.22,0,0,1,.29-.1.22.22,0,0,1,.11.29,5.36,5.36,0,0,0-.66,2.06,2.57,2.57,0,0,0,.66,1.83,2.63,2.63,0,0,0,1.74.85.21.21,0,0,1,.2.23A.22.22,0,0,1,285.21,199.08Z"/><path class="cls-57" d="M286.05,198.15a1.9,1.9,0,0,1-1.28-.49.22.22,0,0,1,0-.31.23.23,0,0,1,.31,0,1.46,1.46,0,0,0,1.57.25.22.22,0,1,1,.19.39A1.74,1.74,0,0,1,286.05,198.15Z"/><path class="cls-59" d="M343.91,199.42a6.45,6.45,0,0,0,1.14-2.79c.14-.84-.14-1.77.08-3.15.57-3.44,3.46-6.71,7.47-6.26a6.82,6.82,0,0,1,8.66,2.95c.59,1.08.39,2.13.69,3,.42,1.62,1.46,2.33,1.89,4.89.38,2.31-.32,3.41-.42,4.78s.76,1.68,1,3.58a12.09,12.09,0,0,1-6.17,1,48.27,48.27,0,0,0-5.75-.47,29.63,29.63,0,0,1-3-.05c-1.07-.06-2.55-.35-3.61-.46a7,7,0,0,1-2.79-1C343.66,203.68,343,201.42,343.91,199.42Z"/><path class="cls-60" d="M357.5,200.55s-1.19,5.06.76,7.92c1.3,1.9,3.87,2.11,5.5,3.69,0,0-7.21,1.62-12.58,1.08s-6.56-3-6.56-3,3.88-.11,4.81-1.68a6.94,6.94,0,0,0,1-2.93l5.94-5.06Z"/><path class="cls-25" d="M363.59,212c-1.63-1.43-4.07-1.71-5.33-3.54-1.95-2.86-.76-7.92-.76-7.92l-1.16,0-5.94,5.06a6.82,6.82,0,0,1-.81,2.62C350.55,209.82,354.42,214.74,363.59,212Z"/><path class="cls-61" d="M324.87,212.41a17.06,17.06,0,0,1,.72,4l4.41-2a46.07,46.07,0,0,0-1.65-4.67Z"/><path class="cls-6" d="M342.62,210.85c-3.65,1.78-6.89,9.11-9.06,10.41,0,0-1.73-4.33-3.2-8.89a36.05,36.05,0,0,1-5.74,2.71s-.22,16.59,6.72,18.55c0,0,3.9,1.51,12.58-5.75A24.55,24.55,0,0,0,342.62,210.85Z"/><path class="cls-6" d="M344.57,210.1s2.38,2.06,7.37,2.49a59.23,59.23,0,0,0,12-.76s-.87,6.72-.11,10.08,3.79,11.82,3.9,14a5.47,5.47,0,0,1-1.48,3.76l-21.72-2a34.82,34.82,0,0,0-.33-6.07c-.43-2-2.27-6.08-2.49-8.35s1.84-6.62.87-12.37Z"/><path class="cls-36" d="M367.77,235.9c-.1-2-2.8-9.67-3.75-13.35-5.2,6.33-16.31,14.33-16.31,14.33l1.13,1.16,17.45,1.62A5.47,5.47,0,0,0,367.77,235.9Z"/><path class="cls-6" d="M364,211.83c2.6,3.14,4.34,12.25-4.34,20.82a41.23,41.23,0,0,1-11.39,6.94l-3.47-5.1a67.62,67.62,0,0,0,8.14-7.05,21.53,21.53,0,0,0,4.55-8.78Z"/><path class="cls-37" d="M344.57,237.85h0a.21.21,0,0,1-.21-.22,35.82,35.82,0,0,0-.32-6c-.17-.76-.57-1.89-1-3.08a27.72,27.72,0,0,1-1.51-5.29,12.81,12.81,0,0,1,.41-3.3c.14-.7.3-1.5.43-2.34a.22.22,0,0,1,.25-.18.21.21,0,0,1,.18.24c-.13.86-.29,1.66-.44,2.37a12.91,12.91,0,0,0-.4,3.17,27.37,27.37,0,0,0,1.49,5.19,29,29,0,0,1,1,3.13,33.77,33.77,0,0,1,.33,6.12A.21.21,0,0,1,344.57,237.85Z"/><path class="cls-37" d="M344.78,234.71a.22.22,0,0,1-.12-.39,69.9,69.9,0,0,0,8.1-7,21.58,21.58,0,0,0,4.5-8.69.22.22,0,0,1,.26-.16.21.21,0,0,1,.16.26,22,22,0,0,1-4.6,8.88,68.67,68.67,0,0,1-8.17,7.08A.2.2,0,0,1,344.78,234.71Z"/><path class="cls-37" d="M356.33,222h0a.21.21,0,0,1-.2-.23,8.82,8.82,0,0,0-.21-2.16.22.22,0,0,1,.15-.26.22.22,0,0,1,.27.16,8.61,8.61,0,0,1,.22,2.28A.22.22,0,0,1,356.33,222Z"/><path class="cls-37" d="M341.91,220.72a.21.21,0,0,1-.19-.11,9.2,9.2,0,0,1-.57-2.19.22.22,0,0,1,.19-.24.21.21,0,0,1,.24.18,9.59,9.59,0,0,0,.52,2,.22.22,0,0,1-.08.3Z"/><path class="cls-37" d="M335.13,226.2a.22.22,0,0,1-.21-.18,23.35,23.35,0,0,0-1.56-4.67c-1.09-2.51-2.73-7.46-3.12-8.65a55.69,55.69,0,0,1-5.54,2.58.2.2,0,0,1-.28-.12.21.21,0,0,1,.11-.28,51.79,51.79,0,0,0,5.72-2.69.21.21,0,0,1,.19,0,.2.2,0,0,1,.13.14c0,.06,2,6,3.19,8.87a24.49,24.49,0,0,1,1.59,4.76.22.22,0,0,1-.18.25Z"/><path class="cls-37" d="M335.73,224a.21.21,0,0,1-.19-.11,7.54,7.54,0,0,0-2.09-2.47.21.21,0,0,1-.08-.29.22.22,0,0,1,.3-.08,7.83,7.83,0,0,1,2.25,2.63.21.21,0,0,1-.09.29A.17.17,0,0,1,335.73,224Z"/><path class="cls-37" d="M331.34,232.87h0a3.37,3.37,0,0,1-1.44-.8.21.21,0,0,1,0-.31.22.22,0,0,1,.3,0,3,3,0,0,0,1.27.72.21.21,0,0,1,.16.26A.22.22,0,0,1,331.34,232.87Z"/><path class="cls-37" d="M358.39,232.44a.22.22,0,0,1-.13,0,.21.21,0,0,1,0-.31,3.13,3.13,0,0,0,.71-1.25.22.22,0,0,1,.25-.18.22.22,0,0,1,.18.24,3.38,3.38,0,0,1-.81,1.46A.19.19,0,0,1,358.39,232.44Z"/><path class="cls-37" d="M349.77,225.17h0c-.13,0-3.11-.12-4.26-1.14a.22.22,0,0,1,.29-.33c1,.92,3.95,1,4,1a.23.23,0,0,1,.21.23A.21.21,0,0,1,349.77,225.17Z"/><path class="cls-37" d="M348.59,226.27h0a7.26,7.26,0,0,1-2-.66.22.22,0,0,1-.07-.3.2.2,0,0,1,.29-.07,7,7,0,0,0,1.82.6.22.22,0,0,1,.17.25A.21.21,0,0,1,348.59,226.27Z"/><path class="cls-37" d="M366.07,243.35c.51-.15.22-3.69.22-3.69s-3.18-2.82-11.64-2.75Z"/><path class="cls-6" d="M365.28,239l-.39-.2a.23.23,0,0,0,0,.16,30.92,30.92,0,0,1,0,3.71l.42.23A27.08,27.08,0,0,0,365.28,239Z"/><path class="cls-6" d="M362.69,237.94v3.49l.43.25v-3.6Z"/><path class="cls-6" d="M361.53,240.77h0a.21.21,0,0,0,.21-.22l.06-2.86-.43-.1-.06,2.95A.22.22,0,0,0,361.53,240.77Z"/><path class="cls-6" d="M358.77,238.94a.22.22,0,0,0,.22-.23v-1.55l-.43,0v1.6A.22.22,0,0,0,358.77,238.94Z"/><path class="cls-6" d="M366.29,239.88a.22.22,0,0,1-.13,0,17.29,17.29,0,0,0-10-2.64A.23.23,0,0,1,356,237a.22.22,0,0,1,.21-.22,17.87,17.87,0,0,1,10.26,2.72.21.21,0,0,1,.05.3A.23.23,0,0,1,366.29,239.88Z"/><path class="cls-45" d="M334.66,240.16c-2.34.11-13.72-4.46-16.73,0s1.56,10.49,10.82,11.38h10.37Z"/><path class="cls-35" d="M354.43,235.93c-2.92-1.43-6.48-3.5-9.95-4.47.57,7.61,2.2,14.54,5.94,20.08h12.79s2.83-1.49,2.83-8.18A61.59,61.59,0,0,0,354.43,235.93Z"/><path class="cls-21" d="M352,250.75s.31-.43,1.9-.16,2.6,1.55,4.38,2.68c1.54,1,3,1.76,2.6,2.67-.36.74-1.63.7-6-1.12A4.34,4.34,0,0,1,352,250.75Z"/><path class="cls-62" d="M346.05,251.83c2.16.58,3.27,1,5.19,1.56,2.24.69,5.7,2.44,6.2,2,.86-.69-1.37-3.15-3.15-4-1-.49-1.78-.67-2.23-.87s-2-2-3.51-3.4Z"/><path class="cls-21" d="M349.61,272.72s.52,0,1.23,1.45.58,2.63.7,4.73c.1,1.82-.06,4.56-1.93,4.46-1.42-.07-1.46-3.43-1.63-5.91C347.76,274.12,349.61,272.72,349.61,272.72Z"/><path class="cls-63" d="M345.26,268.49c.78,2.11,1.12,3.23,1.75,5.14.74,2.22,1.11,6.16,1.95,6.23,1.53.12,1.76-2.95,1.41-4.89-.2-1.11-.5-1.83-.59-2.31s.5-2.79.72-4.84Z"/><path class="cls-35" d="M351.32,266.41s1.63-5.06-.9-14.87c-1.37-6.14-3.83-15.85-5.94-20.08-3.59-1-7.08-.91-9.52,1.64-3.27,3.42.89,12,3.42,20.67s3,12.19,4.91,13.53a2.92,2.92,0,0,0,.29,2.08c.6.9,1.64.6,4.76.45S353.1,267.3,351.32,266.41Z"/><path class="cls-64" d="M328.35,209.69a6.65,6.65,0,0,0-6.21-3.85l.84,2.35-1.45,1.93c-.06,1,2.45,1.72,3.34,2.29Z"/><path class="cls-65" d="M328.35,209.69a9.21,9.21,0,0,1-.79-3.15c-.19-1.37-.93-3.55-1.56-3.44-1.14.19,0,2.05-.24,3.31-2.3,3.09.57,4.62.57,4.62C328.14,210.35,328.35,209.69,328.35,209.69Z"/><path class="cls-22" d="M350.14,206.53a7.12,7.12,0,0,0,6.25-4.45,11.65,11.65,0,0,0,.84-6.32c-.31-1.59-2-6.57-6.93-5,0,0-4,1.28-4,7.67C346.28,204.13,349.38,206.39,350.14,206.53Z"/><path class="cls-22" d="M357,198.58s1.75-1.78,2.51-.92-.75,4-3.31,3.06Z"/><path class="cls-59" d="M348.88,196c-.23.19-.54-.37-1.42-.44-.72,0-1,.66-1.13.57s.23-1.22,1.32-1.14C348.93,195.05,349,195.84,348.88,196Z"/><path class="cls-59" d="M351.68,196.24c.23.24.92-.41,2.08-.15.91.2,1.58.86,1.7.77s-.52-1.32-2-1.52C352.12,195.17,351.46,196,351.68,196.24Z"/><path class="cls-24" d="M347.16,197.35a.79.79,0,0,0,.42.83c.27.1.52-.12.56-.48a.79.79,0,0,0-.42-.83C347.45,196.77,347.2,197,347.16,197.35Z"/><path class="cls-24" d="M348.88,198a1.69,1.69,0,0,0-1-.84c-.55-.18-.61.37-1.12.38a.56.56,0,0,1-.48-.53.29.29,0,0,0,.4.1c.19-.11.67-.73,1.35-.53A1.15,1.15,0,0,1,348.88,198Z"/><path class="cls-24" d="M352.31,198a.71.71,0,0,1,.38-.86c.29-.07.58.19.66.6a.71.71,0,0,1-.39.85C352.67,198.71,352.38,198.44,352.31,198Z"/><path class="cls-24" d="M351.87,197.91a1.42,1.42,0,0,1,1.33-.24c.65.14.62.52,1.11.76a.63.63,0,0,0,.76-.26.33.33,0,0,1-.45-.13,2.22,2.22,0,0,0-1.26-1A1.17,1.17,0,0,0,351.87,197.91Z"/><path class="cls-25" d="M358.7,199.48c-.38.47-1,.66-1.2.47s-.11-.73.27-1.2.88-.7,1.11-.51S359.08,199,358.7,199.48Z"/><path class="cls-25" d="M349.68,201.57l-.26-.06a2.28,2.28,0,0,1-.7-.3,1.38,1.38,0,0,1-.4-.37,1.12,1.12,0,0,1-.14-.29.47.47,0,0,1,0-.17.41.41,0,0,1,0-.11.15.15,0,0,1,0-.06v0h0l0,0a.31.31,0,0,1,.1-.12l.08-.06.12-.07.24-.15a3.19,3.19,0,0,0,.43-.32,2.1,2.1,0,0,0,.57-.85,2.23,2.23,0,0,0,.08-.91,3.27,3.27,0,0,0-.15-.66l-.09-.24h0a.1.1,0,0,1,.05-.11.09.09,0,0,1,.11,0l.11.24a4.9,4.9,0,0,1,.21.69,2.45,2.45,0,0,1,0,1,2.3,2.3,0,0,1-.59,1.05,3.31,3.31,0,0,1-.45.4l-.24.17-.1.08,0,0s0-.07,0,0l0,0h0v0a.19.19,0,0,1,0,.08.77.77,0,0,0,.07.17,1.13,1.13,0,0,0,.24.29,2.38,2.38,0,0,0,.55.32l.24.08a.15.15,0,0,1,.1.19.14.14,0,0,1-.16.1Z"/><path class="cls-59" d="M349.58,189.71c-.1,3.35,6,4,6.74,6.63,0,0,.05,1.67,1,1.89l1.26-1.21s.17-4.19-1.63-6.18C354.54,188.14,350,186.9,349.58,189.71Z"/><path class="cls-26" d="M352.57,202.32a17.43,17.43,0,0,1-2.12.26,8.36,8.36,0,0,1-1.89-.11s.67,2,2.15,1.91S352.57,202.32,352.57,202.32Z"/><path class="cls-27" d="M350.6,203.35c-1.09.12-1.25-.46-1.25-.46a8.29,8.29,0,0,0,1.38,0,9.88,9.88,0,0,0,1.29-.17A2.21,2.21,0,0,1,350.6,203.35Z"/><path class="cls-66" d="M352.73,185.18a1.76,1.76,0,0,0-.57,1.13,1.47,1.47,0,0,0,.22,1.27.24.24,0,0,0,.24.07.25.25,0,0,0,.19-.3c0-.1-.12-.19-.15-.28a1,1,0,0,1-.07-.39,2.81,2.81,0,0,1,.1-.81,4.21,4.21,0,0,0,.16-.61.09.09,0,0,0-.12-.08Z"/><path class="cls-66" d="M355.15,185.41a2.11,2.11,0,0,0-1.49.35,1.89,1.89,0,0,0-1,1.24.31.31,0,0,0,.11.29.3.3,0,0,0,.43-.06c.08-.09.09-.26.15-.37a1.35,1.35,0,0,1,.3-.37,3.33,3.33,0,0,1,.84-.56,5.66,5.66,0,0,0,.7-.34.11.11,0,0,0,0-.18Z"/><path class="cls-45" d="M345.19,270.21c-.9,0-1.41-.15-1.79-.7a5.06,5.06,0,0,1-.33-2.22.24.24,0,0,1,.09-.17.24.24,0,0,1,.19,0,9.93,9.93,0,0,0,6.94-.44.21.21,0,0,1,.29.1.22.22,0,0,1-.1.29,10.92,10.92,0,0,1-3.47.89,11.58,11.58,0,0,1-3.51-.35,4.08,4.08,0,0,0,.26,1.68c.4.59,1,.57,3,.45l1.6-.1c1.94-.09,3.3-1.07,3.49-2a.92.92,0,0,0-.6-1,.22.22,0,0,1-.1-.29.23.23,0,0,1,.29-.1,1.35,1.35,0,0,1,.83,1.52c-.22,1-1.66,2.21-3.89,2.32-.61,0-1.13.06-1.59.09C346.13,270.18,345.62,270.21,345.19,270.21Z"/><path class="cls-45" d="M351.32,266.63h-.07a.22.22,0,0,1-.14-.28s1.58-5.12-.9-14.75c-.48-2.15-1.47-6.39-2.66-10.64a.22.22,0,0,1,.42-.11c1.19,4.25,2.18,8.5,2.67,10.65,2.51,9.76.95,14.78.88,15A.21.21,0,0,1,351.32,266.63Z"/><path class="cls-45" d="M349.52,247.83h0a.22.22,0,0,1-.17-.26,17.43,17.43,0,0,0,.36-4.61.22.22,0,0,1,.17-.26.22.22,0,0,1,.25.17,16.92,16.92,0,0,1-.36,4.79A.21.21,0,0,1,349.52,247.83Z"/><path class="cls-45" d="M339.58,238.4a.25.25,0,0,1-.17-.08.23.23,0,0,1,0-.31,3.21,3.21,0,0,0,.68-2.22.21.21,0,0,1,.22-.21h0a.21.21,0,0,1,.22.21,3.67,3.67,0,0,1-.84,2.56A.24.24,0,0,1,339.58,238.4Z"/><path class="cls-11" d="M321.17,246.27a.19.19,0,0,1-.1,0c-.77-.39-1.73-1.12-1.9-1.9a.21.21,0,0,1,.17-.25.21.21,0,0,1,.26.16c.13.59.95,1.24,1.67,1.61a.2.2,0,0,1,.09.29A.21.21,0,0,1,321.17,246.27Z"/><path class="cls-67" d="M358.66,196a3.15,3.15,0,0,1-1.68-.45.21.21,0,0,1-.08-.29.21.21,0,0,1,.3-.08,3.06,3.06,0,0,0,2.1.35.21.21,0,0,1,.24.19.22.22,0,0,1-.2.24A5.38,5.38,0,0,1,358.66,196Z"/><path class="cls-67" d="M359.9,194.65a13.22,13.22,0,0,1-8-3.1,3.42,3.42,0,0,1-1.1-1.88.21.21,0,0,1,.2-.23.2.2,0,0,1,.23.2,3.12,3.12,0,0,0,1,1.59,12.58,12.58,0,0,0,8,3,.22.22,0,0,1,0,.43Z"/><path class="cls-67" d="M363.06,206h0a.23.23,0,0,1-.19-.25,2.94,2.94,0,0,0-.31-1.32,4.56,4.56,0,0,1-.34-1.15,7.76,7.76,0,0,1,.16-2.06,11.09,11.09,0,0,0,.16-1.29,8.62,8.62,0,0,0-.32-2.48l-.05-.24a.22.22,0,0,1,.16-.26.21.21,0,0,1,.26.16l.06.25A9.68,9.68,0,0,1,363,200a11.4,11.4,0,0,1-.17,1.34,7.56,7.56,0,0,0-.16,2,4.25,4.25,0,0,0,.31,1,3.19,3.19,0,0,1,.34,1.54A.21.21,0,0,1,363.06,206Z"/><path class="cls-67" d="M360.94,200.55l-.1,0a.22.22,0,0,1-.09-.3,3.37,3.37,0,0,0-.12-2.42.22.22,0,0,1,.12-.28.23.23,0,0,1,.29.12,3.75,3.75,0,0,1,.09,2.79A.21.21,0,0,1,360.94,200.55Z"/><path class="cls-67" d="M358.5,206.68a.23.23,0,0,1-.2-.13,6.55,6.55,0,0,1,.33-4.74.22.22,0,0,1,.29-.1.23.23,0,0,1,.1.3,6.05,6.05,0,0,0-.32,4.36.22.22,0,0,1-.11.29Z"/><path class="cls-67" d="M360,206.73a.19.19,0,0,1-.17-.08,2.66,2.66,0,0,1-.34-1.9l0-.2a.22.22,0,1,1,.43,0v.2a2.34,2.34,0,0,0,.23,1.6.21.21,0,0,1,0,.31A.22.22,0,0,1,360,206.73Z"/><path class="cls-67" d="M360.62,192.37a.22.22,0,0,1-.22-.21,3.15,3.15,0,0,0-.65-2,.21.21,0,0,1,.32-.28,3.52,3.52,0,0,1,.76,2.3.22.22,0,0,1-.2.23Z"/><path class="cls-67" d="M357.15,188.25l-.08,0a7.13,7.13,0,0,0-4.27,0,.23.23,0,0,1-.26-.17.22.22,0,0,1,.17-.26,7.7,7.7,0,0,1,4.51.06.22.22,0,0,1,.13.28A.21.21,0,0,1,357.15,188.25Z"/><path class="cls-67" d="M344.41,205.11h-.05a.22.22,0,0,1-.17-.26,7.68,7.68,0,0,0,.14-1.68c0-.23,0-.46,0-.69a6,6,0,0,1,.49-1.93c.09-.26.19-.53.28-.81a.21.21,0,0,1,.27-.14.2.2,0,0,1,.14.27c-.08.29-.19.56-.29.83a6,6,0,0,0-.46,1.8c0,.23,0,.45,0,.68a8.82,8.82,0,0,1-.15,1.77A.23.23,0,0,1,344.41,205.11Z"/><path class="cls-67" d="M345.54,205.6a.19.19,0,0,1-.1,0,.23.23,0,0,1-.09-.29,3.27,3.27,0,0,0,.25-1.57v-.07a.21.21,0,0,1,.22-.21.21.21,0,0,1,.21.21v.07a3.74,3.74,0,0,1-.29,1.77A.24.24,0,0,1,345.54,205.6Z"/><path class="cls-67" d="M346.14,193.88h0a.22.22,0,0,1-.21-.23,4.35,4.35,0,0,1,3.55-4.21.22.22,0,0,1,.25.18.22.22,0,0,1-.18.25,3.89,3.89,0,0,0-3.18,3.81A.22.22,0,0,1,346.14,193.88Z"/><path class="cls-6" d="M330.58,210.43c0,.73-3.81-.42-7-1.2s-5.43-1.43-5.95-1.93.65-3.34,1.62-4.6,2.19-2.27,2.75-2.12,2.65,2.6,4.52,4.52C327.86,206.46,330.6,209.7,330.58,210.43Z"/><path class="cls-37" d="M322.37,200.07c.55.8-.62.8-2.53,3.47s-1.51,4.35-2.56,4c-1.26-.41.12-3.48,1-4.89S321.53,198.86,322.37,200.07Z"/><path class="cls-37" d="M319.49,206.44h-.07a.21.21,0,0,1-.13-.28,12.16,12.16,0,0,1,2.43-3.72.22.22,0,0,1,.32.3,12.08,12.08,0,0,0-2.35,3.57A.2.2,0,0,1,319.49,206.44Z"/><path class="cls-37" d="M328.79,209.66a5.63,5.63,0,0,1-1.81-.34.22.22,0,0,1-.13-.28.21.21,0,0,1,.28-.12,5.63,5.63,0,0,0,1.66.31.21.21,0,0,1,.22.21A.22.22,0,0,1,328.79,209.66Z"/><path class="cls-68" d="M321.56,206.84c.64.71-1.09,2.71-2,2S320.88,206.08,321.56,206.84Z"/><path class="cls-68" d="M322.85,207.74c.64.83-1.5,2.85-2.4,2S322.16,206.86,322.85,207.74Z"/><path class="cls-68" d="M323.56,208.81c.58.69-1.12,2.48-1.93,1.77S322.94,208.08,323.56,208.81Z"/><path class="cls-69" d="M222.46,270.56a33.63,33.63,0,0,1,.64,7.34l2.2,1.09a1,1,0,0,0,1-1.08c.07-1.09.81-3.11,1.41-6.2Z"/><path class="cls-21" d="M226.29,278.07c-.39-.29-.34.25-.73.3s-.49-1.12-1.91-1.19c-.89,0-.69.56-1.19,1a4.89,4.89,0,0,1-2.05.88c-.54.18-3.77.71-2.83,1.75s8.91.78,9.16.13a3.93,3.93,0,0,0-.11-1.3C226.49,278.6,226.6,278.29,226.29,278.07Z"/><path class="cls-70" d="M240,270.56a36.9,36.9,0,0,1,1.91,7.34l2.4,1.09s.9,0,.78-1.08.27-3.11.34-6.2Z"/><path class="cls-21" d="M245.1,278.07c-.44-.29-.29.25-.67.3s-.46-1.12-1.89-1.19c-.9,0-.82.56-1.24,1s-.55,1.05-1.25,1.3c-.51.17-1.84,1.27-.06,1.78,1.43.41,5.56.33,5.75-.32a3.94,3.94,0,0,0-.22-1.3C245.28,278.6,245.45,278.29,245.1,278.07Z"/><path class="cls-6" d="M218.36,208.51c.17,3.22-.5,24.61-.5,34.12s.34,15.62.5,20.21S219,274,219,274s5.78,2.21,10.7.68c0,0,1.19-13.41,1.36-20.88s.68-7.81.85-10.36S236,214.11,236,214.11l-1.7-7.81Z"/><path class="cls-6" d="M226.51,209.69l.17,8.66,2.38.68s2.89,17.32,3.57,23.09,2.2,15.62,2.71,20.55,2.21,12.22,2.21,12.22,7.47,1.87,10.7-.68c0,0-.51-25-1-31.58s-1-22.58-.85-26.65,0-10.7,0-10.7L235,204.43Z"/><path class="cls-37" d="M243,275.81a8.86,8.86,0,0,0,5.4-1.4.25.25,0,1,0-.31-.4c-2.85,2.25-9.26.91-10.33.67-.24-1.08-1.7-7.58-2.16-12-.28-2.67-.87-6.86-1.43-10.92-.48-3.43-1-7-1.29-9.63-.67-5.71-3.54-22.93-3.57-23.1a.22.22,0,0,0-.18-.2l-2.2-.63-.16-8.47a.23.23,0,0,0-.26-.25.26.26,0,0,0-.25.26l.17,8.66a.26.26,0,0,0,.18.24l2.23.63c.29,1.76,2.9,17.52,3.53,22.92.31,2.65.81,6.21,1.29,9.64.57,4.05,1.15,8.24,1.43,10.9A124.46,124.46,0,0,0,237.3,275a.28.28,0,0,0,.19.19A25.84,25.84,0,0,0,243,275.81Z"/><path class="cls-37" d="M237.13,248a.27.27,0,0,0,.12,0,.25.25,0,0,0,.1-.35,11.47,11.47,0,0,1-1.39-6.1.26.26,0,0,0-.24-.27c-.16,0-.26.1-.27.24a12,12,0,0,0,1.46,6.38A.25.25,0,0,0,237.13,248Z"/><path class="cls-37" d="M242.73,245.44a.25.25,0,0,0,.23-.15,3.67,3.67,0,0,0,.29-2.33.27.27,0,0,0-.3-.2.26.26,0,0,0-.2.3,3.23,3.23,0,0,1-.24,2,.25.25,0,0,0,.11.34Z"/><path class="cls-37" d="M223.24,246.45a.25.25,0,0,0,.22-.13,4.07,4.07,0,0,0,.44-2.86.26.26,0,0,0-.5.11,3.52,3.52,0,0,1-.38,2.5.26.26,0,0,0,.09.35A.31.31,0,0,0,223.24,246.45Z"/><path class="cls-37" d="M226.68,218.61a.26.26,0,0,0,.25-.19.25.25,0,0,0-.18-.31l-1.91-.55a.25.25,0,0,0-.31.17.26.26,0,0,0,.17.32l1.91.55Z"/><path class="cls-37" d="M229.36,221.24a.26.26,0,0,0,0-.51,10.76,10.76,0,0,1-3.35-.62.26.26,0,0,0-.18.48A11.15,11.15,0,0,0,229.36,221.24Z"/><path class="cls-37" d="M227.07,275.36a.25.25,0,0,0,.25-.23c1.38-14,1.78-28.65,1.78-28.8l1.91-17a.24.24,0,0,0-.22-.28.25.25,0,0,0-.28.22L228.6,246.3c0,.16-.4,14.81-1.79,28.78a.26.26,0,0,0,.23.28Z"/><path class="cls-37" d="M225.86,275.52a13.25,13.25,0,0,0,4-.56.25.25,0,0,0,.17-.22c0-.13,1.19-13.5,1.36-20.9a57.54,57.54,0,0,1,.6-8.24,19.25,19.25,0,0,0,.25-2.1c0-.39.15-1.4.35-3a.26.26,0,0,0-.22-.29.27.27,0,0,0-.28.22c-.21,1.64-.33,2.63-.36,3-.05.81-.14,1.39-.24,2.06a56.56,56.56,0,0,0-.61,8.31c-.15,6.92-1.2,19.11-1.34,20.7-4.75,1.38-10.31-.71-10.37-.73a.25.25,0,0,0-.32.15.25.25,0,0,0,.14.33A21.37,21.37,0,0,0,225.86,275.52Z"/><path class="cls-37" d="M244.48,211.82a11.36,11.36,0,0,1-6.13-2.75.25.25,0,0,1-.07-.26.25.25,0,0,1,.2-.17l6.12-1a.29.29,0,0,1,.2,0,.24.24,0,0,1,.09.18,20,20,0,0,1-.13,3.75.26.26,0,0,1-.25.22Zm-5.37-2.77a11.17,11.17,0,0,0,5.18,2.23,20.87,20.87,0,0,0,.11-3.11Z"/><path class="cls-71" d="M235.59,153s-.38,5.05.26,7,4.53,4.75,4.53,4.75-10.56,8.71-18.69,0c0,0,3.52-1.14,4-2.43.52-1.5.19-5.08.19-5.08l7.95-4.57Z"/><path class="cls-10" d="M225.8,161.8a21.47,21.47,0,0,0,.06-4.55l7.95-4.57,1.78.35s-.15,2-.1,4a9.14,9.14,0,0,1-3.68,4.44A6.38,6.38,0,0,1,225.8,161.8Z"/><path class="cls-41" d="M253.22,196s.34,4.88-1.82,6.6a11.61,11.61,0,0,1-5.41,2l-.51-6.16Z"/><path class="cls-41" d="M242.22,165.13s2.21-.94,5.35,1.1,4.58,9.34,4.58,9.34l-10.53-7.47Z"/><path class="cls-21" d="M235.34,164.28a9,9,0,0,1-6.62,2.29c-4.41-.08-5.18-3.06-5.18-3.06l-3.48,3.57-2.2,23.26s-.09,7.89-.09,10.53-.25,6.62,0,7.38,3.4,2,8.49,1.87,10.2-2.64,13-3.27c3.82-.85,6.75,0,7.68-1.23.52-.66.26-4.67.26-4.67Z"/><path class="cls-16" d="M227.12,181.3c.33,0,.65,0,1-.05a.26.26,0,0,0-.05-.51,10.32,10.32,0,0,1-4.79-.7.25.25,0,1,0-.19.47A10.83,10.83,0,0,0,227.12,181.3Z"/><path class="cls-16" d="M226.11,182.74a5.28,5.28,0,0,0,1.31-.16.25.25,0,0,0,.18-.3.26.26,0,0,0-.31-.19,5,5,0,0,1-3.06-.22.25.25,0,1,0-.19.47A5.45,5.45,0,0,0,226.11,182.74Z"/><path class="cls-16" d="M225.34,210.39l.93,0a34.19,34.19,0,0,0,9.8-2.26c1.29-.44,2.39-.81,3.28-1a22.81,22.81,0,0,1,4.38-.46c1.65-.06,2.85-.11,3.44-.86s.36-4.16.31-4.85a.23.23,0,0,0-.27-.23.26.26,0,0,0-.24.27c.11,1.62.12,4.09-.2,4.49-.45.57-1.54.61-3.06.67a23.36,23.36,0,0,0-4.48.47c-.9.2-2,.59-3.32,1a34.29,34.29,0,0,1-9.66,2.23c-5.25.19-8.06-1.15-8.24-1.69a26.07,26.07,0,0,1,0-4.31c0-1,.06-2.09.06-3a.26.26,0,0,0-.26-.26.26.26,0,0,0-.25.26c0,.89,0,1.94-.06,3a22.3,22.3,0,0,0,.07,4.49C217.82,209.22,220.74,210.39,225.34,210.39Z"/><path class="cls-72" d="M190.35,170.65a7.91,7.91,0,0,1-3.9-2.47l2.63-3.56L192,168.1Z"/><rect class="cls-7" x="175.88" y="152.1" width="13.71" height="18.97"/><rect class="cls-19" x="187.59" y="152.1" width="1.99" height="18.97"/><rect class="cls-40" x="177.92" y="155.62" width="7.6" height="11.92"/><path class="cls-14" d="M217.94,166c-2.89,1.44-7.3,11.63-13.75,14.68,0,0-3.57-5.35-4.67-5.85,0,0-5.69,4-6.45,5.17s4.16,12.06,11,12.48,12.06-3.56,12.91-5S217.94,166,217.94,166Z"/><path class="cls-15" d="M205.12,192.75c6.36,0,11.19-3.62,12.11-5.17a.26.26,0,0,0-.44-.26c-.89,1.51-6.11,5.31-12.67,4.89-4.14-.26-7.71-4.47-9.66-8.33-1.12-2.21-1.32-3.54-1.18-3.76a.26.26,0,0,0-.07-.35.26.26,0,0,0-.36.08c-.41.64.36,2.7,1.15,4.26,2,4,5.73,8.34,10.09,8.61C204.43,192.74,204.78,192.75,205.12,192.75Z"/><path class="cls-14" d="M232.37,201.88c.17,1.62-.17,2.38.6,2.72s7.55,1.1,10.95.17,4-1.53,4.24-2.63a33.94,33.94,0,0,0,.09-5Z"/><path class="cls-15" d="M232.86,204.83c-.67-.3-.68-.87-.68-1.67,0-.35,0-.76-.06-1.25a.26.26,0,0,1,.18-.27l15.87-4.75a.28.28,0,0,1,.22,0,.24.24,0,0,1,.11.2,33.39,33.39,0,0,1-.09,5.08c-.29,1.26-1,1.88-4.43,2.82a18.18,18.18,0,0,1-4.54.46A28.05,28.05,0,0,1,232.86,204.83Zm-.22-2.76c0,.42,0,.79.05,1.09,0,.79,0,1.05.38,1.21.63.28,7.33,1.1,10.78.16s3.84-1.49,4.06-2.45a29.36,29.36,0,0,0,.09-4.61Z"/><path class="cls-14" d="M235.28,179.22h-3.5a70.44,70.44,0,0,1,.76-8.21c.77-4.08,4.2-7.58,4.2-7.58a20.53,20.53,0,0,1,4.21,1.21C242.09,165.28,235.28,179.22,235.28,179.22Z"/><path class="cls-14" d="M241,166.87l2.8-1.28s5,1.66,9.8,10.7c2.09,3.91,3.26,6.58,3.71,8.79l-11.73,2.29-6.37-8.15h-1.27v-5.86Z"/><path class="cls-41" d="M235.28,179.22h3.31a18.55,18.55,0,0,1,1.27-7.83c1.66-4.33,3.89-5.8,3.89-5.8a4.49,4.49,0,0,0-2.87-1.21c-1.65,0-3.75,3-4.71,6.63A36.55,36.55,0,0,0,235.28,179.22Z"/><path class="cls-14" d="M232.86,169.67a14.14,14.14,0,0,1,4.2-2.87c1.83-.74,6.05-.76,6.62-2.22s-3-4.08-7.83-4.59a5.94,5.94,0,0,1-.38,3C234.88,164.63,233.56,166.42,232.86,169.67Z"/><path class="cls-73" d="M197.65,172.94s-3.23-4.77-4.24-6.2a13.2,13.2,0,0,0-3.4-3.14c-1.61-1.19-2.69-2.28-3-1.61-.42,1,1,2,1.7,3,.43.65.42,2.38,1.78,3.48a3.26,3.26,0,0,0-.17,2.13c.94,1.18,1.53,5,2.38,6.87Z"/><polygon class="cls-19" points="243.62 184.3 243.62 179.22 227.19 179.22 227.19 202.14 243.62 202.14 243.62 184.3"/><polygon class="cls-7" points="243.62 184.3 243.62 179.22 227.19 179.22 227.19 202.14 243.62 202.14 243.62 184.3"/><polygon class="cls-19" points="228.98 184.3 228.98 179.22 227.19 179.22 227.19 202.14 228.98 202.14 228.98 184.3"/><rect class="cls-36" x="230.63" y="183.17" width="14.9" height="18.97"/><rect class="cls-37" x="230.63" y="183.17" width="1.99" height="18.97"/><path class="cls-74" d="M238.46,193a6.37,6.37,0,0,1-2.93,0c-.7-.19-1.4-1.84-2.22-2.8s-2.49-1.91-2.93-1.59.89,1.65,1.14,2.16.58.77.13,1a5.25,5.25,0,0,1-3.06-.44c-1.08-.45-2.42-.83-2.48-.13s2.1,1.53,2.1,1.85-2.48-.9-2.67.06,2.54,1.34,2.54,1.72-1.71-.38-1.78.32.7,1.52,5,2.54a67.45,67.45,0,0,0,8.53,1.4Z"/><path class="cls-14" d="M240.82,191.32s1.14-.77,2.29-1.66a23,23,0,0,0,2.42-2.29q5.86-4.22,11.73-2.29c.59,2.89,0,5-1.42,8-1.76,3.9-7.76,7.64-12.22,7.38l-3.18-4.83Z"/><path class="cls-14" d="M240.82,191.32l-2.93.63s.51,3.44.89,5.22a14.39,14.39,0,0,0,1.4,3.57l3.44-.26s-1-3.18-1.66-5.09S240.82,191.32,240.82,191.32Z"/><path class="cls-14" d="M224.31,162.92a11.92,11.92,0,0,0-2.63,6.28,77.63,77.63,0,0,0-.26,14.69c.34,3.48.6,10.44.6,14.34s-.17,5.35-1.28,5.86a5.23,5.23,0,0,1-4.58-1.19c-.68-.93-.09-8.06.08-11.88s-.08-12.14,0-16.55a27.7,27.7,0,0,1,1.7-8.49A22.43,22.43,0,0,1,224.31,162.92Z"/><path class="cls-14" d="M221.68,169.2c.34-2.29,1-4.43,3.09-5.77,1.52-1,1.21-3.12,1.21-3.12-3.37,0-7.06,2-7.06,3.69S221.21,165.28,221.68,169.2Z"/><path class="cls-14" d="M199.52,174.81a12.23,12.23,0,0,0-1.7-2.3,27.29,27.29,0,0,0-4.07,2.8c-1.36,1.28-2,2-2,2a10.07,10.07,0,0,0,1.28,2.71A72,72,0,0,0,199.52,174.81Z"/><path class="cls-15" d="M240,200.85a24.75,24.75,0,0,1-1.41-3.61,41.43,41.43,0,0,1-.9-5.26.25.25,0,0,1,.2-.28l2.92-.63a.25.25,0,0,1,.3.17s.65,1.94,1.15,4.09a47.18,47.18,0,0,0,1.65,5.06.24.24,0,0,1,0,.23.25.25,0,0,1-.19.12l-3.44.25h0A.27.27,0,0,1,240,200.85Zm1.77-5.4c-.41-1.71-.89-3.28-1.07-3.84l-2.48.54a38.08,38.08,0,0,0,.86,4.95,23.3,23.3,0,0,0,1.3,3.37l2.93-.21A43.59,43.59,0,0,1,241.72,195.45Z"/><path class="cls-15" d="M240.44,198.67a.59.59,0,0,0,.63.66.63.63,0,0,0,0-1.26A.59.59,0,0,0,240.44,198.67Z"/><path class="cls-15" d="M244,200.75c4.42,0,10.26-3.62,12-7.55,1.41-3.13,2-5.26,1.43-8.17a46.94,46.94,0,0,0-3.74-8.86c-3.24-5.73-6.43-9.24-9.75-10.72a.25.25,0,1,0-.21.46c3.22,1.44,6.34,4.88,9.52,10.51a46.58,46.58,0,0,1,3.68,8.73c.57,2.76,0,4.81-1.4,7.84-1.76,3.9-7.68,7.48-12,7.24-.16,0-.26.1-.26.24a.25.25,0,0,0,.23.27Z"/><path class="cls-15" d="M240.82,191.57a.23.23,0,0,0,.14,0c.06,0,1.55-1,2.31-1.67s2.37-2.24,2.44-2.31,3.19-3.38,6.82-2.65a.27.27,0,0,0,.3-.2.27.27,0,0,0-.2-.3c-3.92-.78-7.15,2.65-7.29,2.8s-1.65,1.64-2.39,2.27-2.26,1.62-2.27,1.63a.26.26,0,0,0-.07.36A.26.26,0,0,0,240.82,191.57Z"/><path class="cls-15" d="M245.53,187.62a.26.26,0,0,0,.24-.16,8.48,8.48,0,0,1,2.42-3.24.26.26,0,0,0,0-.36.25.25,0,0,0-.35-.05,9,9,0,0,0-2.59,3.47.26.26,0,0,0,.15.33Z"/><path class="cls-15" d="M221.42,169.46h0a.24.24,0,0,0,.22-.28,5.5,5.5,0,0,0-1.78-3.85c-.43-.43-.72-.7-.72-1.32,0-1.49,3.25-3.49,6.57-3.49a.25.25,0,1,0,0-.5c-3.44,0-7.08,2.05-7.08,4a2.16,2.16,0,0,0,.87,1.68,5,5,0,0,1,1.64,3.55A.25.25,0,0,0,221.42,169.46Z"/><path class="cls-15" d="M233.12,169.92a.25.25,0,0,0,.19-.09,11.13,11.13,0,0,1,3.85-2.79,14.89,14.89,0,0,1,2.52-.6c1.88-.34,3.82-.69,4.24-1.77a1.54,1.54,0,0,0-.21-1.36c-.88-1.43-3.78-3.1-7.64-3.51a.26.26,0,0,0,0,.51c3.65.38,6.46,2,7.25,3.27a1.06,1.06,0,0,1,.18.9c-.32.82-2.2,1.16-3.86,1.46a14.63,14.63,0,0,0-2.62.63,11.47,11.47,0,0,0-4.05,2.94.26.26,0,0,0,0,.36A.22.22,0,0,0,233.12,169.92Z"/><path class="cls-15" d="M219.79,204.51a2.58,2.58,0,0,0,1.06-.19c1.29-.59,1.42-2.31,1.42-6.09s-.25-10.87-.6-14.37a76.74,76.74,0,0,1,0-14.62.25.25,0,0,0-.21-.29.26.26,0,0,0-.29.22,76.36,76.36,0,0,0,0,14.74c.34,3.48.59,10.43.59,14.32s-.16,5.19-1.13,5.63a5,5,0,0,1-4.27-1.11c-.48-.67-.2-5.71,0-9.05.06-1,.11-1.89.15-2.67.09-2.14.05-5.71,0-9.16,0-2.81-.06-5.46,0-7.4a.26.26,0,0,0-.25-.26h0a.25.25,0,0,0-.25.25c0,1.95,0,4.6,0,7.41,0,3.45.07,7,0,9.14,0,.78-.09,1.69-.14,2.67-.29,5-.45,8.61.1,9.37A5.57,5.57,0,0,0,219.79,204.51Z"/><path class="cls-15" d="M216.24,180.87a.23.23,0,0,0,.14,0,.26.26,0,0,0,.08-.35c-1-1.57-1-4.66-1-4.69a.26.26,0,0,0-.25-.26.23.23,0,0,0-.26.25c0,.13-.05,3.28,1.06,5A.26.26,0,0,0,216.24,180.87Z"/><path class="cls-15" d="M192.86,180.13a10.37,10.37,0,0,1-1.31-2.79.28.28,0,0,1,0-.24s.62-.7,2-2a26.39,26.39,0,0,1,4.13-2.84.26.26,0,0,1,.3,0,12.21,12.21,0,0,1,1.74,2.35.25.25,0,0,1-.05.31,68.71,68.71,0,0,1-6.48,5.2.24.24,0,0,1-.14.05A.26.26,0,0,1,192.86,180.13Zm4.92-7.3a25.33,25.33,0,0,0-3.86,2.67c-1,1-1.63,1.6-1.84,1.83a10.09,10.09,0,0,0,1,2.3,72.47,72.47,0,0,0,6.07-4.87A11.93,11.93,0,0,0,197.78,172.83Z"/><path class="cls-15" d="M205.1,186a.26.26,0,0,0,.26-.25,14.55,14.55,0,0,0-.59-4.31,6.43,6.43,0,0,1,1.5,1.93.27.27,0,0,0,.35.12.26.26,0,0,0,.11-.34,6.51,6.51,0,0,0-2.42-2.68.24.24,0,0,0-.3,0,.26.26,0,0,0,0,.3,12.49,12.49,0,0,1,.89,4.93.25.25,0,0,0,.24.26Z"/><path class="cls-15" d="M204.19,180.92a.24.24,0,0,0,.14,0,42.37,42.37,0,0,0,6-4.92c.89-1,2.09-2.65,3.25-4.26a36.12,36.12,0,0,1,3.83-4.85,14,14,0,0,1,2-1.47.26.26,0,0,0-.26-.44,16.6,16.6,0,0,0-2.11,1.52,37.87,37.87,0,0,0-3.9,4.94c-1.15,1.6-2.34,3.26-3.22,4.22a41.47,41.47,0,0,1-5.68,4.69c-.64-1-3.2-4.69-4.59-5.7a.26.26,0,0,0-.36.06.25.25,0,0,0,.06.35c1.49,1.09,4.57,5.75,4.61,5.79a.21.21,0,0,0,.16.11Z"/><path class="cls-75" d="M240.52,142.09c-.21-1.9-1.43-3.46-2.71-3.73a2.86,2.86,0,0,0-2.4.88c-.85.67-7.2,1.85-7.55,2.85s1.93,2.12,1.83,3.15c-.14,1.33,3.29,1,3.28,2.3a4,4,0,0,0,.68,2.74c.67.72,1.86,1.73,2.82,1.24,0,0,2,.22,3.4-3.83A11.7,11.7,0,0,0,240.52,142.09Z"/><path class="cls-76" d="M235.85,149.91c-1.58-.07-2-2.12-1.61-3.59,0,0-2.87-2.33-2.41-4.69a22.34,22.34,0,0,1-3.54.68l-1.16-1.2c-4.61-.79-4.61,4.85-4.63,9.46,0,2.88.29,6,1.4,8.09s4.5,2.73,7.09,1.08a9.51,9.51,0,0,0,3.89-5.9c1.57.35,2.74-.74,3.3-2.15C239.07,148.66,236.59,148.84,235.85,149.91Z"/><path class="cls-77" d="M229,149.77a.77.77,0,0,0,.77.74.73.73,0,0,0,.65-.82.78.78,0,0,0-.77-.74A.73.73,0,0,0,229,149.77Z"/><path class="cls-77" d="M231.53,150a1.77,1.77,0,0,0-1.73-1.34c-.57-.05-1.09.63-1,1a1.33,1.33,0,0,1,1-.4A6,6,0,0,1,231.53,150Z"/><path class="cls-77" d="M223.1,149.94a.72.72,0,0,0,.71.71.68.68,0,0,0,.6-.79.72.72,0,0,0-.71-.7A.68.68,0,0,0,223.1,149.94Z"/><path class="cls-77" d="M225.34,150.14a1.41,1.41,0,0,0-1.45-1.3,1.11,1.11,0,0,0-1,1.11,1.33,1.33,0,0,1,1-.55A2.54,2.54,0,0,1,225.34,150.14Z"/><path d="M238.05,136.37a2.09,2.09,0,0,1,0,1.52,1.88,1.88,0,0,1-.9,1.3.29.29,0,0,1-.34-.46c.06-.11.22-.16.31-.24a1.51,1.51,0,0,0,.27-.39,3.92,3.92,0,0,0,.31-.95,4.52,4.52,0,0,1,.14-.75.1.1,0,0,1,.17,0Z"/><path class="cls-10" d="M226.51,148a7,7,0,0,1,.46,1.2,5,5,0,0,1,.12.63,2.35,2.35,0,0,1,0,.38,2.38,2.38,0,0,1,0,.36,4.24,4.24,0,0,1-.52,1.51,14,14,0,0,1-.84,1.27,2.11,2.11,0,0,0-.15.23s0,0,0,0a.3.3,0,0,0,0-.13c0,.1,0-.05,0,0a1.06,1.06,0,0,0,.36.21,2.94,2.94,0,0,0,.76.21l.3,0h0a.26.26,0,0,1,.24.3.31.31,0,0,1-.21.24,3.32,3.32,0,0,1-.38.05,2.92,2.92,0,0,1-1-.14,1.71,1.71,0,0,1-.66-.4,1,1,0,0,1-.16-.27.57.57,0,0,1,0-.29.77.77,0,0,1,.06-.15,2.41,2.41,0,0,1,.22-.35,11.46,11.46,0,0,0,.83-1.18,4.54,4.54,0,0,0,.5-1.24,1.57,1.57,0,0,0,0-.33,2.44,2.44,0,0,0,0-.28,4.58,4.58,0,0,0-.07-.55,5.35,5.35,0,0,0-.21-.84l-.1-.31a.23.23,0,0,1,.14-.29A.22.22,0,0,1,226.51,148Z"/><path class="cls-75" d="M234,141.78c-1.63-.37-3.17.35-5.36.94-2.7.74-3.89,1.89-6.88,1.76-1.73-.08-1.16-1.52-1.16-1.52a2,2,0,0,1-1.82-1.88,2.05,2.05,0,0,1,1.61-2.66,2,2,0,0,1,.43-2.3c1.13-.89,2.24.11,3.7,0s2.42-1.35,4.58-1.83a4,4,0,0,1,3.57.88,3.63,3.63,0,0,1,3.43.63,3.51,3.51,0,0,1,1.36,2.64Z"/><path d="M221.65,144.7a1.57,1.57,0,0,1-1.09-.51,1.27,1.27,0,0,1-.2-1.05,2.6,2.6,0,0,1-.21-4.87,2.31,2.31,0,0,1,.56-2.32c1.08-1,2.73-.15,2.8-.12a.23.23,0,0,1-.21.41s-1.44-.71-2.29,0a2,2,0,0,0-.36,2.05.25.25,0,0,1,0,.19.22.22,0,0,1-.15.11,2.13,2.13,0,0,0,.19,4.1.23.23,0,0,1,.16.1.28.28,0,0,1,0,.18,1,1,0,0,0,.06.89,1.22,1.22,0,0,0,.88.34,11.67,11.67,0,0,0,5-1.08c.58-.22,1.19-.44,1.84-.66l.77-.26c2-.66,3.13-1.06,4.71-.69a.23.23,0,0,1,.17.27.23.23,0,0,1-.28.17c-1.45-.34-2.52,0-4.46.68l-.77.26q-1,.33-1.83.66a11.91,11.91,0,0,1-5.14,1.11Z"/><path d="M221.5,142.39a2.36,2.36,0,0,1-.77-.2,1.65,1.65,0,0,1-.89-2,.24.24,0,0,1,.3-.14.23.23,0,0,1,.13.29,1.22,1.22,0,0,0,.66,1.43,2.5,2.5,0,0,0,1.81,0,.23.23,0,0,1,.29.15.24.24,0,0,1-.16.28A3.67,3.67,0,0,1,221.5,142.39Z"/><path d="M222.67,143.47a3.12,3.12,0,0,1-.74-.14.21.21,0,0,1-.14-.28.23.23,0,0,1,.28-.15,3.14,3.14,0,0,0,2.64-.41.22.22,0,0,1,.31.06.22.22,0,0,1-.06.31A3.63,3.63,0,0,1,222.67,143.47Z"/><path d="M236.7,139.12a.22.22,0,0,1-.2-.24,2.78,2.78,0,0,0-1.69-2.76.23.23,0,1,1,.17-.43,3.26,3.26,0,0,1,2,3.22.22.22,0,0,1-.24.21Z"/><path d="M237.16,146.24a2.71,2.71,0,0,1-.69-.13,3.26,3.26,0,0,1-1.87-1.55.23.23,0,0,1,.1-.31.23.23,0,0,1,.31.08,2.73,2.73,0,0,0,3.68,1.17.21.21,0,0,1,.3.1.22.22,0,0,1-.1.3A3.26,3.26,0,0,1,237.16,146.24Z"/><path d="M236.81,147.62a1.69,1.69,0,0,1-1.11-.52.22.22,0,0,1,0-.32.24.24,0,0,1,.33,0c.46.51,1.29.5,2.25,0a.23.23,0,0,1,.31.1.23.23,0,0,1-.1.3A3.17,3.17,0,0,1,236.81,147.62Z"/><path class="cls-10" d="M235.6,151.28c-.36.7-.28,1.4.17,1.58s1.1-.24,1.46-.94.28-1.4-.17-1.58S236,150.59,235.6,151.28Z"/><path d="M225.27,147c0,.44-.74.59-1.48.83-1.1.35-1.37.41-1.5.07-.07-.17,0-1,1.14-1.45C224.81,146,225.29,146.58,225.27,147Z"/><path d="M230.22,147.52c1,.16,1.84.46,2.08.08s0-1.09-1.68-1.54c-.92-.24-2.38-.17-2.48.64S229.16,147.35,230.22,147.52Z"/><path class="cls-77" d="M225.08,156a9.71,9.71,0,0,0,5.08-1.16s-.43,2.16-2.22,2.56A2.61,2.61,0,0,1,225.08,156Z"/><path class="cls-78" d="M226.13,156.33a15.64,15.64,0,0,0,3.54-1,2.7,2.7,0,0,1-1.81,1.63A1.56,1.56,0,0,1,226.13,156.33Z"/></g></g></svg>