<svg id="Camada_1" data-name="Camada 1" xmlns="http://www.w3.org/2000/svg" xmlns:xlink="http://www.w3.org/1999/xlink" viewBox="0 0 742 703.89"><defs><style>.cls-1{fill:#774f4f;}.cls-2,.cls-39{fill:#dfeef4;}.cls-2{opacity:0.5;}.cls-2,.cls-7{isolation:isolate;}.cls-3{fill:#d0864d;}.cls-4{fill:#f9ca87;}.cls-5{fill:#ffdbab;}.cls-6{fill:#b5c8cc;}.cls-10,.cls-7{fill:#67728f;}.cls-43,.cls-7{opacity:0.2;}.cls-8{fill:#d06b1c;}.cls-9{fill:#dd8688;}.cls-11{fill:#5e6682;}.cls-12{fill:#e8e4e3;}.cls-13{fill:#a67171;}.cls-14{fill:#956564;}.cls-15{fill:#d0cccb;}.cls-16{fill:url(#Gradiente_sem_nome);}.cls-17{fill:url(#Gradiente_sem_nome_2);}.cls-18{fill:#96aeb3;}.cls-19{fill:#889da6;}.cls-20{fill:#f3f3f3;}.cls-21{fill:#ffb5a7;}.cls-22{fill:#b44f36;}.cls-23{fill:#85656a;}.cls-24{fill:#de8789;}.cls-25{fill:#c7757c;}.cls-26{fill:#f2eff6;}.cls-27{fill:url(#Gradiente_sem_nome_3);}.cls-28{fill:#686c8a;}.cls-29{fill:#ea6060;}.cls-30{fill:#5e863a;}.cls-31{fill:#c3c0bf;}.cls-32{fill:#a67f6d;}.cls-33{fill:#967363;}.cls-34{fill:#8696ba;}.cls-35{fill:#fbcb8c;}.cls-36{fill:#edba85;}.cls-37{fill:#ffe7ca;}.cls-38{fill:#78aaab;}.cls-40{fill:#666b73;}.cls-41{fill:#bd967e;}.cls-42{fill:#deb69d;}.cls-44{fill:#7380a0;}.cls-45{fill:#c78f8f;}.cls-46{fill:#b3b0af;}.cls-47{fill:#dbd8d7;}.cls-48{fill:url(#Gradiente_sem_nome_4);}.cls-49{fill:#bfbcbb;}.cls-50{fill:url(#Gradiente_sem_nome_5);}.cls-51{fill:#c4c1c0;}.cls-52{fill:url(#Gradiente_sem_nome_6);}.cls-53{fill:#eab250;}.cls-54{fill:url(#Gradiente_sem_nome_7);}.cls-55{fill:#ffb4a6;}.cls-56{fill:#ffd400;}.cls-57{fill:url(#Gradiente_sem_nome_8);}.cls-58{fill:#bf8273;}.cls-59{fill:url(#Gradiente_sem_nome_9);}.cls-60{fill:url(#Gradiente_sem_nome_10);}.cls-61{fill:url(#Gradiente_sem_nome_11);}.cls-62{fill:url(#Gradiente_sem_nome_12);}.cls-63{fill:url(#Gradiente_sem_nome_13);}.cls-64{fill:url(#Gradiente_sem_nome_14);}.cls-65{fill:#be8173;}.cls-66{fill:#aa7668;}.cls-67{fill:#ffb4a5;}.cls-68{fill:url(#Gradiente_sem_nome_15);}.cls-69{fill:url(#Gradiente_sem_nome_16);}.cls-70{fill:url(#Gradiente_sem_nome_17);}.cls-71{fill:url(#Gradiente_sem_nome_18);}.cls-72{fill:url(#Gradiente_sem_nome_19);}.cls-73{fill:url(#Gradiente_sem_nome_20);}.cls-74{fill:#382e2d;}.cls-75{fill:url(#Gradiente_sem_nome_21);}.cls-76{fill:#84656a;}.cls-77{fill:#fff4e9;}</style><linearGradient id="Gradiente_sem_nome" x1="189.75" y1="-1.58" x2="183" y2="11.59" gradientTransform="matrix(1, 0, 0, -1, 0, 413.89)" gradientUnits="userSpaceOnUse"><stop offset="0" stop-color="#ffb7a7"/><stop offset="1" stop-color="#ff9595"/></linearGradient><linearGradient id="Gradiente_sem_nome_2" x1="203.52" y1="-1.59" x2="196.79" y2="11.58" xlink:href="#Gradiente_sem_nome"/><linearGradient id="Gradiente_sem_nome_3" x1="155.98" y1="45" x2="129.65" y2="36.96" xlink:href="#Gradiente_sem_nome"/><linearGradient id="Gradiente_sem_nome_4" x1="511.89" y1="-14.04" x2="504.72" y2="-0.04" gradientTransform="matrix(1, 0, 0, -1, 5.79, 413.89)" xlink:href="#Gradiente_sem_nome"/><linearGradient id="Gradiente_sem_nome_5" x1="475.54" y1="-56.22" x2="469.63" y2="-44.7" xlink:href="#Gradiente_sem_nome"/><linearGradient id="Gradiente_sem_nome_6" x1="426.18" y1="-16.03" x2="428.94" y2="14.72" xlink:href="#Gradiente_sem_nome"/><linearGradient id="Gradiente_sem_nome_7" x1="455.76" y1="49.84" x2="455.22" y2="59.83" xlink:href="#Gradiente_sem_nome"/><linearGradient id="Gradiente_sem_nome_8" x1="482.98" y1="36.45" x2="486.53" y2="76.13" xlink:href="#Gradiente_sem_nome"/><linearGradient id="Gradiente_sem_nome_9" x1="550.56" y1="41.25" x2="550.56" y2="55.99" xlink:href="#Gradiente_sem_nome"/><linearGradient id="Gradiente_sem_nome_10" x1="450.3" y1="-38.77" x2="445.05" y2="-26.53" gradientTransform="matrix(0.99, -0.1, -0.1, -0.99, 59.23, 380.39)" xlink:href="#Gradiente_sem_nome"/><linearGradient id="Gradiente_sem_nome_11" x1="678.06" y1="207.34" x2="659.95" y2="211.07" gradientTransform="matrix(0.96, 0.27, 0.27, -0.96, -153.34, 450.96)" xlink:href="#Gradiente_sem_nome"/><linearGradient id="Gradiente_sem_nome_12" x1="581.25" y1="1060.06" x2="563.17" y2="1063.77" gradientTransform="matrix(0.34, 0.94, 0.94, -0.34, -650.73, 285.84)" xlink:href="#Gradiente_sem_nome"/><linearGradient id="Gradiente_sem_nome_13" x1="449.67" y1="-38.43" x2="444.8" y2="-27.05" gradientTransform="matrix(0.99, -0.1, -0.1, -0.99, 59.23, 380.39)" xlink:href="#Gradiente_sem_nome"/><linearGradient id="Gradiente_sem_nome_14" x1="739.4" y1="444.15" x2="759.11" y2="432.31" gradientTransform="matrix(0.91, 0.42, 0.42, -0.91, -355.45, 445.98)" xlink:href="#Gradiente_sem_nome"/><linearGradient id="Gradiente_sem_nome_15" x1="-165.37" y1="-61.62" x2="-173.58" y2="-45.57" gradientTransform="matrix(-1, 0, -0.63, -1, 146.49, 413.89)" xlink:href="#Gradiente_sem_nome"/><linearGradient id="Gradiente_sem_nome_16" x1="-149.28" y1="-60.7" x2="-157.51" y2="-44.64" gradientTransform="matrix(-1, 0, -0.81, -1, 181.67, 413.89)" xlink:href="#Gradiente_sem_nome"/><linearGradient id="Gradiente_sem_nome_17" x1="-325.75" y1="110.26" x2="-325.75" y2="130.13" gradientTransform="translate(32.88 413.89) rotate(180)" xlink:href="#Gradiente_sem_nome"/><linearGradient id="Gradiente_sem_nome_18" x1="-260.6" y1="97.96" x2="-260.6" y2="111.66" gradientTransform="translate(32.88 413.89) rotate(180)" xlink:href="#Gradiente_sem_nome"/><linearGradient id="Gradiente_sem_nome_19" x1="-255.15" y1="110.01" x2="-276.83" y2="107.48" gradientTransform="translate(32.88 413.89) rotate(180)" xlink:href="#Gradiente_sem_nome"/><linearGradient id="Gradiente_sem_nome_20" x1="-316.42" y1="73.37" x2="-343.6" y2="70.21" gradientTransform="translate(32.88 413.89) rotate(180)" xlink:href="#Gradiente_sem_nome"/><linearGradient id="Gradiente_sem_nome_21" x1="717.08" y1="231.98" x2="710.1" y2="277.95" gradientTransform="matrix(0.91, 0.37, 0.41, -0.94, -395.57, 245.06)" xlink:href="#Gradiente_sem_nome"/></defs><g id="_1" data-name=" 1"><ellipse class="cls-1" cx="371" cy="480.16" rx="362.97" ry="10.18"/><path class="cls-2" d="M145.08,411.34l-33.12-64v-48h7.25V288.41H74.79v10.91H82v48l-33.16,64a6.47,6.47,0,0,0,5.81,9.44h84.7a6.47,6.47,0,0,0,5.69-9.44Z"/><path class="cls-3" d="M127.78,377.88H66.22L48.88,411.34a6.47,6.47,0,0,0,5.81,9.44h84.7a6.47,6.47,0,0,0,5.69-9.44Z"/><path class="cls-4" d="M80.51,385.31a4.13,4.13,0,0,0-4.83,3.27,4,4,0,0,0-.08.91,4.52,4.52,0,0,0,4.33,4.67h.22a4.26,4.26,0,0,0,4.66-3.84,1.23,1.23,0,0,0,0-.19,4.39,4.39,0,0,0-3.92-4.8Z"/><path class="cls-5" d="M124.32,399.82a4.11,4.11,0,0,0-4.83,3.24,3.7,3.7,0,0,0-.08.94,4.49,4.49,0,0,0,4.38,4.59H124a4.25,4.25,0,0,0,4.66-3.8c0-.07,0-.15,0-.22a4.36,4.36,0,0,0-4-4.73Z"/><path class="cls-4" d="M68.31,403.05a2.53,2.53,0,0,0-3,2.54,2.74,2.74,0,0,0,2.7,2.78h.06A2.59,2.59,0,0,0,70.9,406a.45.45,0,0,0,0-.11,2.67,2.67,0,0,0-2.44-2.88Z"/><path class="cls-4" d="M108.19,384a2.53,2.53,0,0,0-3,2.54,2.75,2.75,0,0,0,2.65,2.83H108a2.59,2.59,0,0,0,2.81-2.37.49.49,0,0,0,0-.12,2.65,2.65,0,0,0-2.4-2.87Z"/><path class="cls-4" d="M94.62,393.62c-4.43-.36-8.11,2-8.14,6.92a7.46,7.46,0,0,0,7.29,7.63H94a7,7,0,0,0,7.67-6.38l0-.3a7.25,7.25,0,0,0-6.57-7.85Z"/><path class="cls-6" d="M145.08,411.34l-33.12-64v-48h7.25V288.41H74.79v10.91H82v48l-33.16,64a6.47,6.47,0,0,0,5.81,9.44h84.7a6.47,6.47,0,0,0,5.69-9.44Zm-3.93,4.06a2,2,0,0,1-1.81,1H54.69a2.07,2.07,0,0,1-1.81-3.1l33.66-64.91V299h21.13v49.37l33.67,64.9a2.09,2.09,0,0,1-.14,2.12Z"/><path class="cls-7" d="M145.08,411.34l-33.12-64v-48h7.25V288.41H103.79v10.91H96.55v48l29.31,64a6.46,6.46,0,0,1-5.72,9.49h19.25a6.47,6.47,0,0,0,5.69-9.44Z"/><path class="cls-4" d="M106.26,249.42a4.12,4.12,0,0,0-4.76,3.35,3.78,3.78,0,0,0-.06.82,4.49,4.49,0,0,0,4.38,4.6H106a4.26,4.26,0,0,0,4.66-3.81c0-.07,0-.14,0-.21a4.36,4.36,0,0,0-4-4.74Z"/><path class="cls-4" d="M94.43,239.13h0a4.13,4.13,0,0,1-4.18-4.08v-.14A3.94,3.94,0,0,1,91.48,232a4.55,4.55,0,0,1,6.24.45,4.12,4.12,0,0,1,.92,3A4,4,0,0,1,94.43,239.13Zm-.14-5.33a1.43,1.43,0,0,0-.94.28,1.09,1.09,0,0,0-.29.84,1.32,1.32,0,0,0,1.29,1.36h.05c.82,0,1.31-.37,1.37-1.14a1.12,1.12,0,0,0-.25-.86,1.6,1.6,0,0,0-1-.48Z"/><path class="cls-4" d="M92.73,282.28h-.17a8.85,8.85,0,0,1-8.93-8.8v-.27A8.2,8.2,0,0,1,86.15,267a10.11,10.11,0,0,1,13.62,1,8.74,8.74,0,0,1-7,14.24Zm-.42-14.58a6.22,6.22,0,0,0-4.22,1.43,5.35,5.35,0,0,0-1.56,4.1,6,6,0,0,0,5.82,6.23h.3a5.87,5.87,0,0,0,5-9.53,6.47,6.47,0,0,0-4.5-2.15h0A5.56,5.56,0,0,0,92.31,267.7Z"/><path class="cls-4" d="M92.17,277.19a1.28,1.28,0,0,1-.39,0,4.17,4.17,0,0,1-2.67-2.53,3.33,3.33,0,0,1,.38-3,1.27,1.27,0,1,1,2.1,1.43.73.73,0,0,0,0,.7,1.56,1.56,0,0,0,1,.95,1.26,1.26,0,0,1-.39,2.48Z"/><path class="cls-8" d="M158.64,313.45a27.25,27.25,0,0,1,3.11,12.22c.27,4.21.48,10,.36,14.2-.4,14.43-.31,14.93.94,17.78-2.81-1.68-7.61-3.6-9.92-5.83a17.71,17.71,0,0,1-5-8.07,20.13,20.13,0,0,1,.56-10.47C150.64,326.14,154.6,319.67,158.64,313.45Z"/><path class="cls-8" d="M144.34,336.59c-.48-9.8-4.39-18.35-7.79-27.56a17.41,17.41,0,0,0-5.92,10.55,54.2,54.2,0,0,0-1.56,13.66,25.89,25.89,0,0,0,1.34,7.2c.77,2.19,2.4,4.68,4.82,5.05,1.56,2.17,5.84.67,7.49-1.37S144.47,339.23,144.34,336.59Z"/><path class="cls-8" d="M158.37,324.69s3.58-1.22,1.28-9.06c-1.4-4.67-6.38-9.21-10.65-8.19-2.5-2.06-12.46-1.19-15.67,5.22-4.79,7.79.34,16.39,2.61,18.93a20.93,20.93,0,0,0,4.18,3.74Z"/><path class="cls-9" d="M137.1,344.06c1.56-1.14,3.66-7.33,2-13.9l5.39,1.9,6.35,8.65s-.61,3,.32,3.77c1.83,1.43.3,4.39-5.29,4.43C139.42,349,135.73,345.1,137.1,344.06Z"/><path class="cls-10" d="M167.49,367.84a69.76,69.76,0,0,0-5.24-12.3c-1.34-2.27-9.35-13.18-11.7-7.54a7.17,7.17,0,0,0-.41,2.79,60.32,60.32,0,0,0,4.05,21,13.9,13.9,0,0,0,1.8,3.54,5.39,5.39,0,0,0,3.11,2.15c2.46.43,4.68-1.4,6.5-3.12a6.53,6.53,0,0,0,2.39-3.58A6.74,6.74,0,0,0,167.49,367.84Z"/><path class="cls-10" d="M152,346.6a17.43,17.43,0,0,1-10.62-.31,26,26,0,0,0-5.37-1.78c-3.12-.36-6.13,1.39-8.81,2.95a150.43,150.43,0,0,0-8,21.11,82.12,82.12,0,0,0-1.84,27.06c.26,1.81.36,5.16,1.71,6.37a5.71,5.71,0,0,0,4.07,1.45,31.76,31.76,0,0,0,8.49.09,25.26,25.26,0,0,0,10.43-5,35.64,35.64,0,0,0,10.58-11.28,49.23,49.23,0,0,0,4.24-12.87,41.44,41.44,0,0,0,1.45-9.78C158.26,358.23,155.22,352.21,152,346.6Z"/><path class="cls-11" d="M156.89,374.78h0a.39.39,0,0,1-.27-.43,40.7,40.7,0,0,0,1.45-9.69,23.88,23.88,0,0,0-.9-6.06.36.36,0,0,1,.23-.44.34.34,0,0,1,.42.25h0a23.57,23.57,0,0,1,.94,6.24,41.66,41.66,0,0,1-1.45,9.86A.37.37,0,0,1,156.89,374.78Z"/><path class="cls-11" d="M144.06,371.64l-26.94,11a63.67,63.67,0,0,0,.25,13c.26,1.81.36,5.16,1.71,6.38a5.71,5.71,0,0,0,4.07,1.45,39.17,39.17,0,0,0,6.93.26l21.4-15.07Z"/><path class="cls-12" d="M154.82,361.51l-17.54,19.87,1.64,1.2,18.47,1.28,7.29-2.06L184,362.17l-1-2.32a28.75,28.75,0,0,0-13.13,3.55C165.54,361.42,160.27,361.34,154.82,361.51Z"/><polygon class="cls-13" points="155.5 364.01 137.97 383.39 157.37 386.28 164.67 384.22 185.02 361.79 169.95 365.05 155.5 364.01"/><path class="cls-14" d="M138,383.74a.49.49,0,0,1-.23-.08.35.35,0,0,1,0-.5l17.51-19.39a.34.34,0,0,1,.28-.11l14.4,1,14.71-3.24a.34.34,0,0,1,.41.27.33.33,0,0,1-.23.4h0L170,365.38h-.11l-14.27-1-17.41,19.28A.33.33,0,0,1,138,383.74Z"/><polygon class="cls-14" points="157.37 386.28 164.67 384.22 185.02 361.79 169.95 365.05 154.05 385.89 157.37 386.28"/><path class="cls-12" d="M169.86,363.4a47.9,47.9,0,0,1,9.07-8l.45.34a71.66,71.66,0,0,0-7.47,6.89Z"/><path class="cls-15" d="M167.58,363.8h0a55.23,55.23,0,0,0-9.69-.77h0a.19.19,0,0,1-.19-.16.18.18,0,0,1,.16-.19h0a57.14,57.14,0,0,1,9.77.78.17.17,0,0,1,.14.2h0A.17.17,0,0,1,167.58,363.8Z"/><path class="cls-15" d="M174.05,362.9a.17.17,0,0,1-.06-.34h0s5-1.39,7.79-1.81a.16.16,0,0,1,.2.13h0a.19.19,0,0,1-.14.2h0c-2.72.42-7.69,1.79-7.8,1.81Z"/><path class="cls-16" d="M189,405a43.24,43.24,0,0,0,3,6.78l-1.76,3.43a3.4,3.4,0,0,1-2.57-1.47c-1-1.46-5.36-4.86-7.31-7.34Z"/><path class="cls-12" d="M187.84,414c.7-.58,1.08.54,1.56.29s0-2.55,1.37-3.12,2,.69,2.93,1.56a11.43,11.43,0,0,0,5,2.65c1.08.39,3.54.45,2.84,1.86s-10.91,1.56-11.95.68a7.63,7.63,0,0,1-.94-1.76C188.14,415.23,187.5,414.33,187.84,414Z"/><path class="cls-17" d="M202.82,405a43.29,43.29,0,0,0,3,6.78l-1.76,3.43a3.4,3.4,0,0,1-2.58-1.47c-1-1.46-5.35-4.86-7.31-7.34Z"/><path class="cls-12" d="M201.62,414c.7-.58,1.09.54,1.55.29s0-2.55,1.38-3.12,2,.69,2.93,1.56a11.43,11.43,0,0,0,5,2.65c1.07.39,3.54.45,2.83,1.86s-10.9,1.56-11.95.68a7.56,7.56,0,0,1-.92-1.76C201.93,415.23,201.27,414.33,201.62,414Z"/><path class="cls-18" d="M127.19,402.05s-.94,11.27,5.68,15.68c1.72,1.15,8,.87,11.71.68,14-.68,19.53-8,34-26,0,0,8.61,11.83,17.8,19.06a12.29,12.29,0,0,0,8.73-5.28s-5.89-12.81-10.44-21.41-8.4-16-14-17.07c-4.68-.84-9.35,1.39-25.84,16.55,0,0-7.07,6.24-10,9.35a56.09,56.09,0,0,1-9.65,7.06A11.53,11.53,0,0,1,127.19,402.05Z"/><path class="cls-19" d="M196.38,411.87a.41.41,0,0,1-.22,0c-9.12-7.17-17.78-19-17.86-19.13a.35.35,0,0,1,.07-.48h0a.36.36,0,0,1,.48.08c0,.11,8.62,11.78,17.63,18.9a12.25,12.25,0,0,0,8.34-5.12.32.32,0,0,1,.46,0l0,0a.32.32,0,0,1,0,.46h0a12.5,12.5,0,0,1-9,5.43Z"/><path class="cls-12" d="M146.34,345.27l-3.77,4.79s4.58,1.34,7.4-.17Z"/><path class="cls-20" d="M138.47,339.77l7.79,5.5-3.66,6a19.25,19.25,0,0,1-8.43-7.79Z"/><path class="cls-20" d="M146.34,345.27l3.66,5.4a10.14,10.14,0,0,0,3.88-4.68l-2.77-4.05Z"/><path class="cls-6" d="M119.08,402.05s3.45,17.06,17.41,16.36,17.91-6,32.38-23.94a87.54,87.54,0,0,0,13.78,18.08,17.16,17.16,0,0,0,10.52-5.67s-4.32-11-7.93-19.64-7.06-18.43-12.75-19.48c-4.68-.84-9.35,1.39-25.84,16.55,0,0-7.06,6.24-10,9.35a56.62,56.62,0,0,1-9.65,7.06A11.55,11.55,0,0,1,119.08,402.05Z"/><path class="cls-10" d="M126.5,372.86a17.34,17.34,0,0,1,8.09-2.93c2.8-.36,5.64.22,7.09,2.65a6,6,0,0,1,.45,4.67,16.15,16.15,0,0,1-2.6,5.07,20.52,20.52,0,0,1-13.15,6.84c-4.15.67-8.87,0-11.65-3.26a13.74,13.74,0,0,1-2.83-7.48,31.43,31.43,0,0,1,15.27-31,35.81,35.81,0,0,1,7.23,13A35.24,35.24,0,0,0,126.5,372.86Z"/><path class="cls-21" d="M151.19,341.33A12.46,12.46,0,0,1,140.78,333a20,20,0,0,1-.81-11.08c.7-2.73,4.09-11.24,12.56-8,0,0,6.87,2.63,6.23,13.74C158.14,337.55,152.51,341.16,151.19,341.33Z"/><path class="cls-21" d="M140.14,326.81s-2.86-3.29-4.27-1.87c-1.66,1.67.9,7,5.44,5.65Z"/><path class="cls-22" d="M154.43,323.1c.39.36,1-.58,2.51-.61,1.26,0,1.7,1.26,1.91,1.11s-.28-2.14-2.18-2.12C154.43,321.49,154.19,322.85,154.43,323.1Z"/><path class="cls-22" d="M149.55,323.27c-.42.41-1.56-.79-3.6-.47-1.56.27-2.82,1.34-3,1.16s1-2.23,3.67-2.44C148.91,321.37,150,322.88,149.55,323.27Z"/><path class="cls-23" d="M157.31,325.67a1.41,1.41,0,0,1-.81,1.4c-.48.14-.9-.26-.94-.9a1.43,1.43,0,0,1,.82-1.4C156.86,324.63,157.28,325,157.31,325.67Z"/><path class="cls-23" d="M154.26,326.64a2.87,2.87,0,0,1,1.88-1.36c1-.25,1,.72,1.92.78a1,1,0,0,0,.87-.87.5.5,0,0,1-.68.14c-.35-.22-1.11-1.34-2.31-1.08a2,2,0,0,0-1.7,2.31S154.25,326.61,154.26,326.64Z"/><path class="cls-23" d="M148.29,326.34a1.25,1.25,0,0,0-.58-1.56c-.5-.15-1,.27-1.2,1a1.23,1.23,0,0,0,.58,1.56A1,1,0,0,0,148.29,326.34Z"/><path class="cls-23" d="M149.07,326.15a2.49,2.49,0,0,0-2.29-.54c-1.16.17-1.14.84-2,1.21a1.12,1.12,0,0,1-1.3-.54.57.57,0,0,0,.78-.17h0a3.81,3.81,0,0,1,2.39-1.67,2.08,2.08,0,0,1,2.42,1.65Z"/><path class="cls-24" d="M137,328.18c.61.86,1.56,1.25,2,.93s.28-1.24-.33-2.1-1.47-1.31-1.89-1S136.4,327.32,137,328.18Z"/><path class="cls-24" d="M152.49,332.75l.47-.08a3.85,3.85,0,0,0,1.23-.44,2.71,2.71,0,0,0,.74-.61,1.64,1.64,0,0,0,.28-.48.85.85,0,0,0,.09-.31v-.34h0a1.84,1.84,0,0,0-.17-.22l-.13-.11-.2-.14-.39-.28a4.52,4.52,0,0,1-.72-.59,3.56,3.56,0,0,1-.9-1.56,3.73,3.73,0,0,1,0-1.56,6.4,6.4,0,0,1,.31-1.14l.19-.4h0a.13.13,0,1,0-.19-.19l-.22.42a5.84,5.84,0,0,0-.43,1.17,4.25,4.25,0,0,0-.08,1.81,3.91,3.91,0,0,0,.92,1.88,6.64,6.64,0,0,0,.75.75l.39.33.17.14h0v.12a1,1,0,0,1-.13.3,1.75,1.75,0,0,1-.46.48,3.55,3.55,0,0,1-1,.5l-.43.12a.26.26,0,0,0-.19.3.25.25,0,0,0,.28.2Z"/><path class="cls-8" d="M153.88,312.13C153.71,318,143,318.5,141.41,323c0,0-.24,2.9-2,3.11l-2-2.21s.14-7.29,3.47-10.58C145.36,308.93,153.45,307.75,153.88,312.13Z"/><path class="cls-25" d="M147.4,333.76a30,30,0,0,0,3.65.67,14,14,0,0,0,3.3,0s-1.22,3-3.77,2.65S147.4,333.76,147.4,333.76Z"/><path class="cls-26" d="M150.52,336.14a2,2,0,0,0,2.41-1.06,16.11,16.11,0,0,1-2.4-.23,17.23,17.23,0,0,1-2.23-.44A2.92,2.92,0,0,0,150.52,336.14Z"/><path class="cls-22" d="M152.28,306a3.15,3.15,0,0,0-2.2.14,2.64,2.64,0,0,0-1.7,1.46.43.43,0,0,0,.09.42.43.43,0,0,0,.62,0h0c.14-.1.18-.34.29-.48a2.43,2.43,0,0,1,.52-.44,5.13,5.13,0,0,1,1.29-.57,6.64,6.64,0,0,0,1.08-.3.14.14,0,0,0,.06-.19l-.06-.06Z"/><path class="cls-22" d="M137.05,322.46a4.88,4.88,0,0,1-1.56-.28.35.35,0,0,1-.18-.45.33.33,0,0,1,.44-.19h0a3.88,3.88,0,0,0,3.47-.42.33.33,0,0,1,.46.08h0a.33.33,0,0,1-.06.46h0A4.35,4.35,0,0,1,137.05,322.46Z"/><path class="cls-22" d="M135.55,319.87h-1.87a.36.36,0,0,1-.29-.39.33.33,0,0,1,.35-.3h0a22.25,22.25,0,0,0,10.91-1.92,19.39,19.39,0,0,0,7.21-5.41.36.36,0,0,1,.49,0,.33.33,0,0,1,.1.45v0A20,20,0,0,1,145,318,21.79,21.79,0,0,1,135.55,319.87Z"/><path class="cls-22" d="M133.22,341.18a.35.35,0,0,1-.31-.22,28.2,28.2,0,0,1-.89-17.69.34.34,0,0,1,.42-.25.36.36,0,0,1,.25.42h0a27.6,27.6,0,0,0,.85,17.25.33.33,0,0,1-.18.45h0Z"/><path class="cls-22" d="M135.73,340.48a.42.42,0,0,1-.32-.19,11.73,11.73,0,0,1-1.24-5.1.34.34,0,0,1,.32-.36h0a.35.35,0,0,1,.34.35h0A11.62,11.62,0,0,0,136,340a.35.35,0,0,1-.14.46Z"/><path class="cls-22" d="M133.51,316.69h0a.34.34,0,0,1-.25-.41h0a10,10,0,0,1,4.24-5.86.34.34,0,0,1,.48.09h0a.38.38,0,0,1-.11.48,9.34,9.34,0,0,0-4,5.47.34.34,0,0,1-.4.24Z"/><path class="cls-22" d="M148.79,309.21h-.14a10.1,10.1,0,0,0-4.34-.74.33.33,0,0,1-.35-.3v0a.35.35,0,0,1,.33-.36h0a10.71,10.71,0,0,1,4.68.79.36.36,0,0,1,.19.45h0A.32.32,0,0,1,148.79,309.21Z"/><path class="cls-22" d="M158.85,318.31a.33.33,0,0,1-.32-.24,8.61,8.61,0,0,0-4.27-5,.36.36,0,0,1-.16-.47.38.38,0,0,1,.47-.16,9.38,9.38,0,0,1,4.67,5.41.36.36,0,0,1-.22.44Z"/><path class="cls-22" d="M159.57,349.89a.35.35,0,0,1-.34-.35h0c0-2.49,0-5.89.18-9.17.14-3.79.28-7.36.16-9.65a.35.35,0,0,1,.33-.36h0a.32.32,0,0,1,.35.3,0,0,0,0,1,0,0c.12,2.32,0,5.9-.14,9.71-.13,3.27-.25,6.65-.21,9.13a.36.36,0,0,1-.32.36Z"/><path class="cls-22" d="M156.81,347.13a.34.34,0,0,1-.34-.34h0s0-3.12.23-5.79a.35.35,0,0,1,.69,0c-.24,2.61-.24,5.69-.24,5.72a.33.33,0,0,1-.27.4Z"/><path class="cls-11" d="M126.5,373.2a.34.34,0,0,1-.2,0,.35.35,0,0,1-.13-.4,34.24,34.24,0,0,1,7.55-12.64.34.34,0,0,1,.48,0,.37.37,0,0,1,0,.5,32.49,32.49,0,0,0-7,11.31,20.23,20.23,0,0,1,7.31-2.31c3.47-.43,6.09.57,7.43,2.81a.37.37,0,0,1-.12.48.36.36,0,0,1-.47-.12c-1.56-2.7-4.91-2.71-6.75-2.48a16.63,16.63,0,0,0-7.92,2.84A.34.34,0,0,1,126.5,373.2Z"/><path class="cls-11" d="M119.72,379.86h-.17a.34.34,0,0,1-.12-.47,20.4,20.4,0,0,1,6-6.24,8.61,8.61,0,0,0-4.67,1.89.34.34,0,0,1-.48,0,.35.35,0,0,1,0-.5,8.62,8.62,0,0,1,6.23-2,.31.31,0,0,1,.3.26.33.33,0,0,1-.16.36,21.5,21.5,0,0,0-6.65,6.54A.34.34,0,0,1,119.72,379.86Z"/><path class="cls-11" d="M131.66,363.56a.37.37,0,0,1-.33-.25.36.36,0,0,1,.24-.44l2.52-.8a.36.36,0,0,1,.44.21.35.35,0,0,1-.21.44h0l-2.52.81Z"/><path class="cls-11" d="M145.89,354a15.3,15.3,0,0,1-4.1-.56,16.07,16.07,0,0,1-9.35-7.8l-.19-.31a.35.35,0,0,1,.11-.48.34.34,0,0,1,.48.11l.19.32a15.59,15.59,0,0,0,8.93,7.5,13.6,13.6,0,0,0,10.5-1.2,5.28,5.28,0,0,0,2.58-3.66.35.35,0,0,1,.38-.3.35.35,0,0,1,.3.39h0a6,6,0,0,1-2.85,4.16A13.17,13.17,0,0,1,145.89,354Z"/><path class="cls-18" d="M182.65,412.91a.39.39,0,0,1-.17-.14,89.63,89.63,0,0,1-13.84-18.17,39.5,39.5,0,0,1-3-8.85.33.33,0,0,1,.24-.4h0a.35.35,0,0,1,.4.27h0a38.43,38.43,0,0,0,3,8.67,87.33,87.33,0,0,0,13.61,17.87A16.94,16.94,0,0,0,193,406.61a.35.35,0,0,1,.48-.05.34.34,0,0,1,.06.48l0,0a17.28,17.28,0,0,1-10.74,5.79Z"/><path class="cls-18" d="M168.87,394.82h-.09c-2.76-.81-4.67-4.76-4.82-4.91a.36.36,0,0,1,.16-.47.34.34,0,0,1,.47.16s1.92,3.83,4.38,4.56a.33.33,0,0,1,.24.4v0A.33.33,0,0,1,168.87,394.82Z"/><path class="cls-18" d="M173.13,376.54H173a4.91,4.91,0,0,1-3.11-2.61.35.35,0,0,1,.14-.46h0a.35.35,0,0,1,.47.17,4.28,4.28,0,0,0,2.74,2.23.33.33,0,0,1,.25.41h0A.36.36,0,0,1,173.13,376.54Z"/><path class="cls-27" d="M138.72,370.69c2.71-.11,4.95-2.82,7.53-4.25a10.08,10.08,0,0,1,4.94-.81l-1.84,2.07c0,.73.26,1,1.15,1.18,1.73.41,6.64-.35,6.75.52s-1.56,1.56-5.43,2c0,0,5.76-1.2,6,.22s-6.23,1-6.23,1.73,4,.1,4,.87-4,1.37-6.71,1.21a27.66,27.66,0,0,0-4.55-.14,8.92,8.92,0,0,0-3.12,2.39c-.64.65-2.48-.24-3.4-2.64C137.13,373.2,137.64,370.85,138.72,370.69Z"/><path class="cls-18" d="M124.66,407.08a.35.35,0,0,1-.28-.14,8.56,8.56,0,0,1-1.42-3,.3.3,0,0,1,0-.26.28.28,0,0,1,.3-.22,14.06,14.06,0,0,0,7.17-3.54.35.35,0,0,1,.5,0,.32.32,0,0,1,.09.23,7.91,7.91,0,0,1-2.26,4.83,6.07,6.07,0,0,1-4.07,2.09Zm-.93-3a7,7,0,0,0,1.09,2.27,5.33,5.33,0,0,0,3.44-1.85,8.06,8.06,0,0,0,1.92-3.46,15,15,0,0,1-6.45,3Z"/><path class="cls-2" d="M516,256.73H477.3v6.92h5.1V401.44a9,9,0,0,0,9,9H502a9,9,0,0,0,9-9V263.65h5Z"/><path class="cls-28" d="M482.4,294.19V401.44a9,9,0,0,0,9,9H502a9,9,0,0,0,9-9V294.19Z"/><path class="cls-6" d="M477.3,256.73v6.92h5.1V401.44a9,9,0,0,0,9,9H502a9,9,0,0,0,9-9V263.65h5v-6.92ZM496.62,405.2h0a9,9,0,0,1-9-9V264.72h18V396.24a9,9,0,0,1-9,9Z"/><path class="cls-20" d="M493.9,398.87a2.1,2.1,0,0,1-2.08-2.07V302.2a2.08,2.08,0,0,1,4.15,0v94.6a2.07,2.07,0,0,1-2.07,2.07Z"/><path class="cls-2" d="M562.06,256.73H523.41v6.92h5V401.44a9,9,0,0,0,9,9h10.49a9,9,0,0,0,9-9V263.65H562Z"/><path class="cls-29" d="M528.45,337.48v63.9a9,9,0,0,0,9,9h10.49a9,9,0,0,0,9-9v-63.9Z"/><path class="cls-6" d="M523.41,256.73v6.92h5V401.44a9,9,0,0,0,9,9h10.49a9,9,0,0,0,9-9V263.65H562v-6.92ZM542.74,405.2h0a9,9,0,0,1-9-9V264.72h18V396.24a9,9,0,0,1-9,9Z"/><path class="cls-20" d="M540,398.87a2.07,2.07,0,0,1-2.07-2.07V345.85a2.07,2.07,0,1,1,4.14,0V396.8A2.09,2.09,0,0,1,540,398.87Z"/><path class="cls-2" d="M608.16,256.73H569.51v6.92h5.1V401.44a9,9,0,0,0,9,9h10.47a9,9,0,0,0,9-9V263.65h5.08Z"/><path class="cls-30" d="M574.61,314.59v86.87a9,9,0,0,0,9,9h10.47a9,9,0,0,0,9-9h0V314.59Z"/><path class="cls-6" d="M569.51,256.73v6.92h5.1V401.44a9,9,0,0,0,9,9h10.47a9,9,0,0,0,9-9V263.65h5.08v-6.92ZM588.83,405.2h0a9,9,0,0,1-9-9V264.72h18V396.24a9,9,0,0,1-9,9Z"/><path class="cls-20" d="M586.11,398.87A2.08,2.08,0,0,1,584,396.8V321.12a2.07,2.07,0,1,1,4.14,0h0V396.8a2.07,2.07,0,0,1-2.07,2.07Z"/><path class="cls-2" d="M654.27,256.73H615.61v6.92h5.09V401.44a9,9,0,0,0,9,9h10.53a9,9,0,0,0,9-9V263.65h5.1Z"/><path class="cls-3" d="M620.7,289.83V401.44a9,9,0,0,0,9,9h10.53a9,9,0,0,0,9-9V289.83Z"/><path class="cls-6" d="M615.61,256.73v6.92h5.09V401.44a9,9,0,0,0,9,9h10.53a9,9,0,0,0,9-9V263.65h5.1v-6.92ZM635,405.2h0a9,9,0,0,1-9-9V264.72h18V396.24a9,9,0,0,1-9,9Z"/><path class="cls-20" d="M632.22,398.87a2.07,2.07,0,0,1-2.07-2.07V298.2a2.07,2.07,0,1,1,4.14,0v98.6A2.08,2.08,0,0,1,632.22,398.87Z"/><path class="cls-31" d="M667,447.8a2.08,2.08,0,0,1-2.08-2.07V307.2H466.61V443.55a2.07,2.07,0,0,1-4.13.36,2.16,2.16,0,0,1,0-.36V305.13a2.07,2.07,0,0,1,2.07-2.07H667a2.07,2.07,0,0,1,2.05,2.07v140.6A2.07,2.07,0,0,1,667,447.8Z"/><rect class="cls-32" x="453.44" y="439.17" width="224.68" height="38.2"/><path class="cls-33" d="M530,451.34c-26.49,0-53.42-.28-64.61-.81a2.07,2.07,0,0,1-2-2.17,2.12,2.12,0,0,1,2.17-2c22.31,1.11,107.35,1.11,126.38,0a2.08,2.08,0,0,1,.24,4.15C582.62,451.06,556.5,451.34,530,451.34Z"/><path class="cls-33" d="M553.86,463.08a2.08,2.08,0,0,1-.07-4.15h0c.45,0,45.58-1.64,67.2-1.64a2.08,2.08,0,0,1,0,4.15c-21.54,0-66.61,1.56-67,1.56Z"/><rect class="cls-20" x="50.42" y="423.66" width="100.72" height="28.8"/><rect class="cls-10" x="148.52" y="418.86" width="97.07" height="37.45"/><rect class="cls-34" x="44.67" y="418.86" width="104.9" height="11.52"/><rect class="cls-34" x="44.67" y="444.8" width="104.9" height="11.52"/><rect class="cls-34" x="148.52" y="418.86" width="6.26" height="37.45"/><rect class="cls-34" x="168.97" y="418.86" width="13.89" height="37.45"/><rect class="cls-34" x="195.09" y="418.86" width="13.89" height="37.45"/><rect class="cls-34" x="221.22" y="418.86" width="13.89" height="37.45"/><path class="cls-15" d="M58.21,439.56a.94.94,0,0,1,0-1.84c.62,0,63.05-1.71,74.13-1.14a.88.88,0,0,1,.77.95.86.86,0,0,1-.84.88h0c-11-.57-73.4,1.13-74,1.15Z"/><rect class="cls-20" x="138.36" y="457.18" width="113.59" height="18.64"/><rect class="cls-35" x="31.84" y="455.25" width="109.46" height="22.13"/><rect class="cls-36" x="140.14" y="455.25" width="118.3" height="4.66"/><rect class="cls-36" x="140.14" y="472.72" width="118.3" height="4.66"/><rect class="cls-36" x="134.25" y="455.25" width="7.06" height="22.13"/><path class="cls-15" d="M197.25,464.46h0c-3.57-.11-14.66-.11-25.4-.11s-21.16,0-23.38-.12a.57.57,0,0,1-.53-.59h0a.56.56,0,0,1,.56-.54h0c2.19.11,12.46.11,23.37.11s21.82,0,25.44.12a.56.56,0,0,1,.54.58h0a.56.56,0,0,1-.57.55Z"/><path class="cls-15" d="M163.48,469.11a.56.56,0,0,1-.56-.56.57.57,0,0,1,.56-.57c.52,0,52.43-.46,72.33-.23a.56.56,0,0,1,.56.56.58.58,0,0,1-.58.56h0c-19.88-.23-71.78.24-72.31.24Z"/><path class="cls-15" d="M224.88,465.85a.55.55,0,0,1-.56-.53v0a.57.57,0,0,1,.55-.57c.15,0,15.39-.24,18.78-.24a.56.56,0,0,1,.56.56.58.58,0,0,1-.56.58c-3.37,0-18.61.22-18.7.22Z"/><rect class="cls-37" x="45.96" y="455.25" width="5.22" height="22.13"/><rect class="cls-37" x="56.5" y="455.25" width="5.22" height="22.13"/><rect class="cls-37" x="117.49" y="455.25" width="5.22" height="22.13"/><path class="cls-2" d="M690.88,367.58h0V343h-36.4v24.56h0a17.87,17.87,0,0,0-17.88,17.87h0V477.4h72.15V385.45A17.87,17.87,0,0,0,690.88,367.58Z"/><rect class="cls-38" x="636.6" y="389.52" width="72.14" height="87.85"/><path class="cls-6" d="M690.88,367.58h0V343h-36.4v24.56h0a17.87,17.87,0,0,0-17.88,17.87h0V477.4h72.15V385.45A17.87,17.87,0,0,0,690.88,367.58ZM702.4,471.1H643V385.39a11.54,11.54,0,0,1,11.52-11.52h6.34v-24.5h23.69v24.44h6.35a11.54,11.54,0,0,1,11.52,11.52Z"/><rect class="cls-39" x="651.83" y="402.58" width="41.7" height="36.4"/><path class="cls-7" d="M690.88,367.58h0V343H674.33v30.79c9.88,0,15.27,1.65,15.27,11.52v91.94h19.15V385.33A17.88,17.88,0,0,0,690.88,367.58Z"/><path class="cls-40" d="M698.11,343.23c-.12,6.47-11.55,6.75-25.62,6.5s-25.48-1-25.35-7.43c0-3.85,6.74-10.32,25.68-10S698.17,339.38,698.11,343.23Z"/><rect class="cls-41" x="218.67" y="213.56" width="118.38" height="263.82"/><rect class="cls-32" x="222.55" y="218.03" width="110.6" height="41.02"/><rect class="cls-32" x="222.55" y="265.95" width="110.6" height="41.02"/><rect class="cls-32" x="222.55" y="313.87" width="110.6" height="41.02"/><rect class="cls-32" x="222.55" y="361.78" width="110.6" height="41.02"/><path class="cls-32" d="M222.55,409.17V472.3H253.5V409.17Zm27.91,60.09H225.52V412.21h24.94Z"/><path class="cls-42" d="M225,411.32v58.83h26.1V411.32Zm24.1,57H227V413.1h22.05Z"/><path class="cls-32" d="M262.38,409.17V472.3h30.95V409.17Zm27.89,60.09H265.42V412.21h24.85Z"/><path class="cls-42" d="M264.78,411.32v58.83h26.15V411.32Zm24.09,57H266.82V413.1h22.05Z"/><path class="cls-32" d="M302.2,409.17V472.3h30.95V409.17Zm27.91,60.09H305.25V412.21h24.86Z"/><path class="cls-42" d="M304.6,411.32v58.83h26.16V411.32Zm24.1,57H306.65V413.1H328.7Z"/><g class="cls-43"><rect class="cls-32" x="222.55" y="218.03" width="110.6" height="16.52"/><rect class="cls-32" x="222.55" y="265.95" width="110.6" height="16.52"/><rect class="cls-32" x="222.55" y="313.87" width="110.6" height="16.52"/><rect class="cls-32" x="222.55" y="361.78" width="110.6" height="16.52"/></g><rect class="cls-6" x="226.49" y="225.39" width="8.46" height="33.68"/><rect class="cls-18" x="226.49" y="248.92" width="8.46" height="4.94"/><rect class="cls-18" x="226.49" y="230.05" width="8.46" height="4.94"/><rect class="cls-44" x="291.6" y="229.83" width="4.44" height="29.25"/><rect class="cls-10" x="291.6" y="250.26" width="4.44" height="4.29"/><rect class="cls-10" x="291.6" y="233.86" width="4.44" height="4.29"/><rect class="cls-35" x="239.16" y="222.71" width="7.32" height="36.36"/><rect class="cls-36" x="240.72" y="226.94" width="4.22" height="27.91"/><rect class="cls-12" x="312.95" y="233.29" width="7.32" height="25.79"/><rect class="cls-15" x="314.49" y="236.28" width="4.22" height="19.79"/><rect class="cls-45" x="248.74" y="231.31" width="6.76" height="27.77"/><rect class="cls-44" x="323.52" y="224.33" width="5.7" height="34.74"/><rect class="cls-15" x="259.46" y="225.25" width="3.24" height="33.82"/><rect class="cls-45" x="299.84" y="225.25" width="3.24" height="33.82"/><rect class="cls-5" x="305.33" y="222.64" width="4.02" height="36.44"/><rect class="cls-12" x="268.47" y="226.8" width="5.78" height="32.27"/><rect class="cls-15" x="268.47" y="230.33" width="5.78" height="3.66"/><rect class="cls-15" x="268.47" y="251.88" width="5.78" height="3.66"/><rect class="cls-36" x="279.19" y="223.28" width="7.89" height="35.8"/><rect class="cls-5" x="279.19" y="229.83" width="7.89" height="22.69"/><rect class="cls-6" x="320.76" y="321.2" width="8.46" height="33.68"/><rect class="cls-18" x="320.76" y="344.73" width="8.46" height="4.94"/><rect class="cls-18" x="320.76" y="325.84" width="8.46" height="4.94"/><rect class="cls-44" x="259.67" y="325.64" width="4.44" height="29.24"/><rect class="cls-10" x="259.67" y="346.07" width="4.44" height="4.29"/><rect class="cls-10" x="259.67" y="329.66" width="4.44" height="4.29"/><rect class="cls-35" x="309.21" y="318.52" width="7.32" height="36.36"/><rect class="cls-36" x="310.77" y="322.74" width="4.22" height="27.91"/><rect class="cls-12" x="235.43" y="329.08" width="7.32" height="25.79"/><rect class="cls-15" x="236.99" y="332.08" width="4.22" height="19.79"/><rect class="cls-45" x="300.19" y="327.1" width="6.76" height="27.77"/><rect class="cls-44" x="226.47" y="320.14" width="5.7" height="34.74"/><rect class="cls-15" x="293" y="321.06" width="3.24" height="33.82"/><rect class="cls-45" x="252.62" y="321.06" width="3.24" height="33.82"/><rect class="cls-5" x="246.34" y="318.45" width="4.02" height="36.44"/><rect class="cls-12" x="281.45" y="322.6" width="5.78" height="32.27"/><rect class="cls-15" x="281.45" y="326.14" width="5.78" height="3.66"/><rect class="cls-15" x="281.45" y="347.69" width="5.78" height="3.66"/><rect class="cls-15" x="281.45" y="337.02" width="5.78" height="3.66"/><rect class="cls-36" x="268.63" y="319.08" width="7.89" height="35.8"/><rect class="cls-5" x="268.63" y="325.62" width="7.89" height="22.69"/><rect class="cls-6" x="293.5" y="273.28" width="8.46" height="33.68"/><rect class="cls-18" x="294.9" y="287.36" width="5.64" height="4.94"/><rect class="cls-18" x="294.9" y="296.81" width="5.64" height="4.94"/><rect class="cls-18" x="294.9" y="277.94" width="5.64" height="4.94"/><rect class="cls-44" x="311.67" y="277.72" width="4.44" height="29.24"/><rect class="cls-10" x="311.67" y="289.95" width="4.44" height="4.29"/><rect class="cls-10" x="311.67" y="298.15" width="4.44" height="4.29"/><rect class="cls-10" x="311.67" y="281.75" width="4.44" height="4.29"/><rect class="cls-35" x="261.15" y="268.91" width="7.32" height="38.06"/><rect class="cls-36" x="262.71" y="273.34" width="4.22" height="29.2"/><rect class="cls-12" x="282.5" y="281.18" width="7.32" height="25.79"/><rect class="cls-15" x="284.06" y="284.17" width="4.22" height="19.79"/><rect class="cls-45" x="318.93" y="279.2" width="4.78" height="27.77"/><rect class="cls-44" x="325.84" y="272.22" width="5.7" height="34.74"/><rect class="cls-15" x="250.64" y="273.14" width="3.24" height="33.82"/><rect class="cls-45" x="245.5" y="273.14" width="3.24" height="33.82"/><rect class="cls-5" x="304.49" y="270.53" width="4.02" height="36.44"/><rect class="cls-12" x="237.19" y="274.69" width="5.78" height="32.27"/><rect class="cls-15" x="237.19" y="278.22" width="5.78" height="3.66"/><rect class="cls-15" x="237.19" y="299.77" width="5.78" height="3.66"/><rect class="cls-36" x="226.55" y="271.16" width="7.89" height="35.8"/><rect class="cls-5" x="226.55" y="277.72" width="7.89" height="22.69"/><rect class="cls-6" x="253.04" y="369.1" width="8.46" height="33.68"/><rect class="cls-18" x="253.04" y="383.64" width="8.46" height="2.68"/><rect class="cls-18" x="253.04" y="378.44" width="8.46" height="2.68"/><rect class="cls-44" x="278.9" y="373.56" width="4.44" height="29.24"/><rect class="cls-10" x="279.9" y="377.58" width="2.46" height="20.17"/><rect class="cls-35" x="288.48" y="364.74" width="7.32" height="38.06"/><rect class="cls-36" x="290.04" y="369.17" width="4.22" height="29.2"/><rect class="cls-12" x="267.13" y="377" width="7.32" height="25.79"/><rect class="cls-15" x="268.69" y="383.08" width="4.22" height="13.62"/><rect class="cls-44" x="225.43" y="368.06" width="5.7" height="34.74"/><rect class="cls-15" x="303.07" y="368.96" width="3.24" height="33.82"/><rect class="cls-45" x="308.21" y="368.96" width="3.24" height="33.82"/><rect class="cls-5" x="245.08" y="366.36" width="4.02" height="36.44"/><rect class="cls-12" x="314.01" y="370.52" width="5.78" height="32.27"/><rect class="cls-15" x="314.01" y="374.04" width="5.78" height="3.66"/><rect class="cls-15" x="314.01" y="395.61" width="5.78" height="3.66"/><rect class="cls-36" x="322.53" y="377.14" width="7.89" height="25.65"/><rect class="cls-5" x="322.53" y="381.85" width="7.89" height="16.25"/><rect class="cls-45" x="233.25" y="375.03" width="4.78" height="27.77"/><rect class="cls-13" x="234.03" y="379" width="3.24" height="19.82"/><rect class="cls-20" x="635.1" y="411.9" width="17.16" height="4.27"/><rect class="cls-6" x="619.01" y="411.45" width="16.55" height="5.06"/><rect class="cls-18" x="635.37" y="411.45" width="17.88" height="1.06"/><rect class="cls-18" x="635.37" y="415.45" width="17.88" height="1.06"/><rect class="cls-18" x="634.48" y="411.45" width="1.06" height="5.06"/><rect class="cls-20" x="618.76" y="416.82" width="14.06" height="6.55"/><rect class="cls-36" x="632.41" y="416.32" width="21.97" height="7.43"/><rect class="cls-35" x="617.87" y="416.32" width="14.71" height="1.18"/><rect class="cls-35" x="617.87" y="422.59" width="14.71" height="1.18"/><rect class="cls-35" x="632.41" y="416.32" width="0.98" height="7.43"/><rect class="cls-35" x="637.18" y="416.37" width="2.48" height="7.43"/><rect class="cls-35" x="649.11" y="416.37" width="2.48" height="7.43"/><rect class="cls-20" x="635.21" y="424.26" width="19.53" height="7.67"/><rect class="cls-34" x="616.89" y="423.65" width="18.83" height="8.76"/><rect class="cls-44" x="635.51" y="423.65" width="20.34" height="1.45"/><rect class="cls-44" x="635.51" y="430.96" width="20.34" height="1.45"/><rect class="cls-44" x="634.5" y="423.65" width="1.22" height="8.76"/><polygon class="cls-15" points="587.73 432.41 575.03 411.12 575.03 405.2 587.73 426.5 587.73 432.41"/><polygon class="cls-31" points="587.71 426.83 623.71 426.83 611.03 405.2 575.03 405.2 587.71 426.83"/><path class="cls-46" d="M611,405.2H575l8,13.57s2.35-4.78,14-4.78a22.29,22.29,0,0,1,20.1,12.81h6.58Z"/><rect class="cls-12" x="575.03" y="405.2" width="36" height="5.92"/><rect class="cls-15" x="605.63" y="426.48" width="18.08" height="5.92"/><polygon class="cls-15" points="623.71 432.41 611.03 411.12 611.03 405.2 623.71 426.5 623.71 432.41"/><rect class="cls-12" x="572.66" y="426.48" width="36" height="5.92"/><rect class="cls-45" x="574.64" y="427.86" width="32.06" height="3.21"/><rect class="cls-45" x="577.01" y="406.44" width="32.06" height="3.21"/><path class="cls-5" d="M583.52,405.2c.9,1.87,4.36,3.27,8.49,3.27s7.61-1.4,8.51-3.27Z"/><path class="cls-15" d="M396.48,428.48s.09-3.12,6.9-4.4a15.3,15.3,0,0,0,5.07-1.55c5.73.49,11.53,1.27,16.39.56,0,0-1.56,2.26-6.07,3.21a29.33,29.33,0,0,0-7.19,2.32Z"/><rect class="cls-15" x="414.73" y="426.56" width="12.67" height="3.21"/><path class="cls-20" d="M379.93,429.77h35.66v-3.21a54.21,54.21,0,0,0-11-1.18c-5.92,0-8.12,3.11-8.12,3.11a8.88,8.88,0,0,0-6.59-3,43.62,43.62,0,0,0-10,1.69Z"/><path class="cls-15" d="M394.14,429.91h4.79a3.87,3.87,0,0,0-2.36-.78A4.16,4.16,0,0,0,394.14,429.91Z"/><rect class="cls-34" x="378.15" y="429.71" width="38.27" height="1.25"/><rect class="cls-44" x="416.43" y="429.71" width="12.5" height="1.25"/><path class="cls-15" d="M399.44,428.23a.22.22,0,0,1-.17-.09.19.19,0,0,1,0-.28c.14-.1,3.62-2.39,14.29-.32a.21.21,0,0,1,.16.24.2.2,0,0,1-.23.17h0c-10.5-2-14,.22-14,.25Z"/><path class="cls-15" d="M400.52,429.07a.19.19,0,0,1-.21-.17v0a.2.2,0,0,1,.16-.21h0s3.88-.11,7.67-.18h0a.2.2,0,0,1,.2.21h0a.2.2,0,0,1-.2.2h0c-3.77,0-7.61.17-7.65.17Z"/><path class="cls-15" d="M393,428.9H381.58a.2.2,0,0,1-.2-.2h0a.2.2,0,0,1,.2-.21H393a.2.2,0,0,1,.2.21h0a.19.19,0,0,1-.17.2Z"/><path class="cls-15" d="M392.74,427.78h0a19.23,19.23,0,0,0-7-.28.2.2,0,0,1-.22-.16h0a.21.21,0,0,1,.17-.24h0a19.71,19.71,0,0,1,7.18.3.19.19,0,0,1,.14.23v0a.19.19,0,0,1-.22.15Z"/><rect class="cls-31" x="336.84" y="430.04" width="346.42" height="47.31"/><path class="cls-46" d="M683.26,430H336.84v3.53c4.89.39,9.85-.34,14.77-.17,7.11.25,14.26.42,21.38.77,23,1.1,46.26-2.42,69.34-1.42,11.78.51,23.37,0,35.11,0,9.69,0,19.32,1,29.06,1,13.33,0,32.56-1.65,46-1,15.38.75,24.75,2,40.29,2,12.14,0,24.18-1,36.28-1.34,5.72-.15,11.4-1,17.06-.35,12.47,1.35,24.86.37,37.17,0Z"/><path class="cls-46" d="M361.7,465.85c.15,1.42,1.38,2.34,3.27,2.32,1.37,0,3.21-.81,3.12-2.65s-1.56-2.52-3.46-2.4S361.51,464.46,361.7,465.85Z"/><path class="cls-46" d="M423,466c.16,1.42,1.39,2.34,3.28,2.32,1.38,0,3.21-.81,3.21-2.65s-1.56-2.52-3.46-2.4S422.85,464.62,423,466Z"/><path class="cls-46" d="M569.35,447.43c.16,1.42,1.38,2.34,3.28,2.32,1.37,0,3.21-.81,3.11-2.65s-1.55-2.52-3.46-2.4S569.2,446,569.35,447.43Z"/><path class="cls-46" d="M640.15,443.55c.16,1.4,1.39,2.34,3.28,2.32,1.38,0,3.21-.83,3.19-2.65s-1.56-2.52-3.44-2.4S640,442.15,640.15,443.55Z"/><path class="cls-46" d="M531.83,468.56c.15,1.4,1.39,2.34,3.27,2.32,1.39,0,3.21-.82,3.21-2.65s-1.56-2.54-3.46-2.41S531.69,467.16,531.83,468.56Z"/><path class="cls-46" d="M610.57,469.4c.16,1.41,1.39,2.34,3.28,2.32,1.38,0,3.22-.82,3.21-2.64s-1.56-2.53-3.46-2.4S610.43,468,610.57,469.4Z"/><path class="cls-46" d="M669.39,448.29c.16,1.4,1.39,2.33,3.27,2.3,1.39,0,3.21-.81,3.12-2.65s-1.56-2.52-3.45-2.4S669.23,446.88,669.39,448.29Z"/><path class="cls-46" d="M475.55,460.11c.16,1.41,1.39,2.34,3.28,2.31,1.38,0,3.22-.81,3.21-2.65s-1.56-2.52-3.46-2.4S475.46,458.71,475.55,460.11Z"/><path class="cls-46" d="M436.87,471.19c.1,1,.94,1.56,2.23,1.56.95,0,2.22-.56,2.2-1.8s-1.08-1.75-2.37-1.66S436.77,470.24,436.87,471.19Z"/><path class="cls-46" d="M523.9,462.06c.1,1,1,1.56,2.24,1.56a2,2,0,0,0,2.2-1.8h0c0-1.17-1.09-1.73-2.37-1.65S523.77,461.08,523.9,462.06Z"/><path class="cls-46" d="M470.49,467c.11,1,.95,1.56,2.24,1.56.95,0,2.22-.56,2.2-1.82s-1.07-1.73-2.37-1.64S470.4,466,470.49,467Z"/><path class="cls-46" d="M398.33,443.72c.16,1.4,1.39,2.34,3.28,2.32,1.38,0,3.21-.82,3.19-2.65s-1.56-2.54-3.46-2.41S398.18,442.38,398.33,443.72Z"/><path class="cls-46" d="M352.35,451.4a1.72,1.72,0,0,0,3.37-.12.41.41,0,0,0,0-.11c0-1-.83-1.45-1.81-1.39A1.62,1.62,0,0,0,352.35,451.4Z"/><path class="cls-46" d="M372.84,459.79c0-.81-.67-1.42-1.75-1.56a1.67,1.67,0,0,0-2,1.31h0c-.09,1,.76,1.56,1.84,1.56S372.85,460.58,372.84,459.79Z"/><path class="cls-46" d="M432.32,458.43c0-.81-.67-1.4-1.74-1.56a1.7,1.7,0,0,0-2,1.34c-.09,1,.77,1.56,1.84,1.56S432.34,459.24,432.32,458.43Z"/><path class="cls-46" d="M477.11,439.12c0-.82-.67-1.42-1.74-1.56a1.7,1.7,0,0,0-2,1.34c-.08,1,.76,1.56,1.85,1.56S477.11,439.92,477.11,439.12Z"/><path class="cls-46" d="M569.37,456.86c0-.81-.65-1.41-1.74-1.56a1.7,1.7,0,0,0-2,1.34c-.08,1,.76,1.56,1.84,1.56S569.39,457.67,569.37,456.86Z"/><path class="cls-46" d="M601.49,469.87c0-.81-.67-1.4-1.75-1.56a1.71,1.71,0,0,0-2,1.34c-.07,1,.77,1.56,1.86,1.56S601.49,470.68,601.49,469.87Z"/><path class="cls-46" d="M534.23,439.62c0-.81-.67-1.4-1.75-1.56a1.68,1.68,0,0,0-2,1.34c-.09,1,.76,1.56,1.84,1.56S534.23,440.43,534.23,439.62Z"/><path class="cls-46" d="M514.79,471.05c0-.81-.67-1.41-1.74-1.55a1.67,1.67,0,0,0-2,1.31v0c-.1,1,.76,1.55,1.83,1.55S514.79,471.86,514.79,471.05Z"/><path class="cls-46" d="M597.76,441.48c0-.81-.67-1.41-1.74-1.56a1.69,1.69,0,0,0-2,1.34c-.1,1,.76,1.56,1.83,1.56S597.78,442.29,597.76,441.48Z"/><path class="cls-46" d="M581,467.5c0-.81-.66-1.4-1.73-1.56a1.7,1.7,0,0,0-2,1.34c-.08,1,.76,1.56,1.85,1.56S581,468.31,581,467.5Z"/><path class="cls-46" d="M669.75,440c0-.81-.66-1.41-1.73-1.55a1.69,1.69,0,0,0-2,1.34c-.08,1,.76,1.55,1.84,1.55S669.76,440.82,669.75,440Z"/><path class="cls-46" d="M647.62,452.46c0-.81-.67-1.4-1.75-1.56a1.68,1.68,0,0,0-2,1.34c-.09,1,.76,1.56,1.84,1.56S647.63,453.29,647.62,452.46Z"/><path class="cls-46" d="M677.87,467c0-.82-.67-1.42-1.75-1.56a1.68,1.68,0,0,0-2,1.34c-.1,1,.76,1.56,1.84,1.56S677.88,467.8,677.87,467Z"/><path class="cls-46" d="M624.8,463.28c0-.81-.67-1.4-1.74-1.56a1.7,1.7,0,0,0-2,1.34c-.09,1,.77,1.56,1.84,1.56S624.82,464.09,624.8,463.28Z"/><path class="cls-46" d="M667.72,456.69c0-.81-.65-1.41-1.74-1.56a1.7,1.7,0,0,0-2,1.34c-.09,1,.77,1.56,1.84,1.56S667.74,457.5,667.72,456.69Z"/><path class="cls-46" d="M354.59,437.14c0-.81-.67-1.41-1.75-1.56a1.68,1.68,0,0,0-2,1.35c-.09,1,.76,1.55,1.84,1.55S354.61,437.94,354.59,437.14Z"/><path class="cls-46" d="M400.55,453.54c0-.83-.66-1.42-1.73-1.56a1.7,1.7,0,0,0-2,1.34c-.08,1,.76,1.56,1.84,1.56S400.56,454.33,400.55,453.54Z"/><path class="cls-46" d="M445.51,438c0-.81-.67-1.41-1.75-1.55a1.67,1.67,0,0,0-2,1.32v0c-.07,1,.78,1.56,1.86,1.56S445.51,438.8,445.51,438Z"/><path class="cls-46" d="M390.25,469.25c0-.81-.67-1.41-1.75-1.56a1.68,1.68,0,0,0-2,1.34c-.1,1,.76,1.56,1.84,1.56S390.26,470.06,390.25,469.25Z"/><path class="cls-46" d="M361.7,460.1c0-.52-.42-.91-1.13-1a1.08,1.08,0,0,0-1.26.85h0c0,.62.5,1,1.19,1A1,1,0,0,0,361.7,460.1Z"/><path class="cls-46" d="M410.54,438.47c0-.52-.44-.91-1.13-1a1.07,1.07,0,0,0-1.26.85h0c0,.63.49,1,1.19,1S410.54,439,410.54,438.47Z"/><path class="cls-46" d="M439.09,442c0-.53-.42-.9-1.11-1s-1.21.19-1.26.86.48,1,1.17,1S439.1,442.54,439.09,442Z"/><path class="cls-46" d="M490.62,437.7c0-.51-.42-.9-1.1-1s-1.2.19-1.26.86.48,1,1.18,1A1,1,0,0,0,490.62,437.7Z"/><path class="cls-46" d="M472.81,446c0-.53-.44-.9-1.12-1a1.06,1.06,0,0,0-1.26.85h0c0,.63.48,1,1.18,1S472.81,446.56,472.81,446Z"/><path class="cls-46" d="M520.3,464.79c0-.51-.44-.9-1.13-1a1.08,1.08,0,0,0-1.26.85h0c0,.62.5,1,1.19,1A1,1,0,0,0,520.3,464.79Z"/><path class="cls-46" d="M576.06,454c0-.51-.42-.9-1.13-1a1.08,1.08,0,0,0-1.26.85h0c0,.62.5,1,1.19,1A1,1,0,0,0,576.06,454Z"/><path class="cls-46" d="M588.73,439.11c0-.52-.42-.91-1.11-1s-1.2.19-1.26.86.48,1,1.18,1S588.74,439.62,588.73,439.11Z"/><path class="cls-46" d="M485,455.67c0-.53-.42-.9-1.11-1a1.06,1.06,0,0,0-1.26.85h0c0,.63.48,1,1.18,1S485,456.19,485,455.67Z"/><path class="cls-46" d="M487.93,469.7c0-.53-.44-.91-1.12-1a1.09,1.09,0,0,0-1.27.85h0c0,.62.5,1,1.19,1S487.93,470.21,487.93,469.7Z"/><path class="cls-46" d="M508.37,451.28c0-.53-.42-.91-1.12-1s-1.2.19-1.26.86.5,1,1.18,1A1.09,1.09,0,0,0,508.37,451.28Z"/><path class="cls-46" d="M532.12,447.55c0-.51-.42-.9-1.12-1a1.08,1.08,0,0,0-1.26.87c0,.62.5,1,1.18,1A1,1,0,0,0,532.12,447.55Z"/><path class="cls-46" d="M607.15,465.13c0-.53-.42-.9-1.11-1s-1.22.18-1.26.85.48,1,1.17,1S607.16,465.65,607.15,465.13Z"/><path class="cls-46" d="M621.69,445.5c0-.52-.42-.91-1.13-1s-1.2.19-1.26.86.5,1,1.19,1S621.69,446,621.69,445.5Z"/><path class="cls-46" d="M667.57,468.34c0-.51-.44-.9-1.13-1s-1.2.18-1.26.85.48,1,1.19,1S667.57,468.87,667.57,468.34Z"/><path class="cls-46" d="M665.45,445.18c0-.51-.42-.9-1.11-.95a1.08,1.08,0,0,0-1.26.85h0c0,.62.48,1,1.18,1S665.46,445.7,665.45,445.18Z"/><path class="cls-46" d="M650.24,447.72c0-.51-.42-.9-1.11-1s-1.2.19-1.26.86.48,1,1.18,1S650.25,448.24,650.24,447.72Z"/><path class="cls-46" d="M647.77,469.4c0-.51-.42-.9-1.12-.95a1.08,1.08,0,0,0-1.26.85h0c0,.62.5,1,1.18,1S647.77,469.92,647.77,469.4Z"/><path class="cls-46" d="M422.47,461.45c0-.51-.43-.9-1.12-1s-1.2.19-1.26.86.48,1,1.18,1S422.47,462,422.47,461.45Z"/><path class="cls-46" d="M347.16,439.82c0-.51-.42-.9-1.11-1s-1.22.18-1.26.85.48,1,1.17,1S347.17,440.34,347.16,439.82Z"/><path class="cls-46" d="M344.46,472c0-.51-.42-.9-1.12-.95a1.08,1.08,0,0,0-1.26.85h0c0,.62.49,1,1.18,1A1.08,1.08,0,0,0,344.46,472Z"/><path class="cls-47" d="M656.39,467c-1.88-.13-3.46.68-3.46,2.4s1.83,2.63,3.2,2.65c1.88,0,3.11-.91,3.27-2.33S658.36,467.08,656.39,467Z"/><path class="cls-47" d="M590.08,462.17c-1.87-.14-3.44.69-3.46,2.4s1.83,2.64,3.21,2.65c1.89,0,3.12-.92,3.28-2.32S592.06,462.3,590.08,462.17Z"/><path class="cls-47" d="M387.58,439.26c-1.88-.12-3.44.7-3.46,2.42s1.83,2.63,3.21,2.65c1.89,0,3.12-.92,3.27-2.32S389.55,439.37,387.58,439.26Z"/><path class="cls-47" d="M508.51,438.56c-1.87-.12-3.44.7-3.44,2.4s1.81,2.64,3.2,2.65c1.88,0,3.11-.9,3.27-2.32S510.49,438.69,508.51,438.56Z"/><path class="cls-47" d="M536.86,453.29c-1.88-.13-3.46.7-3.46,2.4s1.83,2.63,3.2,2.65c1.88,0,3.11-.91,3.27-2.32S538.83,453.44,536.86,453.29Z"/><path class="cls-47" d="M567.94,469.78c-1.3-.1-2.37.46-2.37,1.63s1.24,1.81,2.2,1.83c1.29,0,2.13-.63,2.24-1.56S569.29,469.87,567.94,469.78Z"/><path class="cls-47" d="M461.53,468.31c-1.28-.09-2.36.47-2.37,1.64s1.25,1.81,2.2,1.82c1.29,0,2.13-.62,2.24-1.56S462.88,468.41,461.53,468.31Z"/><path class="cls-47" d="M546.48,466.22c-1.3-.07-2.37.49-2.37,1.66s1.25,1.79,2.2,1.8c1.29,0,2.13-.62,2.22-1.56S547.82,466.32,546.48,466.22Z"/><path class="cls-47" d="M629.85,445.71c-1.87-.12-3.44.71-3.46,2.4s1.83,2.64,3.21,2.65c1.89,0,3.12-.9,3.28-2.32S631.82,445.85,629.85,445.71Z"/><path class="cls-47" d="M677,455.7c-1,0-1.81.41-1.81,1.39a1.56,1.56,0,0,0,1.56,1.56h.11a1.56,1.56,0,0,0,1.71-1.33C678.68,456.41,678.05,455.78,677,455.7Z"/><path class="cls-47" d="M640,462.53c1.09,0,1.93-.58,1.86-1.56a1.71,1.71,0,0,0-2-1.34c-1.08.09-1.73.69-1.75,1.56S638.83,462.64,640,462.53Z"/><path class="cls-47" d="M590.61,455.31c1.08,0,1.93-.57,1.84-1.55a1.66,1.66,0,0,0-2-1.33h0c-1.08.08-1.73.69-1.75,1.56S589.49,455.35,590.61,455.31Z"/><path class="cls-47" d="M419.65,473.3c1.08,0,1.94-.59,1.84-1.56a1.69,1.69,0,0,0-2-1.34c-1.09.09-1.73.69-1.75,1.56S418.52,473.33,419.65,473.3Z"/><path class="cls-47" d="M468.87,455.5c1.09,0,1.93-.59,1.85-1.56a1.68,1.68,0,0,0-2-1.34h0c-1.07.08-1.73.69-1.74,1.56S467.75,455.53,468.87,455.5Z"/><path class="cls-47" d="M507,463.89c1.07,0,1.93-.58,1.84-1.56a1.7,1.7,0,0,0-2-1.34c-1.07.09-1.73.68-1.74,1.56S505.88,463.92,507,463.89Z"/><path class="cls-47" d="M425.17,448.74c1.08,0,1.93-.59,1.84-1.56a1.69,1.69,0,0,0-2-1.34c-1.08.09-1.73.69-1.75,1.56S424,448.77,425.17,448.74Z"/><path class="cls-47" d="M383,453.68c1.08,0,1.94-.59,1.84-1.56a1.74,1.74,0,0,0-2-1.34c-1.08.09-1.73.69-1.75,1.56S381.86,453.71,383,453.68Z"/><path class="cls-47" d="M344,468.39c1.07,0,1.93-.58,1.83-1.56a1.69,1.69,0,0,0-2-1.34c-1.09.09-1.73.69-1.74,1.56S342.81,468.42,344,468.39Z"/><path class="cls-47" d="M401.73,471.27c1.08,0,1.93-.59,1.84-1.56a1.7,1.7,0,0,0-2-1.34c-1.09.1-1.73.69-1.75,1.56S400.66,471.3,401.73,471.27Z"/><path class="cls-47" d="M349.9,460.46c1.09,0,1.93-.59,1.85-1.56a1.69,1.69,0,0,0-2-1.34c-1.07.09-1.73.68-1.73,1.56S348.78,460.49,349.9,460.46Z"/><path class="cls-47" d="M656.63,441c1.09,0,1.93-.58,1.85-1.56a1.69,1.69,0,0,0-2-1.33h0a1.59,1.59,0,0,0-1.74,1.55C654.74,440.56,655.5,441,656.63,441Z"/><path class="cls-47" d="M621.25,454.92c1.09,0,1.93-.57,1.85-1.55a1.68,1.68,0,0,0-2-1.34c-1.08.09-1.73.68-1.75,1.55S620.13,455,621.25,454.92Z"/><path class="cls-47" d="M564,443.94c1.08,0,1.92-.58,1.84-1.56a1.69,1.69,0,0,0-2-1.34c-1.09.09-1.75.69-1.75,1.56S562.83,444,564,443.94Z"/><path class="cls-47" d="M631.57,470.65c1.07,0,1.93-.59,1.84-1.56a1.71,1.71,0,0,0-2-1.34c-1.09.09-1.73.69-1.74,1.56S630.43,470.68,631.57,470.65Z"/><path class="cls-47" d="M659.45,461.08c.68,0,1.23-.37,1.18-1a1.08,1.08,0,0,0-1.25-.86h0a1,1,0,0,0-1.12.95C658.25,460.69,658.71,461.08,659.45,461.08Z"/><path class="cls-47" d="M610.61,439.37c.68,0,1.23-.37,1.18-1a1.07,1.07,0,0,0-1.25-.85h0a1,1,0,0,0-1.12,1C609.39,439,609.87,439.39,610.61,439.37Z"/><path class="cls-47" d="M583.63,445.39c.69,0,1.23-.38,1.17-1s-.75-.89-1.26-.86a1.15,1.15,0,0,0-1.11,1A1,1,0,0,0,583.63,445.39Z"/><path class="cls-47" d="M522.21,443c.7,0,1.23-.37,1.19-1a1.12,1.12,0,0,0-1.27-.88,1,1,0,0,0-1.12,1C521,442.64,521.45,443.05,522.21,443Z"/><path class="cls-47" d="M497,463.65c.69,0,1.23-.37,1.19-1s-.77-.88-1.26-.85a1.21,1.21,0,0,0-1.13,1C495.8,463.28,496.3,463.68,497,463.65Z"/><path class="cls-47" d="M439,453.07c.69,0,1.23-.37,1.19-1a1.08,1.08,0,0,0-1.26-.86h0a1,1,0,0,0-1.13,1C437.78,452.71,438.28,453.09,439,453.07Z"/><path class="cls-47" d="M432.4,440c.7,0,1.25-.38,1.19-1s-.77-.89-1.27-.86a1.2,1.2,0,0,0-1.12,1C431.19,439.62,431.68,440,432.4,440Z"/><path class="cls-47" d="M527.2,472.85c.7,0,1.25-.38,1.18-1a1.08,1.08,0,0,0-1.25-.86h0a1,1,0,0,0-1.1.95C526,472.46,526.48,472.86,527.2,472.85Z"/><path class="cls-47" d="M512.77,452.17c.68,0,1.23-.38,1.17-1s-.75-.89-1.26-.86a1.14,1.14,0,0,0-1.11,1C511.57,451.81,512,452.2,512.77,452.17Z"/><path class="cls-47" d="M492.31,451.89c.68,0,1.23-.38,1.18-1a1.07,1.07,0,0,0-1.25-.86h0a1,1,0,0,0-1.12,1C491.09,451.53,491.57,451.92,492.31,451.89Z"/><path class="cls-47" d="M409.71,461.75c.69,0,1.23-.37,1.17-1s-.75-.9-1.26-.87a1.15,1.15,0,0,0-1.11,1C408.51,461.36,409,461.77,409.71,461.75Z"/><path class="cls-47" d="M412.31,450.53c.7,0,1.25-.37,1.19-1s-.75-.89-1.26-.85-1.11.45-1.11,1S411.57,450.56,412.31,450.53Z"/><path class="cls-47" d="M354.48,472c.69,0,1.23-.37,1.19-1a1.09,1.09,0,0,0-1.26-.86h0a1,1,0,0,0-1.12,1C353.28,471.63,353.75,472,354.48,472Z"/><path class="cls-47" d="M372.25,444.56c.68,0,1.23-.37,1.18-1a1.07,1.07,0,0,0-1.25-.85h0a1,1,0,0,0-1.12,1C371,444.2,371.51,444.58,372.25,444.56Z"/><path class="cls-47" d="M376.27,469.25c.68,0,1.23-.38,1.18-1s-.76-.88-1.26-.85-1.11.45-1.12,1S375.55,469.26,376.27,469.25Z"/><path class="cls-47" d="M602.8,457.12c.68,0,1.23-.37,1.17-1a1.12,1.12,0,0,0-1.27-.85c-.51,0-1.1.43-1.1,1S602.07,457.14,602.8,457.12Z"/><path class="cls-47" d="M679.38,437.78c.7,0,1.25-.37,1.18-1s-.76-.88-1.26-.85-1.11.45-1.12,1S678.66,437.81,679.38,437.78Z"/><path class="cls-47" d="M676.68,472.83c.69,0,1.23-.37,1.19-1a1.07,1.07,0,0,0-1.26-.85h0a1,1,0,0,0-1.12.95C675.48,472.44,676,472.85,676.68,472.83Z"/><path class="cls-48" d="M516.59,416.71a71.47,71.47,0,0,0,3.11,7.64l-1.74,3.4a3.39,3.39,0,0,1-2.56-1.45c-1-1.47-5.47-5.72-7.4-8.18Z"/><path class="cls-12" d="M515.56,426.52c.68-.58,1.07.52,1.56.28s0-2.53,1.35-3.12,2,.67,2.92,1.56a11.21,11.21,0,0,0,5.44,2.62c1.68.45,3.56.84,2.86,2.24s-11.42,1.15-12.39.28a7.7,7.7,0,0,1-.92-1.75C515.85,427.75,515.22,426.8,515.56,426.52Z"/><path class="cls-15" d="M472.78,394.38c2.74-2.06,14-20,23.59-18.7,6,.84,9,7.5,14.4,21.24,3.62,9.15,9.09,22.3,9.09,22.3a19.56,19.56,0,0,1-10.52,4.1s-13.48-12.76-15-20.46c0,0-3.59,10.77-10.43,15.72l-22.05-3.24-1.71-10.91Z"/><path class="cls-49" d="M487.29,416a.32.32,0,0,1-.23-.09.34.34,0,0,1,0-.48A39.94,39.94,0,0,0,493.94,403a12.56,12.56,0,0,1-3.25-6.79.36.36,0,0,1,.29-.39.31.31,0,0,1,.37.27v0a11.86,11.86,0,0,0,3.21,6.53.34.34,0,0,1,.09.36c0,.08-2.71,8.09-7.11,12.83A.35.35,0,0,1,487.29,416Z"/><path class="cls-49" d="M509.34,423.68a.32.32,0,0,1-.23-.09c-.56-.53-13.58-12.94-15.12-20.65a39.16,39.16,0,0,1-1.56-12.22.34.34,0,1,1,.67-.15.38.38,0,0,1,0,.15,38.52,38.52,0,0,0,1.56,12c1.08,5.39,8.18,13.4,12.19,17.56a31.63,31.63,0,0,0,11.47-4.56.34.34,0,0,1,.28,0,.35.35,0,0,1,.23.2l1.36,3.12a.34.34,0,0,1-.08.39,19.78,19.78,0,0,1-10.74,4.19Zm-1.95-2.76c1.05,1.08,1.79,1.81,2.07,2.07a19.51,19.51,0,0,0,10-3.86l-1.1-2.57a32.68,32.68,0,0,1-11,4.41Z"/><path class="cls-49" d="M499.63,385.89h-.11a8.32,8.32,0,0,1-5-4.68.36.36,0,0,1,.19-.45.32.32,0,0,1,.42.18v0a7.66,7.66,0,0,0,4.58,4.35.33.33,0,0,1,.23.41h0A.32.32,0,0,1,499.63,385.89Z"/><path class="cls-5" d="M471.88,348.87c0,1.14,5.7-.63,10.47-1.83s8.12-2.22,8.9-3-1-5.2-2.48-7.16-3.32-3.54-4.16-3.32-3.94,4.05-6.73,7C475.9,342.73,471.83,347.77,471.88,348.87Z"/><path class="cls-36" d="M484.06,332.81c-.81,1.24.94,1.24,3.84,5.41s2.32,6.77,3.89,6.23c1.87-.64-.23-5.42-1.56-7.62S485.31,330.92,484.06,332.81Z"/><path class="cls-36" d="M485.47,338a.37.37,0,0,1-.3-.19,4.48,4.48,0,0,0-1.47-1.56.35.35,0,0,1-.1-.47.32.32,0,0,1,.45-.1h0a5.06,5.06,0,0,1,1.72,1.84.35.35,0,0,1-.15.46.32.32,0,0,1-.16,0Z"/><path class="cls-50" d="M476.6,462.2c-1,3.71-1.93,7.59-1.93,7.59l-2.9,2.29-1.44-2.15a88.39,88.39,0,0,1,.13-9.35Z"/><path class="cls-20" d="M473.9,469.11c1.56.35,1.2,1.18,1.26,3.75a10.52,10.52,0,0,0,.92,4.46c.61,1.15,1.75,1.56,1.64,2.87-.16,2-5.78,2.32-7.29-1.2-1.37-3.12-.77-9.65,0-9.53s.32,1.13.76,1.25S471.75,468.58,473.9,469.11Z"/><path class="cls-12" d="M466.11,404.74c4,2.78,18.05,7.11,22.75,11.66s.84,17-1.37,25.47-7.79,22.59-7.79,22.59-9.58,0-12.47-3.82a142.82,142.82,0,0,1,3.31-29.79H451.46c-5.78,0-11.25-16.37-10.53-23.29C441.72,400.05,466.11,404.74,466.11,404.74Z"/><path class="cls-51" d="M470.46,431.17h-19c-3.24,0-10.07-8.16-10.91-23.14a.33.33,0,0,1,.3-.36h0a.35.35,0,0,1,.36.33h0c.91,14.85,7.64,22.5,10.3,22.5H470a14.54,14.54,0,0,1-.7-4.34.33.33,0,0,1,.31-.35h0a.35.35,0,0,1,.33.35,11.78,11.78,0,0,0,.87,4.5.34.34,0,0,1,0,.34A.34.34,0,0,1,470.46,431.17Z"/><path class="cls-51" d="M479.7,464.81c-.39,0-9.79,0-12.81-4a.38.38,0,0,1,0-.21,164.54,164.54,0,0,1,3.3-29.85c.55-2.76,1.56-6.38,1.56-6.41a.33.33,0,0,1,.4-.24h0a.35.35,0,0,1,.24.4s-1,3.63-1.56,6.36a176.8,176.8,0,0,0-3.18,25.64,23.06,23.06,0,0,0,13.63,3.88.33.33,0,0,1,.3.14.31.31,0,0,1,0,.32L480,464.6A.33.33,0,0,1,479.7,464.81Zm-12.2-4.29c2.65,3.26,10.55,3.58,12,3.62l1.26-3a23.93,23.93,0,0,1-13.17-3.79C467.51,459.07,467.5,460.18,467.5,460.52Z"/><path class="cls-51" d="M482,424.57a.37.37,0,0,1-.31-.17,6.81,6.81,0,0,1-.72-3.68.35.35,0,0,1,.37-.31.34.34,0,0,1,.3.37,5.9,5.9,0,0,0,.66,3.3.37.37,0,0,1-.15.46Z"/><path class="cls-18" d="M439.76,404.14s0,2.86,1.06,3.88,7.79,2.37,14.86.9c7.95-1.64,14.33-5.19,16.91-10.6,2-4.27-1.46-4.95-1.46-4.95Z"/><path class="cls-6" d="M467.36,359.18c4.67.84,9.21,4.81,13.76,6.59s11.48,3.36,13,8.27c1.93,5.75-2.37,9.65-12.17,7.45-9.35-2.1-11.86-3.11-12.93-2.88Z"/><path class="cls-18" d="M487.13,382.44a24.34,24.34,0,0,1-5.16-.62c-4-.9-6.68-1.56-8.64-2.06a15.9,15.9,0,0,0-4.15-.81.33.33,0,0,1-.35-.33.36.36,0,0,1,.24-.34,14.06,14.06,0,0,1,4.41.83c2,.48,4.68,1.15,8.65,2,5.25,1.18,9.18.67,11.08-1.43a5.38,5.38,0,0,0,.69-5.57,7.82,7.82,0,0,0-2.92-3.72.35.35,0,0,1-.18-.45.34.34,0,0,1,.45-.18.36.36,0,0,1,.12.08,8.34,8.34,0,0,1,3.12,4.05,6.11,6.11,0,0,1-.83,6.24A8.54,8.54,0,0,1,487.13,382.44Z"/><path class="cls-52" d="M427.76,400.3c-1,5.41-.91,21.63-2.26,26.37,0,0-2.59.56-3.84,1-2.38.88-4.83,2.33-4.67,3.12h12.47c1.91,0,7.79-21.26,8.44-29.81Z"/><path class="cls-53" d="M444.15,339.52s-2.63-1.93-5.67,2.47a6.77,6.77,0,0,0,1.7,8.9,6.64,6.64,0,0,0,5.89,1.1c4.67-1.42,2.68-7.79,2.68-7.79Z"/><path class="cls-54" d="M446.33,346.72c1.25,4.68,1.36,11.61-1,12a15.16,15.16,0,0,0,12.62,4.84c8.56-.45,7.67-4.67,7.67-4.67q-3.3-.35-6.54-1a29.52,29.52,0,0,1-.33-4.4l-11.5-7.79Z"/><path class="cls-9" d="M459,357.66v-.1a29.2,29.2,0,0,1-.28-4.07l-11.5-7.79-.91,1c1.25,4.67,1.36,11.61-1,12a13.06,13.06,0,0,0,4.07,3.12A15.57,15.57,0,0,0,459,357.66Z"/><path class="cls-53" d="M443.93,345s-3.95-1.56-5.36-8.46c-1.46-7.14,3.26-14.24,9.18-13.56,3.71-4.22,14.53-.51,16.72,6.08a8,8,0,0,1-.88,7.63L446.1,345Z"/><path class="cls-55" d="M459.16,355.11a12,12,0,0,1-11.1-6.59A19.48,19.48,0,0,1,445.79,338c.29-2.71,1.21-10.45,10.77-9.89,0,0,7.51-.63,7.94,12.78C464.82,350.59,460.41,354.78,459.16,355.11Z"/><path class="cls-55" d="M446.61,342.73s-3.11-2.74-4.33-1.18c-1.34,1.81,1.81,6.51,6,4.68Z"/><path class="cls-9" d="M443.82,344.48c.71.75,1.72,1,2.08.62s.11-1.23-.61-2-1.56-1.06-1.93-.7S443.12,343.75,443.82,344.48Z"/><path class="cls-9" d="M459.1,346.68l.43-.14a3.75,3.75,0,0,0,1.14-.59,2.7,2.7,0,0,0,.62-.69,1.64,1.64,0,0,0,.22-.51.86.86,0,0,0,0-.32.48.48,0,0,0,0-.17.2.2,0,0,0,0-.11v-.08h0V344a1,1,0,0,0-.2-.21l-.14-.07-.22-.11-.4-.21a4.12,4.12,0,0,1-.77-.48,3.2,3.2,0,0,1-1.07-1.32,3.5,3.5,0,0,1-.27-1.56,5.94,5.94,0,0,1,.16-1.11l.11-.42h0a.15.15,0,0,0-.12-.18h0a.15.15,0,0,0-.18.08v0l-.14.43A4.73,4.73,0,0,0,458,340a4.18,4.18,0,0,0,.16,1.76,3.9,3.9,0,0,0,1.15,1.7,6.26,6.26,0,0,0,.81.63l.42.25.19.1h0v.18c0,.09-.05.19-.08.28a1.82,1.82,0,0,1-.36.51,3.27,3.27,0,0,1-.86.61l-.4.17a.3.3,0,0,0-.16.36.28.28,0,0,0,.33.17Z"/><path class="cls-53" d="M457.55,324.21c1.34,3.53-5.92,8.94-10.44,12.87-.46,2,.91,5.47-1.09,5.16-1.56-.27-2.2-8.25-.25-12.47A10,10,0,0,1,457.55,324.21Z"/><path class="cls-56" d="M460,335.5c0,.61.86.46,2.21.8s2.06.86,2.14.4-.17-1-1.64-1.55C461.72,334.71,459.88,334.65,460,335.5Z"/><path class="cls-56" d="M454.64,335.92c.08.61-1.56.78-3.12,1.45s-2.8,1.89-3,1.45,0-1.56,2.35-2.71S454.55,335.24,454.64,335.92Z"/><path class="cls-25" d="M454.64,347.91a27,27,0,0,0,3.21.7,12.32,12.32,0,0,0,2.91.11s-1.16,2.59-3.41,2.23S454.64,347.91,454.64,347.91Z"/><path class="cls-26" d="M457.32,350.11a1.83,1.83,0,0,0,2.17-.86,13.63,13.63,0,0,1-2.12-.25,18.34,18.34,0,0,1-1.95-.44A2.61,2.61,0,0,0,457.32,350.11Z"/><path class="cls-23" d="M463,339.17a1.38,1.38,0,0,1-.67,1.45c-.46.17-.9-.19-1-.8a1.37,1.37,0,0,1,.67-1.45C462.46,338.2,462.9,338.56,463,339.17Z"/><path class="cls-23" d="M460.09,340.38a2.87,2.87,0,0,1,1.73-1.56c.94-.32,1.06.6,1.94.6a1,1,0,0,0,.78-.94.47.47,0,0,1-.63.2h0c-.34-.17-1.2-1.2-2.34-.83a2,2,0,0,0-1.5,2.33A1.6,1.6,0,0,0,460.09,340.38Z"/><path class="cls-23" d="M454.23,340.62a1.2,1.2,0,0,0-.7-1.45c-.5-.11-1,.35-1.09,1a1.23,1.23,0,0,0,.7,1.45C453.64,341.77,454.13,341.3,454.23,340.62Z"/><path class="cls-23" d="M455,340.37a2.44,2.44,0,0,0-2.29-.35c-1.1.27-1,.92-1.85,1.36a1.06,1.06,0,0,1-1.31-.41.56.56,0,0,0,.75-.23,3.8,3.8,0,0,1,2.1-1.84,2,2,0,0,1,2.55,1.27A1.17,1.17,0,0,1,455,340.37Z"/><path class="cls-6" d="M445.32,358.68a8.51,8.51,0,0,0-6.53.32s-.17,14-.5,22.49-.79,20.78,1.75,22.8,12.95,3.38,21.82-.67,9.8-7.26,10-9.35-.51-4.67-.51-7.1.67-5.74.51-9.64-3.12-13-3.55-15-.85-3.39-.85-3.39l-1.74-.28a14.21,14.21,0,0,1-9.66,4C448,362.9,445.32,358.68,445.32,358.68Z"/><path class="cls-6" d="M438.79,359c-2.48,1-6.7,5.08-9.35,18.25s-2.76,19.73-2.65,21.82,2,2.7,4.4,3.12a9,9,0,0,0,6.74-.91c1.7-1.23,3.39-10.23,4.68-16.89s3.12-12.62,3.12-12.62Z"/><path class="cls-57" d="M478.45,345.84c-.76.87-2.6,1.34-3.38,2.93s.45,5.51,1.23,8.66c1.11,4.43,3.52,15.58,7.22,19.61,3.38,3.72,6.93,3.94,9.13,2.13,1.9-1.56,1.12-6.75-2-10.91-4.35-5.75-9.79-14.3-9.57-16.22s3.21-2.25,5.75-4.89c2-2.14,2.76-6,1.75-6.1s-1.34,2-2,3a4.67,4.67,0,0,1-2,1.81c-.34,0,.9-.76,1.35-2.88s.39-4-.4-3.91-1.17,1.79-1.79,3.78A6.27,6.27,0,0,1,481.1,346c-.45.11,1.3-4.29,0-4.29S479.79,344.2,478.45,345.84Z"/><path class="cls-18" d="M433.71,402.84a14.15,14.15,0,0,1-2.52-.23c-2.92-.56-4.45-1.65-4.45-3.12a.34.34,0,0,1,.32-.34h0a.34.34,0,0,1,.34.34h0c0,1.56,2.44,2.2,3.9,2.48a8.77,8.77,0,0,0,6.5-.84c1.43-1.06,3.12-9.13,4.25-15l.35-1.67s1-4.55,1.55-6.73a.34.34,0,0,1,.4-.25h0a.34.34,0,0,1,.23.42c-.67,2.17-1.56,6.64-1.64,6.69l-.25,1.7c-1.63,8.07-3,14.32-4.53,15.44A7.61,7.61,0,0,1,433.71,402.84Z"/><path class="cls-18" d="M443.19,383a.3.3,0,0,1-.24-.09.33.33,0,0,1,0-.46l0,0,2.25-2.25a.33.33,0,0,1,.46,0l0,0a.35.35,0,0,1,0,.47l-2.26,2.26A.29.29,0,0,1,443.19,383Z"/><path class="cls-18" d="M472,394.83h0a.32.32,0,0,1-.31-.34v0a16,16,0,0,0-.36-3.64,20.82,20.82,0,0,1-.43-3.6c0-.94.1-2,.23-3.26a46.54,46.54,0,0,0,.28-6.36,39.76,39.76,0,0,0-1.47-7.48.35.35,0,0,1,.31-.37.34.34,0,0,1,.35.2,41.22,41.22,0,0,1,1.48,7.62,43.4,43.4,0,0,1-.28,6.45,31.66,31.66,0,0,0-.22,3.2,21.34,21.34,0,0,0,.41,3.47,15.87,15.87,0,0,1,.37,3.82.32.32,0,0,1-.34.31Z"/><path class="cls-18" d="M471.58,375.68a.45.45,0,0,1-.23,0,.33.33,0,0,1,0-.48c.73-.83.59-3.42.46-4.35a.36.36,0,0,1,.3-.38.33.33,0,0,1,.37.28h0c0,.38.46,3.7-.64,4.9A.29.29,0,0,1,471.58,375.68Z"/><path class="cls-18" d="M460.76,384.8a.38.38,0,0,1-.31-.18.34.34,0,0,1,.14-.45,27.6,27.6,0,0,0,5.41-3.74.35.35,0,0,1,.49,0,.34.34,0,0,1,0,.48l0,0a30.58,30.58,0,0,1-5.53,3.82A.41.41,0,0,1,460.76,384.8Z"/><path class="cls-18" d="M463.23,385a.34.34,0,0,1-.33-.27.33.33,0,0,1,.23-.4h0a3.16,3.16,0,0,0,1.56-1,.34.34,0,1,1,.46.49,3.65,3.65,0,0,1-1.9,1.18Z"/><path class="cls-9" d="M488.82,378.25a2.59,2.59,0,0,1-2-.92.33.33,0,0,1,0-.48.34.34,0,0,1,.46,0,1.93,1.93,0,0,0,1.47.68.33.33,0,0,1,.33.33.34.34,0,0,1-.26.39Z"/><path class="cls-56" d="M441.18,337.23a.38.38,0,0,1-.32-.21.35.35,0,0,1,.19-.44,25.82,25.82,0,0,0,11.39-9.16.37.37,0,0,1,.56.46,26.37,26.37,0,0,1-11.7,9.35Z"/><path class="cls-56" d="M442.73,339.18a.35.35,0,0,1-.34-.31.33.33,0,0,1,.3-.36h0a5.26,5.26,0,0,0,2.45-1.07.33.33,0,0,1,.48,0,.32.32,0,0,1,0,.46,6.1,6.1,0,0,1-2.82,1.22Z"/><path class="cls-56" d="M443.62,326.12a.3.3,0,0,1-.29-.17.34.34,0,0,1,.13-.46h0a8.71,8.71,0,0,1,2.88-1.07,4.84,4.84,0,0,1,3.12.5.3.3,0,0,1,.14.41.05.05,0,0,1,0,0,.33.33,0,0,1-.44.13h0a4.22,4.22,0,0,0-2.68-.4,8.6,8.6,0,0,0-2.68,1A.29.29,0,0,1,443.62,326.12Z"/><path class="cls-56" d="M449.78,324a.34.34,0,0,1-.34-.32.32.32,0,0,1,.14-.27,5.62,5.62,0,0,1,4-1.24.33.33,0,0,1,.31.35h0a.35.35,0,0,1-.37.31A5,5,0,0,0,450,324,.43.43,0,0,1,449.78,324Z"/><path class="cls-56" d="M443.06,350.56h0a4.81,4.81,0,0,1-3.12-1.56,4.87,4.87,0,0,1-1.2-3.32,9.19,9.19,0,0,1,1.1-3.49.34.34,0,0,1,.45-.16.35.35,0,0,1,.17.46,8.24,8.24,0,0,0-1,3.21,4,4,0,0,0,3.74,4.17.32.32,0,0,1,.31.34v0a.35.35,0,0,1-.35.34Z"/><path class="cls-56" d="M444.37,349.11a2.92,2.92,0,0,1-2-.77.33.33,0,0,1,0-.48.36.36,0,0,1,.48,0,2.27,2.27,0,0,0,2.45.39.34.34,0,0,1,.39.56l-.1.05A2.74,2.74,0,0,1,444.37,349.11Z"/><path class="cls-58" d="M534.54,351.09a10,10,0,0,0,1.78-4.35c.21-1.31-.22-2.76.12-4.91.89-5.36,5.39-10.46,11.64-9.75a10.63,10.63,0,0,1,13.5,4.59c.92,1.69.61,3.32,1.07,4.68.66,2.52,2.28,3.63,3,7.62.59,3.6-.5,5.31-.66,7.45s1.19,2.62,1.56,5.58a18.89,18.89,0,0,1-9.61,1.56,74.65,74.65,0,0,0-9-.74,43,43,0,0,1-4.68-.08c-1.67-.09-4-.54-5.62-.71a11,11,0,0,1-4.35-1.56C534.15,357.73,533.12,354.2,534.54,351.09Z"/><path class="cls-59" d="M555.72,352.85s-1.86,7.88,1.18,12.34c2,3,6,3.29,8.57,5.75,0,0-11.23,2.53-19.6,1.69S535.65,368,535.65,368s6-.17,7.49-2.62a10.74,10.74,0,0,0,1.56-4.56l9.26-7.89Z"/><path class="cls-24" d="M565.21,370.69c-2.54-2.23-6.34-2.66-8.31-5.51-3-4.46-1.18-12.35-1.18-12.35h-1.81l-9.26,7.89a10.67,10.67,0,0,1-1.26,4.08C544.89,367.3,550.92,375,565.21,370.69Z"/><path class="cls-60" d="M504.87,371.33a26.47,26.47,0,0,1,1.12,6.24l6.87-3.12a69.87,69.87,0,0,0-2.57-7.28Z"/><path class="cls-5" d="M532.53,368.9c-5.69,2.77-10.74,14.2-14.12,16.22,0,0-2.7-6.74-5-13.85a55.7,55.7,0,0,1-8.94,4.22s-.34,25.86,10.47,28.91c0,0,6.08,2.35,19.61-9A38.28,38.28,0,0,0,532.53,368.9Z"/><path class="cls-5" d="M535.57,367.73s3.71,3.21,11.48,3.88a92.16,92.16,0,0,0,18.7-1.18s-1.35,10.47-.17,15.71,5.91,18.42,6.08,21.81a8.49,8.49,0,0,1-2.31,5.86l-33.84-3.11a54.37,54.37,0,0,0-.52-9.46c-.67-3.12-3.54-9.48-3.88-13S534,377.91,532.47,369Z"/><path class="cls-35" d="M571.72,407.94c-.15-3.12-4.36-15.07-5.84-20.81-8.1,9.87-25.42,22.34-25.42,22.34l1.76,1.8,27.2,2.53A8.52,8.52,0,0,0,571.72,407.94Z"/><path class="cls-5" d="M565.85,370.43c4,4.89,6.76,19.09-6.77,32.44a64.1,64.1,0,0,1-17.75,10.82l-5.4-7.95a105.18,105.18,0,0,0,12.68-11,33.4,33.4,0,0,0,7.09-13.68Z"/><path class="cls-36" d="M535.57,411h0a.33.33,0,0,1-.33-.33v0a55.21,55.21,0,0,0-.5-9.35,46.65,46.65,0,0,0-1.56-4.8,43.56,43.56,0,0,1-2.35-8.24,19.84,19.84,0,0,1,.64-5.14c.22-1.09.47-2.34.67-3.65a.34.34,0,0,1,.39-.28.33.33,0,0,1,.28.37h0c-.2,1.34-.45,2.59-.69,3.7a20,20,0,0,0-.62,4.94,43.18,43.18,0,0,0,2.32,8.09,46,46,0,0,1,1.56,4.87,53.41,53.41,0,0,1,.52,9.54A.33.33,0,0,1,535.57,411Z"/><path class="cls-36" d="M535.9,406.08a.35.35,0,0,1-.32-.37.36.36,0,0,1,.13-.23,109.24,109.24,0,0,0,12.62-10.91,33.54,33.54,0,0,0,7-13.55.35.35,0,0,1,.41-.24.31.31,0,0,1,.25.38v0A34.36,34.36,0,0,1,548.83,395a106,106,0,0,1-12.73,11A.24.24,0,0,1,535.9,406.08Z"/><path class="cls-36" d="M553.9,386.28h0a.33.33,0,0,1-.32-.34v0a14.16,14.16,0,0,0-.32-3.37.34.34,0,0,1,.23-.4.34.34,0,0,1,.42.24h0a13.25,13.25,0,0,1,.34,3.55.33.33,0,0,1-.35.33Z"/><path class="cls-36" d="M531.42,384.28a.31.31,0,0,1-.29-.17,13.94,13.94,0,0,1-.89-3.41.34.34,0,0,1,.67-.1h0a15.23,15.23,0,0,0,.81,3.12.35.35,0,0,1-.13.47Z"/><path class="cls-36" d="M520.86,392.82a.34.34,0,0,1-.33-.28,36.84,36.84,0,0,0-2.43-7.28c-1.7-3.91-4.26-11.62-4.86-13.48a86.75,86.75,0,0,1-8.64,4,.29.29,0,0,1-.41-.14l0,0a.33.33,0,0,1,.16-.44h0a79.44,79.44,0,0,0,8.91-4.19.32.32,0,0,1,.3,0,.3.3,0,0,1,.2.22c0,.09,3.12,9.35,5,13.82a38.05,38.05,0,0,1,2.48,7.42.35.35,0,0,1-.28.39Z"/><path class="cls-36" d="M521.79,389.39a.3.3,0,0,1-.29-.17,12,12,0,0,0-3.26-3.85.32.32,0,0,1-.13-.44h0a.34.34,0,0,1,.47-.12,12.13,12.13,0,0,1,3.51,4.09.33.33,0,0,1-.13.45h0A.29.29,0,0,1,521.79,389.39Z"/><path class="cls-36" d="M515,403.22h0a5.34,5.34,0,0,1-2.24-1.25.31.31,0,0,1,0-.46l0,0a.32.32,0,0,1,.46,0,4.77,4.77,0,0,0,2,1.12.34.34,0,0,1,.26.39h0a.34.34,0,0,1-.44.21Z"/><path class="cls-36" d="M557.11,402.55a.37.37,0,0,1-.21,0,.34.34,0,0,1,0-.47l0,0a4.78,4.78,0,0,0,1.11-1.94.34.34,0,1,1,.67.09,5.26,5.26,0,0,1-1.26,2.27A.3.3,0,0,1,557.11,402.55Z"/><path class="cls-36" d="M543.67,391.22h0c-.2,0-4.84-.19-6.64-1.78a.34.34,0,0,1,0-.48.34.34,0,0,1,.46,0c1.55,1.43,6.15,1.55,6.23,1.55a.38.38,0,0,1,.33.36.34.34,0,0,1-.28.38Z"/><path class="cls-36" d="M541.83,392.93h0a11,11,0,0,1-3.11-1,.33.33,0,0,1-.11-.46.3.3,0,0,1,.42-.13l0,0a10.87,10.87,0,0,0,2.84.93.35.35,0,0,1,.26.39A.33.33,0,0,1,541.83,392.93Z"/><path class="cls-36" d="M569.07,419.55c.8-.23.35-5.75.35-5.75s-5-4.4-18.14-4.29Z"/><path class="cls-5" d="M567.84,412.77l-.6-.31a.36.36,0,0,0,0,.25,50.66,50.66,0,0,1,0,5.78l.65.36A42.54,42.54,0,0,0,567.84,412.77Z"/><path class="cls-5" d="M563.81,411.12v5.44l.67.39v-5.61Z"/><path class="cls-5" d="M562,415.53h0a.33.33,0,0,0,.33-.33h0l.09-4.46-.67-.16-.09,4.6a.34.34,0,0,0,.32.36Z"/><path class="cls-5" d="M557.7,412.68a.35.35,0,0,0,.34-.35h0V409.9h-.67v2.5A.36.36,0,0,0,557.7,412.68Z"/><path class="cls-5" d="M569.42,414.14a.37.37,0,0,1-.21,0A26.93,26.93,0,0,0,553.63,410a.37.37,0,0,1-.25-.38.35.35,0,0,1,.33-.34,27.86,27.86,0,0,1,16,4.24.31.31,0,0,1,.08.45v0A.38.38,0,0,1,569.42,414.14Z"/><path class="cls-44" d="M520.12,414.58c-3.64.17-21.38-6.95-26.07,0s2.43,16.35,16.86,17.73h16.17Z"/><path class="cls-34" d="M550.93,408c-4.55-2.23-10.09-5.46-15.5-7,.89,11.86,3.43,22.66,9.26,31.29h19.93S569,430,569,419.56A96.08,96.08,0,0,0,550.93,408Z"/><path class="cls-20" d="M547.15,431.08s.48-.67,3-.25,4,2.42,6.82,4.18c2.4,1.56,4.68,2.74,4.06,4.16-.56,1.15-2.54,1.09-9.35-1.75A6.74,6.74,0,0,1,547.15,431.08Z"/><path class="cls-61" d="M537.87,432.76c3.37.91,5.1,1.56,8.09,2.44,3.49,1.07,8.89,3.8,9.67,3.11,1.34-1.07-2.14-4.91-4.91-6.23-1.56-.77-2.78-1.05-3.48-1.36s-3.12-3.11-5.47-5.3Z"/><path class="cls-20" d="M543.42,465.32s.81,0,1.92,2.26.9,4.1,1.09,7.37c.16,2.84-.09,7.11-3,6.95-2.21-.11-2.27-5.34-2.54-9.21C540.54,467.5,543.42,465.32,543.42,465.32Z"/><path class="cls-62" d="M536.64,458.73c1.22,3.29,1.75,5,2.73,8,1.15,3.46,1.73,9.6,3,9.71,2.38.18,2.74-4.6,2.2-7.62-.31-1.73-.78-2.86-.92-3.6s.78-4.35,1.12-7.55Z"/><path class="cls-34" d="M546.09,455.49s2.54-7.89-1.4-23.18c-2.14-9.57-6-24.7-9.26-31.29-5.6-1.56-11-1.42-14.84,2.56-5.09,5.32,1.39,18.7,5.33,32.21s4.68,19,7.65,21.08a4.56,4.56,0,0,0,.46,3.24c.93,1.41,2.55.94,7.41.71S548.86,456.87,546.09,455.49Z"/><path class="cls-63" d="M510.29,367.09a10.36,10.36,0,0,0-9.68-6l1.31,3.67-2.26,3c-.09,1.56,3.82,2.68,5.21,3.57Z"/><path class="cls-64" d="M510.29,367.09a14.37,14.37,0,0,1-1.23-4.91c-.3-2.13-1.45-5.53-2.43-5.36-1.78.3,0,3.2-.38,5.16-3.58,4.82.89,7.2.89,7.2C510,368.12,510.29,367.09,510.29,367.09Z"/><path class="cls-21" d="M544.25,362.17a11.1,11.1,0,0,0,9.74-6.94,18.17,18.17,0,0,0,1.31-9.85c-.49-2.47-3.12-10.23-10.8-7.79,0,0-6.24,2-6.24,12C538.23,358.43,543.06,362,544.25,362.17Z"/><path class="cls-21" d="M554.94,349.78s2.73-2.78,3.91-1.44-1.17,6.24-5.16,4.77Z"/><path class="cls-58" d="M542.29,345.76c-.36.29-.85-.58-2.22-.69-1.12,0-1.56,1-1.76.89s.36-1.9,2.06-1.78C542.36,344.28,542.47,345.51,542.29,345.76Z"/><path class="cls-58" d="M546.65,346.13c.36.38,1.43-.64,3.24-.23,1.42.31,2.46,1.34,2.65,1.2s-.81-2.06-3.12-2.37C547.33,344.46,546.31,345.76,546.65,346.13Z"/><path class="cls-23" d="M539.6,347.86a1.25,1.25,0,0,0,.66,1.3c.42.15.81-.19.87-.75a1.24,1.24,0,0,0-.65-1.3C540.06,347,539.67,347.32,539.6,347.86Z"/><path class="cls-23" d="M542.29,348.87a2.68,2.68,0,0,0-1.56-1.3c-.86-.28-1,.57-1.75.59a.89.89,0,0,1-.75-.83.45.45,0,0,0,.62.16h0c.29-.17,1-1.14,2.1-.83a1.8,1.8,0,0,1,1.34,2.15S542.29,348.85,542.29,348.87Z"/><path class="cls-23" d="M547.63,348.87a1.12,1.12,0,0,1,.59-1.34c.45-.1.91.3,1,.94a1.09,1.09,0,0,1-.61,1.32C548.19,350,547.74,349.56,547.63,348.87Z"/><path class="cls-23" d="M546.94,348.73a2.26,2.26,0,0,1,2.08-.37c1,.22,1,.81,1.73,1.18a1,1,0,0,0,1.18-.4.51.51,0,0,1-.7-.2h0a3.45,3.45,0,0,0-2-1.56,1.81,1.81,0,0,0-2.28,1.2Z"/><path class="cls-24" d="M557.59,351.18c-.59.73-1.56,1-1.87.73s-.17-1.13.42-1.87,1.37-1.09,1.73-.79S558.18,350.43,557.59,351.18Z"/><path class="cls-24" d="M543.53,354.44l-.4-.1a3.51,3.51,0,0,1-1.09-.46,2.18,2.18,0,0,1-.63-.58,1.88,1.88,0,0,1-.22-.45,1.22,1.22,0,0,1,0-.27v-.26h0a.49.49,0,0,1,.16-.19l.12-.09.19-.11.38-.23a6.48,6.48,0,0,0,.67-.5,3.23,3.23,0,0,0,.88-1.33,3.41,3.41,0,0,0,.13-1.42,5,5,0,0,0-.23-1l-.15-.38h0a.16.16,0,0,1,.08-.17.14.14,0,0,1,.17,0l.18.37a7.9,7.9,0,0,1,.32,1.08,3.73,3.73,0,0,1,0,1.56,3.45,3.45,0,0,1-.92,1.63,5.24,5.24,0,0,1-.7.63l-.37.26-.16.13h0a.24.24,0,0,1,0,.12,1.53,1.53,0,0,0,.11.27,1.82,1.82,0,0,0,.38.45,4,4,0,0,0,.85.5l.38.12a.23.23,0,0,1,.15.29h0a.21.21,0,0,1-.25.15Z"/><path class="cls-58" d="M543.38,336c-.16,5.22,9.35,6.23,10.5,10.33,0,0,.08,2.6,1.56,2.94l2-1.88s.27-6.53-2.54-9.63C551.11,333.51,544,331.58,543.38,336Z"/><path class="cls-25" d="M548,355.61a28.47,28.47,0,0,1-3.31.4,12.6,12.6,0,0,1-2.94-.17s1,3.12,3.35,3S548,355.61,548,355.61Z"/><path class="cls-26" d="M545,357.21c-1.7.19-2-.71-2-.71a12.86,12.86,0,0,0,2.15,0,17,17,0,0,0,2-.27A3.48,3.48,0,0,1,545,357.21Z"/><path class="cls-65" d="M548.29,328.9a2.66,2.66,0,0,0-.89,1.76,2.3,2.3,0,0,0,.34,2,.39.39,0,0,0,.37.11.4.4,0,0,0,.3-.47h0c0-.16-.19-.3-.23-.44a1.41,1.41,0,0,1-.11-.61,4.48,4.48,0,0,1,.15-1.26,6.33,6.33,0,0,0,.25-1,.13.13,0,0,0-.15-.13Z"/><path class="cls-65" d="M552.06,329.25a3.31,3.31,0,0,0-2.33.55,3,3,0,0,0-1.55,1.93.45.45,0,0,0,.17.45.46.46,0,0,0,.65-.07l0,0c.12-.14.14-.4.23-.58a2.14,2.14,0,0,1,.47-.57,5.28,5.28,0,0,1,1.31-.88,7.82,7.82,0,0,0,1.09-.53.16.16,0,0,0,0-.23l0-.05Z"/><path class="cls-44" d="M536.53,461.41c-1.4,0-2.19-.24-2.78-1.09a7.88,7.88,0,0,1-.52-3.46.4.4,0,0,1,.14-.27.39.39,0,0,1,.3,0,15.5,15.5,0,0,0,10.81-.68.32.32,0,0,1,.44.13v0a.34.34,0,0,1-.15.45,16.93,16.93,0,0,1-5.41,1.39,18,18,0,0,1-5.47-.54,6.28,6.28,0,0,0,.41,2.61c.62.92,1.55.89,4.67.71l2.49-.16c3-.14,5.15-1.67,5.44-3.12a1.44,1.44,0,0,0-.93-1.56.34.34,0,0,1-.16-.45.36.36,0,0,1,.45-.15,2.1,2.1,0,0,1,1.3,2.37c-.34,1.55-2.59,3.44-6.06,3.61-1,0-1.77.09-2.48.14C538,461.36,537.2,461.41,536.53,461.41Z"/><path class="cls-44" d="M546.09,455.83H546a.34.34,0,0,1-.22-.43h0s2.46-8-1.4-23c-.75-3.35-2.29-10-4.15-16.59a.34.34,0,0,1,.31-.37.36.36,0,0,1,.35.2c1.85,6.63,3.39,13.25,4.16,16.6,3.91,15.21,1.48,23,1.37,23.38A.34.34,0,0,1,546.09,455.83Z"/><path class="cls-44" d="M543.28,426.53h0a.34.34,0,0,1-.26-.4,27.55,27.55,0,0,0,.56-7.19.33.33,0,1,1,.65-.14,26.41,26.41,0,0,1-.56,7.47.33.33,0,0,1-.38.26Z"/><path class="cls-44" d="M527.79,411.83a.37.37,0,0,1-.26-.12.34.34,0,0,1,0-.48,5,5,0,0,0,1.06-3.46.32.32,0,0,1,.32-.33h0a.32.32,0,0,1,.34.31v0a5.7,5.7,0,0,1-1.31,4A.36.36,0,0,1,527.79,411.83Z"/><path class="cls-10" d="M499.1,424.1H499c-1.2-.61-2.7-1.75-3-3a.34.34,0,0,1,.26-.39h0a.33.33,0,0,1,.4.23v0c.21.92,1.49,1.93,2.61,2.51a.31.31,0,0,1,.16.41s0,0,0,0A.33.33,0,0,1,499.1,424.1Z"/><path class="cls-66" d="M557.53,345.76a5,5,0,0,1-2.62-.7.33.33,0,0,1-.13-.45h0a.33.33,0,0,1,.44-.14l0,0a4.78,4.78,0,0,0,3.27.55.33.33,0,0,1,.38.27v0a.35.35,0,0,1-.31.38h0A9.55,9.55,0,0,1,557.53,345.76Z"/><path class="cls-66" d="M559.46,343.65A20.61,20.61,0,0,1,547,338.82a5.29,5.29,0,0,1-1.71-2.93.31.31,0,0,1,.29-.35h0a.31.31,0,0,1,.35.27.07.07,0,0,1,0,.05,4.77,4.77,0,0,0,1.56,2.47A19.59,19.59,0,0,0,560,343a.34.34,0,0,1,.27.41.36.36,0,0,1-.27.26Z"/><path class="cls-66" d="M564.38,361.34h0a.36.36,0,0,1-.29-.39,4.55,4.55,0,0,0-.49-2.05,7.59,7.59,0,0,1-.53-1.8,12.4,12.4,0,0,1,.25-3.21,14.92,14.92,0,0,0,.25-2,12.92,12.92,0,0,0-.5-3.86l-.07-.38a.34.34,0,0,1,.65-.17v0l.09.39a14.65,14.65,0,0,1,.55,4.11,20.93,20.93,0,0,1-.26,2.09,11.26,11.26,0,0,0-.25,3.12,6.25,6.25,0,0,0,.48,1.56,5,5,0,0,1,.53,2.4A.33.33,0,0,1,564.38,361.34Z"/><path class="cls-66" d="M561.08,352.85h-.16a.35.35,0,0,1-.14-.46h0a5.27,5.27,0,0,0-.18-3.77.34.34,0,0,1,.18-.44.38.38,0,0,1,.46.19,5.89,5.89,0,0,1,.14,4.35A.35.35,0,0,1,561.08,352.85Z"/><path class="cls-66" d="M557.28,362.4a.33.33,0,0,1-.31-.2,10.21,10.21,0,0,1,.51-7.39.34.34,0,0,1,.45-.15.35.35,0,0,1,.16.46,9.41,9.41,0,0,0-.5,6.8.34.34,0,0,1-.17.45Z"/><path class="cls-66" d="M559.61,362.48a.3.3,0,0,1-.26-.12,4.18,4.18,0,0,1-.53-3v-.31a.35.35,0,0,1,.26-.41.34.34,0,0,1,.41.27.33.33,0,0,1,0,.14v.31a3.68,3.68,0,0,0,.36,2.5.33.33,0,0,1,0,.46l0,0A.32.32,0,0,1,559.61,362.48Z"/><path class="cls-66" d="M560.58,340.1a.34.34,0,0,1-.34-.33,4.92,4.92,0,0,0-1-3.11.33.33,0,1,1,.49-.44,5.49,5.49,0,0,1,1.19,3.58.34.34,0,0,1-.31.36Z"/><path class="cls-66" d="M555.17,333.68h-.12a11.13,11.13,0,0,0-6.66,0,.35.35,0,0,1-.4-.26.35.35,0,0,1,.26-.41,12,12,0,0,1,7,.09.34.34,0,0,1,.2.44A.3.3,0,0,1,555.17,333.68Z"/><path class="cls-66" d="M535.32,360h-.08a.35.35,0,0,1-.26-.41,12.09,12.09,0,0,0,.21-2.62v-1.07a9.47,9.47,0,0,1,.77-3c.14-.41.29-.83.43-1.26a.33.33,0,0,1,.41-.23h0a.31.31,0,0,1,.23.37l0,.05a13.07,13.07,0,0,1-.45,1.29,9.69,9.69,0,0,0-.72,2.81V357a13.48,13.48,0,0,1-.23,2.76A.38.38,0,0,1,535.32,360Z"/><path class="cls-66" d="M537.08,360.72h-.16a.37.37,0,0,1-.14-.45,5,5,0,0,0,.39-2.45v-.11a.33.33,0,0,1,.33-.33h0a.32.32,0,0,1,.32.33v.11a5.81,5.81,0,0,1-.45,2.76A.37.37,0,0,1,537.08,360.72Z"/><path class="cls-66" d="M538,342.45h0a.33.33,0,0,1-.33-.35h0a6.79,6.79,0,0,1,5.53-6.57.35.35,0,0,1,.39.29.34.34,0,0,1-.28.38,6.08,6.08,0,0,0-5,5.94A.33.33,0,0,1,538,342.45Z"/><path class="cls-5" d="M513.77,368.25c0,1.13-5.94-.66-10.91-1.87s-8.46-2.23-9.28-3,1-5.21,2.53-7.17,3.41-3.54,4.28-3.3,4.13,4.05,7.05,7C509.53,362.06,513.8,367.11,513.77,368.25Z"/><path class="cls-36" d="M501,352.1c.86,1.25-1,1.25-3.94,5.41s-2.35,6.78-4,6.23c-2-.64.19-5.42,1.56-7.62S499.66,350.22,501,352.1Z"/><path class="cls-36" d="M496.48,362h-.11a.33.33,0,0,1-.21-.41v0a19.07,19.07,0,0,1,3.79-5.8.34.34,0,0,1,.48,0,.33.33,0,0,1,0,.44,18.82,18.82,0,0,0-3.66,5.57A.33.33,0,0,1,496.48,362Z"/><path class="cls-36" d="M511,367.05a8.7,8.7,0,0,1-2.82-.53.35.35,0,0,1-.21-.44.32.32,0,0,1,.42-.19h0a8.74,8.74,0,0,0,2.59.49.32.32,0,0,1,.34.31h0A.35.35,0,0,1,511,367.05Z"/><path class="cls-67" d="M499.71,362.65c1,1.11-1.7,4.22-3.12,3.12S498.65,361.47,499.71,362.65Z"/><path class="cls-67" d="M501.72,364.05c1,1.3-2.34,4.45-3.74,3.12S500.64,362.68,501.72,364.05Z"/><path class="cls-67" d="M502.83,365.72c.9,1.08-1.75,3.87-3,2.76S501.86,364.58,502.83,365.72Z"/><path class="cls-68" d="M345.27,462a52.31,52.31,0,0,1,1,11.44l3.43,1.7a1.55,1.55,0,0,0,1.56-1.55.53.53,0,0,0,0-.13c.11-1.7,1.27-4.85,2.2-9.66Z"/><path class="cls-20" d="M351.24,473.66c-.61-.45-.53.39-1.14.46s-.76-1.74-3-1.85c-1.39,0-1.08.87-1.86,1.56a7.64,7.64,0,0,1-3.19,1.37c-.85.28-5.88,1.11-4.41,2.73s13.88,1.21,14.27.2a6,6,0,0,0-.17-2C351.55,474.48,351.72,474,351.24,473.66Z"/><path class="cls-69" d="M372.61,462a57.29,57.29,0,0,1,3,11.44l3.74,1.7s1.4,0,1.22-1.68.42-4.85.53-9.66Z"/><path class="cls-20" d="M380.55,473.66c-.68-.45-.45.39-1,.46s-.72-1.74-2.95-1.85c-1.4,0-1.27.87-1.93,1.56s-.86,1.63-1.95,2c-.79.27-2.86,2-.09,2.78,2.23.64,8.66.51,9-.5a6.36,6.36,0,0,0-.34-2C380.83,474.48,381.1,474,380.55,473.66Z"/><path class="cls-5" d="M338.88,365.25c.27,5-.78,38.36-.78,53.18s.53,24.34.78,31.49,1,17.39,1,17.39,9,3.45,16.67,1.06c0,0,1.86-20.89,2.12-32.54s1.06-12.17,1.33-16.14S366.37,374,366.37,374l-2.65-12.17Z"/><path class="cls-5" d="M351.58,367.09l.27,13.5,3.71,1.06s4.5,27,5.56,36,3.43,24.34,4.22,32,3.45,19,3.45,19,11.64,2.92,16.67-1.06c0,0-.79-39-1.56-49.21s-1.55-35.19-1.32-41.53,0-16.68,0-16.68l-17.77-1.32Z"/><path class="cls-36" d="M377.28,470.13A13.77,13.77,0,0,0,385.7,468a.4.4,0,0,0,.07-.55.41.41,0,0,0-.56-.07h0c-4.44,3.51-14.43,1.42-16.1,1-.37-1.68-2.64-11.81-3.36-18.7-.44-4.16-1.36-10.69-2.23-17-.75-5.35-1.56-10.91-2-15-1-8.9-5.52-35.74-5.56-36a.34.34,0,0,0-.28-.31l-3.43-1L352,367.16a.37.37,0,0,0-.32-.4h-.09a.39.39,0,0,0-.39.4l.27,13.5a.38.38,0,0,0,.28.37l3.47,1c.46,2.75,4.52,27.31,5.5,35.72.49,4.13,1.27,9.68,2,15,.89,6.32,1.8,12.85,2.23,17a193.36,193.36,0,0,0,3.45,19.12.42.42,0,0,0,.29.3A40,40,0,0,0,377.28,470.13Z"/><path class="cls-36" d="M368.13,426.8h.19a.4.4,0,0,0,.17-.53v0a17.91,17.91,0,0,1-2.17-9.51.41.41,0,0,0-.37-.42.41.41,0,0,0-.43.38,18.72,18.72,0,0,0,2.28,9.94A.39.39,0,0,0,368.13,426.8Z"/><path class="cls-36" d="M376.86,422.81a.4.4,0,0,0,.36-.24,5.75,5.75,0,0,0,.45-3.63.42.42,0,0,0-.47-.31.41.41,0,0,0-.31.47,5,5,0,0,1-.37,3.11.39.39,0,0,0,.16.53h0Z"/><path class="cls-36" d="M346.49,424.38a.4.4,0,0,0,.34-.2,6.3,6.3,0,0,0,.68-4.46.4.4,0,0,0-.77.17,5.47,5.47,0,0,1-.6,3.9.41.41,0,0,0,.14.54A.54.54,0,0,0,346.49,424.38Z"/><path class="cls-36" d="M351.85,381a.41.41,0,0,0,.39-.29.4.4,0,0,0-.27-.48h0l-3-.85a.39.39,0,0,0-.48.26.41.41,0,0,0,.26.5l3,.86Z"/><path class="cls-36" d="M356,385.09a.39.39,0,0,0,.32-.47.41.41,0,0,0-.32-.32,16.91,16.91,0,0,1-5.22-1,.4.4,0,0,0-.47.32.41.41,0,0,0,.19.43A17.53,17.53,0,0,0,356,385.09Z"/><path class="cls-36" d="M352.45,469.43a.38.38,0,0,0,.39-.35c2.16-21.82,2.78-44.65,2.78-44.89l3-26.49a.38.38,0,0,0-.31-.43h0a.39.39,0,0,0-.43.34h0l-3,26.54c0,.25-.62,23.08-2.79,44.85a.39.39,0,0,0,.36.43Z"/><path class="cls-36" d="M350.57,469.68a20.53,20.53,0,0,0,6.23-.87.4.4,0,0,0,.27-.34c0-.21,1.85-21,2.12-32.57a88.93,88.93,0,0,1,.93-12.84,30.24,30.24,0,0,0,.39-3.28c0-.61.24-2.18.55-4.67a.39.39,0,1,0-.78-.11c-.33,2.55-.52,4.1-.56,4.67-.08,1.27-.22,2.17-.38,3.21a89.15,89.15,0,0,0-.95,12.95c-.23,10.79-1.87,29.79-2.09,32.26-7.4,2.15-16.06-1.1-16.16-1.13a.4.4,0,0,0-.29.74h0A33,33,0,0,0,350.57,469.68Z"/><path class="cls-36" d="M379.59,370.41a17.67,17.67,0,0,1-9.56-4.28.42.42,0,0,1-.11-.41.39.39,0,0,1,.32-.26l9.53-1.56a.44.44,0,0,1,.32,0,.42.42,0,0,1,.14.28A31.65,31.65,0,0,1,380,370a.41.41,0,0,1-.39.35Zm-8.37-4.31a17.42,17.42,0,0,0,8.07,3.47,31.42,31.42,0,0,0,.17-4.85Z"/><path class="cls-70" d="M365.73,278.75s-.59,7.87.41,10.91,7.06,7.4,7.06,7.4-16.46,13.57-29.13,0c0,0,5.49-1.78,6.23-3.79.81-2.34.3-7.92.3-7.92L363,278.23Z"/><path class="cls-9" d="M350.48,292.46a33.61,33.61,0,0,0,.09-7.09L363,278.25l2.77.54s-.23,3.12-.15,6.24a14.31,14.31,0,0,1-5.74,6.92A10,10,0,0,1,350.48,292.46Z"/><path class="cls-40" d="M393.21,345.76s.53,7.6-2.84,10.28a18,18,0,0,1-8.43,3.12l-.79-9.6Z"/><path class="cls-40" d="M376.06,297.65s3.45-1.47,8.34,1.71,7.14,14.56,7.14,14.56l-16.41-11.64Z"/><path class="cls-20" d="M365.34,296.33A14,14,0,0,1,355,299.89c-6.88-.12-8.08-4.76-8.08-4.76l-5.42,5.56-3.43,36.25s-.14,12.29-.14,16.41-.39,10.31,0,11.5,5.3,3.12,13.23,2.91,15.9-4.11,20.26-5.09c6-1.33,10.52,0,12-1.92.81-1,.41-7.28.41-7.28Z"/><path class="cls-15" d="M352.53,322.85a10.33,10.33,0,0,0,1.56-.08A.4.4,0,0,0,354,322a16.12,16.12,0,0,1-7.46-1.09.4.4,0,0,0-.52.21.4.4,0,0,0,.22.52h0A16.92,16.92,0,0,0,352.53,322.85Z"/><path class="cls-15" d="M351,325.09a7.81,7.81,0,0,0,2-.25.38.38,0,0,0,.28-.46.4.4,0,0,0-.48-.3,7.79,7.79,0,0,1-4.77-.34.4.4,0,0,0-.52.22.39.39,0,0,0,.22.51h0A8.33,8.33,0,0,0,351,325.09Z"/><path class="cls-15" d="M349.76,368.18h1.45a53.18,53.18,0,0,0,15.27-3.52,52.51,52.51,0,0,1,5.11-1.56,34.8,34.8,0,0,1,6.83-.71c2.57-.1,4.44-.18,5.36-1.34s.56-6.49.48-7.56a.36.36,0,0,0-.35-.37h-.07a.4.4,0,0,0-.37.42c.17,2.52.18,6.37-.31,7-.71.89-2.4.95-4.77,1a37.07,37.07,0,0,0-7,.73c-1.41.32-3.12.92-5.18,1.56a53.68,53.68,0,0,1-15.05,3.48c-8.18.29-12.56-1.79-12.84-2.64a39.57,39.57,0,0,1,0-6.71c0-1.56.09-3.26.09-4.68a.4.4,0,1,0-.8,0c0,1.39,0,3-.09,4.68a34.74,34.74,0,0,0,.11,7C338,366.36,342.59,368.18,349.76,368.18Z"/><path class="cls-71" d="M295.23,306.25a12.35,12.35,0,0,1-6.08-3.85l4.1-5.54,4.55,5.42Z"/><rect class="cls-6" x="272.68" y="277.34" width="21.37" height="29.56"/><rect class="cls-18" x="290.93" y="277.34" width="3.1" height="29.56"/><rect class="cls-39" x="275.86" y="282.83" width="11.84" height="18.58"/><path class="cls-13" d="M338.23,299c-4.51,2.24-11.38,18.12-21.43,22.87,0,0-5.57-8.33-7.28-9.11,0,0-8.87,6.23-10,8.05s6.48,18.8,17.14,19.45,18.8-5.55,20.12-7.79S338.23,299,338.23,299Z"/><path class="cls-14" d="M318.25,340.69c9.91,0,17.44-5.64,18.87-8.05a.4.4,0,0,0-.24-.52.42.42,0,0,0-.45.11c-1.38,2.35-9.52,8.28-19.74,7.62-6.45-.4-12-7-15.05-13-1.75-3.44-2.06-5.52-1.84-5.86a.42.42,0,0,0-.11-.55.41.41,0,0,0-.56.13h0c-.64,1,.56,4.21,1.79,6.64,3.11,6.23,8.93,13,15.72,13.42C317.17,340.68,317.72,340.69,318.25,340.69Z"/><path class="cls-13" d="M360.71,354.92c.27,2.53-.26,3.71.94,4.24s11.77,1.71,17.06.27,6.24-2.39,6.61-4.1a52.07,52.07,0,0,0,.14-7.8Z"/><path class="cls-14" d="M361.48,359.52c-1.05-.47-1.06-1.36-1.06-2.6a14.18,14.18,0,0,0-.1-1.95.42.42,0,0,1,.29-.42l24.73-7.4a.4.4,0,0,1,.34,0,.34.34,0,0,1,.17.31,51,51,0,0,1-.14,7.91c-.45,2-1.56,2.93-6.9,4.4a29.06,29.06,0,0,1-7.08.72A44.15,44.15,0,0,1,361.48,359.52Zm-.34-4.3a12.41,12.41,0,0,0,.07,1.7c0,1.23,0,1.63.6,1.88,1,.44,11.42,1.72,16.8.25s6-2.32,6.32-3.82a45.3,45.3,0,0,0,.14-7.18Z"/><path class="cls-13" d="M365.25,319.61H359.8a109.71,109.71,0,0,1,1.18-12.8c1.2-6.36,6.54-11.81,6.54-11.81a32,32,0,0,1,6.57,1.89C375.86,297.88,365.25,319.61,365.25,319.61Z"/><path class="cls-13" d="M374.16,300.36l4.37-2S386.32,301,393.8,315c3.26,6.1,5.08,10.26,5.78,13.7l-18.28,3.57-9.93-12.7h-2v-9.13Z"/><path class="cls-40" d="M365.25,319.61h5.16a28.88,28.88,0,0,1,2-12.2c2.58-6.75,6.06-9,6.06-9a7,7,0,0,0-4.47-1.89c-2.57,0-5.85,4.68-7.34,10.33A56.79,56.79,0,0,0,365.25,319.61Z"/><path class="cls-13" d="M361.48,304.73a22.07,22.07,0,0,1,6.54-4.48c2.86-1.15,9.43-1.18,10.32-3.46s-4.68-6.36-12.2-7.15a9.31,9.31,0,0,1-.59,4.67C364.63,296.87,362.57,299.66,361.48,304.73Z"/><path class="cls-72" d="M306.61,309.82s-5-7.43-6.61-9.66a20.56,20.56,0,0,0-5.3-4.89c-2.51-1.86-4.19-3.56-4.68-2.51-.65,1.55,1.56,3.11,2.65,4.67.67,1,.66,3.71,2.78,5.42a5.13,5.13,0,0,0-.27,3.32c1.47,1.84,2.39,7.8,3.71,10.71Z"/><polygon class="cls-18" points="378.25 327.52 378.25 319.61 352.64 319.61 352.64 355.33 378.25 355.33 378.25 327.52"/><polygon class="cls-6" points="378.25 327.52 378.25 319.61 352.64 319.61 352.64 355.33 378.25 355.33 378.25 327.52"/><polygon class="cls-18" points="355.43 327.52 355.43 319.61 352.64 319.61 352.64 355.33 355.43 355.33 355.43 327.52"/><rect class="cls-35" x="358" y="325.76" width="23.22" height="29.56"/><rect class="cls-36" x="358" y="325.76" width="3.1" height="29.56"/><path class="cls-73" d="M370.21,341.08a9.8,9.8,0,0,1-4.57,0c-1.09-.29-2.18-2.86-3.46-4.36s-3.88-3-4.57-2.48,1.39,2.57,1.78,3.37.9,1.2.2,1.56a8.26,8.26,0,0,1-4.77-.69c-1.68-.7-3.77-1.29-3.86-.2s3.27,2.38,3.27,2.88-3.86-1.4-4.16.09,4,2.09,4,2.68-2.67-.59-2.78.5,1.1,2.37,7.8,4a104.88,104.88,0,0,0,13.29,2.18Z"/><path class="cls-13" d="M373.88,338.46s1.78-1.2,3.57-2.58a36.34,36.34,0,0,0,3.77-3.57q9.13-6.58,18.28-3.57c.92,4.5,0,7.79-2.21,12.47-2.74,6.08-12.09,11.9-19,11.5l-5-7.53Z"/><path class="cls-13" d="M373.88,338.46l-4.56,1s.79,5.36,1.38,8.13a22.21,22.21,0,0,0,2.19,5.56l5.36-.4s-1.56-5-2.59-7.93S373.88,338.46,373.88,338.46Z"/><path class="cls-13" d="M348.15,294.21a18.56,18.56,0,0,0-4.09,9.78,120.84,120.84,0,0,0-.41,22.9c.53,5.42.93,16.27.93,22.34s-.26,8.34-2,9.14a8.18,8.18,0,0,1-7.14-1.86c-1.06-1.45-.14-12.56.13-18.51s-.13-18.92,0-25.79A43.13,43.13,0,0,1,338.23,299,34.79,34.79,0,0,1,348.15,294.21Z"/><path class="cls-13" d="M344.06,304c.52-3.57,1.55-6.9,4.81-9,2.37-1.56,1.89-4.86,1.89-4.86-5.26,0-11,3.12-11,5.75S343.32,297.88,344.06,304Z"/><path class="cls-13" d="M309.52,312.74a19,19,0,0,0-2.65-3.59,43,43,0,0,0-6.34,4.36c-2.12,2-3.12,3.12-3.12,3.12a15.42,15.42,0,0,0,2,4.22A112.49,112.49,0,0,0,309.52,312.74Z"/><path class="cls-14" d="M372.61,353.32a38.18,38.18,0,0,1-2.2-5.63,63.27,63.27,0,0,1-1.4-8.2.38.38,0,0,1,.31-.43l4.55-1a.39.39,0,0,1,.47.26s1,3,1.79,6.37a72.64,72.64,0,0,0,2.57,7.89.36.36,0,0,1-.3.54l-5.36.39h0A.41.41,0,0,1,372.61,353.32Zm2.75-8.42c-.64-2.66-1.38-5.11-1.66-6l-3.87.84a60.93,60.93,0,0,0,1.34,7.71,36.28,36.28,0,0,0,2,5.25l4.56-.32a67.82,67.82,0,0,1-2.47-7.5Z"/><path class="cls-14" d="M373.29,349.92a.92.92,0,0,0,.8,1h.18a1,1,0,0,0,0-2,.93.93,0,0,0-1,.86Z"/><path class="cls-14" d="M378.84,353.16c6.89,0,16-5.64,18.7-11.77,2.2-4.87,3.12-8.19,2.23-12.73a73.79,73.79,0,0,0-5.83-13.81c-5.05-8.93-10-14.4-15.19-16.7a.4.4,0,1,0-.33.72h0c5,2.24,9.88,7.6,14.83,16.37A73,73,0,0,1,399,328.85c.89,4.3,0,7.5-2.18,12.22-2.75,6.07-12,11.65-18.7,11.28a.37.37,0,0,0-.41.37.38.38,0,0,0,.36.42h0Z"/><path class="cls-14" d="M373.88,338.85a.28.28,0,0,0,.22,0,28.93,28.93,0,0,0,3.6-2.6c1.19-1,3.69-3.49,3.8-3.6s5-5.27,10.63-4.13a.42.42,0,0,0,.47-.31.43.43,0,0,0-.31-.47c-6.11-1.21-11.14,4.13-11.36,4.37s-2.57,2.55-3.73,3.53a43,43,0,0,1-3.54,2.54.41.41,0,0,0-.1.57A.37.37,0,0,0,373.88,338.85Z"/><path class="cls-14" d="M381.22,332.7a.42.42,0,0,0,.38-.25,13.15,13.15,0,0,1,3.77-5.05.4.4,0,0,0,0-.56.4.4,0,0,0-.55-.08h0a14,14,0,0,0-4,5.41.4.4,0,0,0,.23.51Z"/><path class="cls-14" d="M343.65,304.4h0a.38.38,0,0,0,.35-.4s0,0,0,0a8.55,8.55,0,0,0-2.77-6c-.67-.67-1.12-1.09-1.12-2.06,0-2.32,5.06-5.43,10.24-5.43a.4.4,0,0,0,.39-.39.39.39,0,0,0-.39-.39c-5.37,0-11,3.19-11,6.23a3.4,3.4,0,0,0,1.36,2.62,7.76,7.76,0,0,1,2.55,5.53A.4.4,0,0,0,343.65,304.4Z"/><path class="cls-14" d="M361.88,305.11a.37.37,0,0,0,.3-.14,17.35,17.35,0,0,1,6-4.34,23,23,0,0,1,3.93-.94c2.93-.53,5.95-1.07,6.6-2.76a2.42,2.42,0,0,0-.32-2.12c-1.37-2.23-5.89-4.83-11.91-5.47a.42.42,0,0,0-.32.48.41.41,0,0,0,.32.32c5.69.59,10.07,3.12,11.3,5.09a1.68,1.68,0,0,1,.28,1.41c-.5,1.27-3.43,1.8-6,2.27a23.08,23.08,0,0,0-4.08,1,17.92,17.92,0,0,0-6.31,4.59.4.4,0,0,0,0,.56A.33.33,0,0,0,361.88,305.11Z"/><path class="cls-14" d="M341.11,359a3.9,3.9,0,0,0,1.65-.3c2-.92,2.21-3.6,2.21-9.49s-.39-16.94-.93-22.39a118.85,118.85,0,0,1,0-22.79.39.39,0,0,0-.32-.45h0a.41.41,0,0,0-.45.35,119.11,119.11,0,0,0,0,23c.53,5.42.92,16.25.92,22.31s-.25,8.09-1.76,8.78a7.84,7.84,0,0,1-6.66-1.73c-.74-1-.31-8.9,0-14.11.1-1.55.18-2.94.24-4.16.14-3.33.08-8.9,0-14.27,0-4.38-.1-8.51,0-11.53a.41.41,0,0,0-.39-.41h0a.38.38,0,0,0-.39.39v11.55c0,5.37.11,10.91,0,14.24,0,1.22-.14,2.64-.22,4.16-.45,7.79-.7,13.42.16,14.6A8.67,8.67,0,0,0,341.11,359Z"/><path class="cls-14" d="M335.58,322.18a.33.33,0,0,0,.34-.55c-1.56-2.44-1.56-7.26-1.56-7.31a.41.41,0,0,0-.39-.4.36.36,0,0,0-.4.31.11.11,0,0,0,0,.08c0,.2-.08,5.11,1.65,7.79A.42.42,0,0,0,335.58,322.18Z"/><path class="cls-14" d="M299.14,321a16.31,16.31,0,0,1-2-4.35.42.42,0,0,1,0-.38s1-1.09,3.12-3.11a41,41,0,0,1,6.43-4.43.41.41,0,0,1,.47,0,19,19,0,0,1,2.71,3.66.4.4,0,0,1-.08.49,107.41,107.41,0,0,1-10.09,8.1.37.37,0,0,1-.22.08A.44.44,0,0,1,299.14,321Zm7.67-11.38a40.06,40.06,0,0,0-6,4.16c-1.55,1.56-2.54,2.49-2.86,2.85a15.65,15.65,0,0,0,1.55,3.59,113.42,113.42,0,0,0,9.46-7.59A18.61,18.61,0,0,0,306.81,309.65Z"/><path class="cls-14" d="M318.22,330.17a.41.41,0,0,0,.4-.39,22.74,22.74,0,0,0-.92-6.71,9.82,9.82,0,0,1,2.34,3,.43.43,0,0,0,.55.18.41.41,0,0,0,.17-.53,10.12,10.12,0,0,0-3.77-4.17.38.38,0,0,0-.47,0,.39.39,0,0,0,0,.46,19.44,19.44,0,0,1,1.38,7.69.4.4,0,0,0,.38.4h0Z"/><path class="cls-14" d="M316.8,322.26a.41.41,0,0,0,.22,0,66.7,66.7,0,0,0,9.35-7.67c1.38-1.56,3.25-4.13,5.06-6.64a57.17,57.17,0,0,1,6-7.56,22,22,0,0,1,3.12-2.29.41.41,0,0,0,0-.57.4.4,0,0,0-.45-.11,27.06,27.06,0,0,0-3.29,2.36,60.09,60.09,0,0,0-6.07,7.7c-1.8,2.5-3.65,5.08-5,6.58a65.22,65.22,0,0,1-8.85,7.31c-1-1.56-5-7.31-7.16-8.88a.4.4,0,0,0-.56.09.39.39,0,0,0,.09.54h0c2.32,1.7,7.12,9,7.18,9a.32.32,0,0,0,.25.17Z"/><path class="cls-74" d="M373.42,261.74c-.33-3-2.23-5.39-4.23-5.81a4.45,4.45,0,0,0-3.74,1.37c-1.32,1.05-11.22,2.89-11.76,4.44s3,3.31,2.85,4.91c-.22,2.08,5.13,1.56,5.11,3.59a6.23,6.23,0,0,0,1.06,4.27c1,1.12,2.9,2.69,4.39,1.93,0,0,3.12.34,5.3-6A18.27,18.27,0,0,0,373.42,261.74Z"/><path class="cls-75" d="M366.14,273.93c-2.46-.11-3.12-3.3-2.51-5.59,0,0-4.47-3.64-3.76-7.31a35.5,35.5,0,0,1-5.51,1.06l-1.81-1.87c-7.19-1.23-7.19,7.56-7.22,14.74,0,4.49.45,9.35,2.18,12.61s7,4.25,11.05,1.68a14.82,14.82,0,0,0,6.07-9.19c2.44.54,4.27-1.16,5.14-3.36C371.16,272,367.29,272.26,366.14,273.93Z"/><path class="cls-76" d="M355.46,273.71a1.21,1.21,0,0,0,1.2,1.16,1.15,1.15,0,0,0,1-1.25v0a1.23,1.23,0,0,0-1.2-1.16,1.15,1.15,0,0,0-1,1.25Z"/><path class="cls-76" d="M359.41,274.07a2.77,2.77,0,0,0-2.7-2.09,1.57,1.57,0,0,0-1.56,1.56,2.08,2.08,0,0,1,1.56-.62A9.6,9.6,0,0,1,359.41,274.07Z"/><path class="cls-76" d="M346.27,274a1.11,1.11,0,0,0,1.1,1.1,1.06,1.06,0,0,0,.95-1.16s0,0,0-.07a1.13,1.13,0,0,0-1.11-1.09,1.07,1.07,0,0,0-.94,1.17Z"/><path class="cls-76" d="M349.76,274.29a2.21,2.21,0,0,0-2.26-2,1.74,1.74,0,0,0-1.56,1.73,2.06,2.06,0,0,1,1.56-.85A3.94,3.94,0,0,1,349.76,274.29Z"/><path d="M369.57,252.83a3.34,3.34,0,0,1,0,2.37,2.9,2.9,0,0,1-1.41,2,.44.44,0,0,1-.6-.19.45.45,0,0,1,.07-.52c.1-.17.35-.25.49-.38a2.49,2.49,0,0,0,.42-.6,6.4,6.4,0,0,0,.48-1.48,6.53,6.53,0,0,1,.22-1.17.14.14,0,0,1,.21,0,.12.12,0,0,1,.05,0Z"/><path class="cls-9" d="M351.58,271a10.62,10.62,0,0,1,.72,1.87c.08.33.14.66.19,1a5.8,5.8,0,0,1,0,.59,5.23,5.23,0,0,1,0,.56,6.7,6.7,0,0,1-.81,2.35,20.55,20.55,0,0,1-1.31,2,3.75,3.75,0,0,0-.24.36h0a.34.34,0,0,0,0-.2h0a1.85,1.85,0,0,0,.56.32,4.13,4.13,0,0,0,1.19.33h.47a.4.4,0,0,1,.37.43v0a.46.46,0,0,1-.33.37,3.81,3.81,0,0,1-.59.08,4.34,4.34,0,0,1-1.56-.22,2.66,2.66,0,0,1-1-.62,1.79,1.79,0,0,1-.25-.42,1.14,1.14,0,0,1,0-.45,2.44,2.44,0,0,1,.1-.24,3.77,3.77,0,0,1,.34-.54,17.88,17.88,0,0,0,1.29-1.84,6.75,6.75,0,0,0,.78-1.93,2.26,2.26,0,0,0,0-.52,3.09,3.09,0,0,0,0-.43,6.13,6.13,0,0,0-.11-.86,8.35,8.35,0,0,0-.32-1.31l-.16-.48a.37.37,0,0,1,.22-.46.35.35,0,0,1,.46.17A.24.24,0,0,1,351.58,271Z"/><path class="cls-74" d="M363.25,261.26c-2.54-.58-4.94.55-8.35,1.47-4.21,1.15-6.06,2.94-10.72,2.74-2.7-.13-1.81-2.37-1.81-2.37a3.11,3.11,0,0,1-2.83-2.93,3.19,3.19,0,0,1,2-4A3.9,3.9,0,0,1,342,256a3.12,3.12,0,0,1,.67-3.58c1.77-1.39,3.5.17,5.77,0s3.77-2.1,7.14-2.85a6.24,6.24,0,0,1,5.56,1.37,5.65,5.65,0,0,1,5.35,1,5.5,5.5,0,0,1,2.12,4.12Z"/><path d="M344,265.81a2.45,2.45,0,0,1-1.7-.79,2,2,0,0,1-.31-1.64,4.05,4.05,0,0,1-.33-7.59,3.59,3.59,0,0,1,.87-3.61c1.69-1.56,4.26-.24,4.37-.19a.36.36,0,0,1,.15.48.35.35,0,0,1-.48.16h0s-2.24-1.11-3.57,0a3.1,3.1,0,0,0-.56,3.19.39.39,0,0,1,0,.3.33.33,0,0,1-.23.17,3.32,3.32,0,0,0,.29,6.39.37.37,0,0,1,.25.15.48.48,0,0,1,0,.29,1.53,1.53,0,0,0,.1,1.38,1.84,1.84,0,0,0,1.37.53,18.21,18.21,0,0,0,7.79-1.68c.9-.34,1.85-.69,2.87-1l1.2-.4c3.11-1,4.87-1.66,7.34-1.08a.36.36,0,0,1,.26.42.36.36,0,0,1-.43.27h0c-2.25-.53-3.92,0-6.95,1.06l-1.2.4c-1,.34-2,.69-2.85,1a18.46,18.46,0,0,1-8,1.73Z"/><path d="M343.77,262.21a3.61,3.61,0,0,1-1.2-.31,2.57,2.57,0,0,1-1.38-3.12.36.36,0,1,1,.67.24,1.91,1.91,0,0,0,1,2.23,3.92,3.92,0,0,0,2.82,0,.35.35,0,0,1,.45.23h0a.38.38,0,0,1-.25.44A5.75,5.75,0,0,1,343.77,262.21Z"/><path d="M345.6,263.89a4.64,4.64,0,0,1-1.16-.21.34.34,0,0,1-.23-.41l0,0a.35.35,0,0,1,.43-.23,4.92,4.92,0,0,0,4.12-.64.34.34,0,0,1,.47.08h0a.35.35,0,0,1-.08.48h0A5.59,5.59,0,0,1,345.6,263.89Z"/><path d="M367.46,257.12a.35.35,0,0,1-.31-.38h0a4.34,4.34,0,0,0-2.63-4.3.36.36,0,0,1-.21-.47.37.37,0,0,1,.47-.2,5.07,5.07,0,0,1,3.12,5,.35.35,0,0,1-.36.33h-.08Z"/><path d="M368.18,268.21a4.38,4.38,0,0,1-1.08-.2,5.09,5.09,0,0,1-2.91-2.42.36.36,0,0,1,.15-.48h0a.36.36,0,0,1,.48.12,4.25,4.25,0,0,0,5.73,1.83h0a.33.33,0,0,1,.45.11l0,0a.35.35,0,0,1-.14.47h0A5.06,5.06,0,0,1,368.18,268.21Z"/><path d="M367.63,270.36a2.63,2.63,0,0,1-1.73-.81.34.34,0,0,1,0-.48v0a.4.4,0,0,1,.52,0c.72.8,2,.78,3.5,0a.36.36,0,0,1,.49.16h0a.36.36,0,0,1-.16.47A5,5,0,0,1,367.63,270.36Z"/><path class="cls-9" d="M365.75,276.07c-.56,1.09-.44,2.18.26,2.46s1.72-.38,2.28-1.47.43-2.18-.27-2.46S366.37,275,365.75,276.07Z"/><path d="M349.65,269.4c0,.68-1.15.92-2.31,1.29-1.71.54-2.13.64-2.33.11-.11-.27,0-1.56,1.77-2.26C348.93,267.84,349.68,268.74,349.65,269.4Z"/><path d="M357.36,270.21c1.56.25,2.87.71,3.25.12s0-1.7-2.62-2.4c-1.44-.37-3.71-.26-3.87,1S355.71,269.94,357.36,270.21Z"/><path class="cls-76" d="M349.35,283.42a15.05,15.05,0,0,0,7.92-1.81s-.67,3.37-3.46,4A4.06,4.06,0,0,1,349.35,283.42Z"/><path class="cls-77" d="M351,283.94a24.65,24.65,0,0,0,5.52-1.56,4.24,4.24,0,0,1-2.82,2.54A2.44,2.44,0,0,1,351,283.94Z"/></g></svg>