<svg xmlns="http://www.w3.org/2000/svg" viewBox="0 0 2436 2386.65"><defs><style>.cls-1{fill:#f7b6a0;}.cls-2{fill:#578671;}.cls-3{fill:#2c4367;}.cls-4{fill:#f29381;}.cls-5{fill:#6b3117;}.cls-6{fill:#eba48a;}.cls-7{fill:#d89880;}.cls-8{fill:#f49c81;}.cls-9{fill:#7f482e;}.cls-10{fill:#fff;}.cls-11{fill:#30604c;}.cls-12{fill:#031d2d;}.cls-13{fill:#00101d;}.cls-14{fill:#08283d;}.cls-15{fill:#102e4d;}.cls-16{fill:#2f72b7;}.cls-17{fill:#f6ad96;}.cls-18{fill:#1f3d65;}.cls-19{fill:#005c9a;}.cls-20{fill:#52946c;}.cls-21{fill:#f2937c;}.cls-22{fill:#f5a992;}.cls-23{fill:#652e20;}.cls-24{fill:#f39d94;}.cls-25{fill:none;stroke:#7f482e;stroke-linecap:round;stroke-linejoin:round;stroke-width:5.29px;}.cls-26{fill:#6ea16f;}.cls-27{fill:#d42a26;}</style></defs><g id="Capa_1" data-name="Capa 1"><path class="cls-1" d="M1857,1514.07c-22.25,28.49-96.14,10-116.07-17.34-28.86-39.66-53.17-174.88,23.21-134.8C1803.39,1382.51,1894.38,1466.28,1857,1514.07Z"/><polygon class="cls-1" points="1505.27 1128.28 1328.59 1156.61 1339.65 1580.67 1556.82 1623.26 1694.63 1236.79 1582.39 1143.41 1505.27 1128.28"/><path class="cls-1" d="M1625.73,1334.81c-17.31-88.22,27.11-94.21,27.11-94.21,49.74-14.39,75.42,61.15,75.42,61.15s62.53,227.75,64.39,303.39c0,0-53.23,47.77-79.79,1.41Z"/><path class="cls-2" d="M1668.36,1491.35l-57.31-144.24s-21.73-121.51,54.34-143.24c0,0,25.68-3,74.1,67.17l79,126.45S1792.26,1474.07,1668.36,1491.35Z"/><path class="cls-3" d="M1863.85,1856.76s-25.6-508.56-146.09-514.59c-59.28-3-86,107.69-86,107.69l-45.49,287.63-44-81.16s-104.9,4.41-241.06.86c-53.49,81.81-57.12,144.44-47.06,227.62,3.19,26.41,25.85,60.72,42.62,80,31.1,35.81,81.71,59.85,128.35,65.61,61.18,7.57,92.5-14,132.38-56.6,0,0,38.51-224.1,61.26-239.08C1663.44,1705.39,1750,1882,1863.85,1856.76Z"/><path class="cls-1" d="M1584.93,1170.5l-103.53-33.18,36.21-113,103.53,33.17S1581.57,1143,1584.93,1170.5Z"/><path class="cls-4" d="M1589.38,1140.52c-22.68-9.92-44.52-18.44-65.11-33a144.76,144.76,0,0,1-26-23l19.3-60.19,103.53,33.17S1599.18,1104.94,1589.38,1140.52Z"/><path class="cls-5" d="M1711.78,994.88c-11.88,14.23-24.79,31.06-40.86,41.68-18.37,12.15-37.77,7.07-39.82-16.28-1.93-22,6.17-45.69,16.22-64.33,5.5-10.19,13.17-21.24,25.7-25.28a37.77,37.77,0,0,1,46.52,21.57C1726.36,968.62,1722.24,982.34,1711.78,994.88Z"/><path class="cls-1" d="M1686.13,1017a295.59,295.59,0,0,1-28.32,55.3c-11.6,17.58-30.66,51.4-55.08,52.31-7.54.29-13-1.69-20.56-4.72-29.08-11.6-54.21-41.7-65.84-69.91-21.69-52.59,11.07-152.14,59-179.18,43.73-24.69,140,27,128.47,85.43A361.43,361.43,0,0,1,1686.13,1017Z"/><path class="cls-6" d="M1648.14,1057.85c-2.45.26-7.52,1-10,.82-9.47-.7-17.15-4.33-25-9.55-11.06-7.38-20.69-18.88-35-18.76-8.65.06-15.9-.39-24-3.46-10.23-3.89-17.15-14-18.2-24.7-.81-8.31,1.69-18-.36-25.94a42.16,42.16,0,0,0-16.3-24.16c-11.09,34.47-13.67,71.87-3,97.83,11.63,28.21,36.76,58.31,65.84,69.91,7.6,3,13,5,20.56,4.72,24.42-.91,43.48-34.73,55.08-52.31q4-6,7.59-12.28C1660.81,1057.6,1655.38,1057.05,1648.14,1057.85Z"/><path class="cls-7" d="M1575.3,870.75c8.41-4.75,18.74-6.64,29.88-6.25-19,34.47-56.57,49.38-64.62,106-12.23,30.64-19.51,40-28.93,63.54C1500.91,979.32,1531.89,895.26,1575.3,870.75Z"/><path class="cls-8" d="M1536.91,954.62a14.25,14.25,0,0,0,1-3.26,14.78,14.78,0,0,0,.06-3.7,23.61,23.61,0,0,0-1.87-6.8,18.61,18.61,0,0,0-1.61-2.85,28.12,28.12,0,0,0-1.77-2.72,12.91,12.91,0,0,0-5.66-4.16,18,18,0,0,0-6.29-.57,12.7,12.7,0,0,0-4,.72,4.71,4.71,0,0,0-.81.32c-.58.33,0-.41,1.33-.24a4.06,4.06,0,0,0-3,.95,1.56,1.56,0,0,0-.28.3c-.13.26-.46,0,.23,0a5.49,5.49,0,0,0-1.55.43,8.06,8.06,0,0,0-2.11,2c-1.47,1.59-2.89,3.32-4.2,5a68.72,68.72,0,0,0-4.24,6.57,20.12,20.12,0,0,0-2.65,7c0,.28.65.2.75,0,1.35-1.91,2.21-4.13,3.59-6s2.76-4,4.25-5.9,3-3.45,4.6-5.12a14.24,14.24,0,0,1,1.17-1.16,4.34,4.34,0,0,1,.76-.5c.29-.16.54-.23,0-.11a28.48,28.48,0,0,1,3.47-.28l-3.7-.73c1.73,1.32,4.12,1.11,6.12.69l-1.9.25c.89,0,1.77,0,2.66-.12-1,.09.09,0,.48,0a3.42,3.42,0,0,0,.64,0c.51-.08-1.06,0,0,0,.5,0,.15,0-.15,0,.31.09.33.09,0,0s-.26-.09,0,0c-.06,0-.38-.32,0,0,.21.18.44.35.65.54a13.33,13.33,0,0,1,1.27,1.22,24.26,24.26,0,0,1,1.77,2.93,26.19,26.19,0,0,1,3.63,7.22,14,14,0,0,1,.61,4,11.88,11.88,0,0,0,0,1.79,5.23,5.23,0,0,0,1.15,2.26,3.35,3.35,0,0,0,2.74,1c.75,0,2.43-.15,2.74-1Z"/><path class="cls-5" d="M1551.79,941.92c-2.94,4.5-11.37,26.76-14.38,30.61s-10.67-6.35-10.67-6.35c-4.56-9.67,9.93-23.32-1.41-30-12.29-7.26-22.79,10.84-26.06,19.75-6.62-14.1-4.28-35.78-1.45-51.25,5.26-28.7,8.48-38.45,16.89-49,29.45-37.12,44.37-28.68,72.7-14.79,12.92,6.34,23.41,27.69,24,42.7.6,16.08-12.74,23.83-25.57,29.81C1569.76,920.82,1565.21,921.33,1551.79,941.92Z"/><path class="cls-1" d="M1513.73,932.65c-17.79,7.44-25.08,47.44-4.7,69.87,9.14-4.4,16.61-23.26,21.19-32.21,4.47-8.79,8.32-17.39,5.91-27.36C1535.38,939.88,1526.83,927.19,1513.73,932.65Z"/><path class="cls-4" d="M1520.29,965.31a51.7,51.7,0,0,1-2.54,5.31c-.09.14-.4.44-.44.61,0-.16.47-.15.23-.15a3.7,3.7,0,0,0-.93.29l-.32.08c.67-.19.21,0,0,0a1.47,1.47,0,0,0-.42.05c.09-.09.77,0,.22,0s.74.08.26,0,.36.09.35.08c-.68-.16.36.24-.08,0-.22-.13.14,0,.2.14,0-.07-.17-.11-.21-.17-.35-.44,0,.26-.14-.13a7.62,7.62,0,0,1-.44-.91l0,0c.08.3.06.24,0-.21.1.42,0,0,0,0,0-.23-.08-.46-.1-.69a18.3,18.3,0,0,1,.72-6.28c.25-1,.53-1.94.92-3.12.32-1,.71-2,1-3a4.79,4.79,0,0,0,.24-3.18c-.1-.29,0,.29,0,0a.81.81,0,0,1,0-.22c0-.12,0-.26,0-.38a1.13,1.13,0,0,0-.67-1l.43.8v0c.49-1.17-2.83-1.46-3.26-.45v0l1.18-.58a3.75,3.75,0,0,0-2.3,1.68l.6-.51c-2,1.12-2.56,3.34-3.17,5.39a44.13,44.13,0,0,0-1.57,7c-.24,1.86-.38,4.06.51,5.79,1.22,2.38,4.26,2.88,6.67,2.59,1.6-.2,4.07-.73,5-2.16,1.12-1.78,1.18-4.11,1.75-6.09.42-1.44-3.13-1.55-3.66-.49Z"/><path class="cls-4" d="M1523.25,955.19c.28-1.7-.75-3.08-1.82-4.29a7.13,7.13,0,0,0-4.57-2.42,11.32,11.32,0,0,0-10.17,4.08,18.75,18.75,0,0,0-4,10.55,18.28,18.28,0,0,0,.8,5.64,28.07,28.07,0,0,0,.93,2.86A7.68,7.68,0,0,0,1506,974c.45.52,2.66.58,2.69-.36a37.86,37.86,0,0,0-.18-4.12c-.1-1.47,0-2.94-.17-4.41a16.47,16.47,0,0,1,1.94-9.07c1.07-2,2.65-4.58,5.09-5.15.61-.14,1.35.5,2.08,1,1.15.82,2.48,1.79,2.68,3.29.14,1.09,3,1.07,3.14,0Z"/><path class="cls-5" d="M1632.8,983.27c.78-3.9-1-7.4-3.13-10.55-1.85-2.8-5-5.05-7.77-6.87a36,36,0,0,0-5.16-2.58c-2.15-.95-4.33-1.86-6.54-2.67a51.89,51.89,0,0,0-5.53-1.71,13,13,0,0,0-4.77.06c-1.48.2-3,.15-4.47.4a18.53,18.53,0,0,0-4.5,1c-1.17.55-1.71,2.1-2,3.27-.37,1.67-.43,4.2.65,5.68a3,3,0,0,0,1.17.94,3.24,3.24,0,0,0,1.07-.13c.77-.12,1.54-.22,2.32-.29a30.31,30.31,0,0,1,4.47-.11,19.26,19.26,0,0,1,4.64,1.06c1.7.52,3.53.69,5.27,1.13,2.08.53,4.13,1.17,6.17,1.85a44.77,44.77,0,0,1,6.48,2.46,33.78,33.78,0,0,1,4.24,2.75,24.32,24.32,0,0,0,4.43,3,8.86,8.86,0,0,1,1.53.79c1.16.8.52,1.28.5-1.18,0,.53-.07,1.76.32,2.18s.49-.07.57-.49Z"/><path class="cls-5" d="M1664.82,995c.9-.44,2.73,1.17,3.39,1.58a15.05,15.05,0,0,0,3.17,1.1c1.28.43,2.53.92,3.77,1.44a90.53,90.53,0,0,1,8.31,4.28,8.65,8.65,0,0,0,1.78.73,8.79,8.79,0,0,1,2,.95c.66.4,1.31.81,2,1.25s.94.87,1.67.33c.55-.41.5-2.17.51-2.67a8.67,8.67,0,0,0-.34-3.21c.32,2.18.41,2.57.26,1.15a5.79,5.79,0,0,0-.26-1.15,4.32,4.32,0,0,0-.75-1.5,15.86,15.86,0,0,0-2-1.69c-.65-.51-1.35-1-2-1.49s-1.32-1.22-2.06-1.76a20.92,20.92,0,0,0-4.29-2.06c-1.46-.6-2.94-1.15-4.44-1.63-1.34-.43-2.7-.82-4.08-1.14a7.12,7.12,0,0,0-3.28-.38c-1.25.33-3.1,1.11-3.62,2.4-.14.36-.19,3.67.21,3.47Z"/><path class="cls-9" d="M1663.47,1014.87c-2,4.93-1.56,9.78,1,10.86s6.41-2,8.44-6.93,1.57-9.77-1-10.85S1665.51,1010,1663.47,1014.87Z"/><path class="cls-9" d="M1606.72,995.33c-2,4.91-1.57,9.77,1,10.86s6.38-2,8.43-6.93,1.56-9.77-1-10.85S1608.76,990.42,1606.72,995.33Z"/><path class="cls-4" d="M1653.64,1003.46c-2.56,4.87-5.87,9.32-8.48,14.16-1.2,2.23-.87,5.47-.48,7.89s1.11,4.62,1.67,6.92c.8,3.35,1.65,7.69,0,10.63a8.67,8.67,0,0,1-.6.89c-.39.54.23-.22-.06.07l-.37.37c-.26.24-.56.43-.83.66s-.48.28.11-.06l-.56.32c-.33.17-.67.3-1,.45,1-.42-.19,0-.45.1-1,.3.6-.06-.26.07l-1.29.17c-.84.13.82,0,.25,0-.28,0-.57,0-.85,0h-.49c-.91,0,0,.09.11,0-.13.13-1.32-.14-1.48-.16-.41-.06-1.46-.15-.48-.06a12.26,12.26,0,0,1-2.56-.74c1,.32-.45-.2-.68-.31-.41-.19-.8-.4-1.19-.62a6.83,6.83,0,0,0-5.81,0c-1.55.78-1.43,2,0,2.84a26.08,26.08,0,0,0,12.09,3.07c4.14.12,8.73-.69,12.08-3.28,8.19-6.35-.19-17.24-.76-25a16.18,16.18,0,0,1,0-2.51,7,7,0,0,1,.67-2.09c.61-1.48,1.27-2.93,1.93-4.39,1.35-2.93,2.76-5.85,3.87-8.88.56-1.53-3.44-1.71-4-.54Z"/><path class="cls-10" d="M1623.62,1062.65c4.69,2.32,11.24,4.16,15.68,7.43s.43,14.59-3.54,17c-5.65,3.36-8.51-2.51-13.09-4.45-5.17-2.2-10.24,0-15.41-1.82-6.73-2.32-5.94-10-2.3-14.88C1609.42,1060,1617.3,1059.53,1623.62,1062.65Z"/><path class="cls-5" d="M1771.61,928.74c-11.41,24.92-32.46,42.33-65.65,35.65-24.58-4.93-46.66-20.74-62.83-39-17.34-19.58-20.48-27.6-33.08-36.69s-32-23.6-41-37.25c-15.26-23,15.23-33.85,31.1-42.59,14.29-7.87,29.4-10.3,42.9.87,13.32,11,16.35,26.09,36.58,27.17,15.05.81,25-10.39,37.92-16.06,1.8,12.42-6.72,30.63-.76,41.28a13.92,13.92,0,0,0,.92,1.39s47.18,31.4,61.76-7c-.76,2,1.59,8.48,1.87,10.71a109.15,109.15,0,0,1-.35,28.09A120.92,120.92,0,0,1,1771.61,928.74Z"/><path class="cls-2" d="M1587.74,1145,1689.88,1222l-125.65,399.64c-48.26,13.7-70.09-5.32-137.94-18.73-21.68-4.28-88.33-5-93.3-29.64-3-15-13.43-47.31-10-61.91s-8.07-41.71-6.38-56.66,4.83-29.47.21-44.08c-8.58-27.21-1.24-63.59-1.92-92.4-.69-29.25-2.19-44,3.46-72.79,3-15.32-6.77-35-7.62-50.67-.86-16.61,5.11-35.25,22.13-39.33,15.14-3.63,31.74-4.5,47.16-7L1481.72,1131S1559.91,1175.45,1587.74,1145Z"/><path class="cls-2" d="M1353,1276.84s-28,90.16-30.07,141.57c-1.18,28.58-10.68,50.41-22.67,75.73-5.92,12.51-15,24.22-17.82,38-2.71,13.11-1.64,26.86-4.09,40.24-4.81,26.22-4.07,52.86-14.43,77.62-5.57,13.31-10.38,27.37-12.39,41.7-2.35,16.67-22.62,105.49-23.72,122.09,24.1,20.83,87.47,17.24,114-24.2,16.88-26.41,47.26-56.33,78.82-63.08,29.46-6.29,55.43-3.78,84.84-1.47,29.65,2.33,90.37,7.49,117.73-4.28,21.78-9.38-11.63-130.12-1.18-152.48,11.44-24.48,14.78-37.84,10.9-63.37-4.71-31.17,13.09-100,12.25-131.59-.72-27.29-23.3-15.82-40-38.77-48.63-66.91-152.46-77.43-227-63Z"/><path class="cls-1" d="M1361.23,1435.54c8.42-65.76,66.49-185.63,44.28-230.65-19.94-40.41-67.29-54.23-101.42-25.92-45.95,38.11-79.88,306.56-56.23,343.26C1247.86,1522.23,1311.33,1558.3,1361.23,1435.54Z"/><path class="cls-11" d="M1603.78,1164.88c0-.21.06-.42.08-.63s0,.48,0-.16a1.28,1.28,0,0,0-.08-.72c-.86-1.63-4.48-1.59-5.81-.75-.73.45-1.56.88-2.19,1.24-.38.21-.77.4-1.18.58l-.52.22c.43-.17-.2.07-.35.12-2,.65-4,1.16-6.07,1.71-1,.28-2,.53-3,.77l-1.63.37c-.09,0-.87.18-.21,0l-.92.18c-2.18.41-4.38.74-6.59,1-1,.1-1.94.16-2.91.26s-.07,0,.1,0a4.57,4.57,0,0,1-.64,0c-.57,0-1.14,0-1.72,0l-1.49,0c-.28,0-.58,0-.86,0,0,0,1,.08.36,0-1.08-.1-2.17-.19-3.25-.3-2.4-.25-4.79-.49-7.2-.64a15.48,15.48,0,0,0-2.26,0c-.6,0-.46-.21.36,0a3.7,3.7,0,0,0-1.15,0c.92-.2.94.09.38,0l-.59-.06c-.53-.07-1.07-.16-1.6-.25l-.84-.16c-.62-.11.27.06.32.07-.7-.14-1.39-.3-2.08-.45a11.93,11.93,0,0,0-3.1-.2l-.79.06.8,0a7.48,7.48,0,0,1-.81,0c-.83,0,0,.11.33,0a10.91,10.91,0,0,1-3.14-.43l-.7-.13c-.18,0-1.19-.19-.43-.08s-.08,0-.19,0l-1.15-.25a11,11,0,0,1-2.64-.83c.89.49.36.14.08,0l-1-.39c-.69-.26-1.37-.53-2.07-.75a30.84,30.84,0,0,0-8.7-1.28l-1.59-.06c-.74,0,.59,0,.6,0a4.18,4.18,0,0,0-.89-.1c-.17,0-.88-.2-.1,0s-.11,0-.31-.1c-.58-.17-1.15-.38-1.72-.57s.21.08.27.1l-1.75-.66-1.28-.47c-1-.34-2-.54-3-.82-.39-.1-.79-.3-1.19-.38.14,0,1.21.5.32.11l-.52-.23c-.93-.41-1.84-.86-2.75-1.31-1.69-.83-3.43-1.53-5.06-2.47l-.45-.27c-.13-.08-1-.63-.37-.23s0,0-.07-.05l-.74-.48c-1-.7-2.11-1.38-3.18-2a29.8,29.8,0,0,0-6.4-3c-.5-.17-1-.31-1.52-.43s-1.22-.25-1.83-.38c.46.1,1.3.31.36,0-.16,0-.32-.12-.48-.15,1.33.29.77.32.35.07s.41.3.4.29-.51-.38-.6-.45c-.68-.56-1.23-1.22-1.93-1.75-.93-.71-1.81-1.48-2.69-2.24-1.51-1.3-4.27-1.53-6.15-1.22a9.1,9.1,0,0,0-2.41.68c-.49.23-1.79,1.11-1.6,1.89.27,1.08.54,2.16.88,3.22a6.45,6.45,0,0,0,2.07,2.68c2.07,1.79,4.55,2.51,7.13,3.19.32.08.63.19,1,.28.81.22-.18-.18-.31-.13.26-.1,1.12.48,1.38.61a32.75,32.75,0,0,1,2.9,1.6l.78.48c.59.36-.73-.47-.15-.09l2.13,1.35c.9.57,1.82,1.12,2.77,1.62,2.14,1.11,4.42,2.08,6.63,3.06a37.26,37.26,0,0,0,3.8,1.47c1.21.4,2.48.58,3.69,1,2.92.94,5.65,2.07,8.75,2.39,1.7.18,3.42.21,5.13.26a5.29,5.29,0,0,1,1.13,0l-.4,0c-.56,0-.55,0,0,0l.22,0q.67.1-.45-.12a7.17,7.17,0,0,0,1.25.33c1.38.42,2.71,1,4.09,1.43a51,51,0,0,0,16.72,1.71h-3.17c1.86.33,3.72.66,5.61.81,1.15.08,2.3.17,3.46.14.82,0,1.64-.11,2.46-.17.62,0-.44,0-.45.05a6.57,6.57,0,0,1,1,0c.46,0,1.41,0,.39,0,.46,0,.93.06,1.39.1l3.14.24c2.2.15,4.41.31,6.62.29a81.67,81.67,0,0,0,24.66-4.49c.7-.23,1.38-.49,2.07-.76l.33-.12h0l1.06-.4a18.14,18.14,0,0,0,2.11-.95,17.12,17.12,0,0,0,2.4-1.53,3.52,3.52,0,0,0,1.35-2.29l-6.82.45a7.3,7.3,0,0,0,2.18,1.52c1,.61,4.31.72,4.51-.91Z"/><path class="cls-11" d="M1619.18,1170.62a23.63,23.63,0,0,0,1.15,4.39c.58,1.48,1.52,2.81,2.11,4.28a17.79,17.79,0,0,0,.75,1.87c.38.68.85,1.33,1.25,2a35,35,0,0,1,2.3,4.37,76.37,76.37,0,0,1,3.16,10.7c.45,1.72.95,3.42,1.45,5.12.55,1.89.89,3.87,1.41,5.79,1,3.53,2.44,7.23,2.29,10.92s-.74,7.47-.77,11.22-.5,7.48-.72,11.23-.26,7.28-.52,10.92c-.13,1.68-.13,3.35-.19,5a18,18,0,0,1-1.09,5.23c-.51,1.48-1.09,2.93-1.56,4.43a51.85,51.85,0,0,0-1.33,5.8c-1.39,7.21-3.37,14.58-3.51,21.95a66,66,0,0,1-1.61,11.35c-.72,3.65-1.56,7.27-2.38,10.9-1.67,7.44-3,15-4.48,22.46-.78,4-1.84,8.07-2.3,12.13a9.46,9.46,0,0,0,.06,2.76,8.11,8.11,0,0,1-.31,3,25.83,25.83,0,0,0-.9,6.58c.56,8.13-.23,16.3.56,24.42.12,1.18,3.41,1.2,3.47,0,.41-7.41,2.13-14.65,3-22,.09-.81.17-1.61.23-2.41a21.45,21.45,0,0,1,.57-2.85c.2-.92.37-1.86.55-2.8a17.72,17.72,0,0,0,.66-3.27c0-.71-.28-1.43-.27-2.17a14.82,14.82,0,0,1,.27-2.48c.35-1.93.76-3.85,1.15-5.77,1.51-7.59,2.93-15.21,4.54-22.78,1.54-7.26,3.47-14.45,4.6-21.8.59-3.83.58-7.69,1.17-11.52.56-3.58,1.33-7.13,2-10.68a80.64,80.64,0,0,1,2.33-10.57c1.11-3.23,2.59-6.43,2.73-9.9q.43-11.13,1.35-22.24c.33-3.83.3-7.66.67-11.49.17-1.71.34-3.42.4-5.14a20.06,20.06,0,0,0-1-5.92c-1.07-4.1-2-8.32-3.36-12.32s-2.43-8.25-3.93-12.28a29.54,29.54,0,0,0-2.27-4.83,25.87,25.87,0,0,0-3.21-4.77,35.27,35.27,0,0,1-3.5-4.12,44.59,44.59,0,0,1-3.2-5c-.47-.88-4-1-3.74.24Z"/><path class="cls-11" d="M1593.05,1418.1a31.8,31.8,0,0,1-.52,5.06c-.17,1.76-.26,3.53-.41,5.3a53.89,53.89,0,0,0,.11,5.68c0,1.73.53,3.49.7,5.23.7,7.55,1.53,15.09,2.58,22.61a26.36,26.36,0,0,0,1.75,5.35,33.8,33.8,0,0,1,1.56,5.32,52.91,52.91,0,0,1,.57,5.77,31.51,31.51,0,0,1,0,5.14c-.3,3.53-1.23,7-1.75,10.44s-.91,7-2.23,10.24c-.89,2.17-2,4.36-3,6.45a23.63,23.63,0,0,1-2,3.36,3.25,3.25,0,0,1-.23.29c-.22.28.32-.29-.07.07-.19.16-.38.32-.56.5s-.35.43-.54.62c.06-.06.43-.45.15-.21s-.14,0,.12,0a15.11,15.11,0,0,1,2.49-.62c-1.19,0-3.34.23-4,1.48s1,2,1.89,2.29a9.82,9.82,0,0,0,6.4-.27,7,7,0,0,0,3.45-2.87,32.33,32.33,0,0,0,3.12-6.72,39.44,39.44,0,0,0,2.42-7.9c.6-3.71.91-7.46,1.58-11.17,1.38-7.6,1.18-15.49-1.68-22.76-.72-1.83-1.75-3.45-2.15-5.39s-.8-3.94-1.18-5.92c-.77-4-1.73-8-2.35-12-.33-2.19-.6-4.39-1.09-6.55a24.41,24.41,0,0,1-.65-3.17c-.11-1.1-.24-2.19-.37-3.29a32.06,32.06,0,0,0-1.52-6.49c-.67-1.91-.63-4-1.41-5.86-.13-.29-1.17-.3-1.14.07Z"/><path class="cls-11" d="M1490,1642.85c-2.64-.35-5.24-.87-7.88-1.18-1.3-.16-2.59-.34-3.88-.54l-.8-.13-.6-.08c.92.12-1.11-.21-1.41-.26l-1.22-.18c-5.09-.77-10.13-1.79-15.19-2.74-10.68-2-21.61-3.44-32.45-1.82-22,3.27-40.77,17.92-54.73,34.55a159.67,159.67,0,0,0-17,24.56c-2.43,4.36-4.57,8.88-7,13.24s-4.61,8.5-6.83,12.79c-8.79,17-17.41,34.09-28.31,49.83a146.28,146.28,0,0,1-17.68,21.39,112,112,0,0,1-10.58,9.24c-1.88,1.44-3.88,2.73-5.75,4.19s-3.53,2.64-5.37,3.85c-.86.57-1.48,1-2.35,1.49a11.8,11.8,0,0,0-2.44,2.24c-1.37,1.45,1.93,2,2.8,1.78a31.75,31.75,0,0,0,4.42-1c1.31-.46,2.58-1.1,3.84-1.68q3.36-1.58,6.61-3.37a75,75,0,0,0,12-8.71,139.28,139.28,0,0,0,19.58-20.88c11.59-15,20.65-31.77,29.44-48.52,4.51-8.6,8.81-17.37,14-25.57,5.39-8.49,11.1-16.88,17.25-24.84q2.34-3,4.82-6l.64-.75c-.11.14-.46.54.07-.08l1.3-1.47c.87-1,1.75-1.94,2.65-2.89,3.36-3.57,6.89-7,10.59-10.24a111,111,0,0,1,11.79-8.9c.65-.43-1,.62.07,0l.66-.41,1.49-.89c1.21-.71,2.43-1.39,3.67-2s2.63-1.3,4-1.87a16.84,16.84,0,0,1,1.65-.68c-1.3.39.08,0,.31-.1l1.22-.42c1.2-.39,2.42-.75,3.64-1,.6-.16,1.2-.29,1.8-.43.88-.2-1.51.27-.16,0l1.2-.21c1.18-.19,2.36-.35,3.55-.47.65-.07,1.31-.12,2-.18.4,0,1.2,0-.52,0l1.17-.06c2.46-.1,4.92,0,7.39.08,1.33.07-1.14-.09-.25,0l1,.07,1.76.16c1.3.13,2.61.28,3.91.44,5.09.65,10.15,1.52,15.22,2.27,2.58.38,5.16.75,7.76,1,.58.06,1.16.1,1.75.14l.58,0,2.31.14c1.4.07,2.8.12,4.2.14a44.76,44.76,0,0,0,8.41-.85c.53-.09,1.7-.34,1.7-1.09s-1.16-1-1.7-1.09Z"/><path class="cls-11" d="M1359,1616.4c-1.32.39-2.66.89-4,1.15a38.71,38.71,0,0,1-3.87.39,32.4,32.4,0,0,0-8.39,2c-5,1.74-9.85,3.58-14.27,6.54a75.12,75.12,0,0,0-19.67,20.74,47,47,0,0,0-2.94,5.95,57.24,57.24,0,0,0-2.5,6c-.61,2.14-.94,4.07-1.68,6.11a63.71,63.71,0,0,0-2.06,6.5c-1.1,4.53-3.69,8.65-6,12.66s-4.51,8.27-7.1,12.22c-1.49,2.26-3.07,4.47-4.77,6.58-1,1.27-1.48,1.78-2.47,2.94.81-.94-.29.27-.51.49l-1,1c-.83.76-1.68,1.49-2.57,2.18-.44.36-.91.68-1.37,1-.27.2-.86.51.41-.25-.21.13-.93.38,0,0s.39-.15.19-.08c-.65.23-1.31.48-1.94.74-.42.18-.83.36-1.23.58a9.13,9.13,0,0,0-3.38,2.84c-.58.81,0,1.95.65,2.47a7.29,7.29,0,0,0,3.12,1.3,11.92,11.92,0,0,0,4.25.17,7.23,7.23,0,0,0,3.9-1.47,4.92,4.92,0,0,1,.46-.43c.1.08-.92.44-.21.14a3.42,3.42,0,0,0,.61-.28c-.09.07-1.31.43-.43.18a21.74,21.74,0,0,0,3.34-1.19,20.44,20.44,0,0,0,4.86-3.57,55.83,55.83,0,0,0,8.33-9.93,95.86,95.86,0,0,0,6.93-11.88c2.09-4.23,4.56-8.3,6.29-12.7a46.57,46.57,0,0,0,1.93-6.86c.42-1.8,1.24-3.84,1.77-5.74s.74-4.19,1.41-6c.36-1,.91-1.89,1.25-2.89s.77-2.15,1.21-3.2c3.43-8.24,9.46-15.38,16.2-21.15a53.25,53.25,0,0,1,5.74-4.3,48.44,48.44,0,0,1,7.09-3.37c1.23-.52,2.46-1,3.7-1.51s2-1.18,3.1-1.56a12.69,12.69,0,0,0,3.25-1.68,36.55,36.55,0,0,1,3.56-2c1-.55-.76-.89-1.2-.76Z"/><path class="cls-2" d="M1351.51,1152.1s-64.51-2.09-94.38,96.26L1216.43,1402s139.61,27.38,189.14-17.27l15.9-173.55S1423.61,1161.72,1351.51,1152.1Z"/><path class="cls-1" d="M1247.86,1522.23c115.16,70.7,266-302,286.58-386.6l-24.09-20.84C1391.69,1298.91,1289,1389,1289,1389S1222.18,1420.38,1247.86,1522.23Z"/><path class="cls-1" d="M1537.06,1122.35s-16.57,13.21-30.17,6.3c-16.29-19.43-24.53-42.11-35.05-66.19-10.89-24.94-1.25-76.16,8.07-88.11,13.93.56,1,40.63,6.16,51.26l6.31-29.89,18.44-22.92s9,1.9,5,13.91l-9.63,20.37.07,22.24,12.38-26.41L1534.28,986s8.5,2.41,3,14.47l-7,12.61-4.32,30.31,9.77-16.67,18.52-7.1s9.65,7.06-8.8,16.14l-8.74,17.62S1547.7,1109.36,1537.06,1122.35Z"/><path class="cls-3" d="M1577.79,2019.91c33.56-1.55,65.71-14.86,87-40.68,42.92-52.21,42.22-129,39.27-194.25-3.46-76.57-52.72-195.64-147.94-128.27-46.54,32.92-61.18,95.13-76.12,146.88-11.83,41-26.47,96-26.3,138.86.13,32.62,5.3,52.65,35.61,65.56C1517.57,2020.07,1547.35,2021.31,1577.79,2019.91Z"/><polygon class="cls-1" points="1857.23 1817.16 1855.69 1990.39 1816.72 1990.47 1790.06 1817.29 1857.23 1817.16"/><path class="cls-12" d="M1806.71,2022.08l177.3-.25c-2.42-21.34-19-26.06-19-26.06l-52.74-15.89-47.65-28.36-18,8.68s-3.62-.65,0,8.16c0,0-22.42,4.7-33.12,0l-6.8,55.76"/><polygon class="cls-13" points="1806.73 2030.56 1984.02 2030.32 1984.01 2021.83 1806.7 2022.08 1806.73 2030.56"/><path class="cls-10" d="M1927.74,1984.37a4.94,4.94,0,0,0-3.06.23,8,8,0,0,0-1.8,1.18,15.05,15.05,0,0,0-3.34,3.6,22.12,22.12,0,0,0-3.55,9l2-1a8.08,8.08,0,0,0-1.2.09l2.27.63c-.12-.38-.55-.54-.86-.74a1.76,1.76,0,0,0-1.86,0c-.3.2-.73.36-.83.74-.21.75.69,1,1.28,1.12a9.67,9.67,0,0,0,1.2.08c.67,0,1.82-.15,2-1a24,24,0,0,1,2.81-7.87,15,15,0,0,1,2.47-3.19c.82-.78,1.41-1.69,2.53-2,.63-.19.7-.76,0-.92Z"/><path class="cls-10" d="M1908.21,1978.3c-1.12,2.57-3.16,4.64-4.76,6.9-.79,1.12-1.57,2.24-2.25,3.43a14.61,14.61,0,0,0-.93,2c-.27.71-.74,1.64-.3,2.35s2.36.76,3,.19a4.69,4.69,0,0,0,1.1-2.12,21.46,21.46,0,0,1,.89-2,36.54,36.54,0,0,1,2.08-3.52,25.39,25.39,0,0,0,3.51-7.07c.18-.72-2.12-.79-2.39-.16Z"/><path class="cls-10" d="M1895.6,1971.81a36.71,36.71,0,0,0-6.27,7,24.24,24.24,0,0,0-2,4,20.57,20.57,0,0,0-1.4,4.32h4.3a3,3,0,0,0-1.35-1.65,1.45,1.45,0,0,0-1.6,0,3,3,0,0,0-1.35,1.65c-.07.32.43.64.63.74a3,3,0,0,0,1.24.29c.6,0,2.1,0,2.35-.75.47-1.34.76-2.72,1.26-4s1.08-2.63,1.7-3.9,1.25-2.41,1.91-3.59a20.12,20.12,0,0,1,2.52-3.44c.67-.77-1.42-1-1.89-.54Z"/><path class="cls-10" d="M1880.7,1962.87c-2.74,1-4.86,3.46-6.39,5.86a21,21,0,0,0-2,4.07,10.39,10.39,0,0,0-.79,3.6l1.65-1.06A2.4,2.4,0,0,0,1871,1977a11.77,11.77,0,0,0-.33,1.16c-.18.81.63,1.24,1.33,1.4l-.51-.25c-.07-.06,0,.13.06.17s0,.07,0,0l1.73-.36c.21.2.27.25.18.14a1.34,1.34,0,0,0-1.83,0,.39.39,0,0,0-.08.22c0,.6,1.21.5,1.52.43a1.24,1.24,0,0,0,.64-.42c.19-.27-.91.24-.19.07a3.39,3.39,0,0,0,.76-.25,1.3,1.3,0,0,0,.78-.94,6.07,6.07,0,0,1,.25-.84,4.22,4.22,0,0,1,.18-.45.75.75,0,0,0,.1-.17l.05-.06a1.48,1.48,0,0,1-1.3.59c.52-.07,1.63-.34,1.64-1.06,0-2.37,1.18-4.78,2.28-6.9a26.61,26.61,0,0,1,2-3.5,11.89,11.89,0,0,1,1-1.24,5.35,5.35,0,0,1,.55-.51,2.4,2.4,0,0,1,.46-.33c.41-.22.54-.59.11-.87a2.21,2.21,0,0,0-1.76-.18Z"/><path class="cls-3" d="M1693.43,1613.74c27.66,124.47,61.57,318.74,84.47,318.6,72.49-.47,105.7-31.61,105.7-31.61l-61.25-298.35S1783,1490.18,1693.43,1613.74Z"/><polygon class="cls-1" points="1714.54 1817.16 1712.99 1990.39 1674.02 1990.47 1647.36 1817.29 1714.54 1817.16"/><path class="cls-14" d="M1664,2022.08l177.31-.25c-2.42-21.34-19-26.06-19-26.06l-52.73-15.89-47.65-28.36-18,8.68s-3.62-.65,0,8.16c0,0-22.42,4.7-33.11,0l-6.82,55.76"/><polygon class="cls-13" points="1664.03 2030.56 1841.32 2030.32 1841.31 2021.83 1664.01 2022.08 1664.03 2030.56"/><path class="cls-10" d="M1785,1984.37a4.94,4.94,0,0,0-3.06.23,7.88,7.88,0,0,0-1.8,1.18,15.26,15.26,0,0,0-3.34,3.6,22.06,22.06,0,0,0-3.55,9l2-1a8.08,8.08,0,0,0-1.2.09l2.27.63c-.12-.38-.55-.54-.86-.74a1.74,1.74,0,0,0-1.85,0c-.3.2-.74.36-.84.74-.22.75.69,1,1.28,1.12a9.67,9.67,0,0,0,1.2.08c.67,0,1.82-.15,2-1a24,24,0,0,1,2.81-7.87,15,15,0,0,1,2.48-3.19c.81-.78,1.4-1.69,2.52-2,.63-.19.7-.76,0-.92Z"/><path class="cls-10" d="M1765.51,1978.3c-1.12,2.57-3.15,4.64-4.75,6.9-.79,1.12-1.58,2.24-2.26,3.43a14.61,14.61,0,0,0-.93,2c-.27.71-.74,1.64-.3,2.35s2.36.76,3,.19a4.58,4.58,0,0,0,1.09-2.12c.27-.66.57-1.32.9-2a37.8,37.8,0,0,1,2.08-3.52,25.39,25.39,0,0,0,3.51-7.07c.18-.72-2.12-.79-2.39-.16Z"/><path class="cls-10" d="M1752.9,1971.81a36.33,36.33,0,0,0-6.26,7,22.77,22.77,0,0,0-2.05,4,20.18,20.18,0,0,0-1.4,4.32h4.29a3,3,0,0,0-1.34-1.65,1.47,1.47,0,0,0-1.61,0,3,3,0,0,0-1.34,1.65c-.07.32.43.64.63.74a2.92,2.92,0,0,0,1.23.29c.61,0,2.1,0,2.36-.75.46-1.34.75-2.72,1.26-4s1.08-2.63,1.69-3.9,1.25-2.41,1.91-3.59a20.12,20.12,0,0,1,2.52-3.44c.67-.77-1.42-1-1.89-.54Z"/><path class="cls-10" d="M1736.85,1961.26a38.83,38.83,0,0,0-2.79,4.17c-.74,1.23-1.63,2.34-2.43,3.51a13.45,13.45,0,0,0-2.8,7.46l1.65-1.06a2.41,2.41,0,0,0-2.16,1.63c-.13.38-.23.77-.32,1.15-.2.81.62,1.24,1.3,1.4l-.53-.26s0,.14.08.19,0,.22.07-.09l1.69-.21c.2.19.27.24.18.13a1.33,1.33,0,0,0-1.83,0,.42.42,0,0,0-.08.22c0,.6,1.19.51,1.52.42a1.14,1.14,0,0,0,.62-.41c.09-.13.31-.2-.12,0s-.32.12,0,0a2.54,2.54,0,0,0,.66-.21,1.41,1.41,0,0,0,.83-.92,7.72,7.72,0,0,1,.24-.84c.06-.15.12-.3.19-.45a.75.75,0,0,0,.1-.17l0-.06a1.45,1.45,0,0,1-1.29.59c.52-.07,1.63-.34,1.64-1.06a13.61,13.61,0,0,1,2.55-7,24.56,24.56,0,0,0,1.82-3.44c.61-1.43,1.1-2.91,1.8-4.31.27-.52-.6-.77-1-.82a1.84,1.84,0,0,0-1.68.47Z"/><path class="cls-3" d="M1611.05,1347.11s82.13,6.54,96.82,161c0,0,35,259.21,44.84,421.23,0,0-46.94,36.55-106.7,19.27l-50.38-173.38-123,189.68s-139.29-3-145.22-154.12C1327.41,1810.82,1484.59,1320.44,1611.05,1347.11Z"/><path class="cls-15" d="M1562.9,1640.58a99.28,99.28,0,0,1,9.19,22.85,228,228,0,0,1,5.38,25.74c3.29,20.23,8,40.2,12.25,60.23,4.56,21.2,8.85,42.46,13.63,63.6a610.94,610.94,0,0,0,16.51,59.32q4.85,14.43,10.59,28.52,2.92,7.11,6.12,14.1a63.22,63.22,0,0,0,4,6.83q2,3.27,4.13,6.49c1.43,2.21,2.85,4.43,4.31,6.63.51.77,3.5.76,3-.41-1.86-4.55-3.56-9.16-5.14-13.82-.77-2.26-1.38-4.62-2.36-6.79-1-2.33-2.07-4.68-3.06-7q-6-14.07-10.91-28.55a610,610,0,0,1-16.7-59.07c-4.89-20.91-9.19-42-13.75-62.94l-7.17-33q-1.77-8.17-3.55-16.34c-.91-4.19-1.55-8.43-2.43-12.63-1.78-8.54-3.71-17-6.13-25.42-2.37-8.22-5.15-16.61-9.61-24q-1.57-2.61-3.39-5.06c-.68-.91-2.11-1-3.15-.88-.61.08-2.35.58-1.79,1.54Z"/><path class="cls-15" d="M1550.08,1672.67a29.05,29.05,0,0,1,3.28.92,2.78,2.78,0,0,1,.78.28s-.81-.34-.38-.14c.12.06.24.1.37.15.53.23,1.06.48,1.58.74,2.4,1.2,4.8,2.34,7.15,3.63.58.32,1.16.65,1.73,1a3.66,3.66,0,0,1,.42.26s-.82-.56-.37-.23.64.43,1,.65a35.79,35.79,0,0,1,3.37,2.66c.49.43,1,.88,1.43,1.35.27.27.53.54.79.82s.78.94.26.27a31.14,31.14,0,0,1,2.33,3.26,22.75,22.75,0,0,1,2,4.16c.45,1.27.69,2.21,2,3a11.58,11.58,0,0,0,9.23.91c1.43-.52,3.43-1.21,3.55-3,.09-1.4-1-3.3-1.57-4.54a25.84,25.84,0,0,0-2.12-3.44,35.33,35.33,0,0,0-6.46-6.75A41.48,41.48,0,0,0,1562,1670a48.53,48.53,0,0,0-10-.81c-1.1,0-3.06.2-3.66,1.37s.88,1.91,1.75,2.1Z"/><path class="cls-15" d="M1590.84,1754.51c.58,3.22-.39,6.48-1.53,9.46-1.25,3.28-2.72,6.48-4,9.73a83.67,83.67,0,0,0-3.4,12c-1,4.28-1.9,8.56-2.68,12.9-1.56,8.7-3,17.43-4.87,26.09-1,4.61-2.18,9.15-3.26,13.74q-3.06,12.93-5.56,26c-2.12,11-4.27,21.95-6.59,32.88-2.5,11.76-5.19,23.48-8.26,35.1-.38,1.43-.76,2.85-1.15,4.28l.25-.94c-2.65,9.66-5.58,19.26-9.11,28.64a141.88,141.88,0,0,1-10.62,23.05c-1,1.72-2.16,3.36-3.29,5a21.44,21.44,0,0,0-1.17,2.29,11.14,11.14,0,0,0-1.2,2.71l.77-1.41-.12.14c-.59.63-1,1.28-.58,2.15a4.41,4.41,0,0,0,2.62,1.67,10.51,10.51,0,0,0,4.39.28,6.14,6.14,0,0,0,3.41-1.28l-.57.32a7.67,7.67,0,0,0,1.08-.7l.34-.26.84-.66c.63-.5,1.23-1,1.82-1.55a22.28,22.28,0,0,0,3.24-3.94,86.61,86.61,0,0,0,4.84-8,148.11,148.11,0,0,0,8.73-19.82c5.84-16,10.15-32.5,14-49,3.79-16.26,7-32.64,10.17-49,1.29-6.73,2.45-13.47,3.67-20.2.93-5.15,2-10.25,3-15.39,2.47-12.47,3.91-25.11,5.76-37.68.46-3.12.76-6.26,1.17-9.38a57.79,57.79,0,0,1,1.32-8.21,57.36,57.36,0,0,0,1.85-7.27,41.07,41.07,0,0,0,.52-7.51,16.78,16.78,0,0,0-1.31-6.42c-.52-1.15-4.8-1.15-4.54.3Z"/><path class="cls-15" d="M1658.56,1375.49c13.79,13.27,22.75,31,28.67,49,3.06,9.29,5,18.91,7.2,28.43,2.12,9.19,4,18.42,6,27.63,3.82,17.46,6,35.32,8.58,53,4.15,28.89,8,57.83,12.4,86.69q7.17,47.12,13.49,94.37,2.73,20.73,5.52,41.46c.8,6,1.58,12.06,2.3,18.1a75.46,75.46,0,0,0,3.38,15.82c.36,1,.72,2,1.09,3.07a14.37,14.37,0,0,1,1.23,3.19c.1,1.39,4.06,1.32,4,0a12.57,12.57,0,0,1,.74-3.14c.27-1.21.5-2.41.73-3.63a56.94,56.94,0,0,0,.66-7.51c.3-5.64-.47-11.34-1-17-1.15-13.45-2.43-26.89-4.07-40.29-3.85-31.4-8.12-62.75-12.63-94.06q-6.42-44.6-14.92-88.83c-3.7-19.18-7.28-38.48-12.23-57.38-1.74-6.68-3.67-13.32-5.52-20-2.64-9.53-5.3-19-8.81-28.31-6.85-18-13.68-36.34-26-51.46a92.09,92.09,0,0,0-9.14-9.7c-.45-.41-2.36-.13-1.72.49Z"/><path class="cls-1" d="M1677.4,1584.71c-16.8-14.79-26.29-14.53-100.29-17.24,1,17.15,10.51,16.87,32.94,19.81-.15,0-7.39-1.7-8-1.76-9.17-.52-15.26-2.82-19.25-.09-6.63,4.57-5.6,15-2.16,31.41.58,2.7,8.2,8.37,8.58,11.33s7.36,7.69,8.78,10.7c2.47,5.27,5.56,2.56,10.49,5,2.38,1.15,4.65,3.29,7.16,4,16.32,4.45,30.9-9.81,42.81-18.66,9.36-7,23.26-17.15,25.27-29.68C1684.66,1593.93,1681.48,1588.32,1677.4,1584.71Z"/><path class="cls-1" d="M1669.77,1579.25s104.28-59.25,156.15-148.17c0,0,26.47,21.13,37.27,43.13,0,0,26.25,57.41-59.67,87.51-100.06,35-78.53,32.71-126.11,46.81Z"/><path class="cls-16" d="M987.17,1723.14s89.55,3.75,205.78.73c45.66,69.83,73.26,129.88,64.68,200.89,0,0-18.14,57.47-106.82,62.88l-178.75-27.83-157.94,5.83S660.34,1797.23,759,1767.73l190.62,24.68Z"/><polygon class="cls-17" points="870.85 1928.05 805.1 1933.86 806.14 1983.89 871.84 1982.13 870.85 1928.05"/><path class="cls-18" d="M825.07,1984c-28.37,7.8-109.3,1.25-138.75-9.91-35.65-13.55-33.2-84.92,11.7-74.69,40.7,9.26,83.45,25.88,125,29.25C823,1928.69,847.68,1947.85,825.07,1984Z"/><path class="cls-19" d="M993.8,1935.06c-.42-.44-.83-.89-1.24-1.34l.74,1.34v-.14a2.63,2.63,0,0,0-1.67-2c-.64-.29.81.7.38.24a2.16,2.16,0,0,0-.33-.27l-.56-.47a1.92,1.92,0,0,0-.34-.3c-.41-.2.32.42.37.49a8.62,8.62,0,0,0-2.54-2l-.31-.19c-.71-.45,1.16.74.47.29l-.8-.51-2-1.29c-3.23-2.14-6.69-4-10-6q-5.3-3.2-10.57-6.43-2.79-1.71-5.55-3.43l-2.84-1.78-1.3-.82c-.48-.3-2.49-1.58-.32-.2-8.52-5.42-17.21-10.57-25.74-16l-.83-.53c1.8,1.14,1.1.7.7.45l-1.64-1c-1-.64-2-1.27-3-1.92-2.49-1.59-5-3.12-7.57-4.55-2.13-1.18-4.27-2.37-6.39-3.58a7.68,7.68,0,0,0-1.39-.78l.74.5-1.55-1-.52-.33c-.52-.32-1-.64-1.55-1-.17-.11-.34-.22-.52-.32-1.3-.83.84.53,0,0-6.68-4.25-13.32-8.59-19.71-13.26s-12.14-10.76-18.09-16.15c-9.66-8.75-19.59-17.18-29.35-25.82-4.94-4.37-9.81-8.81-14.57-13.37s-9.52-9.56-14.46-14.14c-18.54-17.19-40.47-29.53-62.63-41.37l-4.29-2.28a31.51,31.51,0,0,0-6-2.18,10.42,10.42,0,0,0-7.31.46c-1.46.81-2.42,2.21-.94,3.58a19,19,0,0,0,4.18,3l4.74,2.46c2.95,1.53,5.88,3.1,8.8,4.68,5.51,3,11,6.08,16.36,9.31,1.29.78,2.57,1.56,3.85,2.36l1,.65.49.31.48.31,1.37.88q3.85,2.51,7.62,5.16c5.15,3.64,10.16,7.48,15,11.55,5.14,4.34,9.91,9,14.73,13.7,5.05,4.88,10.22,9.63,15.45,14.32,9.76,8.78,19.78,17.25,29.58,26,4.86,4.34,9.66,8.73,14.37,13.23,2,1.88,4.06,3.63,6.18,5.34,5.78,4.67,11.51,9.38,17.46,13.84,3.45,2.58,6.86,5.18,10.24,7.85,1.78,1.42,3.53,2.92,5.43,4.17s4.05,2.63,6.09,3.93c8.66,5.55,17.34,11.2,26.31,16.24,8,4.51,16.09,9,24.32,13.09,3.44,1.72,6.88,3.48,10.39,5.06.85.38,3.1,1.38.67.28.22.1.45.18.67.27l1.1.44,2.54,1,1.11.42c.81.31,2.66.93.48.2l1.37.51c2,.42,2.16.45.43.1a21.53,21.53,0,0,0,2.39.63,2.11,2.11,0,0,0,.38.09l-.83-.3a8.47,8.47,0,0,0,2.52.72l1.51.1c-1-.11-1.26-.12-.77,0l.52.08,1.8.28c1.45.21,7-.55,4.66-3Z"/><path class="cls-16" d="M727.68,1821.9c1,0,3.34-.27,3.39-1.66s-2.53-1.66-3.39-1.66-3.34.27-3.39,1.66,2.53,1.66,3.39,1.66Z"/><path class="cls-16" d="M672.2,1744.14c-66,8.59-48.92,69.85-25.78,91.07,62.29,57.13,152.14,100.16,230.53,130.43,2.66,1,76.93,28.75,89.36,33.7-15.43-37.28,19-63.26,19-63.26s-87.74-42.47-146.59-104.35C838.75,1831.73,750.81,1727.5,672.2,1744.14Z"/><path class="cls-1" d="M792.1,1443.61c-14.47-14.06-33.47-28.81-35.42-31-8.54-9.74-10.45-9.43-13.69-13.55-6.29-8-3-6.63-9.66-14.44-17.61-20.68-32.92-73.67-21.22-64,33.21,27.44,51.69,34.72,57,39,0,0-5.77-26,3.61-22.38,0,0,5.06,0,10.83,21.66,2.19,8.2,6.89,12.84,10,24.82,0,0,9.46,27.13,13.44,51.37A37.68,37.68,0,0,1,792.1,1443.61Z"/><path class="cls-1" d="M757.79,1756.79c29.6,33.07,64.55,19.5,93.93-17.83,69.24-87.91,81.57-157.07,79.2-193.48,2.29-7.28-21.23-65-69.43-19.76,0,0-16.38-12.23-65.59,116.64,0,0-12.3,27.53-27.91,16.88C768,1659.24,715.86,1710,757.79,1756.79Z"/><path class="cls-20" d="M904.74,1688.13s-96.16-15-118.88-84.43l66.42-160.28s18.84-64.83,75.09-28.88c0,0,71.79,48.32,30.5,124.09Z"/><path class="cls-1" d="M920.64,1392.6l63.17-61.52-73.48-75.43-63.16,61.52S911.8,1370,920.64,1392.6Z"/><path class="cls-21" d="M905.87,1372.64c-21.58-21.9-58.7-55.47-58.7-55.47l63.16-61.52,22.06,22.64C932.86,1310.7,927.47,1346.57,905.87,1372.64Z"/><path class="cls-22" d="M771,1336.75c28.53,16.33,81.31,40.15,110.76,30.76,35.72-11.4,37-97.34,25.71-129.75-14-40.57-63.94-72.21-103.37-85.81-45-15.49-93.58,9.12-106.77,56.18S733.63,1315.34,771,1336.75Z"/><path class="cls-21" d="M801.66,1152.09a83.86,83.86,0,0,0-25.86-4l84.71,66.67,35,21.13,12.93,3.59c-.42-1.45-.89-2.84-1.36-4.11C892,1195.19,841.41,1164.74,801.66,1152.09Z"/><path class="cls-22" d="M859.12,1166.1c18.11-2.71,43.76,26.21,38.24,54.52-9.6.9-25-10.74-33.08-15.77s-15.35-10-18.32-19.32C845.07,1182.66,845.76,1168.13,859.12,1166.1Z"/><path class="cls-21" d="M866.85,1197.47c1.48,1.3,2.66,2.92,4.38,3.93,1.9,1.12,4.36.72,6.36,0s4-2.13,3.64-4.5c-.3-2.08-1.71-3.9-3-5.44a48.54,48.54,0,0,0-5.24-5.2,12.08,12.08,0,0,0-3.25-2.08,4.49,4.49,0,0,0-1.28-.38c-.69-.07,1,.4.5.18a5,5,0,0,0-.53-.23,5.74,5.74,0,0,0-1.47-.41c-.64-.09-2,0-2.15.8,0,.2.1.82.34.92s-.08-1-.08,0a1.19,1.19,0,0,0,.24.59,4.51,4.51,0,0,0,.8,1c1.26,1.28,2.76,2.33,4.09,3.54.74.67,1.46,1.37,2.15,2.1.16.18.33.35.49.54l.2.21c.31.35-.17-.2,0,0s.61.74.9,1.13a10.31,10.31,0,0,1,1.23,2.1c.07.16.13.33.19.49s.1.29,0-.09l.11.39c-.06-.21-.07-.26,0-.15a3.86,3.86,0,0,1,.09,1c0,.1-.1.56,0,.32s-.09.2-.14.29-.34.5-.16.28-.19.16-.28.24a1.59,1.59,0,0,0-.21.15s.39-.19,0,0l-.57.27c.65-.29-.25.06-.43.1l-.31.08c-.26.06-.22,0,.11,0l-.36.06,2,.13c-.23-.08-.26-.09-.09,0l-.32-.14c-.22-.11-.44-.22-.65-.35a14.29,14.29,0,0,1-1.28-.86c-.87-.63-1.7-1.3-2.6-1.88a3.21,3.21,0,0,0-2.6-.34c-.56.17-1.33.7-.68,1.28Z"/><path class="cls-21" d="M865.26,1188.15c-.63-1.43.28-2.93.85-4.21a4.23,4.23,0,0,1,1.92-2.42,2.58,2.58,0,0,1,1.11-.33c.69-.09-.32-.07.37,0h.09l.4,0,.4.07c-.21,0-.16,0,.14,0a6.27,6.27,0,0,1,.77.24c.32.13,1.07.54,1.52.8a15,15,0,0,1,5.78,5.55c1.58,2.79,2.88,5.77,4.57,8.49.48.76,2.59.77,2.84-.19a4.75,4.75,0,0,0,.25-1.9,19.35,19.35,0,0,0-.48-2.36,18.6,18.6,0,0,0-1.46-4.17,16.71,16.71,0,0,0-5.6-6.09,16.31,16.31,0,0,0-7.56-3c-2.69-.23-5.87.11-8,2s-2.74,5.76-1,7.9c.53.65,3.56.8,3-.41Z"/><path class="cls-23" d="M728.19,1152.17a26.51,26.51,0,0,0,4.42,10.84c3.49,9,21.66,40.3,24.14,45.58,6.69,14.34,21.21,10.86,33.53,7.43,3.88-1.08,7.76-2.22,11.67-3.29,11.74-3.19,23.64-5.68,35.89-3.72,8.09,1.3,27.48,10,33.77.93-9.21-6.15-26.65-21-20.91-36.63.39-2.15,4.41-7.84,18-6.6,0,0-76.34-82.5-140.52-14.54"/><path class="cls-23" d="M760,1214l-30.69-62.16c-23.07,2.34-44.74,46.8-44.76,46.8-7.48,15.37-18,70.66,19.59,111.09,0,0,55.05,72.18,116.76,50.94-45.72-18-73.12-33.93-90.61-66.56,9.83-8.44,22.36-35.76,23.48-46.75,1.23-12.06,4.87-26.74,3.53-38.82"/><path class="cls-24" d="M825.56,1289.08c3.76,2.18,11-3.23,16.15-12.11s6.31-17.83,2.54-20-11,3.23-16.15,12.11S821.81,1286.89,825.56,1289.08Z"/><path class="cls-24" d="M791.34,1347.91c3.76,2.18,10.18-1.83,14.33-9s4.48-14.7.72-16.88-10.17,1.83-14.33,9S787.58,1345.72,791.34,1347.91Z"/><path class="cls-21" d="M790,1295a4.07,4.07,0,0,1,2.44,1.13,30.06,30.06,0,0,1,2.56,2.36,24.08,24.08,0,0,1,4.64,5.8,30.19,30.19,0,0,1,2.44,6.57,41.75,41.75,0,0,0,2.15,7.12,9,9,0,0,0,3.7,4.07,11,11,0,0,0,6.18,1c4.08-.34,7.87-2.42,11.19-4.68a49.88,49.88,0,0,0,5.13-4c.71-.63,1.41-1.28,2.09-2a14.45,14.45,0,0,0,1.89-2c.53-.8-.78-1.49-1.35-1.62s-.87-.21-1.32-.28a4.41,4.41,0,0,0-2.56.33c-.43.22-1,.7-.67,1.25a4.35,4.35,0,0,0,.56.66v-1.44a6.2,6.2,0,0,0-.54.61l-.15.18c-.15.19.3-.34.07-.08l-.74.83c-.55.59-1.12,1.18-1.7,1.75a47.89,47.89,0,0,1-4.06,3.6c-.76.6-1.54,1.18-2.34,1.72l-.53.35c-.07,0-.47.3-.07,0l-.24.15c-.43.26-.87.52-1.32.76s-.72.38-1.08.55a9.73,9.73,0,0,0-1.32.57c.29-.2.31-.11.13,0l-.36.12-.53.17-.59.15a1.46,1.46,0,0,0-.3.07c.52-.21.33-.06.1,0l-.58.08-.23,0c-.44.06.62,0,.17,0h-.56c-.19,0-.35-.1.27,0-.1,0-.22,0-.33,0l-.32,0c-.3,0,.21,0,.22,0s-.47-.12-.54-.14l-.26-.09c-.24-.06.43.21.1,0-.18-.1-.37-.17-.55-.27l-.25-.14c.33.18.09.06,0,0l-.42-.32a5.82,5.82,0,0,1-.45-.4l-.22-.22s-.3-.34-.17-.18a10.44,10.44,0,0,1-1.48-2.49c-1-2.25-1.52-4.71-2.27-7.05a24,24,0,0,0-8.49-12.65c-2.25-1.9-4.9-3.61-8-2.91-.31.07-.67.33-.44.66s.91.34,1.26.3Z"/><path class="cls-23" d="M810.17,1243.44c-7,2.28-13.5,6.07-17.17,12.73a25.55,25.55,0,0,0-2.86,9,30.91,30.91,0,0,0-.25,5c0,1.77-.19,4.37,1.45,5.45s4.41,1.35,5.85,0,.6-3.36.45-5.12a33.67,33.67,0,0,1-.08-4.71,22.83,22.83,0,0,1,2-8.3c2.63-5.66,7.85-9.7,13.41-12.26.74-.35.86-1,.18-1.49a3.76,3.76,0,0,0-3-.29Z"/><path class="cls-23" d="M762.33,1326.36a28.69,28.69,0,0,1,5.73-14.53,24.5,24.5,0,0,1,5.58-4.87,32.46,32.46,0,0,1,3.09-1.72c1.32-.65,3.18-1,4.26-2,.77-.72.54-1.52-.3-2.07a6.13,6.13,0,0,0-4-.67q5.85,1.2,2.92.19a6.82,6.82,0,0,0-1.91-.25,8.78,8.78,0,0,0-2.33.31,17.36,17.36,0,0,0-2.63,1.13,38,38,0,0,0-4.26,2.42,27.52,27.52,0,0,0-6.43,5.75,19.92,19.92,0,0,0-4.35,16.36c.19,1.58,4.43,1.59,4.62,0Z"/><path class="cls-25" d="M817.44,1259.51s.24,9.63-8.35,14.36"/><path class="cls-25" d="M784.89,1315.47s.24,9.62-8.35,14.35"/><path class="cls-21" d="M846.74,1315.71c-1.25,2.44-3.42,4.18-4.9,6.45a14.59,14.59,0,0,0-.88,1.54,19.6,19.6,0,0,1-1,1.78c-.65,1.09-1.28,2.19-1.84,3.32a24.34,24.34,0,0,0-2.26,6.94,29.09,29.09,0,0,0-.26,5.67c.06,1.85.15,4.44,2.41,4.9,1.25.26,3.84.48,4.25-1.19-.07.29-.06.25,0-.12a1.33,1.33,0,0,0-.1-.34c-.14-.33-.72-.57-1-.65a5.22,5.22,0,0,0-1.72-.11c-.18,0-1.21.22-.25,0l3,.83c-.11-.16-1.27-1.16-.43-.43-.14-.12.21.41.08.09,0-.11-.12-.22-.16-.33s-.18-.5-.12-.32-.06-.27-.08-.35-.06-.36-.09-.54c-.06-.4-.1-.81-.13-1.22a29.84,29.84,0,0,1,0-5.43,21.3,21.3,0,0,1,1.79-6.5c.5-1.1,1-2.18,1.64-3.23a16.34,16.34,0,0,0,.89-1.64c.21-.52.35-1.06.59-1.58,1.11-2.41,2.6-4.77,3.09-7.41.08-.45-.85-.59-1.09-.61-.41,0-1.16,0-1.38.44Z"/><path class="cls-26" d="M873.94,1410.21c11.55,78,4.33,93.86,5.77,148.73.82,30.77,46.39,26.73,59.2,54.87,12,26.31,18.5,50.06,25.41,77.5,6.6,26.18,6.58,35.86,34.33,45.77,26.53,9.47,44,7.68,71.66,10.05,28.44,2.45,59.51,13.48,88.14,11.12,45.26-3.73,48.18-40.1,50-74.54,5.57-105,7.47-214.55-59.92-302.77-22.32-29.22-53.54-52.79-88.46-64.65-25.9-8.79-66-11.58-92.28-2.82-4.33,1.44-28.88,70.75-66.42,54.87Z"/><path class="cls-1" d="M744,1738.35c-15.13-165.17,22.57-216.74,43.67-307.41,0,0,11.94-2.23,20.75,5.47,22.34,105.73,9.77,237.79,9.77,237.79S814,1761,744,1738.35Z"/><path class="cls-1" d="M1025.08,1766.39c-173.28,21.17-194.08,23.47-284.16,12.06,6.67,7.12-11.84-8.34-5.78-20.22,128.57-10.43,229-60,229-60S1030,1693.06,1025.08,1766.39Z"/><path class="cls-1" d="M770.53,1760.43l-38.92-20.33s-13.69-5-28.82-3.34l-70.64,12.17s-9.9,4.73,3.58,10.63c0,0,94.41,32.44,139,22.47Z"/><path class="cls-20" d="M1116.57,1381.73c4.57,4.08,7.59,9.82,9.81,15.45,2.32,5.9,3.85,12.07,6,18a88.08,88.08,0,0,1,3.18,11.6,86,86,0,0,1,2.06,15.48,30.87,30.87,0,0,1-.56,7.55,13.79,13.79,0,0,1-.91,2.57,4.24,4.24,0,0,0-.6,1.48,4.67,4.67,0,0,0,.08.52c0,.31,0,.09-.05.22-.55,1.76,3,1.85,3.94,1.48a7.17,7.17,0,0,0,3.46-2,7.81,7.81,0,0,0,1.13-2.41,23.5,23.5,0,0,0,.82-6.67,73.27,73.27,0,0,0-2.21-16.06,106.67,106.67,0,0,0-3.87-13.35c-2.12-5.69-4.07-11.47-6.36-17.09a53.32,53.32,0,0,0-5.18-10,25.6,25.6,0,0,0-8.22-7.72c-.63-.38-3.62,0-2.53,1Z"/><path class="cls-1" d="M978.49,1759.79c37.36,24,67.42,1.57,85.78-42.24C1107.53,1614.34,1101,1544.4,1089,1510c.27-7.63-37.8-57-72.18-.52,0,0-24.41,17.59-37.43,154.91,0,0,1.44,21.66-33.21,37.55C946.14,1701.89,925.59,1725.86,978.49,1759.79Z"/><path class="cls-26" d="M1120.85,1655.68s-109.74,2.89-151.61-67.86l23-159.21s11.93-62.73,78.64-60.32c0,0,71.66,10.55,74.57,96.79Z"/><path class="cls-20" d="M1000.38,1463.64c-4.79,18.54-10.33,36.88-14.82,55.5q-3.34,13.84-5.71,27.89c-.77,4.59-1.72,9.19-2.34,13.8s-1,9.49-1.4,14.24q-.65,7.82-1,15.66c-.12,2.66-.23,5.32-.31,8s-.29,5.27-.14,7.88l9.27-.62a7.55,7.55,0,0,0-2.27-2.93,4.13,4.13,0,0,0-4.57,0,7.43,7.43,0,0,0-2.26,2.93c-.9,2.11,2.58,2.8,3.92,2.89s5.22-.11,5.34-2.27,0-4.64,0-6.95,0-4.68.07-7q.14-7,.48-14t.92-14c.38-4.69.47-9.41.91-14.1,1.79-18.83,7-37.13,11.38-55.48,2.47-10.42,4.95-20.82,6.68-31.39.22-1.32-3.77-1.39-4.13,0Z"/><path class="cls-20" d="M1142,1469.16c-.85,2.63-1.59,5.31-2.4,7.95-1,3.24-1.6,6.61-2.28,9.93-1.54,7.58-2.51,15.3-3.55,23-2.28,16.78-4.21,33.61-6.76,50.36-1.07,7-2.09,14.08-3.49,21.06q-.84,4.18-1.92,8.33c-.12.48,0,0,0-.11-.06.24-.13.47-.2.71s-.13.52-.18.78-.16.81-.23,1.22c-.16.93-.29,1.86-.41,2.8-1.51,11.56-2.17,23.2-4.23,34.69-.53,3-1.15,6-1.92,8.89l-.15.55c-.12.45.2-.66,0,0-.09.28-.16.57-.25.86-.2.69-.42,1.38-.65,2.07-.41,1.22-.86,2.42-1.37,3.6a27,27,0,0,1-1.56,3.08c-.25.43-.52.85-.8,1.26l-.43.57c-.07.1-.16.19-.23.3-.32.46.58-.62.17-.2a16.22,16.22,0,0,1-1.91,1.7,3.54,3.54,0,0,0-.44.32c.7-.74.81-.45.29-.22l-.49.23c-.32.17,1.39-.45.36-.17-.77.21,1.49-.25.6-.12s.76,0,.67,0a4.14,4.14,0,0,0-.61,0c2.27-.15,1.26.14.92.06a7.83,7.83,0,0,0-1.61-.11l2.48.32a14.21,14.21,0,0,0-2.76-.37c-.45,0-1.1-.19.48.06a11.66,11.66,0,0,0-3.12-.09l3.81.5-.15-.07a6.77,6.77,0,0,0-5.54,0c-1.37.69-1.5,2,0,2.72l.15.07-1.15-1.36c-.15.58.65,1.23,1.09,1.59a5.83,5.83,0,0,0,1,.65c.59.31,2,.68.36.13.42.14.82.33,1.26.45a16.28,16.28,0,0,0,6.1.39,12.6,12.6,0,0,0,7.57-3.42c3.69-3.82,5.32-9,6.65-14,3.28-12.33,4.07-25.26,5.25-37.91a84.47,84.47,0,0,1,1.81-13c1.6-6.31,2.65-12.76,3.62-19.19,2.56-17,4-34.19,5.65-51.31.81-8.34,1.57-16.68,2.44-25,.39-3.68.62-7.37.94-11.05.27-3.13.33-6.26.61-9.39.12-1.27.25-2.53.4-3.8s-3.55-1.31-3.9-.25Z"/><polygon class="cls-17" points="953.88 1931.13 1015 1956.03 999.29 2003.55 937.03 1982.53 953.88 1931.13"/><path class="cls-18" d="M981.17,1998.11c24.81,15.82,104.09,33.37,135.51,31.35,38.07-2.44,56.72-71.39,10.79-74.83-41.61-3.11-87.37.19-128-8.8C999.45,1945.83,970.19,1956.88,981.17,1998.11Z"/><path class="cls-19" d="M1079.53,1940.05a53.91,53.91,0,0,0-11.42-14.25,43.76,43.76,0,0,0-7.8-5.89,26.56,26.56,0,0,0-9.86-3,29.32,29.32,0,0,0-6.42,0c-.34,0-.68.1-1,.16s-3.13.53-1,.22c-1.19.18-2.37.46-3.54.74a39.65,39.65,0,0,0-9.82,3.91c-5.92,3.25-11.3,7.36-17,11-1.11.72.81-.5-.28.18l-1.18.73c-.75.44-1.5.88-2.25,1.29-1.54.85-3.09,1.67-4.69,2.38l-1.24.53c-1.32.52,1.38-.49,0,0-.79.27-1.6.52-2.42.73l-.49.12c-1.17.29.38-.1.69-.12a10.94,10.94,0,0,0-4.1,1.1c-.43.24-.88.55-1.29.83l.14-.09c.9-.56-.17.08-.39.2-1,.53-1.94,1.26-1.66,2.48s1.8,1.86,2.88,2.16a19.23,19.23,0,0,0,8.72.63,45.81,45.81,0,0,0,5.79-1.45,46.7,46.7,0,0,0,9.39-4.25c5.45-3.32,10.39-7.33,15.59-11,.6-.43,1.2-.84,1.8-1.25l.84-.56.42-.28c.95-.62-.7.43-.13.08,1.23-.75,2.47-1.48,3.75-2.14s2.55-1.31,3.86-1.88a4.69,4.69,0,0,0,.86-.35s-1.11.39-.56.21l.45-.16c.52-.18,1-.34,1.54-.53,1.47-.56.15,0-.11,0a4.68,4.68,0,0,0,.53-.17c.22-.07,1.38-.34.36-.12-1.34.29,1.13,0-.35,0-1.07.05,0,0,.26,0h.44c1.07,0-1.09-.14-.46,0,.3,0,.61.07.91.11s1.24.23.41,0,.39.1.59.15c.36.1.73.2,1.09.32s.73.25,1.09.37c-.73-.25-.19-.07.19.09.78.32,1.56.62,2.32,1a42.51,42.51,0,0,1,3.94,2,50,50,0,0,1,8.7,7,54.45,54.45,0,0,1,6.53,7.46c.73,1,2.33,1.12,3.46,1,.69-.09,2.54-.62,2-1.69Z"/><path class="cls-16" d="M825.07,1984c-10.14-20.91-4.43-64.51-4.43-64.51l35.46-18.62c43.75-34,95.66-56.14,138.51-91.28,33.16-27.22,65.62-72.65,113.83-67.82,32.59,3.26,55.06,27.76,73.77,52.35,31.15,41,75.42,74.41,75.42,130.6,0,47.45-63,83.07-96.9,77.71-25.1-4-62.81-35.59-76.75-54.66l-37.44-46.18s-14.89,48.5-159.47,78.93C887.07,1980.56,844.1,1989.75,825.07,1984Z"/><path class="cls-19" d="M1080.79,1744a43.8,43.8,0,0,0-5.49,1.75c-2.13.8-4.29,1.52-6.35,2.47a51.57,51.57,0,0,0-5.89,3.42c-2.15,1.35-4.26,2.73-6.36,4.15-9.08,6.15-17.74,12.9-26.89,18.94-6.79,4.49-14.08,8.54-20.89,13.21-7.19,4.94-14.2,10.14-21.14,15.43-13.17,10.07-26.11,20.48-38.42,31.6a492.58,492.58,0,0,1-50.17,39.86c-8.84,6.11-17.84,12-26.86,17.84-4.59,3-9.11,6.05-13.64,9.11s-9.5,5.86-13.38,9.71a9.62,9.62,0,0,0-2.36,2.92,11,11,0,0,1-1.94,2.85c-.59.71.83,1.38,1.26,1.51a5.12,5.12,0,0,0,3.3-.21,36.83,36.83,0,0,1,4.56-1.61,33,33,0,0,0,5.39-2.18,74.63,74.63,0,0,0,7.71-4.43q7.23-4.53,14.48-9c9.4-5.82,18.65-11.88,27.83-18,18.16-12.16,35.83-25.1,51.79-40.07,5.41-5.07,10.75-10.19,16.29-15.12q9.58-8.55,19.37-16.87c6.68-5.68,13.44-11.26,20.36-16.63,3-2.32,6-4.6,9-6.8,1.34-1,2.69-1.91,4.05-2.83l1.78-1.19a10.26,10.26,0,0,1,1-.61l-.25.16,1.52-1a258.33,258.33,0,0,0,25.9-19.39c3.69-3.06,7.39-6.12,11.23-9,1.74-1.3,3.53-2.5,5.3-3.73,1.46-1,2.75-2.28,4.29-3.19a26,26,0,0,1,4.7-2.16c1.36-.48-.38-1.07-1.08-.91Z"/><path class="cls-19" d="M1243.91,1850.5a49,49,0,0,0-2.64-5.15c-1.13-1.74-2.56-3.35-3.85-5-2.62-3.34-5.28-6.66-8-9.92-5.6-6.72-11.6-13.15-17.6-19.52q-4.45-4.73-9-9.37c-3-3-5.9-6.12-8.84-9.18a77,77,0,0,0-9.57-8.47c-3.28-2.43-6.33-5.17-9.69-7.5-3.51-2.44-7.15-4.67-10.7-7-1.65-1.1-3.24-2.48-5-3.42-1-.52-2-.94-2.93-1.47a12.53,12.53,0,0,1-2.61-2.1c-.15-.15-.93-.08-.75.15.87,1.2,1.67,2.32,2.43,3.6a12.13,12.13,0,0,0,3.59,3.28c2.86,2.1,5.78,4.08,8.43,6.45a23.47,23.47,0,0,1,3.18,3.57c1.15,1.54,2.39,3,3.65,4.44s2.22,2.91,3.46,4.26,2.75,2.92,4.1,4.41c2.8,3.11,5.6,6.18,8.53,9.16s6,6.17,9,9.3q8.9,9.38,17.39,19.11c3.15,3.61,6.36,7.16,9.47,10.79,1.57,1.82,3.11,3.66,4.65,5.49a65.68,65.68,0,0,0,5.9,5.65c1.21,1.12,3.56,1.14,5,.81,1-.22,3-.93,2.34-2.34Z"/><path class="cls-10" d="M781,1939.67a42.55,42.55,0,0,0-6.14,8.81,26.63,26.63,0,0,0-2.12,8.39,48,48,0,0,0-.09,8.81c.12,1.62.28,3.23.46,4.84.09.8.19,1.59.29,2.39a5.54,5.54,0,0,0,.63,2.75c.68.9,3.42,1.21,4,0a4.77,4.77,0,0,0,0-2.75c-.1-.8-.21-1.59-.31-2.39-.19-1.55-.37-3.1-.5-4.66a48.29,48.29,0,0,1-.07-8.67A41.44,41.44,0,0,1,779,1949a49.16,49.16,0,0,1,3.64-9.15c.31-.59-1.3-.56-1.59-.22Z"/><path class="cls-10" d="M755.08,1933.63a10.62,10.62,0,0,0-3.17,2.41,20.1,20.1,0,0,0-2.3,3.35,25.06,25.06,0,0,0-2.48,6.86c-1,4.76-.81,9.7-1,14.53-.05,1-.11,2.09-.23,3.14s-.5,2.1.42,2.89a3.52,3.52,0,0,0,4.15-.19c.88-.77.8-2.15.88-3.25.32-4.6,0-9.23.38-13.83a35.63,35.63,0,0,1,1.41-8.08,19.14,19.14,0,0,1,1.71-3.84c.34-.56.74-1.08,1.1-1.63a20,20,0,0,0,1-1.84c.4-.74-1.49-.69-1.79-.52Z"/><path class="cls-10" d="M732.41,1925.68a6.06,6.06,0,0,0-2,1.53c-.45.57-.89,1.15-1.3,1.75a36.28,36.28,0,0,0-2.38,3.9,34.9,34.9,0,0,0-3.17,8.41,65.3,65.3,0,0,0-1.43,8.78c-.13,1.42-.23,2.84-.28,4.26,0,.76,0,1.51-.06,2.27a2.41,2.41,0,0,0,.73,2.23c1,1.06,4.08,1,5.13,0a2.39,2.39,0,0,0,.75-2c0-.69,0-1.39.07-2.08.06-1.42.16-2.83.29-4.25a66,66,0,0,1,1.41-8.59,72.47,72.47,0,0,1,2.36-8.2,37,37,0,0,1,1.57-3.66c.61-1.22,1.55-2.28,1.47-3.69-.07-1.15-2.44-1-3.11-.62Z"/><path class="cls-10" d="M1085.57,1972.51a31.6,31.6,0,0,1,.42,3.35,22.8,22.8,0,0,1,.14,4.13,42.32,42.32,0,0,1-1.64,9.47,74,74,0,0,1-3,9.12,32,32,0,0,1-1.84,3.71c-.56.94-1.31,1.78-1.78,2.77s1.92.93,2.35.66c2.24-1.39,3.68-4.09,4.9-6.36a41.37,41.37,0,0,0,3.77-9.44,43.73,43.73,0,0,0,1.35-9.78c0-2.85-.25-5.46-2-7.81-.38-.53-3-.76-2.76.18Z"/><path class="cls-10" d="M1062.72,1968.66a19.68,19.68,0,0,1,0,3.6c-.1,1.28,0,2.56,0,3.84a27.8,27.8,0,0,1-1.63,7.48c-.82,2.3-1.71,4.6-2.68,6.85-.48,1.13-1,2.24-1.51,3.35s-1.35,2.08-.53,3a2.74,2.74,0,0,0,3,.4c1.36-.55,1.75-1.54,2.41-2.76s1.17-2.21,1.73-3.33a39.47,39.47,0,0,0,3-7.38,28.61,28.61,0,0,0,1.09-7.64,11.44,11.44,0,0,0-.45-3.73,18.35,18.35,0,0,0-2.12-3.86c-.32-.46-2.36-.68-2.27.15Z"/><path class="cls-10" d="M1039.75,1963.85c-.19.85-.46,1.69-.6,2.55-.18,1.06-.16,2.18-.25,3.26a65.21,65.21,0,0,1-1.06,7.49,29.36,29.36,0,0,1-2.09,6.67,8.31,8.31,0,0,1-1.43,2.21c-.59.6-1.07.68-1.6,1.53-.42.69.92,1.1,1.32,1.14-1.2-.54-1.48-.62-.83-.24a2.94,2.94,0,0,0,.83.24,5.47,5.47,0,0,0,1,0,4.92,4.92,0,0,0,2.53-.65,8.63,8.63,0,0,0,2.45-2.29,18.5,18.5,0,0,0,2.85-7,57.19,57.19,0,0,0,1.17-8.33c.09-1.19.22-2.41.2-3.6a16.8,16.8,0,0,0-.52-3c-.29-1.37-3.66-1.37-4,0Z"/><path class="cls-23" d="M725.51,1153.8c40.85-46,108.08-61.65,163.55-36.58,30.38,13.74,41.18,37.59,62.22,61.23,22.5,25.26,45.51,18.79,74.57,25.41,34.34,7.82,53.39,34.09,61.71,65.46,8.39,31.64,28.67,38.36,53.27,58.24,45.07,36.41,70.79,94.33,68,151.61-.52,10.6-.3,26.53-4.23,36.24-35.56,6-45-14.82-67.52-37.79-25.5-26-45.13-23.25-78.46-21.55-15.55.79-29.95-.32-42.31-10.11-13.45-10.66-9.93-22.39-17.81-36.1-15.78-27.49-50-19.34-67.48-47.6-14-22.51-7.08-49.24-24.07-71.86-15.93-21.24-44.54-26.25-58.61-49.53-15.32-25.36-8.66-49.48-41.93-58.23-12.3-3.24-36.38,1.9-48.13-4.77C758.24,1177.87,731.29,1166.32,725.51,1153.8Z"/></g><g id="Camada_2" data-name="Camada 2"><path class="cls-27" d="M286.24,838.42c57.85-101,248.58-100.79,285.73,18.63,12.85,41.29-3.58,92.83-41,116.26-32.9,20.6-67.8,29.16-90.46,63.84-45.94,70.28,2.15,142.71,5.31,216.35,2.07,48.55,77.66,48.75,75.57,0-2-47.6-22-91.78-25.69-139-4.28-55,55.87-60.84,90-87.44,77.19-60.2,85.64-177,27.81-252.58C518.61,650.55,298.33,665.24,221,800.28,196.72,842.64,262,880.69,286.24,838.42Z"/><path class="cls-27" d="M467.39,1368.31c1.06,8.57,2.15,17.13,3.18,25.7h75.58c-.17-1.32-.33-2.65-.5-4l-1.35-10a37.79,37.79,0,0,0-63.16-16.68c-6.34,6.34-12.22,17.39-11.06,26.72.16,1.33.32,2.66.49,4l1.35,10a37.8,37.8,0,0,0,63.16,16.67c6.36-6.36,12.19-17.36,11.07-26.72-1-8.57-2.12-17.13-3.18-25.7l-1.35-10a37.79,37.79,0,0,0-63.16-16.68C472.12,1347.93,466.24,1359,467.39,1368.31Z"/><path class="cls-27" d="M1922.56,638.11c90.43-83.21,272.82-12.12,265,115.57-6.61,107.21-136.3,76.09-193.19,134.69-50.54,52.06-28.93,132.93-46.21,196.21-12.86,47.09,60.05,67.05,72.87,20.09,10.4-38.06,9-78.24,12.8-117.25,6.24-63.65,50.09-62.72,102.77-73.41,100.94-20.46,145.72-144.24,117.69-233.11-48.35-153.3-271.18-201.07-385.12-96.23C1833.19,617.73,1886.77,671,1922.56,638.11Z"/><path class="cls-27" d="M1934.13,1200.56c-1.57,8.49-3.11,17-4.71,25.47l72.88,20.09c.24-1.32.48-2.63.73-3.95,1.9-10.32,1.65-19.78-3.81-29.12a37.79,37.79,0,0,0-51.7-13.55c-7.85,4.59-15.67,13.34-17.37,22.58-.24,1.32-.49,2.63-.73,4-1.87,10.35-1.67,19.76,3.81,29.12a37.8,37.8,0,0,0,51.71,13.55c7.86-4.61,15.62-13.33,17.36-22.58,1.59-8.49,3.14-17,4.71-25.47,1.9-10.32,1.65-19.78-3.81-29.11a37.79,37.79,0,0,0-51.71-13.56C1943.65,1182.57,1935.83,1191.32,1934.13,1200.56Z"/><path class="cls-27" d="M1118.49,340.68c68.92-62,229.15,5.07,182.1,106.85-26,56.17-98.84,29.88-134,76-30.48,39.87-18.08,90.3-29.83,135.75-8.71,33.7,43.3,48,52,14.34,7.34-28.41,5.63-57.69,9.52-86.57,6.83-50.59,51-39.91,87.8-55,62.59-25.61,87.54-99.2,69.21-160.49-33.25-111.23-193.7-142-274.88-69C1054.45,325.85,1092.72,363.85,1118.49,340.68Z"/><path class="cls-27" d="M1126.75,742c-1.12,6-2.22,12.11-3.36,18.17l52,14.33c.17-.94.34-1.87.52-2.81,1.35-7.37,1.18-14.12-2.72-20.78a27.22,27.22,0,0,0-16.11-12.39c-13.24-3.64-30.5,4.37-33.17,18.83-.18.94-.35,1.88-.52,2.82-1.34,7.38-1.19,14.1,2.72,20.77a27.11,27.11,0,0,0,16.11,12.39c13.26,3.65,30.46-4.37,33.17-18.83q1.69-9.08,3.35-18.17c1.36-7.37,1.19-14.11-2.72-20.77a27.11,27.11,0,0,0-16.11-12.39C1146.68,719.51,1129.41,727.51,1126.75,742Z"/></g></svg>