<svg id="Capa_1" data-name="Capa 1" xmlns="http://www.w3.org/2000/svg" viewBox="0 0 2436.01 2386.66"><defs><style>.cls-1{fill:#f7b6a0;}.cls-2{fill:#393366;}.cls-3{fill:#373162;}.cls-4{fill:#fff;}.cls-5{fill:#f2937c;}.cls-6{fill:#0084cc;}.cls-7{fill:#00578e;}.cls-8{fill:#433e7a;}.cls-9{fill:#004876;}.cls-10{fill:#009fe3;}.cls-11{fill:#f5a992;}.cls-12{fill:#b7793e;}.cls-13{fill:#f39d94;}.cls-14{fill:none;stroke:#7f482e;stroke-linecap:round;stroke-linejoin:round;stroke-width:6.3px;}.cls-15{fill:#052235;}.cls-16{fill:#00101d;}.cls-17{fill:#007ba7;}.cls-18{fill:#2c4367;}.cls-19{fill:#f6ad97;}.cls-20{fill:#f29381;}.cls-21{fill:#6b3117;}.cls-22{fill:#f49c81;}.cls-23{fill:#7f482e;}.cls-24{fill:#005c93;}.cls-25{fill:#f8bea4;}.cls-26{fill:#08283d;}.cls-27{fill:#102e4d;}.cls-28{fill:#f1f4f9;}.cls-29{fill:#c5dbe6;}.cls-30{fill:#dae2e7;}.cls-31{fill:#9ebbcc;}.cls-32{fill:#00a3c4;}.cls-33{fill:#fde8df;}.cls-34{fill:#d53341;}.cls-35{fill:#406e9e;}.cls-36{fill:#ea4f96;}.cls-37{fill:#79af5b;}</style></defs><polygon class="cls-1" points="294.58 1548.35 296.42 1755.47 343.02 1755.58 374.9 1548.51 294.58 1548.35"/><path class="cls-2" d="M355,1793.38l-212-.31c2.9-25.51,22.78-31.15,22.78-31.15l63.06-19,57-33.9,21.47,10.37s4.33-.78,0,9.76c0,0,26.81,5.62,39.6,0l8.14,66.66"/><polygon class="cls-3" points="354.97 1803.52 142.97 1803.22 142.98 1793.07 355 1793.38 354.97 1803.52"/><path class="cls-4" d="M210.27,1749.39a3.07,3.07,0,0,1,1.55.89c.48.48,1,1,1.48,1.54a17.31,17.31,0,0,1,3,3.84,28.26,28.26,0,0,1,3.34,9.37c.18,1,1.57,1.15,2.35,1.15a9.82,9.82,0,0,0,1.43-.1c.71-.1,1.78-.43,1.53-1.33-.12-.45-.63-.64-1-.88a2.07,2.07,0,0,0-2.21,0c-.37.25-.88.42-1,.88l2.71-.75a11.49,11.49,0,0,0-1.43-.12l2.34,1.15a26.44,26.44,0,0,0-4.12-10.61,17.17,17.17,0,0,0-3.87-4.28,12.65,12.65,0,0,0-2.26-1.53,5.85,5.85,0,0,0-3.78-.33c-.83.2-.76.88,0,1.11Z"/><path class="cls-4" d="M230.77,1741.22a29.8,29.8,0,0,0,4.14,8.36c.88,1.38,1.76,2.77,2.51,4.23.38.73.72,1.49,1,2.25.38.91.54,2.09,1.36,2.7s2.91.78,3.65-.24c.58-.78-.08-2.07-.39-2.87a15.78,15.78,0,0,0-1.09-2.27c-.83-1.46-1.8-2.84-2.77-4.22-1.89-2.66-4.29-5.1-5.6-8.13-.32-.76-3.06-.66-2.85.19Z"/><path class="cls-4" d="M246.44,1733.91a23.47,23.47,0,0,1,3,4c.81,1.42,1.6,2.88,2.32,4.35s1.39,3,2,4.52c.31.81.59,1.63.85,2.46s.41,1.72.71,2.54c.14.38.86.66,1.18.75a5,5,0,0,0,1.63.15c.53,0,2.42-.33,2.22-1.23a1.88,1.88,0,0,0-.7-1.18c-.24-.22-.59-.55-.9-.79a1.74,1.74,0,0,0-1.91,0c-.31.24-.67.57-.9.79a2,2,0,0,0-.71,1.18h5.12a15.69,15.69,0,0,0-.75-2.68c-.27-.83-.58-1.65-.9-2.46a28.17,28.17,0,0,0-2.47-4.75,28.84,28.84,0,0,0-3.45-4.34c-1.32-1.36-2.63-2.72-4-4-.56-.5-3.07-.28-2.26.64Z"/><path class="cls-4" d="M261.38,1724.89a14.75,14.75,0,0,0,1.88,8.88,17.24,17.24,0,0,0,4.43,5,3.89,3.89,0,0,0,1.7.68c.13,0-.66-.16-.78-.21-.49-.16-.23-.1-.16,0l.22.12c.28.15-.42-.3-.05,0s1,.73,1.47,1.11l1.84,1.47.78.59a4.83,4.83,0,0,0,3.91.52l-1.08.07c.39,0,2.3,0,1.78-.84-.39-.64-1.76-.52-2.18,0,.37-.46,3.72.36,2.2-1a3.92,3.92,0,0,0-.32-.25l-.77-.6-1.68-1.36c-1.09-.87-2.31-2-3.77-2l1.6.6a19.73,19.73,0,0,1-7.77-12.62c-.15-1.12-3.11-1.12-3.25,0Z"/><path class="cls-1" d="M584.82,1036.88l60.1-90L537.47,875.13l-60.11,90S568.44,1012.06,584.82,1036.88Z"/><path class="cls-5" d="M562,1016.7c-31.49-20.79-84.63-51.6-84.63-51.6l60.11-90,32.27,21.55C578.57,935.46,581.26,979.89,562,1016.7Z"/><path class="cls-1" d="M432.49,1365.27c36.34,40.58,79.22,23.94,115.28-21.87,85-107.89,100.09-192.75,97.18-237.43,2.82-8.93-26-79.79-85.2-24.25,0,0-20.1-15-80.48,143.13,0,0-15.09,33.79-34.25,20.72C445,1245.57,381.05,1307.83,432.49,1365.27Z"/><path class="cls-6" d="M641.19,1395.66s-119.25,6.5-164.24-71l38.79-209.33s6.06-82.63,82.75-53.84c0,0,98.51,39.66,68.3,141.15Z"/><path class="cls-7" d="M628.71,1790.77c-40.13-1.85-78.58-17.76-104-48.64-51.34-62.43-50.49-154.19-47-232.27,4.12-91.55,63-233.92,176.88-153.37,55.65,39.37,73.16,113.76,91,175.63,14.15,49.05,31.66,114.79,31.46,166-.16,39-6.35,62.95-42.59,78.39C700.72,1791,665.1,1792.45,628.71,1790.77Z"/><polygon class="cls-1" points="465.2 1548.35 467.05 1755.47 513.64 1755.58 545.52 1548.51 465.2 1548.35"/><path class="cls-8" d="M525.62,1793.38l-212-.31c2.9-25.51,22.78-31.15,22.78-31.15l63.05-19,57-33.9,21.47,10.37s4.33-.78,0,9.76c0,0,26.82,5.62,39.6,0l8.15,66.66"/><polygon class="cls-3" points="525.59 1803.52 313.6 1803.22 313.61 1793.07 525.62 1793.38 525.59 1803.52"/><path class="cls-4" d="M380.9,1749.39a3.07,3.07,0,0,1,1.55.89c.48.48.95,1,1.47,1.54a17.66,17.66,0,0,1,3,3.84,28.71,28.71,0,0,1,3.34,9.37c.18,1,1.56,1.15,2.35,1.15a9.82,9.82,0,0,0,1.43-.1c.7-.1,1.78-.43,1.53-1.33-.13-.45-.64-.64-1-.88a2.07,2.07,0,0,0-2.21,0c-.38.25-.88.42-1,.88L394,1764a11.49,11.49,0,0,0-1.43-.12l2.34,1.15a26.45,26.45,0,0,0-4.13-10.61,17.13,17.13,0,0,0-3.86-4.28,12.38,12.38,0,0,0-2.27-1.53,5.82,5.82,0,0,0-3.77-.33c-.83.2-.76.88,0,1.11Z"/><path class="cls-4" d="M401.39,1741.22a29.56,29.56,0,0,0,4.15,8.36c.88,1.38,1.76,2.77,2.51,4.23.37.73.72,1.49,1,2.25.37.91.53,2.09,1.36,2.7s2.91.78,3.65-.24c.57-.78-.08-2.07-.39-2.87a16.91,16.91,0,0,0-1.09-2.27,48.74,48.74,0,0,0-2.78-4.22c-1.89-2.66-4.29-5.1-5.59-8.13-.33-.76-3.07-.66-2.86.19Z"/><path class="cls-4" d="M417.07,1733.91a23.47,23.47,0,0,1,3,4c.81,1.42,1.6,2.88,2.32,4.35s1.39,3,2,4.52c.31.81.59,1.63.85,2.46s.41,1.72.71,2.54c.14.38.85.66,1.18.75a5,5,0,0,0,1.63.15c.53,0,2.42-.33,2.22-1.23a1.88,1.88,0,0,0-.7-1.18c-.24-.22-.59-.55-.9-.79a1.76,1.76,0,0,0-1.92,0c-.3.24-.66.57-.9.79a2,2,0,0,0-.7,1.18h5.12a15.69,15.69,0,0,0-.75-2.68c-.28-.83-.58-1.65-.91-2.46a27.41,27.41,0,0,0-2.46-4.75,28.84,28.84,0,0,0-3.45-4.34c-1.32-1.36-2.63-2.72-4-4-.55-.5-3.06-.28-2.25.64Z"/><path class="cls-4" d="M435.37,1721.07c.83,1.63,1.41,3.38,2.12,5.06a29.43,29.43,0,0,0,2.23,4.23c1.62,2.56,3,5.3,3,8.39,0,.84,1.33,1.19,2,1.26a8.07,8.07,0,0,0-1.38-.49s-.2-.34-.14-.16a3.3,3.3,0,0,0,.18.32,6.39,6.39,0,0,1,.31.83l.06.22c0-.12,0-.16,0,0s.07.29.11.44c.26,1,1.41,1.29,2.32,1.42l-.77-.22c-.2-.1,0,.09.1.14l.16.16a1.47,1.47,0,0,0,.56.32c.4.13,1.55.17,1.77-.36a.4.4,0,0,0-.05-.41,1.6,1.6,0,0,0-2.19,0c-.09.12.09-.09,0,0l.72-.27h0l1.53.57c0,.11-.05.13,0,0s.05-.12.07-.17.14-.17,0-.08l-.63.31c.8-.23,1.8-.7,1.56-1.67-.12-.46-.24-.92-.39-1.37a2.84,2.84,0,0,0-2.57-2l2,1.26c0-3.32-1.52-6.23-3.35-8.91-.94-1.37-2-2.66-2.84-4.09a45.66,45.66,0,0,0-3.4-5.1,2.2,2.2,0,0,0-2-.56c-.42.06-1.45.35-1.14,1Z"/><path class="cls-7" d="M274.08,1665.53s46.07,46.07,115.36,20.54c25.68-9.47,67.92-232.12,101-381-.19-238.49-99.42-217.22-99.42-217.22S277.62,1190.66,274.08,1665.53Z"/><path class="cls-7" d="M286.67,1595.7s7-552.15,146.88-587.55c95.68-24.21,137.81,135.71,137.81,135.71l47.15,309.22,52.57-97s125.43,5.27,288.24,1c64,97.81,68.31,172.69,56.27,272.16-3.82,31.58-30.91,72.6-51,95.67-37.2,42.81-97.71,71.55-153.48,78.45-73.15,9.05-110.61-16.8-158.3-67.68,0,0-46-268-73.24-285.87C526.3,1414.7,422.78,1625.81,286.67,1595.7Z"/><path class="cls-9" d="M909.81,1422a21,21,0,0,0-1,1.92,16.2,16.2,0,0,0-.63,2.67c-.3,1.41-.67,2.83-.88,4.25s-.27,3-.39,4.48a40.79,40.79,0,0,0-.26,4.42q.23,9.24,1,18.45a245.33,245.33,0,0,0,6,37.71c3.13,12.77,7.25,25.25,13.66,36.78A106.79,106.79,0,0,0,951,1562.23c10.44,8.89,23.58,15,36.9,18.11q3.42.79,6.87,1.41l-5.51-2.07c2.59,2.25,6.2,3.22,9.53,3.67a39.39,39.39,0,0,0,10.46,0l-9.51-1.9A21.76,21.76,0,0,0,1005,1584a13.09,13.09,0,0,0,9.43-.59,5.2,5.2,0,0,0,2-1.69,2.36,2.36,0,0,0-.79-2.94c-.17-.15-.39-.47-.6-.57.26.12.73.91.28.29a6.65,6.65,0,0,0-3.21-2.43,19.5,19.5,0,0,0-5.66-1c-.75,0-1.5-.1-2.25-.13-.95,0,1.53.14,1.34.1a7.22,7.22,0,0,0-.8-.08,6.62,6.62,0,0,0-1.15-.16c-.13,0,2,.49,1.26.25a1.94,1.94,0,0,0-.51-.14s1.65.69,1.06.41c0,0-.43-.16-.44-.21s1.23,1,.78.49a4.19,4.19,0,0,0-.45-.39c-1.91-1.5-4.16-1.86-6.42-2.45-2.47-.65-4.91-1.43-7.32-2.29-1.29-.47,1.35.52.86.33l-.81-.32q-.89-.35-1.74-.72c-1.11-.46-2.2-1-3.28-1.48a70.7,70.7,0,0,1-7-3.91l1.63,1a93.94,93.94,0,0,1-20.63-17.82l1.1,1.28a110.84,110.84,0,0,1-14.1-21.13A192,192,0,0,1,937,1503.46c-1.7-4.76-3.2-9.58-4.54-14.45l.36,1.33a256.89,256.89,0,0,1-5.87-27.46q-1.07-6.66-1.81-13.37c-.5-4.41-.75-8.85-1.47-13.23-.38-2.36-.67-4.73-1.24-7-.27-1.1-.53-2.2-.79-3.31a11.36,11.36,0,0,0-.63-2.25c-.28-.57-.62-1.12-.93-1.68-.85-1.55-3.58-2-5.13-1.91s-4.24.28-5.13,1.91Z"/><path class="cls-10" d="M533.26,1069.94c33.78,90.64,29.16,111.55,44.91,177,8.84,36.72,62.51,20.24,85.07,50.74,21.1,28.52,35,55.36,50.28,86.53,14.61,29.75,17.05,41.37,52.9,46.18,34.26,4.59,49.71,15.61,83.54,11.4,34.76-4.32,79.9-16.65,113.67-26.79,53.36-16,47.58-60.44,41-102.23-20.14-127.5-45.82-259.43-149.24-348.12-34.24-29.37-77.75-49.7-122.69-55-33.32-3.94-82.18,3-111.47,20.18-4.84,2.84-16.59,92.29-65.71,82.82Z"/><path class="cls-7" d="M419.56,1682.52s56.11,43.71,127.58,23l60.24-207.32,147.07,226.81S921,1721.5,928.1,1540.77L722.56,1115.51s-88.2-144.57-198.64-102c0,0-65.57,15.35-65.56,166.56C458.36,1180,431.38,1488.79,419.56,1682.52Z"/><path class="cls-9" d="M640.62,1336.42c-6,8.16-10,17.42-13.17,27a300.42,300.42,0,0,0-8.16,30.81c-2.35,10.74-4.28,21.56-6.61,32.31q-4.29,19.7-8.57,39.4c-5.52,25.38-10.75,50.84-16.52,76.17-5.43,23.86-11.53,47.56-19.14,70.83q-5.64,17.26-12.37,34.13-3.44,8.52-7.17,16.89c-1.21,2.7-2,5.62-2.92,8.42s-1.86,5.37-2.84,8-2.11,5.48-3.22,8.2c-.57,1.38,3,1.41,3.61.48,3.48-5.28,6.92-10.59,10.25-16a71.63,71.63,0,0,0,4.62-7.89q1.92-4.17,3.74-8.38,7.27-16.8,13.33-34.11a726,726,0,0,0,20.63-70.72c2.87-11.85,5.23-23.81,7.79-35.73l8.46-39.4,8.46-39.4c2.5-11.63,5.27-23.24,7.12-35,3.18-20.24,6.75-40.4,15.36-59.14q1.46-3.17,3.21-6.18c.66-1.14-1.41-1.74-2.14-1.84-1.23-.17-3,0-3.75,1.05Z"/><path class="cls-9" d="M659.56,1371.43a52.92,52.92,0,0,0-23.21,4.56,47.76,47.76,0,0,0-17.8,13.93,30.48,30.48,0,0,0-3,4.63,25.27,25.27,0,0,0-1.2,2.65c-.15.4-.3.8-.43,1.21a4.07,4.07,0,0,0,0,3.16c.23.76,1.53,1.49,2.17,1.82a12.38,12.38,0,0,0,4.83,1.13,16,16,0,0,0,4.36-.28c1.24-.26,3.13-.69,4-1.69a5.68,5.68,0,0,0,1.45-2.19c.17-.56.36-1.12.57-1.66a25.39,25.39,0,0,1,1.38-3,31.94,31.94,0,0,1,3.81-5.55l-.84,1a40.63,40.63,0,0,1,6.49-6c.62-.47,1.26-.91,1.9-1.35.27-.18.57-.35.83-.54-1.44,1-.37.24,0,0,1.27-.76,2.58-1.45,3.87-2.17,2.35-1.29,4.83-2.42,7.26-3.56.48-.22,1-.43,1.47-.64.78-.33-1.21.43.07,0l.78-.26a33.54,33.54,0,0,1,3.53-1c1-.22,2.76-1.22,2.09-2.51s-3-1.59-4.37-1.63Z"/><path class="cls-9" d="M607.68,1473.08c-2.37,5.21-1.7,11.49-.88,17a71.9,71.9,0,0,0,2.22,8.6,75.33,75.33,0,0,1,1.54,9.82c2,15.06,3.87,30.15,6.32,45.15,1.33,8.16,3.16,16.21,4.69,24.33,1.41,7.56,2.62,15.16,4.07,22.71,3.68,19.18,7.38,38.35,11.65,57.4,4.51,20.16,9.56,40.29,16.22,59.86a212.39,212.39,0,0,0,10,24.83c1.72,3.52,3.56,7,5.6,10.33s4,6.76,6.89,9.31c.62.57,1.26,1.11,1.91,1.65l1.08.85.5.37.19.15c1.32.81,1.45.91.4.29.86.93,2.91,1.37,4.06,1.53a12.54,12.54,0,0,0,5.24-.33c2.22-.73,4.51-2.32,2.43-4.56l-.14-.16.92,1.68a21.79,21.79,0,0,0-2.44-5.34c-1-1.84-2.41-3.51-3.52-5.29A120.8,120.8,0,0,1,680,1741a262.71,262.71,0,0,1-11.86-30.8c-2.13-6.58-4.08-13.22-5.91-19.89l.3,1.12c-3.81-13.89-7.11-27.91-10.16-42-2.89-13.31-5.54-26.66-8.13-40-2.11-10.85-4.32-21.67-6.79-32.45-.94-4.14-2-8.24-3-12.37-2.41-10.15-4.25-20.43-6.07-30.7-.92-5.2-1.81-10.4-2.82-15.58s-2.36-10.21-3.71-15.25a95.51,95.51,0,0,0-4.4-12.39c-1.64-3.93-3.55-7.7-4.3-11.94a14.94,14.94,0,0,1-.06-5.25c.31-1.75-4.8-1.72-5.42-.36Z"/><path class="cls-9" d="M533.78,1049c-17,15.57-27.53,36-35.93,57.17-4.39,11.06-8.63,22.22-12,33.65-3.28,11.07-6.25,22.23-9.37,33.35-5.92,21.19-10.11,42.87-14.34,64.45-6.73,34.32-12.91,68.76-18,103.37q-8.28,56.68-15.52,113.51c-2.1,16.69-4,33.39-5.49,50.15q-1,10.82-1.85,21.65a71.46,71.46,0,0,0,.58,18.48c.25,1.34.49,2.66.8,4,.26,1.14,1,2.78.92,3.94-.11,1.56,4.61,1.66,4.72,0,.08-1.09,1-2.6,1.41-3.64.54-1.39,1-2.8,1.5-4.21a87.75,87.75,0,0,0,2.37-9.22c1.55-6.64,2-13.52,2.89-20.29,2-15.88,4.31-31.73,6.35-47.61,4.8-37.32,10.11-74.57,15.7-111.78,5.33-35.46,10.37-71,15.35-106.46,3.23-23,6.21-46.17,10.7-69,3.68-18.69,8.15-37.22,12.37-55.78,5.07-22.35,14.08-44.53,28-62.89a103.68,103.68,0,0,1,10.87-12.25c.77-.73-1.5-1.08-2-.59Z"/><path class="cls-1" d="M673.7,1635.12c53.51-43.29,117-112.95,160.42-219.51-77.54-46.06-122.42,2.19-122.42,2.19s-7.87,33.09-35.65,83.34C676.05,1501.14,666.12,1527.13,673.7,1635.12Z"/><path class="cls-1" d="M751.37,1469.45c53.37,10.87,78-21.94,88.82-79.22,25.57-134.93-.17-217.2-23.37-255.48-1.63-9.23-59.93-58.76-86.78,17.81,0,0-24.79,27.34-5.37,195.5,0,0,1,23-14.15,76.94C710.52,1425,687.77,1456.48,751.37,1469.45Z"/><path class="cls-10" d="M892.31,1301.53S761.32,1333,693,1258.78l-13.11-197s-1.69-78.34,79-92.48c0,0,88.7-5.64,114.2,97.13Z"/><path class="cls-6" d="M807.75,980.79a64.09,64.09,0,0,1,7.49,5.09c3.16,2.32,6.15,4.87,9.06,7.49A168.11,168.11,0,0,1,841.23,1011c2.26,2.72,4.44,5.5,6.45,8.41,1.3,1.87,2.49,3.82,3.8,5.69a60.65,60.65,0,0,1,5.79,9.67,82.06,82.06,0,0,1,3.49,9.35c.7,2.21,1.34,4.44,1.94,6.67.37,1.38.71,2.76,1.08,4.13.19.72.39,1.44.64,2.14a8.37,8.37,0,0,0,1.88,2.41,3.93,3.93,0,0,0,3.09,1.15c.8,0,2.8-.17,3.09-1.15.19-.67.57-1.35.71-2a4.84,4.84,0,0,0-.25-2.09c-.31-1.33-.74-2.65-1.13-4-.66-2.19-1.34-4.36-2.07-6.52-1.08-3.19-2.25-6.36-3.64-9.43a57.5,57.5,0,0,0-6.27-10.43c-3.33-4.49-6.45-9.08-10.09-13.34a179.57,179.57,0,0,0-18-18.27c-6.49-5.71-13.44-11.19-21.65-14.13a3,3,0,0,0-2.48.24c-.55.42-.48.9.15,1.24Z"/><path class="cls-6" d="M676.58,1067c-1.18,30.33,1.74,60.58,3.46,90.82.62,11,1.51,22.12,1.66,33.19,0,2.92,0,5.86.13,8.78s.42,6,.64,9q.66,9.07,1.49,18.13c.58,6.28,1.23,12.55,2,18.8.37,2.86.77,5.71,1.22,8.56.2,1.26.41,2.52.63,3.77s.32,3.07,1,4.24c1.22,2,4.72,2.21,6.77,1.88,1.25-.2,5.09-1.24,3.84-3.32a9.56,9.56,0,0,0-1.46-2.09c-.56-.52-1.25-1-1.86-1.43-1.43-1.11-4.58-1.19-5.76.36a12.1,12.1,0,0,0-1.23,1.64,8.29,8.29,0,0,0-.5,2.24h11a9.85,9.85,0,0,0-.52-3.24c-.24-1.15-.46-2.3-.67-3.46q-.69-3.74-1.27-7.5c-.87-5.57-1.61-11.16-2.28-16.76-1.43-11.86-2.24-23.8-3.84-35.64-1.42-10.56-2.28-21.19-2.92-31.82q-1.37-22.55-3.32-45.07-2.25-25.51-3.37-51.1c-.07-1.68-4.86-1.69-4.92,0Z"/><path class="cls-6" d="M870.11,1072.06c-.35,3.4-.56,6.81-.87,10.22-.36,4.09-.19,8.25-.15,12.35.11,9.73,1,19.5,1.74,29.2,1.67,20.88,3.59,41.75,4.75,62.67.48,8.74,1,17.46,1.06,26.21,0,3.27-.25,6.53-.26,9.8,0,2.27.2,4.55.4,6.8,1.37,15,3.58,29.84,3.73,44.89a108,108,0,0,1-.38,11.09c-.15,1.61-.35,3.22-.63,4.82-.12.71-.26,1.42-.41,2.12-.08.37-.18.73-.26,1.1-.19.76.07-.15,0-.16s-.15.49-.15.52a23.87,23.87,0,0,1-1.44,3.74,15.71,15.71,0,0,1-.82,1.44c-.25.4-1.5,2-.41.68-.36.44-.72.88-1.1,1.29,1-1.15.42-.48.16-.23s-.81.66-1.21,1c1.2-1,.87-.49.39-.27-.22.1-.46.19-.66.3,1.41-.83,1.16-.43.55-.23-1.18.37,1.69-.23.42-.09-.58.06-1.86.11.59,0a17.92,17.92,0,0,0-2.94.39c-.68.14,1.61-.26.87-.19-.26,0-.54.06-.8.11l1-.07c-.48,0-1,0-1.45.09a7.19,7.19,0,0,0-2.18.63l5.67-.35-.17,0c-2-.44-4.74-.64-6.4.82s.25,2.82,1.68,3.14l.16,0-2.31-2v0c0,.8.85,1.35,1.42,1.68,4.07,2.32,9.56,1.72,13.75,0l.69-.29.3-.16,1-.64c-.82.52-1,.67-.66.44a7.67,7.67,0,0,0,2.3-1.57,12.65,12.65,0,0,0,2.6-3.3c3.07-5.42,3.6-12.35,3.82-18.44.56-15.55-1.78-31.13-3.57-46.53-.34-2.94-.68-5.89-.91-8.84A63.15,63.15,0,0,1,889,1219c.23-8.11-.17-16.25-.68-24.34-1.32-20.88-4-41.68-6.3-62.46-1.15-10.21-2.36-20.41-3.42-30.62-.46-4.43-1.12-8.84-1.66-13.26-.47-3.88-1.19-7.71-1.64-11.59-.19-1.57-.35-3.13-.49-4.7s-4.56-1.63-4.73,0Z"/><path class="cls-11" d="M391,1008.05c38.4,12.31,107.82,27.43,140.8,8.63,40-22.8,19.49-126.26-2.28-162.3-27.23-45.1-95.19-70.35-146-76.59-57.89-7.12-110,34.83-113.81,94.69S340.63,991.9,391,1008.05Z"/><path class="cls-5" d="M380.6,778.58a102.92,102.92,0,0,0-32.06,1.84l118.69,58.39,47.4,16.43,16.43,1c-.88-1.62-1.79-3.17-2.69-4.59C500.09,807.22,431.53,783.61,380.6,778.58Z"/><path class="cls-11" d="M453.14,780.73c21.05-7.88,59.22,20.28,59.81,55.66-11.28,3.54-32.69-6.51-43.73-10.47-10.84-3.89-21-8.1-26.91-18.52C440.51,804.19,437.62,786.57,453.14,780.73Z"/><path class="cls-5" d="M470.67,816.2c1.86,1,3.5,2.39,5.46,3.21a7.57,7.57,0,0,0,5.41.47,17.51,17.51,0,0,0,2.53-1c1.95-1,4.07-2.82,3.65-5.28s-2.2-4.14-3.9-5.63a47,47,0,0,0-7-4.84,37,37,0,0,0-3.59-2,16.81,16.81,0,0,0-2.41-.92L470,800a8.11,8.11,0,0,0-1.77-.24c-.36,0-1.72,0-.33,0l1.41.19-1.07-.25c-.21-.05-1.24-.3-.19,0a4.61,4.61,0,0,0-1.23-.15h-.28c-.54,0-2,.15-2,1v.11c0,.39.14.3.32.61-.18-.3-.28-.27.09.09l.23.21.13.12c.24.19,0,.18-.07-.11v-.74c-.36,1.17.92,1.91,1.79,2.44s1.52.87,2.31,1.28q1.45.75,2.88,1.56l1.26.75.7.42c.51.31-.51-.33,0,0l.41.27a25.64,25.64,0,0,1,4.85,3.89l.17.19c.33.34-.29-.39,0,0,.13.17.26.32.38.49a7.56,7.56,0,0,1,.6,1c.08.16.16.31.23.48s.15.66.07.13a4.44,4.44,0,0,1,.09,1c0,.11-.12.63,0,.34s-.1.22-.15.32a5.74,5.74,0,0,1-.32.53c0,.06-.1.11-.14.17.35-.48.05-.06-.07.05l-.5.41-.34.25c-.39.3.45-.23,0,0a20,20,0,0,1-1.93.91l3-.38a3.4,3.4,0,0,1-.46-.06c.32.07.32.07,0,0l-.77-.22c-.49-.17-1.14-.46-1.72-.72-1.19-.55-2.36-1.16-3.58-1.64a4,4,0,0,0-3.21,0c-.84.42-.8,1.13,0,1.57Z"/><path class="cls-5" d="M466.18,806c-1-1.31-.66-3-.32-4.5s.51-2.84,1.62-4a5.59,5.59,0,0,1,2.94-1.53c.21,0,.43-.06.64-.09-.31,0-.27,0,.12,0,.11,0,1,0,.44,0a6.4,6.4,0,0,1,2,.42,18.27,18.27,0,0,1,8.6,5.16c2.69,3,5,6.3,7.66,9.31.54.62,3.15.69,3.21-.42a9.28,9.28,0,0,0-1.29-4.8A22.5,22.5,0,0,0,489,801a24,24,0,0,0-19.5-8.12c-3,.38-6.37,1.65-8.08,4.35s-1.14,7.45,1.32,9.46a2.92,2.92,0,0,0,2.34.38c.36-.08,1.53-.49,1.08-1.08Z"/><path class="cls-12" d="M292.44,797.43a32.22,32.22,0,0,0,8.06,11.89c6.51,10,36.29,42.83,40.62,48.55,11.68,15.49,28.24,7.61,42.13.34,4.4-2.28,8.76-4.64,13.18-6.92,13.27-6.83,26.92-12.85,42.13-13.63,10-.51,35.54,5,40.75-7.51-12.61-5-37.34-18.42-34.44-38.63-.07-2.68,3.3-10.54,19.95-12.52,0,0-112.71-79.53-172.38,18.43"/><path class="cls-12" d="M346.44,863.57l-52.72-66.78c-27.08,8.7-41.75,67.6-41.76,67.61-5.06,20.36-3.51,89.39,51.88,128.33,0,0,84.5,72.58,153.15,31.34-59.49-10-96.42-22.06-125.75-56.76,9.64-12.65,17.69-48.64,16.23-62.11-1.6-14.79-1-33.34-5.67-47.49"/><path class="cls-13" d="M444.26,936.9c5.08,1.66,12.37-6.68,16.3-18.66s3-23-2.06-24.67-12.37,6.68-16.29,18.65S439.2,935.23,444.26,936.9Z"/><path class="cls-13" d="M418.2,1016.25c5.08,1.66,11.75-4.8,14.91-14.44s1.63-18.8-3.44-20.46-11.74,4.8-14.91,14.44S413.13,1014.59,418.2,1016.25Z"/><path class="cls-5" d="M403.25,953.1a2.23,2.23,0,0,1,1.38-.09c.18,0,.05,0,0,0a1.55,1.55,0,0,1,.23.06l.47.14a8.85,8.85,0,0,1,.92.35,32.68,32.68,0,0,1,3.79,2.17,30,30,0,0,1,6.92,5.58,35.14,35.14,0,0,1,4.44,6.92,65,65,0,0,0,4.23,7.84,12,12,0,0,0,5.81,4.56,13.46,13.46,0,0,0,7.8.11c4.69-1.22,8.68-4.56,12-8A64.11,64.11,0,0,0,459.59,962a5.32,5.32,0,0,0,.6-1c.6-1.78-2.25-2.12-3.36-2.16a11.67,11.67,0,0,0-1.56,0c-1.14.08-3.06,1-1.87,2.25a4.62,4.62,0,0,0,1,.63l-.89-1.66a19.38,19.38,0,0,0-1.23,2.18c-.5.86-1,1.7-1.57,2.53a65.24,65.24,0,0,1-4,5.47l-.55.65-.05.06c-.11.13-.22.25-.34.37-.39.45-.79.88-1.21,1.31-.8.84-1.65,1.64-2.53,2.4a28.48,28.48,0,0,1-2.64,2c-.32.21.35-.21,0,0l-.33.19-.7.4c-.44.23-.9.43-1.36.63s.51-.18.13-.05l-.33.11c-.23.08-.47.15-.71.21l-.32.07c-.16.05.68-.11.22,0l-.71.1c-.42,0,.71,0,.29,0h-.66c-.38,0,.75.08.23,0-.22,0-.43-.07-.65-.09s.64.16.21,0l-.38-.11-.32-.1c-.35-.11.51.23.05,0l-.69-.33-.31-.18c-.3-.16.27.2,0,0s-.46-.32-.68-.49a12.65,12.65,0,0,1-1.25-1.18l-.14-.15-.28-.35c-.22-.27-.42-.55-.62-.84-1.7-2.45-3-5.21-4.44-7.8a35.7,35.7,0,0,0-5-7,33.55,33.55,0,0,0-7.5-5.63c-2.78-1.64-5.9-3.2-9.22-2.89a6.38,6.38,0,0,0-2.14.59c-.4.19-.49.57-.1.82a2.09,2.09,0,0,0,1.64.17Z"/><path class="cls-12" d="M413.84,886c-6.25,3.52-11.82,8-15.14,14.47a30.31,30.31,0,0,0-2.84,17.66,39.55,39.55,0,0,0,1,5.18c.25,1,.51,1.89.81,2.83a4.47,4.47,0,0,0,2.49,3c1.94,1,5.3.92,6.75-.87,1.11-1.37-.25-3.46-.73-4.89a37.42,37.42,0,0,1-1.16-4.27,32.61,32.61,0,0,1-.69-8.59,26.55,26.55,0,0,1,6.11-15.31,45.71,45.71,0,0,1,7.7-7.59c.89-.67,0-1.47-.71-1.74a4.64,4.64,0,0,0-3.62.11Z"/><path class="cls-12" d="M377.88,998.38a45.17,45.17,0,0,1,.39-10.06,25.55,25.55,0,0,1,2.73-8.73,29.32,29.32,0,0,1,5.37-7.28,43.63,43.63,0,0,1,3.76-3.31c.69-.54,1.39-1,2.11-1.55a6.54,6.54,0,0,0,2.33-2c.6-1.15-.73-2-1.62-2.33a8.1,8.1,0,0,0-5-.17q5.82-.15,2.28-.3a8,8,0,0,0-2.28.3,7.57,7.57,0,0,0-2.43,1.16c-.8.56-1.58,1.16-2.34,1.77a42.31,42.31,0,0,0-3.89,3.56,33.27,33.27,0,0,0-6,8.44,28.14,28.14,0,0,0-2.67,9.73c-.33,3.73.69,7.58,1.88,11.09.5,1.47,5.58,1.39,5.42-.36Z"/><path class="cls-14" d="M427,903.48s2.74,11.5-6.36,19.37"/><path class="cls-14" d="M402.18,979s2.76,11.49-6.34,19.36"/><path class="cls-5" d="M476.49,963.35c-.83,3-2.94,5.47-4.08,8.35a20.37,20.37,0,0,0-.71,2.17c-.21.77-.47,1.48-.73,2.24-.54,1.57-1,3.16-1.46,4.76a28.22,28.22,0,0,0-1,9,36.41,36.41,0,0,0,1.2,6.85,16.08,16.08,0,0,0,1.13,3.3c1,1.91,3.17,2.36,5.22,2.15.7-.07,2.55-.55,2.46-1.59-.09.19-.11.22-.08.1a1.24,1.24,0,0,0,.11-.42c.07-.75-1.19-1.12-1.67-1.22a5,5,0,0,0-3,.27c-.4.18.57-.18.22-.07l3.52.22c-.28-.12-.48-.2-.82-.32s.63.27.73.33c.4.26.19.13.1.05s.29.4.16.2-.41-.6-.58-.93a16.67,16.67,0,0,1-1-2.64c0-.09-.05-.18-.08-.27-.13-.44.09.36,0-.08-.06-.21-.12-.43-.17-.64l-.3-1.23a31,31,0,0,1-.69-4.06,28,28,0,0,1,.63-8.84c.32-1.41.72-2.8,1.15-4.18a11.33,11.33,0,0,0,.59-2.29,12.86,12.86,0,0,1,.36-2.06c.74-3,1.8-6.1,1.71-9.2,0-.61-1.05-.73-1.49-.73s-1.34.12-1.5.73Z"/><path class="cls-12" d="M606,1072.53c-21.52-7.74-4.73-54.33-52.47-130.07-23.54-37.34-59.11-66.82-98.79-86.25-19.38-9.5-38.33-16.31-60.19-16.39-27.28-.09-42.93,5.46-64-16.08-.92-2.58-9.59-20.63-10.5-30-7.11-73,111.09-70.87,176.05-60.24,43.1,7,103,37.72,138.21,63.78,23.84,17.67,56.7,36.63,70.88,78C705.25,875.26,734.77,987.48,606,1072.53Z"/><polygon class="cls-1" points="2151.72 1616.53 2150 1809.61 2106.57 1809.7 2076.85 1616.68 2151.72 1616.53"/><path class="cls-15" d="M2095.4,1844.94l197.63-.29c-2.7-23.78-21.23-29-21.23-29L2213,1797.9l-53.11-31.61-20,9.67s-4-.72,0,9.1c0,0-25,5.24-36.92,0l-7.59,62.15"/><polygon class="cls-16" points="2095.43 1854.39 2293.04 1854.11 2293.03 1844.65 2095.4 1844.94 2095.43 1854.39"/><path class="cls-4" d="M2230.43,1802.8a5.68,5.68,0,0,0-3.79.25,10.29,10.29,0,0,0-2.14,1.38,16.52,16.52,0,0,0-3.76,4.06,24.65,24.65,0,0,0-3.94,10l2.61-1.28a8.66,8.66,0,0,0-1.44.13l3,.83a1.21,1.21,0,0,0-.68-.67,3.28,3.28,0,0,0-.52-.2c-.08,0-.06,0,.06,0a3.06,3.06,0,0,0-1.23-.31,2.94,2.94,0,0,0-1.23.31c.45-.19-.85.39-.45.19a1.21,1.21,0,0,0-.66.67c-.34,1,1,1.35,1.7,1.48a10,10,0,0,0,1.44.12c.89,0,2.41-.22,2.61-1.28a27,27,0,0,1,3.1-8.72,16.45,16.45,0,0,1,2.78-3.58c.49-.46.95-1,1.3-1.4.1-.1.2-.2.31-.29s.36-.25.17-.13a4.59,4.59,0,0,1,.75-.37c.27-.1.72-.25.72-.61s-.45-.54-.72-.62Z"/><path class="cls-4" d="M2208.29,1796.1c-1.29,2.88-3.62,5.16-5.44,7.7a45.87,45.87,0,0,0-2.57,3.89,14.75,14.75,0,0,0-1.06,2.28,9.46,9.46,0,0,0-.43,1.37,1.47,1.47,0,0,0,.44,1.42c.67.74,2.72.7,3.49.22a2.57,2.57,0,0,0,1.18-1.3c.16-.41.28-.82.44-1.23.3-.73.63-1.46,1-2.18a44.07,44.07,0,0,1,2.32-4,26.94,26.94,0,0,0,3.82-8c.14-.57-1.1-.76-1.4-.78-.5,0-1.52,0-1.77.56Z"/><path class="cls-4" d="M2194.28,1788.85c-1.32,1.17-2.55,2.43-3.8,3.67a26,26,0,0,0-3.38,4.1,25.15,25.15,0,0,0-2.27,4.29c-.31.75-.6,1.5-.85,2.27a15,15,0,0,0-.78,2.71h5.7a1.92,1.92,0,0,0-.89-1.29c-.35-.26-.71-.49-1.08-.72a2.06,2.06,0,0,0-1.75,0c-.37.23-.73.46-1.08.72a2,2,0,0,0-.9,1.29c-.1.41.58.87.84,1a4.57,4.57,0,0,0,1.63.38,5.06,5.06,0,0,0,1.82-.16c.44-.14,1.13-.37,1.31-.84.29-.75.42-1.57.66-2.34s.49-1.53.78-2.28c.56-1.46,1.19-2.92,1.87-4.34s1.37-2.76,2.08-4.11a21.67,21.67,0,0,1,2.75-3.79c.37-.44-.61-.79-.84-.84a2.24,2.24,0,0,0-1.82.29Z"/><path class="cls-4" d="M2177.1,1778.59a22.23,22.23,0,0,0-5,5,27.76,27.76,0,0,0-4.13,7,10,10,0,0,0-.82,3.53l2.19-1.41a3,3,0,0,0-2.75,2c-.15.44-.27.9-.38,1.36-.26,1.08,1,1.56,1.85,1.75l-.79-.5c.07.11.28.55.2.22l.39-.47h1.9c.27.17.2.14.12.06a1.83,1.83,0,0,0-2.3.14l-.07.09a.41.41,0,0,0,.14.51,2.22,2.22,0,0,0,2.77-.35l-1,.39c.85-.09,2.14-.31,2.57-1.18a4.12,4.12,0,0,0,.19-.71c0-.17,0-.15,0,0l.06-.22a7.64,7.64,0,0,1,.29-.8,1.73,1.73,0,0,0,.16-.3c.1-.15,0-.08-.17.19.47-.41-.05-.23-1.55.55.7-.08,2.16-.45,2.18-1.4a6.62,6.62,0,0,1,.26-1.71c-.1.39.05-.15.07-.21s.11-.34.17-.51.21-.62.33-.92a38.42,38.42,0,0,1,2.14-4.43c.74-1.39,1.43-2.78,2.28-4.1.34-.54.67-1.09,1-1.62.15-.23.31-.45.48-.67,0,0,.3-.35.1-.13l.22-.24c.55-.57-.06-1-.65-1.21a3,3,0,0,0-2.47.32Z"/><path class="cls-1" d="M2039.57,1301.58C2157.39,1254,1998,877,1956.34,795.41l-29.73,8.81c38.28,283.13,51.5,352.38,51.5,352.38S1974.77,1285.49,2039.57,1301.58Z"/><path class="cls-1" d="M1857.86,1077.28c-17.84-98.59,44.72-111.9,44.72-111.9,55.66-15.23,83.05,69.39,83.05,69.39s60.16,179.52,61,263.86c0,0-56,19.87-90.92-28Z"/><path class="cls-17" d="M1846.94,1225l0-168.86s-26.19-103,59-139.18c0,0,79.55,27.91,80.56,107.87l11.15,170.6S1986,1235.32,1846.94,1225Z"/><path class="cls-1" d="M1929.64,812.47s21.32,10.15,34.34-.77c12.77-25.2,16-51.9,21.37-80.7,5.53-29.83-17.85-83-31-93.64-15,4.13,9.14,44.38,6.25,57.22l-14.39-30.87-25.81-20.23s-9.23,4.32-1.87,16.35l15.6,19.69,5.53,24.17-20.09-25.56-21.31-14.37s-8.61,4.76.4,16.47l10.72,11.94L1921.74,724l-14.81-15.63-21.91-3s-8.7,10.09,13.63,15.3l13.93,16.92S1914.81,801,1929.64,812.47Z"/><path class="cls-18" d="M2159.1,1660.67s-28.53-566.84-162.84-573.56c-66.06-3.3-95.8,120-95.8,120l-50.69,320.6-49-90.46s-116.93,4.92-268.69,1c-59.63,91.18-63.66,161-52.45,253.7,3.56,29.44,28.81,67.67,47.5,89.17,34.67,39.91,91.07,66.7,143.06,73.13,68.19,8.44,103.1-15.66,147.56-63.09,0,0,42.92-249.78,68.27-266.47C1935.72,1492,2032.21,1688.74,2159.1,1660.67Z"/><path class="cls-19" d="M1831,890.53,1715.17,855,1754,728.55l115.84,35.54S1826.9,859.92,1831,890.53Z"/><path class="cls-20" d="M1835.56,857.05c-25.42-10.75-49.88-19.93-73-35.89a160.87,160.87,0,0,1-29.23-25.28L1754,728.55l115.84,35.54S1846,817.27,1835.56,857.05Z"/><path class="cls-21" d="M1700.13,585.94c-7.34,23.53-6.53,57.3-1,81.4,4.6,20,8.18,36.84,19,54.77,7,11.67,20.56,32.91,36.48,31.45,15.26-1.4,25.35-27.35,29.57-39.69,8.37-24.44,11.57-53.36,12.71-79.65,1.27-28.84-5.11-54.7-22.47-77.94-8.61-11.5-20-38.29-35.66-28.12C1723.4,538.19,1705.18,569.75,1700.13,585.94Z"/><path class="cls-21" d="M1959.11,675.71c-11.3,17.3-23.4,37.61-39.81,51.46-18.73,15.85-40.87,12.75-46.19-12.84-5-24.06.89-51.38,9.59-73.32,4.75-12,11.8-25.23,25.15-31.33a42.09,42.09,0,0,1,54.3,17.81C1971.82,644.74,1969.05,660.46,1959.11,675.71Z"/><path class="cls-19" d="M1933.59,703.47a329.67,329.67,0,0,1-24.14,64.92c-10.56,21-27.24,60.87-54.16,65.08-8.32,1.29-14.58-.19-23.4-2.56-33.66-9-65.42-39.1-82-68.81-30.86-55.39-7.55-169.86,41.95-206,45.17-33,158.52,11.64,153.32,77.84A400.61,400.61,0,0,1,1933.59,703.47Z"/><path class="cls-20" d="M1791.87,556.08c8.68-6.35,19.87-9.8,32.26-10.82-16.51,40.63-56.17,62-57.74,125.73-9.53,35.51-16.37,46.84-23.75,74.09C1723.67,686,1747,588.85,1791.87,556.08Z"/><path class="cls-22" d="M1760.84,654.36a18.39,18.39,0,0,0,.85-2.24,8.33,8.33,0,0,0,.11-1.66,16.66,16.66,0,0,0-.47-4.22,25.93,25.93,0,0,0-2.76-7,29.48,29.48,0,0,0-2.46-3.33,28.54,28.54,0,0,0-2.29-2.78,17,17,0,0,0-6.67-4,20.25,20.25,0,0,0-8.8-.14,12.7,12.7,0,0,0-4.22,1.25,12.56,12.56,0,0,0-1.42.9c-.16-.22,1.57-.63.78-.45a3.26,3.26,0,0,0-2,1.27c-.09.14-.47.8-.19.54s-.19,0-.32.08a3,3,0,0,0-1,.5,3.74,3.74,0,0,0-.85,1.09c-.29.46-.62.89-.95,1.34a69,69,0,0,0-3.85,6,65.63,65.63,0,0,0-3.85,8,23.16,23.16,0,0,0-1.12,3.7,17.06,17.06,0,0,0-.72,4.35c0,.37.86.3,1,.07,1.37-2.24,2-4.9,3.38-7.19s2.65-4.88,4.13-7.23c1.34-2.11,2.89-4.09,4.38-6.09a16.84,16.84,0,0,1,1.14-1.39,4.06,4.06,0,0,1,1.44-.87c-.9.42-.16.13.17.07s.7-.15.91-.18l1.67-.21-4.91-1a7.86,7.86,0,0,0,5.06,1.19,12.83,12.83,0,0,0,1.85-.24l.8-.17c-.72.15-.87.19-.43.13a25.17,25.17,0,0,0,3.54-.44c.94-.14-1.41,0-.18,0s-1.35-.15-.29,0a3.36,3.36,0,0,1-1.16-.29c-.41-.16-.43-.17-.08,0,.15.1.88.63.21.11.6.47,1.24.87,1.81,1.37.26.23.5.46.75.7s.3.33.06.07c.11.13.2.27.3.41,1.83,2.66,4.13,5,5.7,8.2a16.42,16.42,0,0,1,1.62,4.59c.13.82.13,1.68.3,2.49a6.64,6.64,0,0,0,2.16,3.1c.87.87,2.67,1,3.76.88.85,0,2.78-.31,3.13-1.32Z"/><path class="cls-21" d="M1775.1,637.91c-2.67,5.38-9.11,31.12-11.93,35.77s-12.62-5.64-12.62-5.64c-6.32-10.12,7.93-27.11-5.47-33-14.56-6.44-23.82,15-26.28,25.26-18-29-13.61-84.52,4-113,27.77-44.93,45.38-37.53,78.56-25.84,15.12,5.33,29.51,27.59,32.09,44.13,2.76,17.72-11,28-24.43,36.34C1792.25,612.24,1787.3,613.37,1775.1,637.91Z"/><path class="cls-19" d="M1731.77,632.62c-18.73,10.56-21.6,55.77,3.9,78,9.54-6.07,15.36-27.91,19.25-38.42,3.82-10.31,7-20.34,3-31.06C1756.68,637.81,1745.55,624.88,1731.77,632.62Z"/><path class="cls-20" d="M1742.9,667.62c-1,2.43-1.37,5.11-2.92,7.27l.87-.73c-.54.28-1.09.53-1.64.76.54-.23.25-.09-.1,0-.13,0-.26.06-.38.11-.37.14.86-.16.35-.08-.95.16.55,0,.19,0-.74,0,.79.08.4,0s1,.26.37.07c-.45-.13.74.31.43.16-.12-.06-.44-.27,0,0s0,0-.08-.1c-.31-.27-.08-.18,0,.1-.14-.29-.36-.55-.49-.85a7.83,7.83,0,0,1-.34-.92c.19.6,0,0,0-.16s-.08-.44-.11-.66c-.53-3.84.32-7.92,1.16-11.66.41-1.82,1.33-4.33-.35-5.77l.42.77a3.55,3.55,0,0,0-.8-2c-.69-.77-2.72-.7-3.53-.22a6.11,6.11,0,0,0-1.8,1.78l.8-.68c-2.52,1.26-2.87,4.22-3.29,6.71a47,47,0,0,0-.75,7.67c0,2.08.12,4.67,1.35,6.44,2,2.89,6,3.24,9.19,2.44,1.64-.42,4.32-1.4,5-3.07.89-2.26.67-4.81,1-7.17.13-.9-1.67-1.18-2.19-1.21-.74,0-2.42,0-2.77.88Z"/><path class="cls-20" d="M1745.58,656.53c.15-1.74-.91-3.11-2.09-4.27a9.12,9.12,0,0,0-5.5-2.68,12.62,12.62,0,0,0-11.76,5.3,20.78,20.78,0,0,0-3.35,12.53,20.1,20.1,0,0,0,1.73,6.45,33.12,33.12,0,0,0,1.47,3,8.61,8.61,0,0,0,2.18,2.44c.64.55,3.56.86,3.57-.47a8.22,8.22,0,0,0-.08-2.16c-.2-.81-.35-1.63-.48-2.45-.25-1.54-.34-3.1-.65-4.63a18.44,18.44,0,0,1,1.05-10.61c1-2.44,2.57-5.33,5-6.2,0,0,.31,0,.22-.06-.61-.09.08.13-.08,0,.49.31,1,.59,1.52.87,1.21.65,2.69,1.49,3.08,2.92s4,1.52,4.16,0Z"/><path class="cls-21" d="M1870.22,672.16c.37-4.55-2-8.46-4.78-11.9a19,19,0,0,0-4.79-3.72,44.9,44.9,0,0,0-4.8-2.77,43.14,43.14,0,0,0-6.27-2.2c-2.45-.76-4.92-1.48-7.41-2.06a33.62,33.62,0,0,0-6.2-1.12,12.16,12.16,0,0,0-2.46.3c-.93.17-1.79.55-2.7.69a32.91,32.91,0,0,0-4.81,1.12c-.8.24-1.58.51-2.36.8a6.83,6.83,0,0,0-2.82,1.41c-1.28,1.46-1.67,3.74-1.79,5.6-.07,1.22-.19,3.16.39,4.31.11.22.32.35.42.52.61,1.07.2,1.3,1,1.83.57.4.8.31,1.41.15.43-.12.85-.23,1.28-.33.83-.2,1.65-.38,2.49-.53a32.27,32.27,0,0,1,4.81-.49,14,14,0,0,1,2.44.4c.9.15,1.81.43,2.72.51,2.07.2,4.13.24,6.2.53,2.48.34,4.95.82,7.41,1.34a39.56,39.56,0,0,1,6.78,1.78,45.48,45.48,0,0,1,5.28,2.62,28.19,28.19,0,0,0,2.73,1.64,13,13,0,0,0,2.41.55,10,10,0,0,1,1.8.52c.19.09.35.19.45.24s.1.11.14.12a.43.43,0,0,1,.11.12,2.35,2.35,0,0,1-.33-1.22c.06.37.15,1.61.69,1.5s.56-2,.58-2.26Z"/><path class="cls-21" d="M1906.89,682.35c.92-.47,3,1.3,3.7,1.69a10.92,10.92,0,0,0,3.27.83c1.43.31,2.84.68,4.24,1.09a70.73,70.73,0,0,1,9.23,3.47,10.55,10.55,0,0,0,2.56.85,10.8,10.8,0,0,1,2.18.51c1.49.6,2.91,1.32,4.35,2l.3-.19q.24-.25.48-.54c.69-.79.63-2.57.66-3.49a11.56,11.56,0,0,0-.44-4.18,4.36,4.36,0,0,0-1-1.9,8.89,8.89,0,0,0-1.11-.79c-.76-.53-1.54-1-2.33-1.52s-1.64-1.07-2.45-1.67a10.8,10.8,0,0,0-2.27-1.39,50.27,50.27,0,0,0-10-2.54c-1.46-.25-2.92-.45-4.39-.58a5.94,5.94,0,0,0-3.57.3c-1.59.86-3.27,2-3.78,3.79a7.67,7.67,0,0,0-.12,2.7c0,.09.21,1.67.5,1.52Z"/><path class="cls-23" d="M1908.23,704.13c-1.61,5.72-.45,11,2.58,11.89s6.82-3,8.43-8.77.46-11-2.57-11.88S1909.85,698.44,1908.23,704.13Z"/><path class="cls-23" d="M1842.88,689.89c-1.63,5.7-.47,11,2.58,11.88s6.8-3,8.42-8.77.45-11-2.58-11.87S1844.49,684.18,1842.88,689.89Z"/><path class="cls-20" d="M1895.45,692.45c-2.26,5.65-5.38,10.91-7.71,16.52-1.11,2.67-.47,6,.26,8.75a76.15,76.15,0,0,0,2.62,7.48,29,29,0,0,1,1.79,6.64,16.26,16.26,0,0,1,.18,2.7,14,14,0,0,1-.17,1.45c0,.15-.07.31-.1.46.17-.72-.1.21-.15.35a9.19,9.19,0,0,1-1.14,2c-.14.21-.51.49.07-.07l-.45.47c-.32.3-.67.56-1,.83-.83.66.68-.31-.27.17-.37.19-.74.39-1.13.56a5.15,5.15,0,0,0-.54.23c1-.61.71-.25.22-.11s-.93.26-1.39.39c-.93.27,1.31-.2.35-.07-.25,0-.49.08-.74.12-.5.07-1,.1-1.49.16,2.08-.23,0,0-.57,0l-.51,0c-1.4,0,1.13.12.19,0-.49,0-1-.1-1.49-.18l-.73-.13c-.86-.13,1.24.33.35.07-.46-.13-.93-.24-1.39-.38l-.66-.22c-.76-.23,1.13.46,0,0-2.29-1-5.46-1.24-7.71,0-.72.4-1.6.95-1.6,1.89s.89,1.58,1.6,1.89a32.77,32.77,0,0,0,15.89,2.22c4.39-.4,9.45-1.86,12.59-5.14,8.23-8.63-2.86-19.18-4.4-28.15a11.88,11.88,0,0,1-.29-2.91,16.37,16.37,0,0,1,.61-2.46c.44-1.63.94-3.25,1.44-4.86,1-3.39,2.14-6.78,2.91-10.25.22-1-1.9-1.3-2.41-1.33-.83-.06-2.66,0-3,1Z"/><path class="cls-21" d="M1839.48,605.87c9.18,4.38,18.44,8.62,27.69,12.84,21.18,9.68,53.18,29.62,77.31,21.1,35.51-12.57,52.32-54.69,45.06-83.58-5-19.89-31.86-45.19-54-44-9,.5-18.2,4.08-27.71,1.25-9-2.71-15.55-10.55-23.32-15.88-13.82-9.47-27.69-19.87-45.67-20.34-17.61-.46-33.27,4.1-49.4,10.27-21.37,8.18-53.09,25.07-42.74,53.4,4.19,11.49,19.85,22.44,29.09,28.93C1795.79,584,1817.43,595.33,1839.48,605.87Z"/><path class="cls-20" d="M1870.22,760.46l-5.72,1.22,6.15.39-.76-.44-.38-.21c.21.13.21.13,0,0l-1.59-1a24.1,24.1,0,0,0-4.65-2,25,25,0,0,0-9.24-1.66,22.63,22.63,0,0,0-7.46,1.41l-1.63.61c-.2.08-.87.34,0,0s-.41.14-.69.23-.84.18-1.22.34c1.41-.59,1.12-.21.49-.11-.31,0-.61.09-.92.12h3.74c-1.59-.2,1.36.39.25.06-1-.29,1.39.67-.06,0-.31-.15-.6-.32-.9-.47-.49-.28-.42-.22.22.17a5.56,5.56,0,0,1-.54-.42,9.9,9.9,0,0,0-5.22-2.21c-2.61-.36-6.64-.07-8.08,2.58a1.8,1.8,0,0,0,0,1.82c2.36,3.13,6.07,4.55,9.86,5.08,4.2.59,8.22-.49,12-2.17l1.22-.55c.44-.18,1.22-.32-.39.13.22-.06.43-.15.64-.21s.44-.11.66-.18c-1.08.21-1.37.27-.88.19l.45,0c-.08-.1-1.91.12-.62.06.77,0-1.6-.19-.45,0,.36,0,1.58,0,.15,0a5.72,5.72,0,0,1,1.13.3c.82.23,1.64.49,2.46.76,1.74.57,3.54.93,5.27,1.51l-2.4-2.89-.81,2.53a2.73,2.73,0,0,0-.25,2.76,2.34,2.34,0,0,0,1,1.75,11.8,11.8,0,0,0,5.78,3.31,25.85,25.85,0,0,0,9,.82A19.69,19.69,0,0,0,1884,772a9.55,9.55,0,0,0,3.64-3.06,3.75,3.75,0,0,0-.72-4.5,11.76,11.76,0,0,0-5.78-3.31,28.49,28.49,0,0,0-10.88-.7Z"/><polygon class="cls-19" points="1741.66 844.57 1545.13 878.55 1563.25 1351.03 1805.88 1395.52 1954.2 962.91 1827.82 860.36 1741.66 844.57"/><path class="cls-17" d="M1833.79,862l124.76,94.81-144.43,436.81c-53.6,15.93-78.19-5-154-19-24.23-4.47-98.52-4.37-104.39-31.75-3.56-16.65-15.61-52.54-12-68.86s-9.57-46.38-7.89-63.07,5-32.9-.37-49.13c-9.92-30.21-2.25-70.85-3.41-103-1.17-32.58-3-49,2.87-81.17,3.12-17.1-8-39-9.18-56.36-1.21-18.5,5.2-39.36,24.12-44.15,16.83-4.25,35.3-5.44,52.47-8.43l113.15-20.83S1803.2,896.38,1833.79,862Z"/><path class="cls-17" d="M1574,1012.22s-29.9,100.87-31.57,158.19c-.93,31.87-11.22,56.33-24.23,84.72-6.43,14-16.35,27.19-19.33,42.56-2.84,14.64-1.48,30-4,44.9-5,29.29-3.82,59-15,86.7-6,14.92-11.19,30.65-13.24,46.66-2.4,18.61-3.71,115.11-4.7,133.61,66,15.16,77.64,20.8,106.63-25.76,18.46-29.65,51.89-63.41,87-71.37,32.76-7.42,61.75-5,94.56-2.8,33.07,2.18,100.81,7.1,131.14-6.39,24.14-10.75-14.75-144.85-3.41-169.93,12.41-27.42,16-42.36,11.29-70.77-5.69-34.68-10.4-69-11.75-104.11-1.18-30.4-2.58-60-21.49-85.38-55.11-73.9-171-84.21-253.83-67.08Z"/><path class="cls-1" d="M1585.31,1189c8.51-73.41,71.57-207.81,46.2-257.67-22.76-44.77-75.73-59.53-113.39-27.51-50.68,43.11-84.83,342.77-58,383.34C1460.16,1287.15,1531.39,1326.48,1585.31,1189Z"/><path class="cls-24" d="M1852.51,884c.06-.22.11-.46.18-.68s0,0,0,.15a1.42,1.42,0,0,0,0-1.24c-.47-1.06-2.23-1.44-3.22-1.57a7.45,7.45,0,0,0-4.49.58l-.63.34c1-.5-.76.29-.77.29-.4.2-.74.51-1.12.74.15-.09.57-.31-.1,0-.4.2-.8.41-1.21.59-.14.06-.91.4-.32.15s-.36.13-.49.17c-2.22.74-4.51,1.32-6.76,1.95-1.24.35-2.49.68-3.74,1-.55.14-1.09.26-1.63.38l-.93.21c-.76.17,1.11-.21,0,0-2.41.46-4.83.86-7.28,1.13-1.18.14-2.37.25-3.56.36-.21,0-.42,0-.64.06-.92.09,1.51-.06.58,0-.63,0-1.26,0-1.9,0l-1.68,0c-.57,0-2.48-.18-.22,0-1.14-.1-2.28-.18-3.42-.29-2.91-.27-5.88-.67-8.8-.7a13.83,13.83,0,0,0-2.48.1c-.59.07-1.18-.08.88,0-.5,0-1,0-1.5,0-1.26,0,2.08.21.33,0-.59-.07-1.17-.15-1.76-.25l-1.65-.3c-.53-.1-2.47-.49-.34-.06a21.06,21.06,0,0,0-3-.47c-1.14-.07-2.19.08-3.35.09-1,0,1.93,0,.94-.06h-1c-.67,0-1-.37.87.06a8.55,8.55,0,0,0-.87-.09c-.52-.06-1-.14-1.55-.22-1.31-.21-2.62-.47-3.92-.73-.87-.18-.2-.41.64.12a4,4,0,0,0-.86-.22c-.51-.15-1-.31-1.51-.48-1.22-.42-2.41-.91-3.64-1.3a37.66,37.66,0,0,0-10.55-1.49l-1.83-.05c-.63,0-1.45-.27.94.08-.23,0-.45,0-.68-.07l-.89-.13c-1-.14,1.77.46.81.15-.62-.2-1.24-.36-1.85-.57-1-.36-2-.76-3-1.1-.55-.19-1.09-.36-1.65-.51s-1.11-.25-1.67-.37l-1.26-.26,1.18.24c-.44-.17-.93-.27-1.39-.41-1.14-.36,1.77.72.2.07-1.08-.45-2.14-1-3.19-1.46-1.9-.91-3.88-1.68-5.72-2.71-.47-.26-.92-.53-1.38-.81l-.45-.28c1.72,1,.56.35.2.13-1.28-.82-2.55-1.65-3.85-2.45a33.73,33.73,0,0,0-7.57-3.42c-.51-.16-1-.3-1.54-.42-.84-.19-1.7-.36-2.56-.53-1.53-.31,1.66.44.87.18-.31-.11-1.12-.39.11.08s.32.12,0,0a3.28,3.28,0,0,1-.54-.3c.08.14,1.39,1,.53.29a25.86,25.86,0,0,0-2.25-1.94c-1.12-.77-2.2-1.61-3.27-2.44-2.15-1.66-5.55-2.06-8.17-1.63a12.14,12.14,0,0,0-3.19.91c-.72.33-2.32,1.44-2.12,2.51s.36,2,.61,2.92a5.45,5.45,0,0,0,1.41,2.72,12.46,12.46,0,0,0,1.31,1.31,15.58,15.58,0,0,0,3.5,2.16,22.94,22.94,0,0,0,3.1,1.12c.83.22,1.68.35,2.51.53,1.43.29-2-.52-.61-.11.69.21,2.63,1.08.38,0,.57.27,1.16.48,1.72.76,1.12.54,2.2,1.14,3.26,1.77,2,1.2,4,2.52,6.07,3.57.48.24,1,.47,1.47.67s1,.41,1.57.61c2.91,1.1-1.41-.65.33.18,1.32.64,2.66,1.24,4,1.82a42.36,42.36,0,0,0,4.86,1.81c1.09.31,2.24.54,3.34.74,1.37.26-1.71-.43-.69-.14.42.13.84.23,1.26.36,3.28,1,6.39,2.23,9.86,2.58,2,.2,4.1.24,6.17.27l1.13,0c1.42,0-.88-.08-.91-.07a4.84,4.84,0,0,1,1.12.14c.61.1.3,0-.93-.2l.88.23c1.62.47,3.18,1.11,4.78,1.6a46.19,46.19,0,0,0,6.38,1.28,44.3,44.3,0,0,0,13.2.44h-4.2c2.32.38,4.63.7,7,.86a28.67,28.67,0,0,0,3.47.09c1,0,2-.1,2.94-.2.25,0,1-.09-.21,0-1.36.11.06.06.38.08,4.18.16,8.36.61,12.54.55a92.43,92.43,0,0,0,28-5.29c.88-.3,1.75-.62,2.61-1a5,5,0,0,1,.86-.35c-1.15.19,0,0,.83-.33a21.84,21.84,0,0,0,2.4-1.13,19,19,0,0,0,2.89-1.9,3.42,3.42,0,0,0,1.25-1.52,7.25,7.25,0,0,0,.21-1.25l-8.6,1.15a8.77,8.77,0,0,0,2.3,1.24c1.6.78,5.41,1,6-1.22Z"/><path class="cls-24" d="M1731.8,1418l-2.37-.39,1.77.51a8.71,8.71,0,0,0-2.13-.63l-1.13-.08c.38,0,.43,0,.12,0s-1.07-.42-.14,0l.46.23a7.89,7.89,0,0,0-2.42-.69l-.73-.05c-.94-.06-1-.06-.1,0a5.65,5.65,0,0,1-1.23-.13l-2.44-.29c-2.82-.37-5.62-.85-8.42-1.26-5.63-.84-11.21-1.94-16.81-2.92-12.12-2.12-24.64-3.52-36.85-1.32a77.34,77.34,0,0,0-20.68,6.69,110.77,110.77,0,0,0-15.88,9.74,127.92,127.92,0,0,0-24.39,23.64,171.69,171.69,0,0,0-18.43,27.81c-2.57,4.87-4.8,9.91-7.39,14.75s-5,9.67-7.5,14.55c-9.46,18.83-18.77,37.85-30.59,55.35-3,4.37-6.07,8.64-9.37,12.75-.84,1-1.69,2.09-2.55,3.11l-.48.56c-.07.09-.87,1-.24.29l-1.45,1.65c-1.7,1.9-3.46,3.77-5.26,5.58a123.47,123.47,0,0,1-11.72,10.43c-2,1.61-4.23,3-6.24,4.69s-3.88,3.06-5.91,4.47c-1,.66-1.94,1.26-2.88,1.93a10.77,10.77,0,0,0-2.07,2.56c-.48.66.35,1.32.84,1.57a5.49,5.49,0,0,0,3.2.41,27.45,27.45,0,0,0,6.57-1.61q2.47-1.06,4.89-2.25a67.78,67.78,0,0,0,9.72-5.49,123.07,123.07,0,0,0,14.87-12.49,181.56,181.56,0,0,0,24.72-30.8c7.18-11,13.49-22.61,19.55-34.29,3-5.7,5.86-11.44,8.78-17.17,3.09-6,6.1-12.19,9.7-18,3.77-6,7.84-11.83,11.8-17.73s8-11.51,12.37-16.94c1.08-1.33,2.17-2.64,3.29-3.94l-.93,1.07a164.49,164.49,0,0,1,17.83-17.88,112.23,112.23,0,0,1,9.76-7.45l1.28-.85.65-.42c.9-.59-.34.22-.44.27,1-.52,1.87-1.16,2.81-1.71,2.07-1.21,4.18-2.34,6.36-3.34,1.07-.5,2.16-1,3.26-1.4l.61-.23c-1.83.74-1,.37-.57.22.67-.23,1.34-.47,2-.68q1.48-.48,3-.87l1.58-.4c.27-.06.53-.11.79-.18.89-.21-2.17.42-.68.14,2.08-.38,4.16-.68,6.26-.91l1.54-.14c.26,0,.52,0,.77-.06,0,0-2.37.13-1.07.07,1,0,2.06-.09,3.1-.1q3.18,0,6.36.14l.77,0-1-.06,1.36.11c1.1.09,2.21.2,3.31.31,4.26.45,8.5,1.06,12.74,1.65,5.28.75,10.59,1.56,15.92,1.87q3.83.23,7.67.21l1.9,0h.85l1.46-.09c1.4-.28,1.75-.36,1-.22l.3,0c.32,0,.65-.1,1-.17h-.16c-.54,0-.22-.05,1-.09a10,10,0,0,0,2.13-.63l-1.77.5c1-.2,2.07-.41,3.11-.64.67-.15,1.65-.7,1.46-1.5s-1.49-1.15-2.2-1.25Z"/><path class="cls-24" d="M1585.22,1390.47a37.45,37.45,0,0,1-4.49,1.26,19.41,19.41,0,0,1-2,.15c-.5,0-1,.07-1.5.13-1.48.15.69,0-.68,0a33.44,33.44,0,0,0-10.4,2.45c-3,1.06-5.92,2.17-8.8,3.42a41.59,41.59,0,0,0-7.79,4.61,78.77,78.77,0,0,0-12.07,11.09,65.61,65.61,0,0,0-10,13.79c-1.29,2.52-2.17,5.22-3.45,7.74-1.41,2.77-1.81,5.81-2.6,8.78l.28-1c-.52,1.8-1.2,3.55-1.82,5.33-.67,2-1.1,4-1.63,5.94l.29-1c-2,7-6.22,13.3-9.65,19.67a102.49,102.49,0,0,1-12.14,18l.9-1c-.5.58-1,1.17-1.49,1.76l.9-1.06a38.64,38.64,0,0,1-6.51,5.88c-.76.55-.73.09.53-.3a3.37,3.37,0,0,0-.64.3c1.44-.53,1.79-.67,1.06-.41s-1.33.49-2,.76l-.94.43a11.68,11.68,0,0,0-4.83,3.9c-.73,1.1,0,2.56.87,3.27a9.63,9.63,0,0,0,4.14,1.74,16,16,0,0,0,5.64.21c1.72-.28,3.89-.67,5.17-2,.15-.15.32-.28.47-.43.66-.67-.36.33-.54.32a3,3,0,0,0,.62-.29c.54-.26,1-.12-.87.32a25.6,25.6,0,0,0,3.94-1.4,18.71,18.71,0,0,0,5-3.44,56.59,56.59,0,0,0,8.4-9.55c5.43-7.54,9.36-15.94,13.47-24.25a58.38,58.38,0,0,0,3.14-7.27c.9-2.66,1.29-5.39,2-8.08l-.29,1c.62-2.21,1.38-4.38,2-6.61.49-1.9.67-3.87,1.16-5.77l-.28,1c.55-2,1.46-3.82,2.14-5.75a49.85,49.85,0,0,1,2.2-5.36,55.7,55.7,0,0,1,6.62-10.47,77.46,77.46,0,0,1,8.46-9.14q2.29-2.12,4.79-4c.77-.59,1.55-1.17,2.34-1.72.22-.15,1.26-.8.53-.37.54-.32,1.08-.61,1.63-.89,2.17-1.11,4.38-2.11,6.61-3.08,1.13-.49,2.3-.94,3.42-1.45a30.32,30.32,0,0,0,3.61-2.21l-1.67.82a12.55,12.55,0,0,0,4.42-2.27,29.38,29.38,0,0,1,3.93-2.55c1.27-.78-1-1.19-1.59-1Z"/><path class="cls-17" d="M1570.62,873.22s-71.94-1.45-103.88,108.57l-43.25,171.74s156,28.6,210.55-21.84L1649.41,938S1651.12,882.94,1570.62,873.22Z"/><path class="cls-25" d="M1460.16,1287.15c129.32,77.21,295-355.12,316.84-449.63l-37.3-11.27c-129.74,206.82-235.49,311.86-235.49,311.86S1430,1213.84,1460.16,1287.15Z"/><path class="cls-25" d="M1777,837.52s-18.28,15-33.54,7.43c-18.41-21.42-17.3-54.76-29.37-81.47-12.49-27.64-19-106.56-8.81-120,15.54.44,15.07,74.11,20.93,85.88l3.58-29.45,10.53-52s11.11,4.75,11.76,20.67l-4.95,36.34-5.78,29.4,13.43-29.6,17.27-19s9.49,2.56,3.53,16.09L1768,715.87l-4.4,33.83L1774.26,731l20.55-8.17s10.85,7.74-9.59,18.11l-9.51,19.76S1788.68,822.89,1777,837.52Z"/><path class="cls-24" d="M1879.36,928.37a105.5,105.5,0,0,0-7.34,15.86c-.94,2.73-1.71,5.51-2.52,8.28a44.38,44.38,0,0,0-1.22,8.69,227.38,227.38,0,0,0-.17,34.82c.77,11.71,1.84,23.4,2.29,35.13a233.75,233.75,0,0,1-1.43,35.29c-1.47,13-3.79,25.91-5.31,38.92s-2.47,26.06-1.71,39.15c1.46,25,9.09,48.84,15.41,72.89,3.05,11.63,6.31,23.16,8.26,35a158.59,158.59,0,0,1,1.79,37.19,9.29,9.29,0,0,0,.72,4.12,10.54,10.54,0,0,1,.06,4.87c-.17,1.32,3.69,1.36,4.09.27a20.81,20.81,0,0,1,1.44-3.87c1-1.55,2.26-2.56,2.69-4.39.69-3,1.18-6,1.57-9.09.78-6.12.37-12.53-.14-18.66a227.36,227.36,0,0,0-6.4-35.84c-5.93-23.84-13.33-47.66-15.83-72.19-2.68-26.18,3.1-51.9,6.64-77.71a261.05,261.05,0,0,0,2.92-36.5c-.06-11.66-1-23.3-1.88-34.92s-2-23.58-2.09-35.39c0-2.84,0-5.68.1-8.52s.54-5.83.46-8.7a129.52,129.52,0,0,1,.52-16.6,63.51,63.51,0,0,1,1.38-7.87c.32-1.39-3.75-1.29-4.3-.28Z"/><path class="cls-24" d="M1604.22,880.2a40.41,40.41,0,0,0-.25,5c.08,1.83.36,3.68.6,5.49a85.78,85.78,0,0,0,2.14,10.53c1.78,6.83,3.65,13.65,4.83,20.61a135.26,135.26,0,0,1,2,20.58,130.94,130.94,0,0,1-5,41.34l.26-.93c-1.47,5.33-2.84,10.7-2.73,16.26,0,1.7,2.8,2.14,4,2.21,1.76.12,3.9-.12,5-1.61a50.53,50.53,0,0,0,3.57-5.37,40,40,0,0,0,2.49-5.65,98,98,0,0,0,3.49-11.64,134.29,134.29,0,0,0,3.72-22.18,103.53,103.53,0,0,0-.89-23.53,174.19,174.19,0,0,0-5.84-24.78c-1.37-4.48-2.58-9.07-4.24-13.45-.81-2.17-1.6-4.34-2.33-6.54-.77-2.35-1.73-4.61-2.6-6.92-.54-1.45-3.41-1.54-4.57-1.47s-3.48.46-3.61,2Z"/><path class="cls-18" d="M1840.26,1842.51c37.4-1.72,73.24-16.56,96.92-45.34,47.84-58.19,47.06-143.73,43.77-216.51-3.85-85.35-58.75-218.05-164.89-143-51.87,36.7-68.2,106-84.84,163.71-13.19,45.73-29.51,107-29.32,154.78.14,36.36,5.91,58.68,39.69,73.07C1773.13,1842.69,1806.33,1844.08,1840.26,1842.51Z"/><path class="cls-18" d="M1969.15,1389.79c30.83,138.75,68.63,355.28,94.15,355.12,80.79-.52,117.81-35.24,117.81-35.24l-68.26-332.54S2069,1252.08,1969.15,1389.79Z"/><polygon class="cls-1" points="1992.68 1616.53 1990.95 1809.61 1947.51 1809.7 1917.8 1616.68 1992.68 1616.53"/><path class="cls-26" d="M1936.35,1844.94l197.62-.29c-2.69-23.78-21.22-29-21.22-29L2054,1797.9l-53.11-31.61-20,9.67s-4-.72,0,9.1c0,0-25,5.24-36.91,0l-7.6,62.15"/><polygon class="cls-16" points="1936.38 1854.39 2133.99 1854.11 2133.97 1844.65 1936.35 1844.94 1936.38 1854.39"/><path class="cls-4" d="M2071.37,1802.8a5.65,5.65,0,0,0-3.78.25,9.79,9.79,0,0,0-2.14,1.38,16.75,16.75,0,0,0-3.77,4.06,24.49,24.49,0,0,0-3.93,10l2.61-1.28a8.66,8.66,0,0,0-1.44.13l3,.83a1.24,1.24,0,0,0-.68-.67,3.7,3.7,0,0,0-.52-.2c-.08,0-.06,0,.06,0a3.1,3.1,0,0,0-1.23-.31,2.91,2.91,0,0,0-1.23.31c.44-.19-.85.39-.45.19a1.19,1.19,0,0,0-.67.67c-.33,1,1,1.35,1.71,1.48a9.87,9.87,0,0,0,1.44.12c.89,0,2.4-.22,2.61-1.28a26.52,26.52,0,0,1,3.1-8.72,15.86,15.86,0,0,1,2.78-3.58c.49-.46,1-1,1.29-1.4l.32-.29s.36-.25.16-.13a5,5,0,0,1,.75-.37c.27-.1.72-.25.72-.61s-.44-.54-.72-.62Z"/><path class="cls-4" d="M2049.24,1796.1c-1.3,2.88-3.63,5.16-5.44,7.7a45.87,45.87,0,0,0-2.57,3.89,13.87,13.87,0,0,0-1.06,2.28,8.4,8.4,0,0,0-.44,1.37,1.45,1.45,0,0,0,.45,1.42c.67.74,2.72.7,3.49.22a2.57,2.57,0,0,0,1.18-1.3c.16-.41.28-.82.44-1.23.29-.73.62-1.46,1-2.18.69-1.38,1.51-2.69,2.33-4a27.44,27.44,0,0,0,3.82-8c.13-.57-1.11-.76-1.4-.78-.5,0-1.52,0-1.77.56Z"/><path class="cls-4" d="M2035.23,1788.85c-1.32,1.17-2.55,2.43-3.81,3.67a26,26,0,0,0-3.37,4.1,25.2,25.2,0,0,0-2.28,4.29c-.31.75-.59,1.5-.85,2.27a14.2,14.2,0,0,0-.77,2.71h5.7a1.93,1.93,0,0,0-.9-1.29c-.35-.26-.7-.49-1.08-.72a2,2,0,0,0-1.74,0c-.38.23-.73.46-1.09.72a2,2,0,0,0-.89,1.29c-.11.41.58.87.83,1a4.67,4.67,0,0,0,1.64.38,5.06,5.06,0,0,0,1.82-.16c.43-.14,1.13-.37,1.31-.84.28-.75.42-1.57.65-2.34s.5-1.53.78-2.28c.56-1.46,1.2-2.92,1.87-4.34s1.37-2.76,2.09-4.11a21.62,21.62,0,0,1,2.74-3.79c.38-.44-.61-.79-.84-.84a2.22,2.22,0,0,0-1.81.29Z"/><path class="cls-4" d="M2017.27,1777.11a38.65,38.65,0,0,0-3.2,4.61c-.85,1.36-1.85,2.58-2.76,3.9-1.74,2.52-3.17,5.26-3.18,8.4l2.18-1.4a3,3,0,0,0-2.72,2c-.15.43-.27.87-.38,1.31-.28,1.13,1,1.59,1.84,1.85l-.78-.49c.08.12.24.54.18.22l.39-.47h0l2.1.13s-.09-.1,0,.06a1.8,1.8,0,0,0-2.43,0,.86.86,0,0,0-.07.1.41.41,0,0,0,.14.5,2.24,2.24,0,0,0,2.82-.42l-1.52.43c.9,0,2.48-.22,3-1.15a2.86,2.86,0,0,0,.19-.71c.05-.17,0-.15,0,0,0-.08.05-.15.07-.22a7.58,7.58,0,0,1,.28-.8,1.24,1.24,0,0,0,.16-.3c.11-.15.05-.08-.17.19.47-.41,0-.23-1.55.55.7-.08,2.17-.45,2.18-1.4,0-2.87,1.32-5.41,2.82-7.8a25,25,0,0,0,2-3.86c.65-1.58,1.16-3.23,1.9-4.78.33-.71-.79-1-1.27-1.09a2.42,2.42,0,0,0-2.22.62Z"/><path class="cls-18" d="M1877.33,1092.62s91.54,7.28,107.91,179.48c0,0,39,288.92,50,469.5,0,0-52.31,40.74-118.92,21.48l-56.16-193.25-137.09,211.41s-155.26-3.3-161.87-171.77C1561.18,1609.47,1736.38,1062.89,1877.33,1092.62Z"/><path class="cls-27" d="M1823.13,1419.79a112.16,112.16,0,0,1,10,25.49,255.42,255.42,0,0,1,5.83,28.59c3.54,22.56,8.82,44.81,13.6,67.14,5.07,23.62,9.85,47.32,15.18,70.89a673.12,673.12,0,0,0,18.48,66.24q5.4,16.06,11.82,31.77,3.27,7.93,6.83,15.72a63.39,63.39,0,0,0,4.64,7.59q2.36,3.63,4.79,7.21c1.66,2.45,3.3,4.92,5,7.37.68,1,4.63,1,4-.54-2-5.1-3.74-10.25-5.37-15.46a69.46,69.46,0,0,0-2.47-7.6q-1.74-3.89-3.41-7.82-6.63-15.69-12.13-31.83c-7.38-21.56-13.33-43.54-18.52-65.72-5.45-23.31-10.26-46.77-15.35-70.16q-4-18.36-8-36.72l-4-18.21c-1-4.67-1.71-9.4-2.72-14.08-2-9.55-4.25-19.06-7-28.44-2.69-9.14-5.81-18.53-10.86-26.68q-1.8-2.89-3.86-5.63c-.91-1.21-2.79-1.36-4.18-1.17-.82.12-3.11.76-2.38,2Z"/><path class="cls-27" d="M1809,1455.82c1.08.27,2.13.6,3.18,1,.88.31-1.19-.48-.3-.11l.71.29c.47.21.94.43,1.4.67s.93.51,1.4.76.32.17-.6-.4l1.29.82c.31.16.65.28,1,.42,1.18.54,2.33,1.13,3.45,1.76s2.28,1.25,3.4,1.92c.21.12,1.48.92.42.24s0,0,.26.18c.6.4,1.18.81,1.76,1.23a38.41,38.41,0,0,1,6,5.53l-1-1.09a29.56,29.56,0,0,1,3.64,5.24,26,26,0,0,1,1.26,2.74c.19.5.37,1,.53,1.51a5.87,5.87,0,0,0,1.56,2.46,7.94,7.94,0,0,0,3.38,1.66,17.15,17.15,0,0,0,6,.54,15.45,15.45,0,0,0,4.46-.9c1-.39,3-1.22,3.37-2.4a3.84,3.84,0,0,0,.21-2.48c-.15-.52-.31-1-.5-1.54a23.89,23.89,0,0,0-1-2.22,26.37,26.37,0,0,0-2.42-4,40,40,0,0,0-7.23-7.65,46.44,46.44,0,0,0-21.64-10,56.39,56.39,0,0,0-11.53-.71c-1.47.08-4.06.25-4.86,1.81s1.18,2.51,2.31,2.79Z"/><path class="cls-27" d="M1854.31,1546.7c.54,3.54-.59,7-1.9,10.28-.78,1.91-1.77,3.73-2.6,5.62s-1.42,3.52-2.15,5.27a95.94,95.94,0,0,0-4,13.46c-1.21,4.77-2.2,9.56-3.09,14.41-1.77,9.64-3.43,19.31-5.5,28.9-1.11,5.17-2.48,10.27-3.72,15.41q-3.45,14.42-6.28,29c-2.36,12.19-4.75,24.38-7.33,36.52-2.78,13.13-5.78,26.22-9.21,39.19q-.63,2.4-1.29,4.8l.34-1.24c-3,10.78-6.23,21.49-10.16,32-3.32,8.83-7,17.63-11.8,25.75-1.13,1.89-2.33,3.75-3.61,5.54a14.14,14.14,0,0,0-1.27,2.59,11,11,0,0,0-1.26,3.3l1-1.87-.14.15c-.78.84-1.36,1.7-.76,2.86s2.34,1.91,3.47,2.21a14.18,14.18,0,0,0,5.83.37c1.47-.23,3.47-.56,4.52-1.7l-.82.5c.48-.28,1-.58,1.4-.9l.38-.27,1.06-.78c.67-.5,1.32-1,2-1.58a23.24,23.24,0,0,0,4-4.71,95.24,95.24,0,0,0,5.39-8.87,165.14,165.14,0,0,0,9.77-22.12c6.53-17.9,11.35-36.43,15.66-55,4.21-18.08,7.81-36.3,11.31-54.54,1.44-7.49,2.71-15,4-22.52,1-5.86,2.28-11.68,3.41-17.52,2.65-13.79,4.19-27.77,6.19-41.67.49-3.44.77-6.91,1.19-10.36a65.13,65.13,0,0,1,1.44-9.45,53.63,53.63,0,0,0,1.84-7.68,47.24,47.24,0,0,0,.37-8.32,19.55,19.55,0,0,0-1.66-7.38c-.51-1-2.43-1.14-3.37-1.07-.68,0-2.83.37-2.66,1.47Z"/><path class="cls-27" d="M1927.9,1122.1c15.29,14.79,25.27,34.58,31.76,54.61,3.34,10.33,5.34,21,7.71,31.64,2.3,10.24,4.35,20.53,6.54,30.8,4.15,19.46,6.51,39.37,9.24,59.07,4.45,32.22,8.62,64.47,13.53,96.62q8,52.53,15.1,105.19,3.06,23.12,6.27,46.21,1.38,10.08,2.64,20.18a72.54,72.54,0,0,0,4.18,17.74c.47,1.16.93,2.26,1.4,3.4.39,1,1.52,2.48,1.58,3.47.13,1.83,5.38,1.74,5.26,0-.06-.93.72-2.4,1-3.31.41-1.41.74-2.82,1.08-4.24a55.66,55.66,0,0,0,1-8.36c.49-6.27-.4-12.65-.91-18.92-1.22-15-2.58-30-4.4-44.9-4.26-35-9-69.94-14-104.84q-7.12-49.73-16.85-99c-4.23-21.38-8.35-42.89-14-64-2-7.48-4.2-14.91-6.31-22.36-3-10.63-6-21.24-10.07-31.52-7.89-20-15.43-40.47-29.24-57.33a102.83,102.83,0,0,0-10.25-10.83c-.59-.53-3.13-.17-2.27.65Z"/><rect class="cls-4" x="1080.84" y="1498.28" width="295.68" height="358.45"/><rect class="cls-28" x="1080.84" y="1498.28" width="295.68" height="358.45"/><rect class="cls-29" x="1376.52" y="1498.28" width="204.54" height="358.45"/><path class="cls-30" d="M1189.2,1571.19s-6.67,1.07-16.69,1.84c-5,.41-10.84.76-17.1,1s-12.94.32-19.61.39c-13.35,0-26.71-.55-36.72-1.37s-16.69-1.85-16.69-1.85,6.68-1.09,16.69-1.86,23.37-1.35,36.72-1.37c6.67.07,13.35.12,19.61.39s12.1.58,17.1,1C1182.53,1570.11,1189.2,1571.19,1189.2,1571.19Z"/><path class="cls-30" d="M1376.52,1542.83l-10.31.63c-6.56.26-15.94.89-27.18,1.18s-24.37.82-38.43,1-29.06.33-44,.39-30-.1-44.06-.38-27.18-.74-38.43-1-20.62-.93-27.18-1.19l-10.31-.63,10.31-.63c6.56-.26,15.94-.9,27.18-1.18s24.37-.84,38.43-1,29.06-.31,44.06-.38,30,.12,44,.39,27.18.74,38.43,1,20.62.93,27.18,1.19Z"/><path class="cls-30" d="M1269.7,1700.79s-7.64,1.08-19.1,1.85c-5.74.41-12.42.76-19.59,1s-14.81.32-22.45.39c-15.29,0-30.57-.55-42-1.37s-19.11-1.86-19.11-1.86,7.65-1.08,19.11-1.85,26.75-1.35,42-1.37c7.64.07,15.28.12,22.45.39s13.85.58,19.59,1C1262.06,1699.72,1269.7,1700.79,1269.7,1700.79Z"/><path class="cls-30" d="M1376.52,1781.8s-7.64,1.08-19.11,1.84c-5.73.42-12.42.76-19.59,1s-14.81.32-22.45.39c-15.29,0-30.57-.55-42-1.37s-19.1-1.85-19.1-1.85,7.64-1.09,19.1-1.85,26.75-1.35,42-1.37c7.64.06,15.29.11,22.45.39s13.86.57,19.59,1C1368.88,1780.72,1376.52,1781.8,1376.52,1781.8Z"/><path class="cls-30" d="M1203.14,1812.18s-7.65,1.07-19.11,1.84c-5.74.41-12.42.76-19.59,1s-14.81.32-22.45.39c-15.29,0-30.57-.55-42-1.37s-19.11-1.85-19.11-1.85,7.65-1.09,19.11-1.86,26.75-1.35,42-1.37c7.64.07,15.28.12,22.45.39s13.85.58,19.59,1C1195.49,1811.1,1203.14,1812.18,1203.14,1812.18Z"/><path class="cls-30" d="M1127.29,1593.46a42.66,42.66,0,0,1-7,1.84,67.27,67.27,0,0,1-7.19,1c-2.63.27-5.43.32-8.24.39a86.61,86.61,0,0,1-15.43-1.37,43.21,43.21,0,0,1-7-1.85,42,42,0,0,1,7-1.85,86.61,86.61,0,0,1,15.43-1.37c2.81.06,5.61.11,8.24.39a67.27,67.27,0,0,1,7.19,1A42.66,42.66,0,0,1,1127.29,1593.46Z"/><path class="cls-30" d="M1376.52,1646.12s-2.71.28-7.45.63-11.51.85-19.64,1.21-17.61.76-27.77,1-21,.33-31.83.39c-21.67,0-43.35-.55-59.6-1.37-8.13-.36-14.9-.94-19.64-1.22s-7.45-.63-7.45-.63,2.71-.28,7.45-.63,11.51-.86,19.64-1.22c16.25-.82,37.93-1.35,59.6-1.37,10.84.07,21.67.12,31.83.39s19.64.57,27.77,1,14.9.94,19.64,1.22S1376.52,1646.12,1376.52,1646.12Z"/><path class="cls-31" d="M1505.64,1779.77a106.66,106.66,0,0,1,11.5-1.84c3.46-.42,7.48-.76,11.8-1s8.91-.33,13.51-.39a231.33,231.33,0,0,1,25.32,1.37,104.89,104.89,0,0,1,11.5,1.85,108,108,0,0,1-11.5,1.85,231.33,231.33,0,0,1-25.32,1.37c-4.6-.07-9.2-.12-13.51-.39s-8.34-.57-11.8-1A106.66,106.66,0,0,1,1505.64,1779.77Z"/><path class="cls-31" d="M1376.52,1808.13s2.58-.28,7.11-.62,11-.86,18.73-1.22,16.8-.76,26.49-1,20-.32,30.37-.39c20.68,0,41.35.55,56.86,1.37,7.75.36,14.21,1,18.73,1.22s7.11.63,7.11.63-2.58.29-7.11.63-11,.86-18.73,1.22c-15.51.82-36.18,1.35-56.86,1.37-10.34-.07-20.68-.12-30.37-.39s-18.74-.57-26.49-1-14.21-.94-18.73-1.22S1376.52,1808.13,1376.52,1808.13Z"/><path class="cls-31" d="M1450.15,1650.17s5.27-1.08,13.17-1.85c4-.41,8.56-.76,13.5-1s10.21-.32,15.48-.39c10.54,0,21.08.56,29,1.38s13.17,1.85,13.17,1.85-5.27,1.08-13.17,1.85-18.44,1.35-29,1.37c-5.27-.07-10.54-.12-15.48-.39s-9.55-.57-13.5-1C1455.42,1651.25,1450.15,1650.17,1450.15,1650.17Z"/><path class="cls-31" d="M1376.52,1569.16s5.27-1.08,13.17-1.85c4-.41,8.56-.76,13.5-1s10.21-.32,15.48-.39c10.54,0,21.07.55,29,1.38s13.17,1.85,13.17,1.85-5.27,1.08-13.17,1.85-18.44,1.35-29,1.37c-5.27-.07-10.54-.12-15.48-.39s-9.55-.57-13.5-1C1381.79,1570.24,1376.52,1569.16,1376.52,1569.16Z"/><path class="cls-31" d="M1496,1538.78s5.27-1.08,13.18-1.84c4-.42,8.56-.76,13.5-1s10.21-.33,15.47-.39c10.54,0,21.08.55,29,1.37s13.18,1.85,13.18,1.85-5.27,1.08-13.18,1.85-18.44,1.35-29,1.37c-5.26-.07-10.53-.12-15.47-.39s-9.55-.57-13.5-1C1501.3,1539.86,1496,1538.78,1496,1538.78Z"/><path class="cls-31" d="M1548.32,1757.5a23.11,23.11,0,0,1,4.84-1.85,34.34,34.34,0,0,1,4.95-1,52.21,52.21,0,0,1,5.68-.39,41.82,41.82,0,0,1,10.64,1.38,22.47,22.47,0,0,1,4.84,1.85,23.11,23.11,0,0,1-4.84,1.85,41.84,41.84,0,0,1-10.64,1.37,52.21,52.21,0,0,1-5.68-.39,33,33,0,0,1-4.95-1A22.8,22.8,0,0,1,1548.32,1757.5Z"/><path class="cls-31" d="M1376.52,1704.84s7.47-1.08,18.67-1.84c5.6-.42,12.14-.76,19.14-1s14.48-.32,22-.39c14.94,0,29.87.55,41.08,1.37s18.67,1.85,18.67,1.85-7.46,1.09-18.67,1.85-26.14,1.35-41.08,1.37c-7.47-.07-14.94-.11-22-.39s-13.54-.57-19.14-1C1384,1705.92,1376.52,1704.84,1376.52,1704.84Z"/><rect class="cls-28" x="1095.02" y="1419.3" width="295.68" height="78.98"/><rect class="cls-29" x="1390.69" y="1419.3" width="204.54" height="78.98"/><path class="cls-30" d="M1097.58,1435.57s2-.29,5.42-.63,8.37-.85,14.28-1.22,12.8-.76,20.19-1,15.26-.33,23.14-.4c15.76,0,31.52.56,43.34,1.38,5.91.36,10.83.94,14.28,1.22s5.42.63,5.42.63-2,.28-5.42.62-8.37.87-14.28,1.23c-11.82.82-27.58,1.35-43.34,1.37-7.88-.07-15.75-.12-23.14-.39s-14.28-.57-20.19-1-10.84-.94-14.28-1.22S1097.58,1435.57,1097.58,1435.57Z"/><path class="cls-30" d="M1281.36,1450.76s6.84-1.08,17.09-1.85c5.13-.41,11.11-.76,17.52-1s13.24-.32,20.07-.39c13.67,0,27.34.55,37.6,1.37s17.08,1.86,17.08,1.86-6.83,1.08-17.08,1.85-23.93,1.35-37.6,1.37c-6.83-.07-13.67-.12-20.07-.39s-12.39-.58-17.52-1C1288.2,1451.83,1281.36,1450.76,1281.36,1450.76Z"/><path class="cls-30" d="M1118.84,1470.5s3.47-.28,9.53-.62,14.73-.86,25.12-1.22,22.52-.76,35.52-1,26.85-.32,40.71-.39c27.72,0,55.44.55,76.23,1.37,10.39.36,19.06.95,25.12,1.22s9.53.63,9.53.63-3.47.29-9.53.63-14.73.86-25.12,1.22c-20.79.82-48.51,1.35-76.23,1.37-13.86-.06-27.72-.11-40.71-.39s-25.12-.57-35.52-1-19-.94-25.12-1.21S1118.84,1470.5,1118.84,1470.5Z"/><path class="cls-31" d="M1390.72,1438.61s6.74-1.08,16.85-1.85c5.06-.41,11-.76,17.27-1s13.06-.32,19.8-.39c13.48,0,27,.55,37.07,1.37s16.85,1.86,16.85,1.86-6.74,1.08-16.85,1.85-23.59,1.35-37.07,1.37c-6.74-.07-13.48-.12-19.8-.39s-12.21-.58-17.27-1C1397.46,1439.68,1390.72,1438.61,1390.72,1438.61Z"/><path class="cls-31" d="M1487.4,1449.24s6.74-1.08,16.85-1.85c5-.41,11-.76,17.27-1s13-.32,19.79-.39c13.49,0,27,.56,37.08,1.38s16.85,1.85,16.85,1.85-6.74,1.08-16.85,1.85-23.59,1.35-37.08,1.37c-6.74-.07-13.47-.12-19.79-.39s-12.22-.57-17.27-1C1494.14,1450.32,1487.4,1449.24,1487.4,1449.24Z"/><path class="cls-31" d="M1419.58,1473.54s6.74-1.08,16.85-1.84c5.06-.42,11-.76,17.27-1s13.06-.33,19.8-.39c13.48,0,27,.55,37.07,1.37s16.85,1.85,16.85,1.85-6.74,1.08-16.85,1.85-23.59,1.35-37.07,1.37c-6.74-.07-13.48-.12-19.8-.39s-12.21-.57-17.27-1C1426.32,1474.62,1419.58,1473.54,1419.58,1473.54Z"/><rect class="cls-4" x="1046.41" y="1062.87" width="295.68" height="358.45"/><rect class="cls-28" x="1046.41" y="1062.87" width="295.68" height="358.45"/><rect class="cls-29" x="1342.09" y="1062.87" width="204.54" height="358.45"/><path class="cls-30" d="M1154.78,1135.78s-6.68,1.08-16.69,1.84c-5,.42-10.85.76-17.11,1s-12.94.32-19.61.39c-13.35,0-26.71-.55-36.72-1.37s-16.69-1.85-16.69-1.85,6.68-1.08,16.69-1.85,23.37-1.35,36.72-1.37c6.67.07,13.35.11,19.61.39s12.1.57,17.11,1C1148.1,1134.7,1154.78,1135.78,1154.78,1135.78Z"/><path class="cls-30" d="M1342.09,1107.42l-10.31.62c-6.56.26-15.94.89-27.18,1.19s-24.37.82-38.43,1-29.06.32-44.06.39-30-.11-44-.38-27.18-.74-38.43-1-20.62-.92-27.18-1.18l-10.31-.63,10.31-.63c6.56-.26,15.94-.9,27.18-1.19s24.37-.83,38.43-1,29.06-.32,44-.38,30,.11,44.06.39,27.18.74,38.43,1,20.62.93,27.18,1.19Z"/><path class="cls-30" d="M1235.27,1265.38s-7.64,1.08-19.1,1.85c-5.74.41-12.42.76-19.59,1s-14.81.32-22.45.39c-15.29,0-30.58-.56-42-1.38s-19.11-1.85-19.11-1.85,7.64-1.08,19.11-1.85,26.75-1.35,42-1.37c7.64.07,15.29.12,22.45.39s13.85.57,19.59,1C1227.63,1264.3,1235.27,1265.38,1235.27,1265.38Z"/><path class="cls-30" d="M1342.09,1346.39s-7.65,1.08-19.11,1.85c-5.73.41-12.42.76-19.59,1s-14.81.32-22.45.39c-15.28,0-30.57-.56-42-1.38s-19.1-1.85-19.1-1.85,7.64-1.08,19.1-1.85,26.76-1.35,42-1.37c7.64.07,15.29.12,22.45.39s13.86.57,19.59,1C1334.44,1345.31,1342.09,1346.39,1342.09,1346.39Z"/><path class="cls-30" d="M1168.7,1376.77s-7.64,1.08-19.1,1.84c-5.74.42-12.42.76-19.59,1s-14.81.33-22.45.39c-15.29,0-30.57-.55-42-1.37s-19.11-1.85-19.11-1.85,7.64-1.08,19.11-1.85,26.75-1.35,42-1.37c7.64.07,15.29.11,22.45.39s13.85.57,19.59,1C1161.06,1375.69,1168.7,1376.77,1168.7,1376.77Z"/><path class="cls-30" d="M1092.86,1158.05a43.21,43.21,0,0,1-7,1.85,67.42,67.42,0,0,1-7.19,1c-2.63.28-5.44.33-8.24.4a86.63,86.63,0,0,1-15.43-1.38,42,42,0,0,1-7-1.85,43.21,43.21,0,0,1,7-1.85,86.7,86.7,0,0,1,15.43-1.37c2.8.07,5.61.12,8.24.39a67.27,67.27,0,0,1,7.19,1A42.66,42.66,0,0,1,1092.86,1158.05Z"/><path class="cls-30" d="M1342.09,1210.71s-2.71.28-7.45.62-11.52.86-19.64,1.22-17.61.76-27.77,1-21,.32-31.83.39c-21.67,0-43.34-.55-59.6-1.37-8.13-.36-14.9-1-19.64-1.22s-7.45-.63-7.45-.63,2.71-.29,7.45-.63,11.51-.86,19.64-1.22c16.26-.82,37.93-1.35,59.6-1.37,10.84.06,21.67.11,31.83.39s19.64.57,27.77,1,14.9.94,19.64,1.21S1342.09,1210.71,1342.09,1210.71Z"/><path class="cls-31" d="M1471.21,1344.36a109.84,109.84,0,0,1,11.5-1.84c3.46-.41,7.48-.76,11.8-1s8.91-.32,13.51-.39a231,231,0,0,1,25.31,1.37,107.9,107.9,0,0,1,11.51,1.85,106.09,106.09,0,0,1-11.51,1.86,231,231,0,0,1-25.31,1.37c-4.6-.07-9.2-.12-13.51-.39s-8.34-.58-11.8-1A108,108,0,0,1,1471.21,1344.36Z"/><path class="cls-31" d="M1342.09,1372.72s2.58-.28,7.1-.63,11-.85,18.74-1.22,16.8-.75,26.49-1,20-.33,30.37-.39c20.67,0,41.35.55,56.86,1.37,7.75.36,14.21.94,18.73,1.22s7.11.63,7.11.63-2.58.28-7.11.63-11,.86-18.73,1.22c-15.51.82-36.19,1.35-56.86,1.37-10.34-.07-20.67-.12-30.37-.39s-18.73-.57-26.49-1-14.21-.94-18.74-1.22S1342.09,1372.72,1342.09,1372.72Z"/><path class="cls-31" d="M1415.72,1214.76s5.27-1.08,13.17-1.85c3.95-.41,8.56-.76,13.5-1s10.21-.32,15.48-.39c10.54,0,21.08.55,29,1.37s13.17,1.86,13.17,1.86-5.27,1.08-13.17,1.85-18.44,1.35-29,1.37c-5.27-.07-10.54-.12-15.48-.39s-9.55-.58-13.5-1C1421,1215.83,1415.72,1214.76,1415.72,1214.76Z"/><path class="cls-31" d="M1342.09,1133.75s5.27-1.08,13.17-1.84c4-.42,8.56-.76,13.5-1s10.21-.32,15.48-.39c10.54,0,21.08.55,29,1.37s13.17,1.85,13.17,1.85-5.27,1.09-13.17,1.85-18.44,1.35-29,1.37c-5.27-.06-10.54-.11-15.48-.39s-9.55-.57-13.5-1C1347.36,1134.83,1342.09,1133.75,1342.09,1133.75Z"/><path class="cls-31" d="M1461.61,1103.37s5.26-1.07,13.17-1.84c4-.42,8.56-.76,13.5-1s10.21-.32,15.48-.39c10.53,0,21.07.55,29,1.37s13.17,1.85,13.17,1.85-5.27,1.09-13.17,1.86-18.45,1.35-29,1.37c-5.27-.07-10.54-.12-15.48-.39s-9.55-.58-13.5-1C1466.87,1104.45,1461.61,1103.37,1461.61,1103.37Z"/><path class="cls-31" d="M1513.89,1322.09a22.8,22.8,0,0,1,4.84-1.84,32.93,32.93,0,0,1,5-1,51.86,51.86,0,0,1,5.68-.39,41.82,41.82,0,0,1,10.63,1.37,22.82,22.82,0,0,1,4.84,1.85,22.19,22.19,0,0,1-4.84,1.85,41.82,41.82,0,0,1-10.63,1.37,47.34,47.34,0,0,1-5.68-.39,32.93,32.93,0,0,1-5-1A22.8,22.8,0,0,1,1513.89,1322.09Z"/><path class="cls-31" d="M1342.09,1269.43s7.47-1.08,18.67-1.84c5.6-.42,12.14-.76,19.14-1s14.48-.33,21.95-.39c14.94,0,29.88.55,41.08,1.37s18.68,1.85,18.68,1.85-7.48,1.08-18.68,1.85-26.14,1.35-41.08,1.37c-7.47-.07-14.94-.12-21.95-.39s-13.54-.57-19.14-1C1349.56,1270.51,1342.09,1269.43,1342.09,1269.43Z"/><rect class="cls-28" x="1060.59" y="983.89" width="295.68" height="78.98"/><rect class="cls-29" x="1356.26" y="983.89" width="204.54" height="78.98"/><path class="cls-30" d="M1063.15,1000.16s2-.29,5.42-.63,8.37-.85,14.28-1.22,12.8-.76,20.19-1,15.26-.32,23.14-.39c15.76,0,31.52.55,43.34,1.37,5.91.36,10.83,1,14.28,1.23s5.42.63,5.42.63-2,.28-5.42.62-8.37.87-14.28,1.23c-11.82.82-27.58,1.35-43.34,1.37-7.88-.07-15.76-.12-23.14-.39s-14.28-.58-20.19-1-10.84-.94-14.28-1.22S1063.15,1000.16,1063.15,1000.16Z"/><path class="cls-30" d="M1246.93,1015.34s6.84-1.07,17.09-1.84c5.13-.41,11.11-.76,17.51-1s13.25-.32,20.08-.39c13.67,0,27.34.55,37.59,1.37s17.09,1.85,17.09,1.85-6.83,1.09-17.09,1.86-23.92,1.35-37.59,1.37c-6.83-.07-13.67-.12-20.08-.39s-12.38-.58-17.51-1C1253.77,1016.42,1246.93,1015.34,1246.93,1015.34Z"/><path class="cls-30" d="M1084.41,1035.09s3.47-.28,9.53-.62,14.73-.86,25.12-1.22,22.53-.76,35.52-1,26.85-.32,40.71-.39c27.72,0,55.44.55,76.23,1.37,10.39.36,19.06,1,25.12,1.22s9.53.63,9.53.63-3.47.29-9.53.63-14.73.86-25.12,1.22c-20.79.82-48.51,1.35-76.23,1.37-13.86-.07-27.72-.11-40.71-.39s-25.12-.57-35.52-1-19-.94-25.12-1.22S1084.41,1035.09,1084.41,1035.09Z"/><path class="cls-31" d="M1356.29,1003.19s6.74-1.07,16.85-1.84c5.06-.42,10.95-.76,17.27-1s13.06-.32,19.8-.39c13.48,0,27,.55,37.07,1.37s16.85,1.85,16.85,1.85-6.74,1.09-16.85,1.86-23.59,1.35-37.07,1.37c-6.74-.07-13.48-.12-19.8-.39s-12.21-.58-17.27-1C1363,1004.27,1356.29,1003.19,1356.29,1003.19Z"/><path class="cls-31" d="M1453,1013.83s6.75-1.08,16.85-1.85c5.06-.41,11-.76,17.28-1s13.06-.32,19.8-.39c13.48,0,27,.55,37.07,1.37s16.85,1.86,16.85,1.86-6.74,1.08-16.85,1.85-23.59,1.35-37.07,1.37c-6.74-.07-13.48-.12-19.8-.39s-12.22-.58-17.28-1C1459.71,1014.9,1453,1013.83,1453,1013.83Z"/><path class="cls-31" d="M1385.15,1038.13s6.74-1.08,16.85-1.85c5.06-.41,11-.76,17.27-1s13.06-.32,19.8-.39c13.48,0,27,.56,37.07,1.38s16.85,1.85,16.85,1.85-6.74,1.08-16.85,1.85-23.59,1.35-37.07,1.37c-6.74-.07-13.48-.12-19.8-.39s-12.21-.57-17.27-1C1391.89,1039.21,1385.15,1038.13,1385.15,1038.13Z"/><rect class="cls-4" x="809.47" y="1550.94" width="295.67" height="358.45"/><rect class="cls-28" x="809.47" y="1550.94" width="295.67" height="358.45"/><rect class="cls-29" x="1105.14" y="1550.94" width="204.54" height="358.45"/><path class="cls-30" d="M917.84,1623.84s-6.68,1.08-16.69,1.85c-5,.41-10.85.76-17.11,1s-12.94.33-19.61.4c-13.35,0-26.7-.56-36.72-1.38s-16.69-1.85-16.69-1.85,6.68-1.08,16.69-1.85,23.37-1.35,36.72-1.37c6.67.07,13.35.12,19.61.39s12.1.57,17.11,1C911.16,1622.76,917.84,1623.84,917.84,1623.84Z"/><path class="cls-30" d="M1105.15,1595.49l-10.31.62c-6.56.26-15.93.89-27.18,1.19s-24.37.82-38.43,1-29.06.32-44.05.39-30-.11-44-.38-27.19-.74-38.44-1-20.61-.92-27.18-1.18l-10.31-.63,10.31-.63c6.57-.26,15.94-.9,27.18-1.19s24.37-.83,38.44-1,29-.32,44-.38,30,.11,44.05.39,27.18.74,38.43,1,20.62.92,27.18,1.18Z"/><path class="cls-30" d="M998.33,1753.45s-7.64,1.08-19.11,1.84c-5.73.42-12.42.76-19.58,1s-14.81.32-22.46.39c-15.28,0-30.57-.55-42-1.37s-19.11-1.85-19.11-1.85,7.64-1.08,19.11-1.85,26.75-1.35,42-1.37c7.65.07,15.29.12,22.46.39s13.85.57,19.58,1C990.69,1752.37,998.33,1753.45,998.33,1753.45Z"/><path class="cls-30" d="M1105.14,1834.45s-7.64,1.08-19.1,1.85c-5.74.41-12.42.76-19.59,1s-14.81.32-22.45.39c-15.29,0-30.58-.55-42-1.37s-19.11-1.86-19.11-1.86,7.64-1.08,19.11-1.85,26.75-1.35,42-1.37c7.64.07,15.28.12,22.45.39s13.85.58,19.59,1C1097.5,1833.38,1105.14,1834.45,1105.14,1834.45Z"/><path class="cls-30" d="M931.77,1864.83s-7.65,1.08-19.11,1.85c-5.73.41-12.42.75-19.59,1s-14.81.33-22.45.4c-15.29,0-30.57-.56-42-1.38s-19.1-1.85-19.1-1.85,7.64-1.08,19.1-1.85,26.75-1.35,42-1.37c7.64.07,15.29.12,22.45.39s13.86.57,19.59,1C924.12,1863.75,931.77,1864.83,931.77,1864.83Z"/><path class="cls-30" d="M855.91,1646.11a42.87,42.87,0,0,1-7,1.85,70.31,70.31,0,0,1-7.19,1c-2.63.27-5.44.32-8.24.39A86.61,86.61,0,0,1,818,1648a42.51,42.51,0,0,1-7-1.86,43.21,43.21,0,0,1,7-1.85,86.61,86.61,0,0,1,15.43-1.37c2.8.07,5.61.12,8.24.39a70.31,70.31,0,0,1,7.19,1A43.58,43.58,0,0,1,855.91,1646.11Z"/><path class="cls-30" d="M1105.15,1698.78s-2.71.28-7.45.62-11.51.86-19.64,1.22-17.61.76-27.77,1-21,.32-31.83.39c-21.67,0-43.35-.55-59.6-1.37-8.13-.36-14.9-1-19.64-1.23s-7.45-.62-7.45-.62,2.71-.29,7.45-.63,11.51-.86,19.64-1.22c16.25-.82,37.93-1.36,59.6-1.38,10.84.07,21.67.12,31.83.4s19.64.57,27.77,1,14.9,1,19.64,1.22S1105.15,1698.78,1105.15,1698.78Z"/><path class="cls-31" d="M1234.27,1832.43a108,108,0,0,1,11.5-1.85c3.45-.41,7.48-.76,11.79-1s8.92-.32,13.52-.39a231.13,231.13,0,0,1,25.31,1.37,106.14,106.14,0,0,1,11.5,1.86,108,108,0,0,1-11.5,1.85,231.13,231.13,0,0,1-25.31,1.37c-4.6-.07-9.2-.12-13.52-.39s-8.34-.58-11.79-1A109.84,109.84,0,0,1,1234.27,1832.43Z"/><path class="cls-31" d="M1105.14,1860.79s2.59-.29,7.11-.63,11-.85,18.74-1.22,16.8-.76,26.49-1,20-.32,30.37-.39c20.67,0,41.35.55,56.86,1.37,7.75.36,14.21,1,18.74,1.23s7.1.63,7.1.63-2.58.28-7.1.62-11,.87-18.74,1.23c-15.51.82-36.19,1.35-56.86,1.37-10.34-.07-20.68-.12-30.37-.39s-18.74-.58-26.49-1-14.21-.94-18.74-1.22S1105.14,1860.79,1105.14,1860.79Z"/><path class="cls-31" d="M1178.78,1702.82s5.27-1.07,13.17-1.84c4-.41,8.56-.76,13.5-1s10.21-.32,15.48-.39c10.54,0,21.07.55,29,1.37s13.18,1.85,13.18,1.85-5.27,1.09-13.18,1.86-18.43,1.35-29,1.37c-5.27-.07-10.54-.12-15.48-.39s-9.55-.58-13.5-1C1184.05,1703.9,1178.78,1702.82,1178.78,1702.82Z"/><path class="cls-31" d="M1105.15,1621.81s5.27-1.08,13.17-1.84c4-.42,8.56-.76,13.5-1s10.21-.32,15.48-.39c10.54,0,21.07.55,29,1.37s13.17,1.85,13.17,1.85-5.27,1.09-13.17,1.85-18.44,1.36-29,1.38c-5.27-.07-10.54-.12-15.48-.39s-9.55-.58-13.5-1C1110.42,1622.89,1105.15,1621.81,1105.15,1621.81Z"/><path class="cls-31" d="M1224.66,1591.44s5.27-1.08,13.17-1.85c4-.41,8.56-.76,13.5-1s10.21-.32,15.48-.39c10.54,0,21.08.55,29,1.37s13.17,1.86,13.17,1.86-5.27,1.08-13.17,1.85-18.44,1.35-29,1.37c-5.27-.07-10.54-.12-15.48-.39s-9.54-.58-13.5-1C1229.93,1592.51,1224.66,1591.44,1224.66,1591.44Z"/><path class="cls-31" d="M1277,1810.15a22.56,22.56,0,0,1,4.83-1.84,33.18,33.18,0,0,1,5-1,52,52,0,0,1,5.68-.39,41.84,41.84,0,0,1,10.64,1.37,22.86,22.86,0,0,1,4.83,1.85,22.23,22.23,0,0,1-4.83,1.85,41.82,41.82,0,0,1-10.64,1.38,52,52,0,0,1-5.68-.39,34.5,34.5,0,0,1-5-1A22.86,22.86,0,0,1,1277,1810.15Z"/><path class="cls-31" d="M1105.14,1757.5s7.47-1.08,18.68-1.85c5.6-.41,12.14-.76,19.14-1s14.47-.32,21.94-.39c14.94,0,29.88.56,41.09,1.38s18.67,1.85,18.67,1.85-7.47,1.08-18.67,1.85-26.15,1.35-41.09,1.37c-7.47-.07-14.94-.12-21.94-.39s-13.54-.57-19.14-1C1112.61,1758.58,1105.14,1757.5,1105.14,1757.5Z"/><rect class="cls-28" x="823.65" y="1471.95" width="295.67" height="78.98"/><rect class="cls-29" x="1119.32" y="1471.95" width="204.54" height="78.98"/><path class="cls-30" d="M826.21,1488.22s2-.28,5.42-.62,8.37-.86,14.28-1.22,12.8-.76,20.19-1,15.26-.32,23.15-.39c15.75,0,31.51.55,43.33,1.37,5.91.36,10.83,1,14.28,1.23s5.42.62,5.42.62-2,.29-5.42.63-8.37.86-14.28,1.23c-11.82.82-27.58,1.35-43.33,1.37-7.89-.07-15.76-.12-23.15-.39s-14.28-.58-20.19-1-10.83-1-14.28-1.22S826.21,1488.22,826.21,1488.22Z"/><path class="cls-30" d="M1010,1503.41s6.84-1.08,17.09-1.84c5.13-.42,11.11-.76,17.52-1s13.24-.32,20.07-.39c13.67,0,27.34.55,37.6,1.37s17.08,1.85,17.08,1.85-6.83,1.09-17.08,1.85-23.93,1.36-37.6,1.37c-6.83-.06-13.66-.11-20.07-.39s-12.39-.57-17.52-1C1016.83,1504.49,1010,1503.41,1010,1503.41Z"/><path class="cls-30" d="M847.47,1523.16s3.47-.29,9.53-.63,14.73-.85,25.12-1.22,22.53-.76,35.52-1,26.85-.33,40.71-.4c27.72,0,55.44.56,76.23,1.38,10.4.36,19.06.94,25.12,1.22s9.53.63,9.53.63-3.46.28-9.53.63-14.72.86-25.12,1.22c-20.79.82-48.51,1.35-76.23,1.37-13.86-.07-27.72-.12-40.71-.39s-25.12-.57-35.52-1-19-.94-25.12-1.22S847.47,1523.16,847.47,1523.16Z"/><path class="cls-31" d="M1119.35,1491.26s6.74-1.08,16.85-1.84c5.06-.42,11-.76,17.27-1s13.06-.32,19.8-.39c13.48,0,27,.55,37.07,1.37s16.85,1.85,16.85,1.85-6.74,1.09-16.85,1.85-23.59,1.35-37.07,1.37c-6.74-.06-13.48-.11-19.8-.39s-12.21-.57-17.27-1C1126.09,1492.34,1119.35,1491.26,1119.35,1491.26Z"/><path class="cls-31" d="M1216,1501.89s6.74-1.08,16.85-1.84c5.06-.42,11-.76,17.27-1s13.06-.32,19.8-.39c13.48,0,27,.55,37.07,1.37s16.85,1.85,16.85,1.85-6.74,1.09-16.85,1.85-23.59,1.36-37.07,1.38c-6.74-.07-13.48-.12-19.8-.39s-12.21-.58-17.27-1C1222.76,1503,1216,1501.89,1216,1501.89Z"/><path class="cls-31" d="M1148.21,1526.2s6.74-1.08,16.85-1.85c5.06-.41,11-.76,17.27-1s13.06-.32,19.8-.39c13.48,0,27,.55,37.07,1.37s16.85,1.86,16.85,1.86-6.74,1.08-16.85,1.85-23.59,1.35-37.07,1.37c-6.74-.07-13.48-.12-19.8-.39s-12.21-.58-17.27-1C1155,1527.27,1148.21,1526.2,1148.21,1526.2Z"/><rect class="cls-4" x="775.04" y="1115.53" width="295.67" height="358.45"/><rect class="cls-28" x="775.04" y="1115.53" width="295.67" height="358.45"/><rect class="cls-29" x="1070.71" y="1115.53" width="204.54" height="358.45"/><path class="cls-30" d="M883.41,1188.44s-6.68,1.07-16.69,1.84c-5,.42-10.85.76-17.11,1s-12.93.32-19.61.39c-13.35,0-26.7-.55-36.72-1.37s-16.69-1.85-16.69-1.85,6.68-1.09,16.69-1.86,23.37-1.35,36.72-1.37c6.68.07,13.35.12,19.61.39s12.1.58,17.11,1C876.73,1187.36,883.41,1188.44,883.41,1188.44Z"/><path class="cls-30" d="M1070.72,1160.08l-10.31.62c-6.56.26-15.93.89-27.18,1.18s-24.37.83-38.43,1-29.06.32-44,.39-30-.11-44.06-.38-27.18-.75-38.42-1-20.62-.93-27.19-1.19l-10.31-.62,10.31-.63c6.57-.26,15.94-.9,27.19-1.19s24.37-.83,38.42-1,29.06-.32,44.06-.39,30,.12,44,.39,27.18.74,38.43,1,20.62.92,27.18,1.18Z"/><path class="cls-30" d="M963.9,1318s-7.64,1.08-19.11,1.84c-5.73.42-12.42.76-19.58,1s-14.81.32-22.46.39c-15.28,0-30.57-.55-42-1.37s-19.11-1.85-19.11-1.85,7.64-1.09,19.11-1.85,26.75-1.35,42-1.37c7.65.06,15.29.11,22.46.39s13.85.57,19.58,1C956.26,1317,963.9,1318,963.9,1318Z"/><path class="cls-30" d="M1070.72,1399.05s-7.65,1.08-19.11,1.84c-5.73.42-12.42.76-19.59,1s-14.81.32-22.45.39c-15.29,0-30.58-.55-42-1.37s-19.11-1.85-19.11-1.85,7.65-1.09,19.11-1.85,26.75-1.35,42-1.37c7.64.06,15.28.11,22.45.39s13.86.57,19.59,1C1063.07,1398,1070.72,1399.05,1070.72,1399.05Z"/><path class="cls-30" d="M897.34,1429.43s-7.65,1.07-19.11,1.84c-5.73.42-12.42.76-19.59,1s-14.8.32-22.45.39c-15.29,0-30.57-.55-42-1.37s-19.11-1.85-19.11-1.85,7.65-1.09,19.11-1.86,26.75-1.35,42-1.37c7.65.07,15.29.12,22.45.39s13.86.58,19.59,1C889.69,1428.35,897.34,1429.43,897.34,1429.43Z"/><path class="cls-30" d="M821.48,1210.71a42.33,42.33,0,0,1-7,1.84,67.63,67.63,0,0,1-7.19,1c-2.63.27-5.44.32-8.24.39a86.7,86.7,0,0,1-15.43-1.37,43.21,43.21,0,0,1-7-1.85,42,42,0,0,1,7-1.85,86.7,86.7,0,0,1,15.43-1.37c2.8.06,5.61.11,8.24.39a67.63,67.63,0,0,1,7.19,1A42.33,42.33,0,0,1,821.48,1210.71Z"/><path class="cls-30" d="M1070.72,1263.37s-2.71.28-7.45.62-11.51.86-19.64,1.22-17.61.76-27.77,1-21,.32-31.83.39c-21.67,0-43.35-.55-59.6-1.37-8.13-.36-14.9-1-19.64-1.23s-7.45-.62-7.45-.62,2.71-.29,7.45-.63,11.51-.87,19.64-1.23c16.25-.82,37.93-1.35,59.6-1.37,10.83.07,21.67.12,31.83.39s19.64.58,27.77,1,14.9.94,19.64,1.22S1070.72,1263.37,1070.72,1263.37Z"/><path class="cls-31" d="M1199.84,1397a106.66,106.66,0,0,1,11.5-1.84c3.45-.42,7.48-.76,11.79-1s8.92-.32,13.52-.39a231,231,0,0,1,25.31,1.37,108.49,108.49,0,0,1,11.51,1.85,108.49,108.49,0,0,1-11.51,1.85,231,231,0,0,1-25.31,1.37c-4.6-.07-9.2-.11-13.52-.39s-8.34-.57-11.79-1A106.66,106.66,0,0,1,1199.84,1397Z"/><path class="cls-31" d="M1070.72,1425.37s2.58-.28,7.1-.62,11-.86,18.74-1.22,16.8-.76,26.49-1,20-.32,30.37-.39c20.68,0,41.35.55,56.86,1.37,7.75.36,14.21,1,18.74,1.23s7.1.62,7.1.62-2.58.29-7.1.63-11,.87-18.74,1.23c-15.51.82-36.18,1.35-56.86,1.37-10.34-.07-20.68-.12-30.37-.39s-18.74-.58-26.49-1-14.22-1-18.74-1.22S1070.72,1425.37,1070.72,1425.37Z"/><path class="cls-31" d="M1144.35,1267.41s5.27-1.08,13.17-1.84c4-.42,8.56-.76,13.5-1s10.21-.32,15.48-.39c10.54,0,21.07.55,29,1.37s13.17,1.85,13.17,1.85-5.27,1.09-13.17,1.85-18.44,1.35-29,1.37c-5.27-.06-10.54-.11-15.48-.39s-9.55-.57-13.5-1C1149.62,1268.49,1144.35,1267.41,1144.35,1267.41Z"/><path class="cls-31" d="M1070.72,1186.41s5.27-1.08,13.17-1.85c3.95-.41,8.56-.76,13.5-1s10.21-.32,15.48-.39c10.54,0,21.07.56,29,1.38s13.17,1.85,13.17,1.85-5.27,1.08-13.17,1.85-18.44,1.35-29,1.37c-5.27-.07-10.54-.12-15.48-.39s-9.55-.57-13.5-1C1076,1187.49,1070.72,1186.41,1070.72,1186.41Z"/><path class="cls-31" d="M1190.23,1156s5.27-1.08,13.17-1.84c3.95-.42,8.57-.76,13.5-1s10.21-.32,15.48-.39c10.54,0,21.08.55,29,1.37s13.17,1.85,13.17,1.85-5.27,1.08-13.17,1.85-18.44,1.35-29,1.37c-5.27-.07-10.54-.11-15.48-.39s-9.55-.57-13.5-1C1195.5,1157.11,1190.23,1156,1190.23,1156Z"/><path class="cls-31" d="M1242.52,1374.75a22.86,22.86,0,0,1,4.83-1.85,34.77,34.77,0,0,1,5-1,52,52,0,0,1,5.68-.39,41.82,41.82,0,0,1,10.64,1.38,22.47,22.47,0,0,1,4.84,1.85,23.11,23.11,0,0,1-4.84,1.85A41.84,41.84,0,0,1,1258,1378a52,52,0,0,1-5.68-.39,33.44,33.44,0,0,1-5-1A22.56,22.56,0,0,1,1242.52,1374.75Z"/><path class="cls-31" d="M1070.72,1322.08s7.46-1.07,18.67-1.84c5.6-.41,12.14-.76,19.14-1s14.47-.32,21.94-.39c14.94,0,29.88.55,41.09,1.37s18.67,1.85,18.67,1.85-7.47,1.09-18.67,1.86-26.15,1.35-41.09,1.37c-7.47-.07-14.94-.12-21.94-.39s-13.54-.58-19.14-1C1078.18,1323.16,1070.72,1322.08,1070.72,1322.08Z"/><rect class="cls-28" x="789.22" y="1036.55" width="295.67" height="78.98"/><rect class="cls-29" x="1084.89" y="1036.55" width="204.54" height="78.98"/><path class="cls-30" d="M791.78,1052.81s2-.28,5.42-.62,8.37-.86,14.28-1.22,12.8-.76,20.19-1,15.27-.32,23.14-.39c15.76,0,31.52.55,43.34,1.37,5.91.36,10.83,1,14.28,1.22s5.42.63,5.42.63-2,.29-5.42.63-8.37.86-14.28,1.22c-11.82.82-27.58,1.35-43.34,1.37-7.87-.06-15.75-.11-23.14-.39s-14.28-.57-20.19-1-10.83-.94-14.28-1.21S791.78,1052.81,791.78,1052.81Z"/><path class="cls-30" d="M975.57,1068s6.83-1.08,17.08-1.84c5.13-.42,11.11-.76,17.52-1s13.24-.32,20.07-.39c13.67,0,27.34.55,37.6,1.37s17.08,1.85,17.08,1.85-6.83,1.08-17.08,1.85-23.93,1.35-37.6,1.37c-6.83-.07-13.67-.11-20.07-.39s-12.39-.57-17.52-1C982.4,1069.08,975.57,1068,975.57,1068Z"/><path class="cls-30" d="M813.05,1087.75s3.46-.29,9.53-.63,14.72-.85,25.12-1.22,22.52-.76,35.51-1,26.85-.32,40.71-.39c27.72,0,55.44.55,76.23,1.37,10.4.36,19.06.95,25.12,1.23s9.53.63,9.53.63-3.46.28-9.53.62-14.72.87-25.12,1.23c-20.79.82-48.51,1.35-76.23,1.37-13.86-.07-27.71-.12-40.71-.39s-25.12-.58-35.51-1-19.06-.94-25.12-1.22S813.05,1087.75,813.05,1087.75Z"/><path class="cls-31" d="M1084.92,1055.85s6.74-1.08,16.85-1.84c5.06-.42,11-.76,17.28-1s13.06-.32,19.79-.39c13.48,0,27,.55,37.08,1.37s16.84,1.85,16.84,1.85-6.74,1.08-16.84,1.85-23.6,1.35-37.08,1.37c-6.73-.07-13.47-.12-19.79-.39s-12.22-.57-17.28-1C1091.66,1056.93,1084.92,1055.85,1084.92,1055.85Z"/><path class="cls-31" d="M1181.59,1066.48s6.74-1.08,16.85-1.84c5.06-.42,11-.76,17.27-1s13.06-.32,19.8-.39c13.48,0,27,.55,37.07,1.37s16.85,1.85,16.85,1.85-6.74,1.09-16.85,1.85-23.59,1.35-37.07,1.37c-6.74-.06-13.48-.11-19.8-.39s-12.21-.57-17.27-1C1188.33,1067.56,1181.59,1066.48,1181.59,1066.48Z"/><path class="cls-31" d="M1113.78,1090.78s6.74-1.08,16.85-1.84c5.06-.42,11-.76,17.27-1s13.06-.32,19.8-.39c13.48,0,27,.55,37.07,1.37s16.85,1.85,16.85,1.85-6.74,1.09-16.85,1.85-23.59,1.36-37.07,1.38c-6.74-.07-13.48-.12-19.8-.39s-12.21-.58-17.27-1C1120.52,1091.86,1113.78,1090.78,1113.78,1090.78Z"/><rect class="cls-32" x="1069.59" y="899.42" width="369.7" height="83.71"/><rect class="cls-33" x="1097.49" y="899.42" width="20.93" height="83.71"/><rect class="cls-33" x="1130.62" y="899.42" width="12.21" height="83.71"/><rect class="cls-33" x="1155.04" y="929.94" width="115.1" height="22.67"/><rect class="cls-34" x="1073.08" y="732" width="369.7" height="83.71"/><rect class="cls-33" x="1100.98" y="732" width="20.93" height="83.71"/><rect class="cls-33" x="1134.11" y="732" width="12.21" height="83.71"/><rect class="cls-33" x="1158.52" y="762.52" width="243.27" height="22.67"/><rect class="cls-35" x="1141.09" y="815.71" width="369.7" height="83.71"/><rect class="cls-33" x="1168.99" y="815.71" width="20.93" height="83.71"/><rect class="cls-33" x="1455.56" y="815.71" width="12.21" height="83.71"/><rect class="cls-33" x="1226.53" y="846.23" width="115.1" height="22.68"/><rect class="cls-32" x="1027.06" y="648.29" width="369.7" height="83.71"/><rect class="cls-33" x="1054.96" y="648.29" width="20.93" height="83.71"/><rect class="cls-33" x="1088.09" y="648.29" width="12.21" height="83.71"/><rect class="cls-33" x="1112.51" y="678.81" width="115.1" height="22.67"/><rect class="cls-36" x="1116.66" y="480.89" width="369.7" height="83.7"/><rect class="cls-33" x="1144.56" y="480.89" width="20.93" height="83.7"/><rect class="cls-33" x="1177.69" y="480.89" width="12.2" height="83.7"/><rect class="cls-33" x="1202.11" y="511.41" width="243.27" height="22.66"/><rect class="cls-37" x="1098.56" y="564.59" width="369.7" height="83.7"/><rect class="cls-33" x="1126.46" y="564.59" width="20.93" height="83.7"/><rect class="cls-33" x="1413.04" y="564.59" width="12.21" height="83.7"/><rect class="cls-33" x="1184.01" y="595.11" width="115.1" height="22.67"/></svg>