<svg id="Capa_1" data-name="Capa 1" xmlns="http://www.w3.org/2000/svg" viewBox="0 0 2122 2122"><defs><style>.cls-1{fill:#fff;}.cls-2{fill:#e73d3f;}.cls-3{fill:#13110c;}.cls-4{fill:#f7b6a0;}.cls-5{fill:#052235;}.cls-6{fill:#00101d;}.cls-7{fill:#007ba7;}.cls-8{fill:#2c4367;}.cls-9{fill:#f6ad97;}.cls-10{fill:#f29381;}.cls-11{fill:#6b3117;}.cls-12{fill:#f49c81;}.cls-13{fill:#7f482e;}.cls-14{fill:#005c93;}.cls-15{fill:#f8bea4;}.cls-16{fill:#08283d;}.cls-17{fill:#102e4d;}.cls-18{fill:#578671;}.cls-19{fill:#eba48a;}.cls-20{fill:#d89880;}.cls-21{fill:#30604c;}.cls-22{fill:#031d2d;}</style></defs><path class="cls-1" d="M1059,500.1c-34.56,49.52-87.05,94.68-149.45,99.48-2.15.06-4.25.19-6.34.25-6,0-12.14.49-18.17.55-8.87-.06-17.68-.74-26.49-1.48a248.58,248.58,0,0,0-30.31-2.28c-3.63.25-8.75-2-8.62,3.64-1.42,7.51-2.22,15.15-3.88,22.61-1.61,5.54-3.14,11.08-5.05,16.57-12.14,28.46-28.46,56-46.7,81.12a438.13,438.13,0,0,0-3.88-50.76c-1.78-10.53-1.91-21.56-3.51-32.15-1.35-15.59-3-31.17-4.37-46.75.43-1.92-1.36-3.27-3-3.76-7-2.84-13.92-5.92-20.76-9.06-2.59-1.11-5.24-2.15-7.82-3.26-1.79-.8-3.52-1.54-5.24-2.4C707,568,698.77,563.05,690.7,558c-2.22-1.42-4.37-2.9-6.53-4.37-18.3-13.8-34.74-29.94-50.08-46.88C623.31,494.31,612,481.8,604.46,467a181.36,181.36,0,0,1-19.28-48.24c-10.41-37.26-8.75-77.8,2.09-114.82,12.75-37.64,37.27-72.26,68-97.51a209.45,209.45,0,0,1,36.28-25.87,123.68,123.68,0,0,1,21.13-9.8c12.44-4.93,24.89-9.61,37.7-13.43a363.19,363.19,0,0,1,36.47-6c13.61-1.17,27.35-1.91,41.15-2,5.66.19,11.33.5,17,.81,31.66,1.78,63.26,6.59,93.69,15.33a236.13,236.13,0,0,1,55,22.24c12.38,6.53,25.13,12.63,36.47,20.88,22.24,17.74,43.06,38.2,55.32,64.31,10.28,19,12.87,40.91,13.86,62.16C1101.76,392.3,1091,451.68,1059,500.1Z"/><path class="cls-2" d="M943.57,485.37c-7.89,6.72-16,12.94-24.46,19.16a4.13,4.13,0,0,1-.43-.55c-20.14-25.57-42.26-49.47-62.46-75-4.44-5.91-9.06-11.77-13.31-17.86a53.33,53.33,0,0,0-8.37-10.23c-1.42-.86-2.71.49-3.64,1.48-5,5.11-9,11-13.86,16.32-1.6,1.67-3.2,3.27-4.74,5-9.18,10.23-18.54,20.33-28,30.31-11.33,13.24-22.85,26.06-33.88,39.55a241.38,241.38,0,0,1-28.89-25.51c5.61-6.46,11.83-12.5,17.56-18.85,8.74-10.1,17.49-20.08,26.42-30.06,6.53-6.71,13.12-13.3,19.65-20a3,3,0,0,0,1.3-1.23c2.77-2.58,5.36-5.66,8.07-8.31-.06.06-.13.06-.19.12,3.08-3.39,6.66-6.34,9.55-9.92,1.05-1.35,3-3,1.66-4.8-3.26-4.25-7.26-7.83-10.9-11.77a87.42,87.42,0,0,0-7.64-8.13c-25.68-24.64-50.32-50.39-72.38-78.42,9.49-7.57,19-15.27,29-22.48,24.4,29,48.55,58.21,73.68,86.55.43.61.8,1.17,1.17,1.78,2.83,4.19,5.17,9,9.12,12.32,1.47.93,3,0,4-1.1,9.92-9.18,18.66-19.47,28.21-29,4.19-3.94,8.38-7.94,12.63-11.82,17.43-15.1,33.14-32,50.14-47.56,7.58,5.85,14,13.12,20.27,20.45-8.07,8.44-15.09,17.74-22.92,26.43-7.45,8.81-15.52,17.06-23.34,25.5-5.05,5.11-10.1,10.35-15.22,15.46a207.29,207.29,0,0,0-19,19.16c-1.17,1-2.59,3-1.3,4.56,8,9,15.1,18.66,22.3,28.27,2,2.9,4.07,5.79,6,8.75C906,438.93,925.52,461.47,943.57,485.37Z"/><path class="cls-3" d="M1096.28,286.84c-18.55-53.17-63.64-89.2-113.53-111.68-12.63-6.29-26-10.72-39.55-14.6C912.4,151,880.12,146.45,847.9,146l-5.6-.19a461.18,461.18,0,0,0-59-.67c-8.62,1-17.24,2.34-25.74,4.18-21.69,6-43.12,13.74-63,24.4-6,2.71-12,5.54-17.74,8.75-8.69,5.6-16.45,12.38-24.39,18.91-2.65,2.58-5.42,5.17-8.07,7.76a197,197,0,0,0-46.63,58.76c-22.12,35.42-24.52,79.16-22.67,119.88a226.5,226.5,0,0,0,16.69,63.75c3.82,8.94,8.5,17.56,13.18,26.19A222.57,222.57,0,0,0,627.5,507.3c1.11,1.42,2.22,2.84,3.32,4.19A177.87,177.87,0,0,0,680.47,557c6.23,4.43,12.63,8.68,18.92,13.12,14.72,9.67,31.9,15.27,48.17,22,2.09,24.14,5.66,48.17,7.64,72.32,3.51,20.26,4.37,41.08,5.6,61.6.74,1.47,2.71,1.17,3.64,0,11.27-10.91,18.72-24.71,27.28-37.7,11.83-19.28,23.54-39.12,28.4-61.54,2.22-8.13,2.28-17.13,3.94-25.44,18.85,2.09,37.89,3.82,56.92,3.88,2.59-.19,5.18-.37,7.76-.62,68.07,3.94,128.63-38.87,167.25-92,20-28.15,33.2-60.68,41.15-94.25a335.88,335.88,0,0,0,6.53-65.66C1104,330.57,1102.5,308.15,1096.28,286.84ZM1059,500.1c-34.56,49.52-87.05,94.68-149.45,99.48-2.15.06-4.25.19-6.34.25-6,0-12.14.49-18.17.55-8.87-.06-17.68-.74-26.49-1.48a248.58,248.58,0,0,0-30.31-2.28c-3.63.25-8.75-2-8.62,3.64-1.42,7.51-2.22,15.15-3.88,22.61-1.61,5.54-3.14,11.08-5.05,16.57-12.14,28.46-28.46,56-46.7,81.12a438.13,438.13,0,0,0-3.88-50.76c-1.78-10.53-1.91-21.56-3.51-32.15-1.35-15.59-3-31.17-4.37-46.75.43-1.92-1.36-3.27-3-3.76-7-2.84-13.92-5.92-20.76-9.06-2.59-1.11-5.24-2.15-7.82-3.26-1.79-.8-3.52-1.54-5.24-2.4C707,568,698.77,563.05,690.7,558c-2.22-1.42-4.37-2.9-6.53-4.37-18.3-13.8-34.74-29.94-50.08-46.88C623.31,494.31,612,481.8,604.46,467a181.36,181.36,0,0,1-19.28-48.24c-10.41-37.26-8.75-77.8,2.09-114.82,12.75-37.64,37.27-72.26,68-97.51a209.45,209.45,0,0,1,36.28-25.87,123.68,123.68,0,0,1,21.13-9.8c12.44-4.93,24.89-9.61,37.7-13.43a363.19,363.19,0,0,1,36.47-6c13.61-1.17,27.35-1.91,41.15-2,5.66.19,11.33.5,17,.81,31.66,1.78,63.26,6.59,93.69,15.33a236.13,236.13,0,0,1,55,22.24c12.38,6.53,25.13,12.63,36.47,20.88,22.24,17.74,43.06,38.2,55.32,64.31,10.28,19,12.87,40.91,13.86,62.16C1101.76,392.3,1091,451.68,1059,500.1Z"/><path class="cls-3" d="M941.23,475.64C935,466.77,928,458.45,921,450.08c-14.6-19.47-29.26-39-43.55-58.77a126.7,126.7,0,0,0-11.7-15.65c8.19-7.45,15.4-15.83,23.34-23.53,1.11-1.41,2.22-2.71,3.33-4.06,19.22-19.16,37.45-39.61,54.89-60.31,1.78-2.22-.68-4.56-2.16-6.16-2.22-2.53-4.43-5.05-6.84-7.45a92,92,0,0,0-14.41-12.82c-1.6-1.35-3.45.13-4.56,1.42-2.83,2.65-6,5-8.81,7.64C895,285.91,879,301.13,863.24,316.65c-5.36,5.05-10.65,10.29-15.83,15.46-6.16,5.92-12.5,11.52-18.29,17.8-4.81-7.14-10.72-13.3-16.57-19.65q-33.27-39.36-66.1-79.21c-2.9-4.32-6.47,1-9.37,2.58C728,260.41,719,267.31,710.6,274.82c-2.71,2.22,1,4.75,2.34,6.6,23.65,29.87,50.26,56.79,77.8,83,3.63,3.94,7.21,7.82,10.84,11.89-4.62,4.68-8.87,9.61-13.06,14.66-2.46,2.71-4.93,5.42-7.51,7.89-5.36,5.6-11.09,10.78-16.64,16.2-8,8.87-16.07,17.49-23.9,26.48-6.9,8.32-14.6,16.08-21.8,24.15-3.58,2.47,1.17,6,3,8q8,7.86,16.39,15.15c4,3.08,7.82,7,12.51,8.87,1.29.19,2.27-.74,3.08-1.66,5.79-6.28,11.58-12.57,17.18-19.1,17.93-21.12,36.22-42.19,54.76-62.89,2.65-2.83,5.3-5.73,7.83-8.75,2.83,5,6,10,10.16,14,3.08,3.82,6.35,7.64,9.55,11.46,2,2.52,3.94,5.05,6,7.51C877.9,462,898.66,484,917.27,507.8c1.78,1.66,4-.25,5.72-1.3,7.89-5.36,15.22-11.7,22.67-17.74,1.17-1,2.28-2.34,1.91-4C946.16,481.49,943.26,478.66,941.23,475.64Zm-22.12,28.89a4.13,4.13,0,0,1-.43-.55c-20.14-25.57-42.26-49.47-62.46-75-4.44-5.91-9.06-11.77-13.31-17.86a53.33,53.33,0,0,0-8.37-10.23c-1.42-.86-2.71.49-3.64,1.48-5,5.11-9,11-13.86,16.32-1.6,1.67-3.2,3.27-4.74,5-9.18,10.23-18.54,20.33-28,30.31-11.33,13.24-22.85,26.06-33.88,39.55a241.38,241.38,0,0,1-28.89-25.51c5.61-6.46,11.83-12.5,17.56-18.85,8.74-10.1,17.49-20.08,26.42-30.06,6.53-6.71,13.12-13.3,19.65-20a3,3,0,0,0,1.3-1.23c2.77-2.58,5.36-5.66,8.07-8.31-.06.06-.13.06-.19.12,3.08-3.39,6.66-6.34,9.55-9.92,1.05-1.35,3-3,1.66-4.8-3.26-4.25-7.26-7.83-10.9-11.77a87.42,87.42,0,0,0-7.64-8.13c-25.68-24.64-50.32-50.39-72.38-78.42,9.49-7.57,19-15.27,29-22.48,24.4,29,48.55,58.21,73.68,86.55.43.61.8,1.17,1.17,1.78,2.83,4.19,5.17,9,9.12,12.32,1.47.93,3,0,4-1.1,9.92-9.18,18.66-19.47,28.21-29,4.19-3.94,8.38-7.94,12.63-11.82,17.43-15.1,33.14-32,50.14-47.56,7.58,5.85,14,13.12,20.27,20.45-8.07,8.44-15.09,17.74-22.92,26.43-7.45,8.81-15.52,17.06-23.34,25.5-5.05,5.11-10.1,10.35-15.22,15.46a207.29,207.29,0,0,0-19,19.16c-1.17,1-2.59,3-1.3,4.56,8,9,15.1,18.66,22.3,28.27,2,2.9,4.07,5.79,6,8.75,16.63,24.89,36.16,47.43,54.21,71.33C935.68,492.09,927.55,498.31,919.11,504.53Z"/><polygon class="cls-4" points="1805.38 1749.78 1803.76 1932.48 1762.66 1932.58 1734.54 1749.92 1805.38 1749.78"/><path class="cls-5" d="M1752.09,1965.92l187-.27c-2.55-22.5-20.09-27.48-20.09-27.48l-55.62-16.76-50.26-29.91-18.94,9.15s-3.83-.69,0,8.61c0,0-23.65,5-34.94,0l-7.18,58.81"/><polygon class="cls-6" points="1752.12 1974.87 1939.12 1974.6 1939.11 1965.65 1752.09 1965.92 1752.12 1974.87"/><path class="cls-1" d="M1879.75,1926.15a5.13,5.13,0,0,0-3.3.28,9.73,9.73,0,0,0-1.87,1.26,15.57,15.57,0,0,0-3.47,3.77,23.32,23.32,0,0,0-3.72,9.46l2-1a7.53,7.53,0,0,0-1.25.1l2.36.66c-.13-.42-.56-.56-.9-.78a1.8,1.8,0,0,0-1.93,0c-.3.2-.7.35-.85.69a2.79,2.79,0,0,0-.09.34c-.15.57,1.1.86,1.41.9a10.53,10.53,0,0,0,1.25.1c.7,0,1.89-.17,2-1a25.23,25.23,0,0,1,3-8.3,15.63,15.63,0,0,1,2.65-3.4c.87-.83,1.48-1.77,2.64-2.11.66-.19.73-.8,0-1Z"/><path class="cls-1" d="M1859.17,1919.75c-1.16,2.69-3.29,4.85-5,7.21-.85,1.2-1.69,2.41-2.42,3.68a14.91,14.91,0,0,0-1,2.06c-.28.74-.79,1.74-.33,2.47.57.9,2.45.8,3.19.21a4.93,4.93,0,0,0,1.14-2.24c.29-.7.6-1.39.94-2.06a43.48,43.48,0,0,1,2.24-3.77,27,27,0,0,0,3.68-7.4c.19-.74-2.21-.82-2.5-.16Z"/><path class="cls-1" d="M1845.87,1912.9a38.47,38.47,0,0,0-6.6,7.36,25.53,25.53,0,0,0-2.16,4.15,21.66,21.66,0,0,0-1.47,4.56h4.48a3.17,3.17,0,0,0-1.4-1.73,1.51,1.51,0,0,0-1.68,0,3.14,3.14,0,0,0-1.4,1.73c-.07.33.45.67.66.77a3.34,3.34,0,0,0,1.28.31c.64,0,2.19,0,2.46-.79.49-1.41.79-2.87,1.33-4.27s1.14-2.77,1.79-4.12,1.32-2.54,2-3.79a21.26,21.26,0,0,1,2.66-3.61c.7-.81-1.48-1-2-.57Z"/><path class="cls-1" d="M1829.65,1903.2a16,16,0,0,0-2.82,2.58,36.81,36.81,0,0,0-3.09,4,28.32,28.32,0,0,0-2.26,4.2,9.9,9.9,0,0,0-1,3.8l1.71-1.1a2.51,2.51,0,0,0-2.26,1.75,10.68,10.68,0,0,0-.34,1.23c-.21.89.69,1.27,1.41,1.49l-.64-.41a1.08,1.08,0,0,0,.13.29c.13.17-.09.16.06-.12l1.77-.22c.22.2.28.25.19.14a1.38,1.38,0,0,0-1.9,0,.43.43,0,0,0-.09.22c-.08.53,1.1.52,1.33.5a1.22,1.22,0,0,0,.88-.46c.1-.12.33-.2-.14,0-.75.29.51-.08.66-.16a1.49,1.49,0,0,0,.89-.88,10.72,10.72,0,0,1,.3-1c.06-.15.12-.3.19-.45a2.25,2.25,0,0,0,.12-.21l-.15.16c.36-.33,0-.2-1.17.41.55-.08,1.71-.36,1.72-1.11a8.59,8.59,0,0,1,.85-3.33,35.14,35.14,0,0,1,2-4.09c.71-1.29,1.39-2.59,2.21-3.83a16.24,16.24,0,0,1,1.88-2.57c.44-.45-.07-.82-.51-1a2.42,2.42,0,0,0-1.95.25Z"/><path class="cls-4" d="M1699.26,1451.73c111.5-45-39.3-401.81-78.77-479l-28.13,8.34c36.23,267.92,48.74,333.46,48.74,333.46S1637.93,1436.52,1699.26,1451.73Z"/><path class="cls-4" d="M1527.3,1239.48c-16.88-93.31,42.33-105.9,42.33-105.9,52.66-14.41,78.59,65.66,78.59,65.66S1705.14,1369.13,1706,1449c0,0-53,18.8-86-26.53Z"/><path class="cls-7" d="M1517,1379.29l0-159.8s-24.78-97.45,55.8-131.7c0,0,75.28,26.41,76.23,102.09l10.55,161.44S1648.57,1389,1517,1379.29Z"/><path class="cls-4" d="M1595.23,988.88s20.17,9.61,32.5-.73c12.08-23.86,15.15-49.12,20.22-76.37,5.23-28.22-16.89-78.54-29.32-88.61-14.18,3.91,8.64,42,5.9,54.15l-13.61-29.21L1586.5,829s-8.75,4.09-1.77,15.47l14.76,18.64,5.23,22.86-19-24.18-20.16-13.59s-8.15,4.51.38,15.58L1576.07,875l11.69,30.12-14-14.8L1553,887.47S1544.78,897,1565.9,902l13.19,16S1581.2,978.06,1595.23,988.88Z"/><path class="cls-8" d="M1812.37,1791.55s-27-536.42-154.09-542.77c-62.52-3.13-90.65,113.58-90.65,113.58l-48,303.38-46.38-85.6s-110.65,4.66-254.27.91c-56.43,86.29-60.25,152.34-49.63,240.08,3.37,27.87,27.26,64,44.94,84.4,32.81,37.76,86.19,63.11,135.39,69.2,64.52,8,97.57-14.82,139.64-59.7,0,0,40.61-236.37,64.6-252.17C1601,1631.89,1692.29,1818.11,1812.37,1791.55Z"/><path class="cls-9" d="M1501.89,1062.75l-109.61-33.65L1429,909.46l109.62,33.64S1498,1033.78,1501.89,1062.75Z"/><path class="cls-10" d="M1506.2,1031.07c-24.06-10.17-47.2-18.87-69.11-34a153.24,153.24,0,0,1-27.65-23.92L1429,909.46l109.62,33.64S1516.08,993.42,1506.2,1031.07Z"/><path class="cls-11" d="M1378,774.51c-6.94,22.28-6.18,54.23-.94,77,4.35,18.94,7.74,34.86,18,51.83,6.67,11,19.45,31.15,34.52,29.76,14.45-1.33,24-25.88,28-37.56,7.91-23.12,11-50.49,12-75.37,1.19-27.3-4.84-51.77-21.27-73.75-8.14-10.89-19-36.24-33.74-26.62C1400.05,729.33,1382.81,759.19,1378,774.51Z"/><path class="cls-11" d="M1623.12,859.46c-10.69,16.37-22.15,35.59-37.67,48.7-17.73,15-38.68,12.07-43.71-12.14-4.73-22.78.84-48.63,9.07-69.4,4.49-11.35,11.17-23.87,23.79-29.65a39.86,39.86,0,0,1,51.4,16.87C1635.15,830.16,1632.53,845,1623.12,859.46Z"/><path class="cls-9" d="M1599,885.73a311.26,311.26,0,0,1-22.86,61.43c-10,19.85-25.76,57.61-51.24,61.59-7.88,1.23-13.8-.18-22.13-2.42-31.87-8.56-61.92-37-77.59-65.11-29.19-52.42-7.15-160.75,39.7-195,42.75-31.25,150,11,145.1,73.65A380.37,380.37,0,0,1,1599,885.73Z"/><path class="cls-10" d="M1464.85,746.26c8.22-6,18.81-9.27,30.53-10.24-15.62,38.45-53.15,58.71-54.63,119-9,33.6-15.5,44.32-22.48,70.11C1400.32,869.16,1422.41,777.27,1464.85,746.26Z"/><path class="cls-12" d="M1435,838.79a15.21,15.21,0,0,0,.56-2,16.84,16.84,0,0,0,0-1.88,15.6,15.6,0,0,0-.59-3.78,23.79,23.79,0,0,0-2.78-6.52c-.67-1.07-1.52-1.94-2.28-2.93a18.17,18.17,0,0,0-2-2.48,14.37,14.37,0,0,0-6.5-3.62,19.7,19.7,0,0,0-7.1.07,11.33,11.33,0,0,0-4,1.28c-1.63.93.36-.17.44,0-.06-.13-1.55.45-1.51.43a2.55,2.55,0,0,0-1,.89,1.69,1.69,0,0,1-.21.31c-.43.42,0,0-.08,0a13.36,13.36,0,0,0-1.34.6,3,3,0,0,0-.82,1c-.3.48-.7.91-1,1.38-1.29,1.8-2.53,3.74-3.65,5.66a67.62,67.62,0,0,0-3.66,7.51,22.16,22.16,0,0,0-1.87,7.56c0,.28.68.24.78,0,1.23-2.21,1.85-4.73,3.13-6.94s2.49-4.69,3.91-6.94c1.27-2,2.74-3.93,4.17-5.84a7.6,7.6,0,0,1,1.19-1.4c.22-.17.5-.25.74-.4.81-.48-.3,0,.27-.12,1.2-.26,2.4-.45,3.6-.7l-4.14-.26a7.16,7.16,0,0,0,4,.56c.52-.06,1-.18,1.51-.28s-.68,0,0,0a28,28,0,0,0,3.26-.43c.88-.14-1-.08.15,0,.9,0-.61-.1-.78-.13l.26.07c-.44-.17-.53-.19-.28-.07a2.14,2.14,0,0,0,.45.26,10.32,10.32,0,0,1,2.78,2.5c1.74,2.56,3.86,4.75,5.23,7.58a16,16,0,0,1,1.52,4.28c.14.83.14,1.68.28,2.51a5.54,5.54,0,0,0,1.49,2.57c1.11,1.31,5.3,1.77,5.81-.39Z"/><path class="cls-11" d="M1449,823.7c-2.52,5.08-8.62,29.44-11.3,33.84s-11.93-5.34-11.93-5.34c-6-9.57,7.51-25.65-5.18-31.26-13.78-6.09-22.54,14.16-24.86,23.9-17.09-27.48-12.89-80,3.8-107,26.27-42.52,42.94-35.52,74.33-24.46,14.32,5.05,27.93,26.12,30.37,41.76,2.62,16.78-10.39,26.54-23.12,34.39C1465.22,799.4,1460.53,800.47,1449,823.7Z"/><path class="cls-9" d="M1408,818.68c-17.74,10-20.45,52.79,3.68,73.78,9-5.75,14.53-26.41,18.23-36.36,3.61-9.75,6.57-19.24,2.82-29.4C1431.55,823.59,1421,811.35,1408,818.68Z"/><path class="cls-10" d="M1418.91,851.86c-.85,2.29-1.18,4.85-2.63,6.89l.68-.57a16.69,16.69,0,0,1-1.54.73c.45-.19,0,0-.2.06s-.82.21-.16.06a1.65,1.65,0,0,1-.32,0c-.36,0,.82,0,.34,0s.55.07.22,0,.75.2.21,0c-.38-.12.55.22.28.1-.08,0-.42-.2,0,0s0-.05-.14-.13-.2-.25,0,0a5,5,0,0,1-.48-.8,6.45,6.45,0,0,1-.32-.87c.12.41,0-.13,0-.23s-.08-.41-.11-.62c-.52-3.64.27-7.5,1-11,.38-1.72,1.21-3.84-.09-5.34l.33.61c0-.3-.06-.6-.1-.9-.09-.66.07,0-.06-.26,0-.09-.06-.15-.11-.24a1.25,1.25,0,0,0-.57-.52l.45.84v0c.37-1.33-3.11-1.52-3.4-.45v0l.81-.51a2.14,2.14,0,0,0-.81.41l-.14.11c-.54.41.13-.26-.31.36-.2.28-.38.56-.57.85l.63-.53c-2.11,1.33-2.4,3.9-2.79,6.18a44.13,44.13,0,0,0-.75,7.25c0,2,.1,4.35,1.23,6,1.71,2.49,5.08,2.81,7.81,2.14,1.49-.37,3.87-1.22,4.49-2.72.87-2.11.7-4.51,1.07-6.73.2-1.22-3.51-1.29-3.89-.25Z"/><path class="cls-10" d="M1420.72,841.31c.16-3.29-4-5.91-6.78-6.29a11.25,11.25,0,0,0-10.59,4.74,18.19,18.19,0,0,0-1.73,17.62,14,14,0,0,0,3.31,5.4c.45.43,2.89.65,2.8-.37A40.71,40.71,0,0,0,1407,858c-.28-1.57-.46-3.15-.75-4.72a17.39,17.39,0,0,1,1.07-9.72c.91-2.28,2.4-5.29,5-6.05.81-.24,1.49.4,2.32.87,1.16.66,2.5,1.5,2.84,2.89.26,1.05,3.22,1.18,3.27,0Z"/><path class="cls-11" d="M1538.89,856c.22-4-1.92-7.14-4.4-10.05a19.18,19.18,0,0,0-4.52-3.46,45.12,45.12,0,0,0-4.48-2.57,41.07,41.07,0,0,0-5.84-2c-2.33-.71-4.68-1.37-7.06-1.92a37,37,0,0,0-5.9-1,21.93,21.93,0,0,0-4.91.76,37.45,37.45,0,0,0-4.56,1c-.75.22-1.5.46-2.23.73a7.32,7.32,0,0,0-2.62,1.17,7.2,7.2,0,0,0-1.68,4.57c-.1,1.61-.06,3.9,1.31,5,.82.64,1.46.26,2.35,0s1.58-.4,2.38-.56a30.57,30.57,0,0,1,4.67-.58,27.81,27.81,0,0,1,4.87.66c1.87.24,3.77.24,5.64.5,2.39.34,4.76.8,7.11,1.31a41.43,41.43,0,0,1,6.67,1.75,41.92,41.92,0,0,1,5,2.49c.83.47,1.61,1,2.42,1.49a10.67,10.67,0,0,0,2.41.87,9.79,9.79,0,0,1,1.8.68c.17.09.33.22.5.31.49.26.32,1,.1-.52,0,.28.13,1.29.54,1.19s.45-1.55.46-1.78Z"/><path class="cls-11" d="M1573.82,865.28c.62-.45,2.9,1.07,3.53,1.35a17.76,17.76,0,0,0,3.36.72c1.4.3,2.8.67,4.18,1.08a72.06,72.06,0,0,1,9,3.38,10.61,10.61,0,0,0,2.24.62,10.78,10.78,0,0,1,2.16.73c.7.31,1.39.63,2.06,1a6.18,6.18,0,0,0,1,.52c.47.13.61,0,1-.33.56-.48.5-2.19.52-2.76a8.17,8.17,0,0,0-.35-3.3c.29,1.41.34,1.59.15.52a4.37,4.37,0,0,0-.37-1,2.59,2.59,0,0,0-1-1.26c-.66-.47-1.33-.91-2-1.34s-1.62-.89-2.38-1.4-1.45-1.09-2.25-1.54a22.42,22.42,0,0,0-4.84-1.63q-2.37-.65-4.77-1.11c-1.44-.28-2.88-.5-4.33-.66a7.26,7.26,0,0,0-3.56.05c-1.27.53-3.21,1.44-3.66,2.88a6.41,6.41,0,0,0-.18,2.43c0,.21.12,1.4.51,1.12Z"/><path class="cls-13" d="M1575,886.36c-1.53,5.4-.42,10.43,2.44,11.24s6.46-2.88,8-8.29.44-10.43-2.43-11.24S1576.5,881,1575,886.36Z"/><path class="cls-13" d="M1513.12,872.88c-1.53,5.4-.44,10.43,2.44,11.24s6.44-2.88,8-8.29.43-10.43-2.44-11.23S1514.65,867.47,1513.12,872.88Z"/><path class="cls-10" d="M1563.3,875.36c-2,5.28-4.85,10.22-7,15.46-1,2.52-.51,5.49.17,8.06a62.79,62.79,0,0,0,2.5,7,30.56,30.56,0,0,1,1.86,6.48,10.42,10.42,0,0,1-.21,4.9,8,8,0,0,1-1.06,1.89c-.28.39,0,.07,0,0-.14.17-.3.32-.45.47a11.53,11.53,0,0,1-1,.84c-.11.09-.24.17-.36.25.66-.46.06,0-.09,0l-1,.51c-.14.06-.29.11-.43.18.92-.41.2-.08,0,0l-1.4.39c-.3.08-.48.27.31-.06a4,4,0,0,1-.85.14c-.45.06-.93.06-1.37.15,1.21-.23.5,0,.13,0s-.5,0-.75,0h-.76c-.82,0,1,.1.13,0-.5-.05-1-.1-1.49-.18-.2,0-.4-.08-.61-.1l.43.09-.48-.11c-.46-.12-.92-.24-1.38-.38-.14,0-.29-.11-.44-.15-.61-.19.73.3-.2-.09a7.46,7.46,0,0,0-6,0c-1.45.74-1.66,2.26,0,3a29.37,29.37,0,0,0,14.13,2c4-.37,8.69-1.7,11.52-4.78,7.41-8.09-3-18.14-4.24-26.55a10.61,10.61,0,0,1-.22-2.51,13.91,13.91,0,0,1,.63-2.38c.44-1.54.93-3.07,1.42-4.59,1-3.2,2.11-6.39,2.89-9.66.3-1.29-3.84-1.45-4.29-.29Z"/><path class="cls-11" d="M1509.91,793.37c8.69,4.15,17.45,8.16,26.21,12.16,20,9.16,50.32,28,73.15,20,33.61-11.89,49.52-51.75,42.64-79.09-4.72-18.82-30.14-42.75-51.14-41.59-8.57.47-17.23,3.86-26.22,1.17-8.54-2.56-14.72-10-22.07-15-13.08-9-26.21-18.8-43.22-19.25-16.66-.43-31.49,3.88-46.75,9.71-20.22,7.74-50.23,23.74-40.45,50.54,4,10.88,18.79,21.24,27.52,27.38C1468.57,772.63,1489,783.4,1509.91,793.37Z"/><path class="cls-10" d="M1539.6,940.74l-3.69.71,3.75.49c-1.07-.61-2.15-1.2-3.21-1.84a22.15,22.15,0,0,0-4-1.75,23.9,23.9,0,0,0-8.47-1.69,19.37,19.37,0,0,0-6.61,1.2,11,11,0,0,0-2,.76c.17-.11.86-.31.28-.12l-.55.2c-.45.14-.91.24-1.35.38-.62.2,1-.13.3-.06-.3,0-.6.09-.91.12h3c-1.39-.17.82.25-.11,0-.48-.15-.4-.12.24.12l-.6-.27-.89-.47c.79.43-.32-.3-.48-.43a8.11,8.11,0,0,0-4.31-1.75c-1.76-.21-6,.07-6.17,2.63-.09,1,.85,1.89,1.59,2.51a11.73,11.73,0,0,0,3.72,2,15.1,15.1,0,0,0,7.73.8,26.44,26.44,0,0,0,5.87-1.82l1-.43c.13-.06,1.18-.49.44-.2s.34-.08.47-.13c.5-.12.35-.1-.43.07l.58-.08-.6,0h.5c-.77-.07-.86-.07-.27,0,.27,0,.53.07.79.12-.93-.16.59.17.78.23.52.15,1,.3,1.56.47,2.34.75,4.71,1.4,7,2.25l-1.8-2.17c-.62,1.39-1.84,3.3-.88,4.86a7.42,7.42,0,0,0,2.85,2.39,17.2,17.2,0,0,0,7.85,1.6,20,20,0,0,0,6.72-1.17c2.62-1,5.92-3.46,3.42-6.36-2.94-3.41-9.06-3.63-13.09-3.15Z"/><polygon class="cls-9" points="1417.33 1019.26 1231.36 1051.41 1248.5 1498.53 1478.12 1540.63 1618.47 1131.25 1498.88 1034.21 1417.33 1019.26"/><path class="cls-7" d="M1504.53,1035.76l118,89.73-136.66,413.35c-50.73,15.07-74-4.72-145.73-18-22.93-4.24-93.24-4.14-98.78-30-3.38-15.76-14.79-49.73-11.42-65.16s-9-43.9-7.46-59.69,4.7-31.14-.35-46.49c-9.39-28.6-2.13-67-3.22-97.43-1.11-30.84-2.88-46.34,2.71-76.82,2.95-16.18-7.61-36.86-8.69-53.34-1.14-17.49,4.93-37.24,22.83-41.77,15.92-4,33.4-5.15,49.64-8l107.09-19.72S1475.57,1068.28,1504.53,1035.76Z"/><path class="cls-7" d="M1258.63,1177.9s-28.29,95.46-29.87,149.71c-.88,30.15-10.63,53.31-22.93,80.17-6.08,13.25-15.47,25.73-18.29,40.28-2.69,13.84-1.41,28.35-3.8,42.48-4.74,27.71-3.61,55.8-14.22,82-5.69,14.12-10.58,29-12.52,44.15-2.27,17.62-3.51,108.94-4.45,126.44,62.45,14.36,73.48,19.68,100.9-24.38,17.48-28.06,49.11-60,82.31-67.53,31-7,58.43-4.72,89.48-2.66,31.3,2.08,95.41,6.73,124.11-6,22.84-10.17-14-137.07-3.23-160.8,11.75-26,15.1-40.09,10.68-67-5.38-32.82-9.84-65.24-11.12-98.52-1.11-28.77-2.45-56.8-20.33-80.8-52.16-69.93-161.81-79.69-240.21-63.47Z"/><path class="cls-4" d="M1269.39,1345.19c8-69.47,67.72-196.65,43.72-243.85-21.55-42.36-71.67-56.33-107.31-26-48,40.78-80.27,324.37-54.85,362.76C1151,1438.08,1218.36,1475.3,1269.39,1345.19Z"/><path class="cls-14" d="M1521.68,1056.61c0-.21,0-.43.07-.64s-.07-.11-.07,0c0-.46.18-.54,0-1-.44-1-2.15-1.22-3-1.27a5.78,5.78,0,0,0-3.61.85c-.64.42-1.4.8-1.93,1.09s-.91.45-1.37.66l-.25.11-.58.21c-2.1.68-4.26,1.27-6.39,1.87-1.1.31-2.19.6-3.3.87l-1.63.38-.94.21c-.84.2,1.09-.21-.38.08-2.28.44-4.57.81-6.87,1.07-1,.12-2.09.19-3.14.32-.17,0-.8,0-.13,0s-.15,0-.35,0c-.57,0-1.14,0-1.72,0l-1.5,0a5.44,5.44,0,0,1-1.72-.09s1.1.09.42,0l-.87-.07-1.75-.16c-2.67-.24-5.36-.56-8-.61a13.87,13.87,0,0,0-1.82.09c-1.12.1.38,0,.42,0-.14-.14-1.1,0-1.35,0-.81,0,1.24.13.43,0l-.59,0c-.61-.07-1.22-.17-1.83-.27-1-.18-2.08-.42-3.12-.6a17.3,17.3,0,0,0-3.94,0c1.72-.08.78,0,.43-.06s-1.47-.08-.44,0-.74-.09-.94-.12c-.54-.06-1.08-.15-1.62-.23-1.19-.2-2.4-.4-3.58-.68,1.57.37-.32-.13-.63-.22-.5-.15-1-.33-1.5-.51-1.07-.38-2.12-.79-3.21-1.12a34.17,34.17,0,0,0-9.17-1.22l-1.59,0c-.27,0-1.28,0-.23,0s.19,0,0,0c-1.1.05.12.11.3.1a3.47,3.47,0,0,1-.87-.22c-.58-.16-1.15-.36-1.71-.56-1-.35-2-.74-3-1.06-.5-.16-1-.31-1.52-.43s-2.81-.57-1.43-.31c1.05.21-.11,0-.26-.08-.41-.11-.8-.25-1.21-.38-.6-.19.55.21.54.2a5,5,0,0,0-.71-.29c-1-.43-2-.91-3-1.39-1.72-.81-3.5-1.49-5.16-2.42l-1.38-.82-.46-.29c-.54-.33.85.55,0,0-1.14-.73-2.27-1.46-3.42-2.16a30.94,30.94,0,0,0-6.7-3,15.93,15.93,0,0,0-1.54-.43c-.69-.16-1.39-.29-2.09-.43-1.2-.25,1.13.32.4.07-1.26-.44,1,.5-.11,0-.19-.09-.79-.46-.13,0s-.1-.1-.2-.18c-.69-.55-1.25-1.23-2-1.76-1-.76-2-1.58-2.92-2.4-1.59-1.35-4.44-1.59-6.41-1.27a9.12,9.12,0,0,0-2.51.71c-.5.23-1.88,1.16-1.66,2,.29,1.1.57,2.21.93,3.29a6.89,6.89,0,0,0,2.22,2.86,13,13,0,0,0,3.21,2,18.54,18.54,0,0,0,2.56.92c.66.18,1.41.3,2,.44,1.33.28-1.53-.42-.14,0l.76.22.38.12c.48.17.49.17,0,0l-.36-.14.53.22.86.39c1.06.51,2.09,1.09,3.11,1.69,1.92,1.15,3.78,2.41,5.78,3.42.43.21.87.41,1.31.6s.92.36,1.38.54c2.24.85-.64-.37.29.15a40.36,40.36,0,0,0,3.79,1.72,41.24,41.24,0,0,0,4.25,1.62c.73.23,1.47.38,2.22.54l.83.17c.47.09.46.09,0,0s-.5-.11.06,0l.66.19c3.09.93,6,2.15,9.26,2.45,1.81.17,3.62.2,5.43.23l.91,0c1.33,0-.44,0-.43,0a8.84,8.84,0,0,1,1.11.14c.75.08-1.17-.35-.06,0,1.52.49,3,1,4.55,1.5a40.22,40.22,0,0,0,6,1.26,40.74,40.74,0,0,0,11.87.46h-3.31c2.16.36,4.31.67,6.49.82a27.32,27.32,0,0,0,3.13.08c.85,0,1.7-.09,2.54-.19l-.51.05s.89,0,1,0c4,.16,8,.61,12,.54a85.64,85.64,0,0,0,26-5c.78-.28,1.57-.57,2.34-.88,0,0,.72-.29.31-.13-.17.06-.17.06,0,0l1.09-.41a18.68,18.68,0,0,0,2.27-1,17.37,17.37,0,0,0,2.56-1.68,3.64,3.64,0,0,0,1.34-2.35l-6.75.89a9.18,9.18,0,0,0,1.94,1.17c1,.6,4.53.76,4.7-1Z"/><path class="cls-14" d="M1407.88,1562.17c-2.81-.32-5.58-.82-8.45-1.13-2.71-.29-5.39-.73-8.08-1.1-5.4-.75-10.76-1.77-16.13-2.7-11.18-2-22.65-3.37-34-1.61-23.2,3.61-42.83,19.19-57.37,36.88a166.86,166.86,0,0,0-17.85,26.37c-2.45,4.51-4.65,9.13-7,13.68s-4.86,9.24-7.21,13.91c-9,18-17.88,36.09-29.12,52.79a155.1,155.1,0,0,1-18.41,22.91,119.68,119.68,0,0,1-11,9.87c-2,1.54-4.06,2.92-6,4.48s-3.79,2.91-5.76,4.24c-1,.71-2,1.29-3,1.92a12.79,12.79,0,0,0-2.08,2.08c-.58.63-.28,1.17.41,1.54a4.65,4.65,0,0,0,3.12.19,26,26,0,0,0,4.62-1.22c1.29-.52,2.54-1.13,3.79-1.74,2.39-1.17,4.75-2.42,7.06-3.75a78.8,78.8,0,0,0,12.27-9.26,146.93,146.93,0,0,0,20.3-22.28c12.06-16.07,21.4-34,30.49-51.81,4.65-9.12,9.09-18.4,14.48-27.11q4.21-6.79,8.76-13.38c3-4.4,6-8.85,9.22-13.12,1.63-2.14,3.3-4.26,5-6.33l1.27-1.5c.09-.11.54-.63,0,0,.21-.25.42-.5.64-.74.9-1,1.82-2,2.75-3.06,3.54-3.84,7.27-7.54,11.18-11a107.89,107.89,0,0,1,12.35-9.45c.21-.14.42-.29.64-.42-1.13.64,0,0,.2-.12l1.66-1c1.23-.74,2.49-1.45,3.76-2.11s2.73-1.36,4.13-2a18.86,18.86,0,0,1,2-.84c-.16,0-1.17.43-.18.08l1.22-.43c1.32-.44,2.65-.84,4-1.19.66-.17,1.32-.32,2-.47,1.1-.26-.34.11-.43.09a4.93,4.93,0,0,0,1.38-.26c1.23-.21,2.47-.38,3.72-.52l1.94-.2,1-.08-.78.06.77,0c2.58-.12,5.16-.1,7.73,0l1,0c.91.05-1.66-.12-.31,0l1.95.16c1.29.11,2.59.25,3.88.4,11.21,1.28,22.26,3.52,33.58,3.54a47.18,47.18,0,0,0,8.82-1c.56-.1,1.77-.35,1.77-1.14s-1.2-1.07-1.77-1.14Z"/><path class="cls-14" d="M1269.4,1535.94c-1.38.44-2.78,1-4.2,1.27a33.33,33.33,0,0,1-4.12.49,34.25,34.25,0,0,0-8.84,2.18c-5.19,1.89-10.23,3.83-14.8,7a68.13,68.13,0,0,0-11.38,10.14,66.72,66.72,0,0,0-9.13,12,51.87,51.87,0,0,0-2.94,6.1,67.71,67.71,0,0,0-2.58,6.39c-.68,2.36-1,4.52-1.78,6.73a66.65,66.65,0,0,0-2.12,7c-1.12,4.86-3.92,9.31-6.31,13.62s-4.6,8.68-7.26,12.83c-1.54,2.39-3.18,4.72-4.93,6.95q-.69.89-1.41,1.74l-.57.69c-.1.11-.77.79-.24.3s-.13.13-.2.2l-.55.57c-.36.37-.74.73-1.11,1.08-.9.84-1.82,1.64-2.78,2.41-.39.31-.8.6-1.2.91-1,.74,1.1-.64-.18.07-.6.33,1.36-.55.69-.26s-1.25.45-1.87.71c-.46.2-.92.41-1.36.65a9.88,9.88,0,0,0-3.57,3,2.05,2.05,0,0,0,.68,2.57,7.55,7.55,0,0,0,3.25,1.36,12.46,12.46,0,0,0,4.43.17c1.34-.22,3.08-.52,4.06-1.53.15-.16.31-.29.46-.44.61-.6-.09.18-.26.15a4.62,4.62,0,0,0,.61-.29c.84-.43-.37.17-.49.18a8,8,0,0,0,1.95-.67c.58-.22,1.18-.42,1.74-.68a21.27,21.27,0,0,0,5.05-3.82,57.9,57.9,0,0,0,8.64-10.54,100.73,100.73,0,0,0,7.09-12.46c2.18-4.55,4.76-8.94,6.56-13.67a55.26,55.26,0,0,0,2-7.37c.44-2,1.32-4.28,1.88-6.42s.69-4.26,1.32-6c.38-1.06.93-2,1.28-3.09s.79-2.26,1.24-3.37c3.55-8.72,9.81-16.33,16.85-22.48a52.07,52.07,0,0,1,6.4-4.86c-.15.09-.38.2.25-.15l.92-.48c.57-.29,1.15-.58,1.72-.85,1.28-.62,2.57-1.2,3.87-1.76s2.73-1.14,4.08-1.73c1.13-.48,2.12-1.3,3.24-1.7a13.32,13.32,0,0,0,3.46-1.82c1.16-.84,2.49-1.47,3.73-2.19,1-.58-.78-.94-1.25-.79Z"/><path class="cls-7" d="M1255.48,1046.37s-68.08-1.37-98.3,102.74l-40.93,162.52s147.6,27.07,199.24-20.66l14.56-183.26S1331.67,1055.56,1255.48,1046.37Z"/><path class="cls-15" d="M1151,1438.08c122.39,73.07,279.2-336,299.84-425.5l-35.31-10.66C1292.71,1197.64,1192.65,1297,1192.65,1297S1122.42,1368.71,1151,1438.08Z"/><path class="cls-15" d="M1450.79,1012.58s-17.31,14.15-31.75,7c-17.42-20.27-16.37-51.82-27.79-77.08-11.82-26.17-18-100.86-8.33-113.59,14.7.42,14.26,70.14,19.8,81.27l3.38-27.86,10-49.26s10.51,4.49,11.14,19.56l-4.7,34.39-5.46,27.83,12.7-28,16.35-18s9,2.43,3.34,15.23l-7.17,13.4-4.16,32,10.09-17.71,19.44-7.73s10.26,7.31-9.07,17.13l-9,18.69S1461.84,998.74,1450.79,1012.58Z"/><path class="cls-14" d="M1548,1098.61a98.46,98.46,0,0,0-6.51,15.07c-.81,2.55-1.49,5.13-2.18,7.72a48.31,48.31,0,0,0-1.09,8.23,221,221,0,0,0,0,32.95c.73,11.08,1.74,22.14,2.17,33.24a221.69,221.69,0,0,1-1.34,33.39c-2.78,24.62-8.19,49-6.79,73.89,1.33,23.64,8.54,46.22,14.49,69,2.87,11,5.93,21.93,7.76,33.17a144.1,144.1,0,0,1,1.55,35.2,8.45,8.45,0,0,0-.08,1.81c.09.77.45,1.54.61,2.3a12.1,12.1,0,0,1-.2,4.4c-.15,1,2.91,1.08,3.21.21a23.2,23.2,0,0,1,1.28-3.68c.79-1.41,1.87-2.48,2.22-4.09a83.86,83.86,0,0,0,1.39-8.61,89.75,89.75,0,0,0-.17-17.65,215.75,215.75,0,0,0-6.1-33.92c-5.65-22.56-12.69-45.1-15.1-68.32-2.57-24.77,2.78-49.11,6.14-73.54a246.68,246.68,0,0,0,2.76-34.54c0-11-.93-22-1.77-33s-1.82-22.32-1.9-33.49c0-2.69,0-5.38.13-8.06s.5-5.5.49-8.23a117.94,117.94,0,0,1,.94-15.72,62.85,62.85,0,0,1,1.51-7.44c.27-1-3-1-3.38-.22Z"/><path class="cls-14" d="M1288,1053a35.67,35.67,0,0,0,0,5.47c.23,2,.51,4,.82,5.93a111.58,111.58,0,0,0,2.68,11.4,181.88,181.88,0,0,1,4.8,22.85,128.09,128.09,0,0,1-1.57,43.18c-1.66,7.88-4.64,15.62-5,23.71,0,1.32,2.28,1.69,3.14,1.74,1.33.08,3.13-.07,4-1.27a51,51,0,0,0,3.16-5.19,40.17,40.17,0,0,0,2.2-5.25,98.64,98.64,0,0,0,3.21-10.81,125.82,125.82,0,0,0,3.51-21.12,100.22,100.22,0,0,0-.85-22.43,164.16,164.16,0,0,0-5.38-23.14c-1.27-4.24-2.44-8.55-3.93-12.71-.74-2.09-1.46-4.19-2.12-6.31s-1.49-4.31-2.22-6.47c-.6-1.79-6.33-1.68-6.42.42Z"/><path class="cls-8" d="M1510.65,1963.63c35.4-1.64,69.31-15.68,91.7-42.91,45.29-55.07,44.55-136,41.43-204.89-3.63-80.76-55.59-206.34-156-135.29-49.08,34.73-64.53,100.34-80.27,154.92-12.49,43.27-27.94,101.26-27.76,146.46.14,34.42,5.6,55.53,37.57,69.16C1447.13,1963.8,1478.55,1965.11,1510.65,1963.63Z"/><path class="cls-8" d="M1632.62,1535.21c29.17,131.29,64.94,336.2,89.09,336,76.46-.48,111.49-33.34,111.49-33.34l-64.6-314.7S1727.1,1404.89,1632.62,1535.21Z"/><polygon class="cls-4" points="1654.88 1749.78 1653.25 1932.48 1612.15 1932.58 1584.02 1749.92 1654.88 1749.78"/><path class="cls-16" d="M1601.58,1965.92l187-.27c-2.56-22.5-20.09-27.48-20.09-27.48l-55.62-16.76-50.27-29.91-18.94,9.15s-3.82-.69,0,8.61c0,0-23.65,5-34.93,0l-7.19,58.81"/><polygon class="cls-6" points="1601.61 1974.87 1788.61 1974.6 1788.6 1965.65 1601.58 1965.92 1601.61 1974.87"/><path class="cls-1" d="M1729.23,1926.15a5.1,5.1,0,0,0-3.29.28,9.44,9.44,0,0,0-1.87,1.26,16,16,0,0,0-3.48,3.77,23.16,23.16,0,0,0-3.71,9.46l2-1a7.64,7.64,0,0,0-1.26.1l2.36.66c-.12-.41-.56-.56-.89-.78a1.8,1.8,0,0,0-1.93,0c-.32.22-.76.37-.88.78-.21.78.73,1.06,1.34,1.15a10.69,10.69,0,0,0,1.26.1c.7,0,1.9-.17,2-1a25,25,0,0,1,3-8.3,15.44,15.44,0,0,1,2.66-3.4c.87-.83,1.47-1.77,2.63-2.11.66-.19.73-.8,0-1Z"/><path class="cls-1" d="M1708.66,1919.75c-1.16,2.69-3.29,4.85-5,7.21a44,44,0,0,0-2.42,3.68,14.91,14.91,0,0,0-1,2.06c-.28.74-.79,1.74-.33,2.47.57.9,2.45.8,3.19.21a4.93,4.93,0,0,0,1.14-2.24c.29-.7.6-1.39.94-2.06a43.38,43.38,0,0,1,2.23-3.77,26.57,26.57,0,0,0,3.69-7.4c.19-.74-2.21-.82-2.5-.16Z"/><path class="cls-1" d="M1695.36,1912.9a38.14,38.14,0,0,0-6.6,7.36,24.77,24.77,0,0,0-2.16,4.15,21.66,21.66,0,0,0-1.47,4.56h4.48a3.17,3.17,0,0,0-1.4-1.73,1.51,1.51,0,0,0-1.68,0,3.14,3.14,0,0,0-1.4,1.73c-.07.33.45.67.66.77a3.34,3.34,0,0,0,1.28.31c.64,0,2.19,0,2.46-.79.49-1.41.79-2.87,1.32-4.27s1.15-2.77,1.8-4.12,1.32-2.54,2-3.79a21.82,21.82,0,0,1,2.66-3.61c.71-.81-1.47-1-2-.57Z"/><path class="cls-1" d="M1678.44,1901.76a40,40,0,0,0-3,4.45c-.78,1.27-1.7,2.43-2.53,3.65-1.62,2.37-3,4.94-3,7.87l1.71-1.1a2.51,2.51,0,0,0-2.26,1.75,7.79,7.79,0,0,0-.35,1.23c-.13.81.65,1.23,1.36,1.39l-.57-.27c.08.06,0,0,.11.22s0,.08.07-.08l1.76-.23c.21.2.28.25.19.14a1.38,1.38,0,0,0-1.91,0,.58.58,0,0,0-.08.22c0,.53,1.07.52,1.33.5a1.18,1.18,0,0,0,.72-.31,1.06,1.06,0,0,0,.15-.15s.25-.21.15-.16l-.7.2a2.44,2.44,0,0,0,1.93-.95,2.63,2.63,0,0,0,.14-.52l.06-.22c0,.11,0,.1,0,0a6,6,0,0,1,.25-.71c0-.1.13-.22.16-.32s0-.09-.11.1c.36-.33,0-.19-1.17.41.55-.08,1.71-.36,1.71-1.11a14.51,14.51,0,0,1,2.7-7.43,25.85,25.85,0,0,0,1.94-3.68c.64-1.49,1.16-3,1.89-4.49.27-.54-.63-.8-1-.85a1.93,1.93,0,0,0-1.75.48Z"/><path class="cls-8" d="M1545.73,1254s86.62,6.89,102.12,169.85c0,0,36.86,273.41,47.29,444.29,0,0-49.5,38.56-112.54,20.32l-53.14-182.87-129.74,200.07s-146.91-3.12-153.17-162.56C1246.55,1743.09,1412.34,1225.85,1545.73,1254Z"/><path class="cls-17" d="M1495,1563.53c4.38,7.5,7.41,15.93,9.76,24.27a246.84,246.84,0,0,1,5.69,27.33c3.45,21.32,8.4,42.37,12.93,63.48,4.78,22.25,9.3,44.58,14.32,66.78a645.74,645.74,0,0,0,17.4,62.57q5.15,15.33,11.28,30.33,3,7.37,6.34,14.62a68.4,68.4,0,0,0,4.22,7.2c1.48,2.38,3,4.75,4.5,7.09s2.9,4.52,4.38,6.76c.53.8,3.65.79,3.15-.43-2-4.8-3.77-9.66-5.45-14.57-.81-2.39-1.46-4.88-2.49-7.17q-1.65-3.69-3.23-7.41-6.3-14.85-11.51-30.12a634.67,634.67,0,0,1-17.55-62c-5.12-22-9.65-44-14.44-66.06l-7.56-34.76-3.81-17.53c-1-4.39-1.62-8.84-2.54-13.25-1.92-9.13-4-18.23-6.54-27.2-2.52-8.72-5.48-17.62-10.22-25.41q-1.62-2.67-3.48-5.19c-.7-.95-2.2-1.06-3.28-.91-.63.09-2.45.6-1.87,1.61Z"/><path class="cls-17" d="M1481.44,1597.35a31.19,31.19,0,0,1,3.15.86l.78.27a1.53,1.53,0,0,0,.39.14s-.84-.34-.42-.15c.57.26,1.15.49,1.72.76,2.28,1.11,4.56,2.17,6.78,3.39l1.74,1,.87.51.42.25c.71.43-.24-.19-.27-.17.25-.19,3.16,2.25,3.49,2.52a34.55,34.55,0,0,1,3,2.76c.23.24.46.47.68.71s.76.88.38.42.25.32.35.44c.24.3.46.6.69.9a25.72,25.72,0,0,1,2.39,4,21.8,21.8,0,0,1,.88,2.05,9.9,9.9,0,0,0,.85,2.28c1.74,2.44,5.44,2.79,8.17,2.61,2.23-.15,6.1-.81,6.45-3.58.17-1.39-1-3.5-1.61-4.74a26.4,26.4,0,0,0-2.28-3.73,37.24,37.24,0,0,0-6.71-7,43.7,43.7,0,0,0-19.43-9.13,52.16,52.16,0,0,0-10.51-.87c-1.14,0-3.19.21-3.81,1.43s.92,2,1.82,2.19Z"/><path class="cls-17" d="M1524.43,1683.7c.61,3.33-.36,6.72-1.53,9.82-.7,1.88-1.62,3.67-2.36,5.53-.65,1.66-1.3,3.32-2,5a87.15,87.15,0,0,0-3.53,12.45c-1.1,4.52-2,9-2.83,13.63-1.65,9.21-3.2,18.43-5.14,27.58-1,4.85-2.3,9.63-3.44,14.45q-3.21,13.66-5.86,27.45c-2.24,11.6-4.51,23.19-7,34.75-2.63,12.42-5.47,24.8-8.72,37.08-.4,1.51-.81,3-1.23,4.53l.27-1c-2.79,10.15-5.87,20.22-9.58,30.07a149.61,149.61,0,0,1-11.15,24.23c-1.09,1.82-2.26,3.59-3.49,5.32a18.13,18.13,0,0,0-1.24,2.35,12.5,12.5,0,0,0-1.3,3l.81-1.47-.13.14c-.61.66-1.07,1.33-.6,2.25a4.52,4.52,0,0,0,2.73,1.73,11.07,11.07,0,0,0,4.58.3c1.15-.19,2.72-.45,3.55-1.34l-.6.34a9,9,0,0,0,1.12-.73l.34-.26.95-.75c.61-.48,1.2-1,1.78-1.52a23.63,23.63,0,0,0,3.54-4.3,90.48,90.48,0,0,0,5.09-8.39,159.87,159.87,0,0,0,9.21-20.94c6.16-16.88,10.71-34.34,14.78-51.82,4-17.12,7.39-34.36,10.7-51.62,1.36-7.09,2.59-14.2,3.88-21.31,1-5.55,2.2-11,3.29-16.58,2.56-13,4.07-26.28,6-39.43.48-3.26.79-6.54,1.23-9.81a61.26,61.26,0,0,1,1.38-8.59,61.1,61.1,0,0,0,2-7.61,44.36,44.36,0,0,0,.59-7.88,18,18,0,0,0-1.38-6.92c-.55-1.2-5-1.19-4.74.32Z"/><path class="cls-17" d="M1593.76,1281.83c14.55,14,24,32.71,30.26,51.69,3.23,9.8,5.3,19.94,7.61,30,2.24,9.69,4.24,19.43,6.37,29.14,4,18.42,6.4,37.26,9.08,55.91,4.37,30.47,8.45,61,13.08,91.43q7.58,49.69,14.22,99.54,2.89,21.87,5.83,43.73,1.26,9.54,2.42,19.09a80.28,80.28,0,0,0,3.53,16.68c.38,1.09.75,2.17,1.14,3.24s1.22,2.35,1.29,3.37c.1,1.44,4.23,1.37,4.13,0a14.13,14.13,0,0,1,.77-3.32c.29-1.27.52-2.54.76-3.82a59.88,59.88,0,0,0,.68-7.92c.3-5.95-.5-12-1-17.89-1.22-14.19-2.57-28.36-4.3-42.5-4.06-33.12-8.57-66.18-13.33-99.21q-6.76-47-15.72-93.7c-3.89-20.22-7.66-40.58-12.87-60.52-1.84-7-3.87-14-5.81-21.06-2.79-10.06-5.59-20.1-9.29-29.86-7.2-19-14.42-38.34-27.41-54.28a98.22,98.22,0,0,0-9.64-10.24c-.46-.42-2.46-.13-1.79.51Z"/><path class="cls-4" d="M317.16,1384.42c25.48,32.63,110.1,11.5,132.93-19.85,33.05-45.42,60.9-200.28-26.59-154.38C378.6,1233.76,274.4,1329.7,317.16,1384.42Z"/><polygon class="cls-4" points="720.02 942.61 922.36 975.05 909.7 1460.7 660.98 1509.48 503.15 1066.88 631.7 959.94 720.02 942.61"/><path class="cls-4" d="M582.07,1179.13c19.82-101-31.06-107.89-31.06-107.89-56.95-16.48-86.36,70-86.36,70S393,1402.1,390.91,1488.73c0,0,61,54.7,91.37,1.62Z"/><path class="cls-18" d="M533.25,1358.41l65.62-165.19s24.89-139.16-62.23-164c0,0-29.41-3.39-84.85,76.93l-90.51,144.82S391.35,1338.62,533.25,1358.41Z"/><path class="cls-8" d="M309.36,1776.89s29.32-582.42,167.31-589.33c67.89-3.39,98.43,123.33,98.43,123.33l52.1,329.41,50.35-93s120.14,5.05,276.08,1c61.26,93.69,65.41,165.42,53.89,260.68-3.66,30.25-29.61,69.53-48.8,91.63-35.63,41-93.58,68.53-147,75.14-70.06,8.67-105.94-16.1-151.61-64.83,0,0-44.1-256.65-70.16-273.8C538.88,1603.54,439.73,1805.74,309.36,1776.89Z"/><path class="cls-4" d="M628.79,991l118.57-38-41.47-129.4-118.56,38S632.63,959.46,628.79,991Z"/><path class="cls-10" d="M623.7,956.62c26-11.36,51-21.11,74.57-37.8A166.36,166.36,0,0,0,728,892.5l-22.1-68.94-118.56,38S612.47,915.88,623.7,956.62Z"/><path class="cls-11" d="M483.52,789.83c13.61,16.3,28.39,35.57,46.8,47.74,21,13.92,43.25,8.1,45.6-18.64,2.2-25.18-7.08-52.34-18.59-73.69-6.29-11.66-15.08-24.32-29.43-29A43.26,43.26,0,0,0,474.63,741C466.82,759.76,471.54,775.47,483.52,789.83Z"/><path class="cls-4" d="M512.89,815.1a339.09,339.09,0,0,0,32.43,63.34c13.29,20.14,35.11,58.86,63.09,59.91,8.63.33,14.84-1.94,23.55-5.41,33.29-13.28,62.07-47.76,75.4-80.07,24.83-60.22-12.69-174.23-67.54-205.19-50.08-28.28-160.39,30.92-147.13,97.83A413.66,413.66,0,0,0,512.89,815.1Z"/><path class="cls-19" d="M556.39,862c2.81.3,8.63,1.14,11.49.94,10.84-.8,19.63-5,28.61-10.93,12.67-8.46,23.7-21.63,40.08-21.5,9.91.08,18.21-.45,27.47-4,11.71-4.46,19.64-16,20.85-28.29.92-9.51-1.94-20.59.4-29.7A48.41,48.41,0,0,1,704,740.84c12.7,39.48,15.66,82.31,3.4,112C694,885.18,665.25,919.66,632,932.94c-8.71,3.47-14.92,5.74-23.55,5.41-28-1.05-49.8-39.77-63.09-59.91-3-4.6-5.92-9.3-8.69-14.06C541.89,861.66,548.11,861,556.39,862Z"/><path class="cls-20" d="M639.82,647.68c-9.63-5.44-21.46-7.61-34.22-7.16,21.72,39.47,64.78,56.55,74,121.36,14,35.09,22.34,45.83,33.13,72.76C725,772,689.53,675.74,639.82,647.68Z"/><path class="cls-12" d="M689.85,743.7a6.55,6.55,0,0,0,1.26-2.53,13.61,13.61,0,0,0,0-2.21,15.83,15.83,0,0,1,.68-4.47c.9-3.18,2.59-5.77,4.31-8.55a22.68,22.68,0,0,1,1.81-3.05,15.28,15.28,0,0,1,1.53-1.48c.25-.23.52-.44.78-.65s.46-.13.1-.08c.83-.11-.83.17,0,0-1.2.28-.15.05.09,0,.84-.13-.46,0,0,0a4.7,4.7,0,0,0,.65,0,7.7,7.7,0,0,0,1.52,0l-.56,0c.51.05,1,.08,1.52.09l1.26,0-2-.27c2.17.49,4.75.67,6.63-.73l-3.94.79a29.37,29.37,0,0,0,3.74.34q.55,0-.27-.06l.37.14c.28.2.62.29.91.53a14.81,14.81,0,0,1,1.28,1.23c1.85,1.94,3.74,3.91,5.4,6s3.2,4.48,4.82,6.71,2.63,4.84,4.18,7.11c.11.16.85.23.81-.06a24.8,24.8,0,0,0-2.49-6.83,57.92,57.92,0,0,0-4.16-6.81c-1.42-2.07-3.09-3.92-4.67-5.88-.7-.87-1.47-1.67-2.24-2.49a4.8,4.8,0,0,0-2.92-1.84c-.88-.15-.07.08-.28-.09s-.26-.26-.39-.37a4.06,4.06,0,0,0-2.23-.94c-2.38-.33.11.28.29.16s.32.16,0,0a8.69,8.69,0,0,0-2.21-.73,22.23,22.23,0,0,0-8-.21c-5.46.85-8.81,5.14-11.37,9.66a25.84,25.84,0,0,0-2.92,8.4,16.29,16.29,0,0,0-.22,4.62c.07.66.09,1.36.21,2a25.56,25.56,0,0,0,.93,2.53c.29.91,2.21,1.09,2.93,1.09a3.52,3.52,0,0,0,2.92-1.09Z"/><path class="cls-11" d="M666.75,729.18c3.36,5.15,13,30.65,16.46,35.05S695.43,757,695.43,757c5.22-11.07-11.37-26.7,1.62-34.36,14.07-8.32,26.1,12.4,29.84,22.62,7.58-16.15,4.9-41,1.66-58.7-6-32.87-9.71-44-19.34-56.17-33.73-42.51-50.82-32.84-83.26-16.94-14.79,7.26-26.8,31.71-27.46,48.9-.69,18.41,14.59,27.29,29.28,34.14C646.16,705,651.37,705.6,666.75,729.18Z"/><path class="cls-4" d="M710.33,718.57c20.38,8.52,28.73,54.32,5.38,80-10.46-5.05-19-26.64-24.26-36.9-5.12-10.06-9.54-19.91-6.77-31.33C685.54,726.85,695.33,712.31,710.33,718.57Z"/><path class="cls-10" d="M698.77,756.51c.61,2.07.81,4.26,1.68,6.25a3.6,3.6,0,0,0,2.16,2.06,14.06,14.06,0,0,0,2.32.78c2.85.68,6.59.57,8.47-2,1.24-1.71,1.21-4.16,1-6.17a43.25,43.25,0,0,0-1.63-8c-.73-2.61-1.35-5.66-3.81-7.17l.64.55c-.56-.71-1.12-1.59-2.06-1.79l.83.52v0c-.45-1.07-4-.79-3.49.48v0l.47-.87c-.84.45-.59,1-.69,1.8,0,.32.09-.3,0,0,0,.13-.11.24-.15.37a2.61,2.61,0,0,0,0,.74,5.54,5.54,0,0,0,.23,1.39c.3,1.25.8,2.44,1.21,3.65s.86,2.65,1.1,3.56a25.6,25.6,0,0,1,1.1,7.37,12.29,12.29,0,0,1-.15,1.36c0,.13,0,.25-.08.38.13-.61-.18.54,0,.14,0-.15-.17.42-.23.55s-.19.3-.28.46c-.17.32.22-.06-.1.11s-.47.31,0,.06c-.64.37.5-.1-.17.07-.33.09.77-.14.29-.07s.86,0,.11,0c-.42,0,.33,0,.32,0a4.14,4.14,0,0,1-.63-.09c-.44,0,.09,0,.16,0-.25-.07-.5-.12-.74-.2s-.33-.1-.49-.15c-.44-.14-.19-.19,0,0-1.48-2.1-2.22-4.5-3.36-6.78-.56-1.13-4.37-1-3.91.52Z"/><path class="cls-10" d="M702.91,744.38c.2-1.7,1.66-2.81,3-3.76.93-.68,1.82-1.47,2.66-1.29,2.73.59,4.59,3.36,5.82,5.66a18.9,18.9,0,0,1,2.43,10.34c-.11,1.74-.11,3.48-.23,5.23-.06.8-.14,1.61-.25,2.41a15.13,15.13,0,0,0-.06,2.52c0,1.19,2.56.77,3,.2a12.15,12.15,0,0,0,2.28-4.59,25.54,25.54,0,0,0,1.15-5,19.65,19.65,0,0,0-1.79-10c-1.37-3-3.16-5.77-6-7.53a12.07,12.07,0,0,0-9.66-1.37c-2.73.86-6.14,4.11-5.65,7.24.18,1.14,3.22,1.17,3.36,0Z"/><path class="cls-11" d="M575,774.6c0,2.35-.73,2.21.31,1.33a7.8,7.8,0,0,1,1.42-.91c.6-.31,1.22-.59,1.83-.91a17,17,0,0,0,2.54-1.85,33.57,33.57,0,0,1,8.92-5.33,96.88,96.88,0,0,1,14.51-4.46c.94-.2,1.92-.29,2.85-.54s1.86-.54,2.81-.76a15.31,15.31,0,0,1,2.42-.51c.92-.06,1.83-.07,2.75-.06a43,43,0,0,1,5.07.45c1,.15,1.68.4,2.57-.33,1.56-1.28,1.54-4,1.29-5.87-.19-1.41-.83-3.46-2.25-4.13a12.56,12.56,0,0,0-2.65-.67,37.57,37.57,0,0,0-5.15-.83c-.79-.07-1.59-.06-2.38-.11s-1.79-.24-2.72-.25a18.38,18.38,0,0,0-5.82,1,99.57,99.57,0,0,0-14.8,5.93,28.12,28.12,0,0,0-4.57,3,40.76,40.76,0,0,0-5.06,4.3,24.47,24.47,0,0,0-3.94,6.32,11.36,11.36,0,0,0-.91,7c.09.43.23.93.61.53s.35-1.82.35-2.33Z"/><path class="cls-11" d="M537.52,786.1c-.5-1.21-1.94-1.78-3.07-2.24a4.63,4.63,0,0,0-2.82-.3c-1.2.22-2.4.5-3.59.82a66.12,66.12,0,0,0-8.2,2.82,42.15,42.15,0,0,0-4.16,1.9,40.48,40.48,0,0,0-4.1,3.18c-1.26,1-3.23,2.1-3.94,3.54a9.65,9.65,0,0,0-.78,4.81,4,4,0,0,0,.3,1.56.48.48,0,0,0,.28.16c.13.19.06.75.41,1l.25.14c1.37-.82,2.63-1.8,4-2.61s3-1.19,4.48-2a72.88,72.88,0,0,1,9.31-4.66c1.36-.56,2.73-1.08,4.13-1.53a17,17,0,0,0,3.45-1.2c.72-.43,2.85-2.16,3.81-1.61.26.15.42-1.44.42-1.46a5.18,5.18,0,0,0-.2-2.25Z"/><path class="cls-13" d="M538.84,812.73c2.34,5.64,1.79,11.19-1.19,12.44s-7.33-2.3-9.67-7.94-1.79-11.19,1.19-12.42S536.51,807.11,538.84,812.73Z"/><path class="cls-13" d="M603.83,790.34c2.33,5.64,1.81,11.2-1.2,12.45s-7.31-2.31-9.66-7.94-1.78-11.19,1.2-12.43S601.5,784.72,603.83,790.34Z"/><path class="cls-10" d="M545.63,800.26c1.15,3.08,2.57,6,4,9,.69,1.49,1.38,3,2,4.47a13.4,13.4,0,0,1,1.51,4.23c.43,6.34-2.75,11.81-4.15,17.8-.56,2.4-1.1,4.8-.57,7.25a10.62,10.62,0,0,0,2.84,5.35c3.3,3.39,8.53,4.41,13.07,4.57a29.19,29.19,0,0,0,15.11-3.46c1.49-.85,1.62-2.22,0-3a7.4,7.4,0,0,0-6.21,0,22.07,22.07,0,0,1-2.24,1.09c-.2.09-1,.33,0,0l-.67.23c-.46.15-.93.28-1.4.4l-.71.17c-.86.23,1-.14.08,0-.4.06-.81.14-1.22.19-.24,0-.49.06-.73.09-.58.07-.73-.22.18,0a8,8,0,0,0-1.47,0c-.24,0-.49,0-.73,0-.91,0,1.1.13.21,0-.39,0-.79-.08-1.18-.14a2.7,2.7,0,0,1-.7-.12c.8.44.62.15.16,0a4.74,4.74,0,0,1-1.31-.39c.76.52.38.16.07,0l-.49-.23c-.23-.11-1.28-.79-.53-.25-.29-.21-.58-.41-.85-.63l-.47-.42c-.1-.1-.69-.78-.27-.26-2.6-3.2-2-7.45-1.24-11.48,1-5.5,3.21-10.61,2.54-16.33a12.05,12.05,0,0,0-2-4.8c-.93-1.58-1.9-3.15-2.87-4.71-1.88-3-3.81-6.06-5.46-9.24-.64-1.23-4.93-1.06-4.32.59Z"/><path class="cls-1" d="M584.48,867.45c-5.37,2.65-12.87,4.76-18,8.5s-.5,16.71,4.05,19.41c6.47,3.86,9.75-2.86,15-5.09,5.93-2.52,11.74,0,17.65-2.08,7.72-2.66,6.81-11.52,2.64-17.05C600.74,864.39,591.72,863.87,584.48,867.45Z"/><path class="cls-11" d="M415,714.09c13.08,28.54,37.18,48.47,75.19,40.83,28.15-5.65,53.44-23.76,72-44.67,19.86-22.42,23.45-31.61,37.88-42s36.61-27,47-42.66c17.48-26.36-17.45-38.76-35.62-48.77-16.36-9-33.67-11.8-49.12,1-15.27,12.63-18.73,29.88-41.9,31.12-17.24.92-28.67-11.9-43.43-18.4-2.06,14.23,7.69,35.08.87,47.28a16.8,16.8,0,0,1-1.05,1.59s-54,36-70.74-8c.88,2.32-1.81,9.71-2.13,12.26a125.07,125.07,0,0,0,.39,32.17A138.77,138.77,0,0,0,415,714.09Z"/><path class="cls-18" d="M625.57,961.69,508.6,1050l143.89,457.69c55.28,15.69,80.27-6.1,158-21.45,24.83-4.91,101.16-5.74,106.85-34,3.44-17.16,15.38-54.18,11.51-70.91s9.24-47.76,7.3-64.88-5.52-33.75-.23-50.48c9.82-31.17,1.42-72.83,2.2-105.83.79-33.5,2.51-50.34-4-83.36-3.41-17.54,7.76-40.11,8.73-58,1-19-5.85-40.37-25.35-45-17.33-4.16-36.35-5.15-54-8L747,945.72S657.44,996.62,625.57,961.69Z"/><path class="cls-18" d="M894.43,1112.74s32,103.26,34.44,162.13c1.35,32.73,12.22,57.74,26,86.74,6.78,14.32,17.14,27.74,20.41,43.48,3.1,15,1.88,30.76,4.68,46.08,5.51,30,4.66,60.54,16.53,88.9,6.38,15.24,11.88,31.34,14.19,47.76,2.69,19.09,25.9,120.81,27.16,139.81-27.6,23.86-100.18,19.75-130.53-27.71-19.33-30.24-54.12-64.51-90.27-72.24-33.74-7.21-63.49-4.33-97.16-1.68-34,2.66-103.5,8.58-134.83-4.9-24.94-10.75,13.32-149,1.35-174.63-13.1-28-16.93-43.33-12.49-72.58,5.4-35.69-15-114.55-14-150.7.83-31.25,26.69-18.11,45.8-44.4,55.68-76.62,174.6-88.68,260-72.12Z"/><path class="cls-4" d="M885,1294.49c-9.65-75.31-76.14-212.59-50.71-264.14,22.83-46.28,77.06-62.11,116.14-29.7,52.63,43.65,91.49,351.09,64.4,393.12C1014.81,1393.77,942.13,1435.08,885,1294.49Z"/><path class="cls-21" d="M612.22,985.5a9.33,9.33,0,0,0,2.39-1.7l-7.29-.49a4.2,4.2,0,0,0,1.09,2.16,13.28,13.28,0,0,0,2.64,1.81,19.77,19.77,0,0,0,2.17,1.06c.56.24,1.13.45,1.71.66l.43.15c-.79-.28.6.23.67.25a91.66,91.66,0,0,0,14.58,4,90.19,90.19,0,0,0,13.89,1.76,122.87,122.87,0,0,0,14-.67l.36,0c-.92.09.58,0,.62,0a4.23,4.23,0,0,0,.71,0c.84-.16-1.37-.13-.12,0a38.9,38.9,0,0,0,4.32.15,64.35,64.35,0,0,0,8.53-1.07H669.5a40.58,40.58,0,0,0,11.38-.41A54.27,54.27,0,0,0,691,990.5c.7-.26,1.41-.51,2.12-.72a4.42,4.42,0,0,1,.86-.24l-.77.15c.3-.06.61-.11.91-.15a7,7,0,0,0,.93-.09c-1.56.38-.8,0-.2,0l2.58-.07a37,37,0,0,0,11.44-2.24c.7-.26,1.4-.52,2.11-.74.28-.09.58-.16.86-.26,1.44-.49-1.33.25,0,0a36.82,36.82,0,0,0,5.91-1.76c1.19-.47,2.35-1,3.51-1.55l1.82-.87.42-.2c.66-.29.58-.28-.24,0,.47.1,1.61-.6,2.11-.82a49.09,49.09,0,0,0,7-4l-.22.14c.29-.2.61-.38.92-.57.46-.29.93-.57,1.4-.84,1.13-.64,2.29-1.21,3.47-1.74,1-.44-.35.19-.42.15.15.08,1.1-.35,1.3-.4.68-.19,1.38-.31,2.07-.49a17,17,0,0,0,5.24-2.45,9.9,9.9,0,0,0,3-2.91,19.25,19.25,0,0,0,1.15-3.64c.58-2.12-1.62-3-3.38-3.37-2.22-.46-5.45-.44-7.27,1.17-1.56,1.39-3.16,2.71-4.67,4.13-.3.27-.65.5-.94.78-.46.43,1-.45.37-.23a6.16,6.16,0,0,1-1,.49c.88-.64,1.1-.37.52-.22a3.7,3.7,0,0,0-.69.18c1.27-.27,1.31-.28.11,0q-.63.12-1.26.27c-4.71,1.13-8.67,3.66-12.66,6.28l-.59.39c-.16.1-.82.53-.18.11s-.45.28-.63.38a26.33,26.33,0,0,1-2.78,1.47c-2,.91-4,1.95-6.08,2.88-.21.09-1.34.42-1.41.6.11-.27,1.2-.4.4-.15l-.69.22c-1.08.33-2.21.52-3.29.87-1.4.44-2.77,1-4.14,1.52,1.35-.52-.31.1-.67.22l-.85.26-.64.17c-.47.11-.28.08.57-.11-.27.28-1.45.13-1.84.21,0,0,1.47-.06.68,0l-.93,0c-1.78.07-3.57.12-5.34.33a26.26,26.26,0,0,0-4.72,1c-.57.17-1.13.37-1.68.58l-1.8.68c-.15,0-1.34.49-.56.21s-.18.06-.36.12l-.84.29c-.49.15-1,.3-1.48.43s-1.23.28-1.85.4c1.36-.26.46-.1.18,0l-1.42.26c-1.13.21-2.26.34-3.41.48-.89.1,1.31,0,.43,0h-.84c-.27,0-1.18.06-.16,0s.6,0-1.24-.09l-1.69.11c-1,.12-1.93.5-2.92.62.18,0,1.25-.25.19,0l-.85.16c-.55.1-1.09.19-1.64.27l-.79.1c-.25,0-1.36.26-.35,0s-.42,0-.72,0c-1.06,0,.34,0,.46,0-.67,0-1.34-.14-2-.15a50.69,50.69,0,0,0-5.35.41c-2.35.22-4.68.5-7,.69l-.85.06c.17,0,1.32-.07.26,0-.57,0-1.13.05-1.7.06h-1.7l-.85,0c-1.09,0,.71.09,0,0-2.71-.29-5.42-.49-8.13-.9-1.46-.23-2.92-.49-4.37-.78l-.14,0-1.17-.26c-.71-.16-1.41-.33-2.11-.51-2.72-.67-5.4-1.47-8.09-2.22a18,18,0,0,1-5.39-2.5,5.78,5.78,0,0,0-3.7-.86c-1,.07-2.58.3-3.09,1.3a3.44,3.44,0,0,0-.05,1.69c.13,1.73,3.8,1.62,4.82,1Z"/><path class="cls-21" d="M585.43,990.84a48.31,48.31,0,0,1-3.12,5,29.79,29.79,0,0,1-3.31,4.34,33.5,33.5,0,0,0-6.25,9.32,86.47,86.47,0,0,0-4.06,12c-.66,2.19-1.34,4.37-2.14,6.5s-1,4.24-1.59,6.32-1.14,4.16-1.69,6.24a23.09,23.09,0,0,0-1.14,6.47c.15,4.24.84,8.45,1,12.69.14,4.47.57,8.87.87,13.32.16,2.24.11,4.49.22,6.73.11,2,.3,4,.46,6s.18,4.1.27,6.16a22.72,22.72,0,0,0,1.22,5.88c.58,1.81,1.3,3.57,1.92,5.37a45.46,45.46,0,0,1,1.4,5.75l2.46,12.41a78.24,78.24,0,0,1,1.8,13.18,76.29,76.29,0,0,0,1.89,13c.83,4.11,1.79,8.19,2.73,12.27,2,8.52,3.56,17.11,5.26,25.68.82,4.11,1.68,8.22,2.45,12.33a20,20,0,0,1,.41,3.07c0,1.09-.34,2.19-.21,3.24.27,2.15.83,4.34,1.29,6.46a26.24,26.24,0,0,1,.62,3.13c.09,1.21.21,2.41.34,3.61.24,2.1.53,4.19.84,6.27.62,4.09,1.33,8.16,1.82,12.26.23,2,.41,4,.5,6,.07,1.27,3.59,1.27,3.71,0,.76-8.15.09-16.33.34-24.5a31.63,31.63,0,0,0-.06-6.74c-.38-2.15-1-4.3-1.25-6.46a28.07,28.07,0,0,1,.22-3,18.74,18.74,0,0,0-.35-3.08c-.38-2.09-.81-4.18-1.21-6.27-1.68-8.61-3.26-17.24-5-25.83-1.7-8.24-3.85-16.39-5.13-24.72a48,48,0,0,1-.71-6.44,52.84,52.84,0,0,0-.57-6.77c-.58-4.11-1.46-8.17-2.24-12.24a120.8,120.8,0,0,0-2.67-12.7c-1.12-3.61-2.9-7.09-3.09-10.92-.44-8.45-.69-16.9-1.4-25.34-.36-4.38-.28-8.76-.69-13.14-.19-2.12-.39-4.23-.46-6.35a21.19,21.19,0,0,1,1-6.24c.57-2.16,1.2-4.31,1.78-6.47.54-2,.85-4.11,1.48-6.09,1.34-4.22,2.24-8.56,3.49-12.8a42.39,42.39,0,0,1,4.47-10.29c.44-.72.9-1.44,1.36-2.15a20.1,20.1,0,0,0,1.05-2.53c.71-1.57,1.69-3,2.33-4.6a26.36,26.36,0,0,0,1.35-4.94c.25-1.31-3.49-1.21-4-.26Z"/><path class="cls-21" d="M618.23,1274.45c-.77,1.87-.84,3.9-1.3,5.85-.52,2.23-1.16,4.44-1.66,6.69s-.37,4.52-.8,6.73-1,4.3-1.35,6.5c-.7,4.62-1.6,9.16-2.5,13.74-.45,2.3-.87,4.6-1.32,6.89-.21,1.09-.43,2.17-.65,3.26a12.48,12.48,0,0,1-1.09,3.09,36.86,36.86,0,0,0-3.85,13,55.61,55.61,0,0,0,0,12.83c.63,4.19,1.43,8.33,1.91,12.55a39,39,0,0,0,2.57,10.72,71.23,71.23,0,0,0,3.57,8.33,9.15,9.15,0,0,0,3.57,3.92,10.84,10.84,0,0,0,7.89.69c1-.32,2.71-1.12,2-2.44s-3-1.59-4.25-1.58a5.73,5.73,0,0,1,2.57.65c.57.26,0,0-.1-.14.16.29.94.89-.22-.26-.07-.07-.16-.12-.23-.19l-.64-.62c-.3-.3.31.41,0,0l-.23-.3c-.2-.28-.41-.56-.6-.86-.38-.58-.73-1.19-1.07-1.81-1.22-2.25-2.16-4.64-3.28-7a35.67,35.67,0,0,1-2.84-10c-.65-4-1.42-7.93-2.06-11.91a41.1,41.1,0,0,1-.55-5.65c0-2.13.23-4.22.31-6.33a36.46,36.46,0,0,1,3.16-12.42,12.1,12.1,0,0,0,1-2.88c.16-1.07.3-2.13.44-3.19.29-2.22.55-4.44.82-6.66.54-4.34,1.24-8.65,1.57-13,.19-2.4.34-4.82.74-7.2a25.27,25.27,0,0,0,.41-3.47c0-1.25.1-2.51.16-3.76.12-2.34-.4-4.68-.38-7s-.78-4.47-.58-6.74c0-.41-1.09-.4-1.22-.08Z"/><path class="cls-21" d="M737.58,1534.33a53.39,53.39,0,0,0,9.77.88c1.54,0,3.09-.08,4.63-.17l3-.19c.25,0,1.67-.18.28,0,.75-.08,1.5-.1,2.25-.19,6-.69,11.85-1.65,17.76-2.57,2.88-.45,5.76-.88,8.65-1.24,1.31-.16,2.61-.31,3.92-.44q1-.11,2-.18l1.18-.1c1.31-.1-1.6.1,0,0a83.67,83.67,0,0,1,8.38-.09l1.18,0c1.46.07-1.69-.14-.24,0,.65.06,1.31.11,2,.18,1.46.14,2.91.33,4.36.57l1.19.21.37.07c-1.12-.21.22.05.37.09l1.21.29c1.5.37,3,.81,4.47,1.29a11.75,11.75,0,0,1,2.05.72l-.61-.23.83.32,1,.43c1.64.69,3.25,1.45,4.82,2.26,1.27.65,2.51,1.34,3.74,2l2,1.19.66.41.66.41-.16-.1c2.37,1.54,4.7,3.16,6.95,4.87A141.05,141.05,0,0,1,848.81,1556c2.07,2,4.11,4,6.08,6.12q1.49,1.58,2.92,3.19l1.3,1.47.41.47.65.77a303,303,0,0,1,20.56,28.12c3.19,4.79,6.35,9.63,9.13,14.67,2.7,4.88,5.3,9.8,7.89,14.74,10.06,19.21,20,38.58,32.67,56.28a177.28,177.28,0,0,0,21.06,24.79,127.79,127.79,0,0,0,12.29,10.48,85.33,85.33,0,0,0,14.8,8.8c1.41.67,2.83,1.31,4.28,1.89-.57-.23,1,.37,1.14.4.28.08.57.13.85.2.85.2,1.71.38,2.57.57a4.82,4.82,0,0,0,3.2-.21c.67-.35,1-1,.42-1.57a17.33,17.33,0,0,0-2.41-2.22c-1.26-.79-2.26-1.39-3.29-2.07-2.16-1.41-4.25-2.9-6.29-4.47s-4.39-3.1-6.53-4.74-4.21-3.35-6.23-5.12a150,150,0,0,1-21.4-23.43c-13.09-17.48-23.29-36.89-33.31-56.23-5.11-9.88-10.34-19.7-15.54-29.54-2.64-5-5.32-10.07-8.39-14.83s-6.41-9.56-9.9-14.13A145.3,145.3,0,0,0,853.68,1545c-9.93-8-21.21-15-33.52-18.58-12.63-3.72-25.81-3.55-38.73-1.58-11.66,1.77-23.16,4.54-34.9,5.89-3,.34-5.95.9-8.95,1.26-.57.07-1.81.38-1.81,1.17s1.23,1.07,1.81,1.17Z"/><path class="cls-21" d="M886.2,1502.46c1.16.64,2.35,1.21,3.5,1.86a24.17,24.17,0,0,0,3.1,1.82,27.39,27.39,0,0,1,3.28,1.44,37,37,0,0,0,4,1.74c2.49,1,5,2.06,7.39,3.22a34.67,34.67,0,0,1,6.29,4,77.25,77.25,0,0,1,11.64,11,60.28,60.28,0,0,1,8.48,12.29,54.88,54.88,0,0,1,2.84,6.76c.41,1.18,1,2.26,1.47,3.43a15.56,15.56,0,0,1,.8,3,61.7,61.7,0,0,0,1.92,7.42c.83,2.51,1.24,4.79,2,7.44,1.45,5.13,4.09,9.78,6.56,14.47s4.71,9.29,7.49,13.73a73,73,0,0,0,10.48,13.61,31.08,31.08,0,0,0,6.39,5.1,20,20,0,0,0,3.75,1.43c.25.08.51.18.77.25.68.17-1.28-.61-.38-.13.11.06,1.1.48.3.12s.24.25.43.44c.9.94,3,1.43,4.16,1.57a14.12,14.12,0,0,0,4.54-.17c1.41-.29,5.62-1.79,4-4a13.36,13.36,0,0,0-7.26-4.59c-.57-.16-.3-.45.73.29a3.43,3.43,0,0,0-.44-.19c-.75-.44,1,.74.43.28-.21-.17-.44-.3-.65-.46-.93-.67-1.83-1.4-2.7-2.15s-1.56-1.37-2.3-2.09c-.38-.37-.74-.75-1.11-1.13-.17-.18-.6-.62.21.25-.4-.43-.78-.91-1.17-1.36.38.44-.11-.13-.16-.18l-.72-.86c-.43-.53-.86-1.06-1.27-1.59-.89-1.13-1.75-2.29-2.58-3.46a133.51,133.51,0,0,1-8.49-13.91c-2.61-4.8-5.63-9.41-7.65-14.5-.93-2.35-1.34-4.69-2.13-7.1s-1.86-4.77-2.33-6.87a31.63,31.63,0,0,0-2.24-7.32c-1.12-2.27-2-4.65-3.1-6.93a60.22,60.22,0,0,0-9-13.15,90,90,0,0,0-11.91-11.52,55.4,55.4,0,0,0-8.17-5.38,69.53,69.53,0,0,0-9.34-3.81c-3.61-1.31-7.17-2.74-11-3-1.18-.07-2.78-.22-4.15-.4a36.36,36.36,0,0,1-5.41-1.47c-.48-.15-2.33.24-1.28.81Z"/><path class="cls-18" d="M896.11,969.88S970,967.5,1004.2,1080.13l46.61,175.9s-159.89,31.36-216.61-19.78L816,1037.49S813.54,980.9,896.11,969.88Z"/><path class="cls-4" d="M1014.81,1393.77c-131.88,81-304.6-345.91-328.2-442.74l27.59-23.87C850.1,1138,967.68,1241.21,967.68,1241.21S1044.23,1277.14,1014.81,1393.77Z"/><path class="cls-4" d="M683.61,935.82s19,15.13,34.55,7.21c18.66-22.25,28.1-48.22,40.15-75.8,12.47-28.56,1.43-87.22-9.24-100.91-16,.64-1.18,46.54-7.06,58.71l-7.23-34.24-21.11-26.24s-10.28,2.17-5.69,15.92l11,23.33-.08,25.48L704.76,799l-18-19.33s-9.74,2.76-3.44,16.57l8,14.44,4.95,34.72-11.19-19.09-21.21-8.14s-11.06,8.08,10.08,18.49l10,20.17S671.43,920.94,683.61,935.82Z"/><path class="cls-8" d="M637,1963.73c-38.43-1.77-75.26-17-99.59-46.59-49.16-59.79-48.35-147.67-45-222.46,3.95-87.69,60.37-224,169.42-146.9,53.3,37.71,70.07,109,87.17,168.21,13.55,47,30.33,110,30.13,159-.15,37.35-6.08,60.29-40.79,75.07C705.94,1963.92,671.83,1965.34,637,1963.73Z"/><polygon class="cls-4" points="316.95 1731.54 318.71 1929.92 363.34 1930.02 393.87 1731.69 316.95 1731.54"/><path class="cls-22" d="M374.81,1966.22l-203.06-.29c2.77-24.43,21.81-29.83,21.81-29.83l60.4-18.21,54.57-32.47,20.56,9.93s4.15-.74,0,9.35c0,0,25.68,5.38,37.93,0l7.8,63.86"/><polygon class="cls-6" points="374.78 1975.94 171.74 1975.65 171.75 1965.93 374.81 1966.22 374.78 1975.94"/><path class="cls-1" d="M236.23,1924.06c1.33.36,2.05,1.43,3,2.35a17.07,17.07,0,0,1,2.85,3.7,27.29,27.29,0,0,1,3.2,9c.16.86,1.4,1,2.1,1a11.72,11.72,0,0,0,1.33-.09c.32,0,1.6-.35,1.45-.93a1.21,1.21,0,0,1,0-.18c-.09-.46-.56-.67-.91-.93a1.8,1.8,0,0,0-2,0c-.34.24-.8.43-.93.85l2.42-.67a9.8,9.8,0,0,0-1.33-.11l2.1,1a25.26,25.26,0,0,0-3.94-10.14,16.67,16.67,0,0,0-3.67-4.09,12.2,12.2,0,0,0-2.08-1.43,5.55,5.55,0,0,0-3.57-.35c-.74.15-.67.8,0,1Z"/><path class="cls-1" d="M255.91,1916.27a29.08,29.08,0,0,0,4,8,44.56,44.56,0,0,1,2.37,4c.38.74.73,1.5,1,2.26a5.65,5.65,0,0,0,1.24,2.48c.74.6,2.69.71,3.26-.21.48-.77-.07-1.86-.35-2.62a16.86,16.86,0,0,0-1.08-2.27,45.56,45.56,0,0,0-2.61-4c-1.81-2.57-4.12-4.93-5.36-7.85-.29-.69-2.75-.59-2.56.17Z"/><path class="cls-1" d="M270.91,1909.25a24.46,24.46,0,0,1,2.87,3.84c.79,1.37,1.57,2.77,2.27,4.2s1.35,2.89,1.92,4.37c.29.75.55,1.52.79,2.29s.41,1.65.69,2.45c.12.34.77.6,1.06.67a4.51,4.51,0,0,0,1.46.14c.48,0,2.16-.3,2-1.11a3.47,3.47,0,0,0-1.44-1.86,1.52,1.52,0,0,0-1.71,0,3.44,3.44,0,0,0-1.44,1.86H284a22.44,22.44,0,0,0-1.6-4.94,27,27,0,0,0-2.33-4.5,27.79,27.79,0,0,0-3.3-4.19c-1.24-1.29-2.48-2.59-3.8-3.8-.5-.45-2.75-.24-2,.58Z"/><path class="cls-1" d="M288.25,1899.58a3.5,3.5,0,0,1,.54.37,6.44,6.44,0,0,1,.61.55,14,14,0,0,1,1.18,1.43,29.37,29.37,0,0,1,2.39,4,28.39,28.39,0,0,1,1.92,4.42,11.31,11.31,0,0,1,.72,3.52c0,.75,1.2,1.06,1.75,1.13.05,0-1.41-.6-1.2-.43-.07,0-.16-.27-.11-.12a2.21,2.21,0,0,0,.18.34,8.1,8.1,0,0,1,.3.87c0,.08,0,.14,0,0l.06.22a3.33,3.33,0,0,0,.16.64c.42.8,1.61,1,2.41,1l-1.16-.24c.24.13-.05,0,.09.09l.17.18a1.25,1.25,0,0,0,.31.23,1.77,1.77,0,0,0,1.7-.11h0a.33.33,0,0,0,.14-.27.5.5,0,0,0-.09-.24,1.43,1.43,0,0,0-1.95,0c-.09.13.07-.06,0,0l1.22-.24h0l.8.51c0,.14,0,.09,0,0s.15-.28.06-.21l-.55.27c.7-.25,1.64-.6,1.42-1.5-.11-.46-.23-.91-.38-1.36a2.61,2.61,0,0,0-2.37-1.86l1.76,1.13a11.84,11.84,0,0,0-.91-4.14,24.89,24.89,0,0,0-2.25-4.61c-1.71-2.73-4.11-5.57-7.22-6.7a2.33,2.33,0,0,0-1.88.18c-.44.31-.34.69.12.94Z"/><path class="cls-8" d="M504.53,1498.57c-31.68,142.56-70.51,365-96.74,364.88-83-.54-121-36.21-121-36.21l70.14-341.68S402,1357.07,504.53,1498.57Z"/><polygon class="cls-4" points="480.36 1731.54 482.13 1929.92 526.76 1930.02 557.3 1731.69 480.36 1731.54"/><path class="cls-16" d="M538.23,1966.22l-203.06-.29c2.77-24.43,21.82-29.83,21.82-29.83l60.39-18.21L472,1885.42l20.57,9.93s4.15-.74,0,9.35c0,0,25.68,5.38,37.91,0l7.81,63.86"/><polygon class="cls-6" points="538.2 1975.94 335.16 1975.65 335.17 1965.93 538.23 1966.22 538.2 1975.94"/><path class="cls-1" d="M399.66,1924.06c1.33.36,2,1.43,3,2.35a17.43,17.43,0,0,1,2.86,3.7,27.51,27.51,0,0,1,3.2,9c.16.86,1.4,1,2.1,1a11.88,11.88,0,0,0,1.33-.09c.32,0,1.6-.35,1.45-.93a3.1,3.1,0,0,0-.1-.36c-.14-.33-.58-.54-.87-.75a1.8,1.8,0,0,0-2,0c-.34.24-.8.43-.92.85l2.42-.67a9.8,9.8,0,0,0-1.33-.11l2.1,1a25.28,25.28,0,0,0-3.95-10.14,16.47,16.47,0,0,0-3.67-4.09,12.12,12.12,0,0,0-2.07-1.43,5.55,5.55,0,0,0-3.57-.35c-.74.15-.68.8,0,1Z"/><path class="cls-1" d="M419.34,1916.27a29.05,29.05,0,0,0,4,8c.84,1.3,1.67,2.61,2.38,4,.38.74.72,1.5,1,2.26A5.54,5.54,0,0,0,428,1933c.74.6,2.68.71,3.26-.21.48-.77-.07-1.86-.36-2.62a15.73,15.73,0,0,0-1.08-2.27,45.56,45.56,0,0,0-2.61-4c-1.81-2.57-4.11-4.93-5.35-7.85-.3-.69-2.75-.59-2.56.17Z"/><path class="cls-1" d="M434.34,1909.25a23.79,23.79,0,0,1,2.86,3.84c.79,1.37,1.57,2.77,2.27,4.2s1.35,2.89,1.92,4.37c.29.75.55,1.52.79,2.29s.41,1.65.69,2.45c.12.34.77.6,1.06.67a4.51,4.51,0,0,0,1.46.14c.48,0,2.16-.3,2-1.11a3.47,3.47,0,0,0-1.44-1.86,1.52,1.52,0,0,0-1.71,0,3.48,3.48,0,0,0-1.44,1.86h4.59a22.44,22.44,0,0,0-1.6-4.94,26.28,26.28,0,0,0-2.33-4.5,27.72,27.72,0,0,0-3.29-4.19c-1.24-1.29-2.48-2.59-3.8-3.8-.5-.45-2.75-.24-2,.58Z"/><path class="cls-1" d="M451.89,1897c.8,1.54,1.36,3.18,2,4.76a28.12,28.12,0,0,0,2.15,4.06c1.57,2.48,2.92,5.13,2.95,8.13,0,.75,1.2,1.06,1.76,1.13q-1.76-.91-1.23-.45c.08.08,0,0-.13-.16,0,0,.09.13.11.16s.15.31.21.48.12.34.18.52c0,0,.1.37,0,.13a2.86,2.86,0,0,0,.07.28,1.43,1.43,0,0,0,.48.89,2.17,2.17,0,0,0,.53.31c.38.25.51.29.4.13s0-.06,0,0,.29.36.53.48a1.8,1.8,0,0,0,1.7-.11h0a.37.37,0,0,0,.15-.27.63.63,0,0,0-.09-.24,1.45,1.45,0,0,0-2,0c-.05.09-.09.08,0,0l1.21-.24h0l.79.51c0,.1,0,.09,0,0s.14-.3.09-.25l-.57.27c.71-.24,1.54-.61,1.4-1.49a9.37,9.37,0,0,0-.38-1.35,2.6,2.6,0,0,0-2.35-1.81l1.76,1.13c0-3.2-1.47-6-3.23-8.58-.9-1.31-1.88-2.55-2.71-3.92a42.8,42.8,0,0,0-3.18-4.83,2,2,0,0,0-1.79-.5c-.37.05-1.31.32-1,.88Z"/><path class="cls-8" d="M598.87,1193.22s-94.05,7.49-110.88,184.42c0,0-40,296.86-51.35,482.41,0,0,53.76,41.86,122.2,22.06l57.69-198.56L757.4,1900.78s159.53-3.39,166.31-176.5C923.71,1724.28,743.7,1162.68,598.87,1193.22Z"/><path class="cls-17" d="M648.56,1528.58c-5.76,7.83-9.51,16.7-12.55,25.89a287.77,287.77,0,0,0-7.75,29.48c-2.24,10.29-4.08,20.65-6.32,30.94q-4.11,18.87-8.2,37.74c-5.29,24.31-10.29,48.7-15.81,73-5.21,22.87-11.07,45.58-18.36,67.88-3.61,11-7.54,21.93-11.87,32.69q-3.27,8.14-6.87,16.17c-1.16,2.59-1.92,5.38-2.85,8.06s-1.83,5.13-2.79,7.69-2.06,5.24-3.14,7.84c-.52,1.23,2.68,1.28,3.23.44q5-7.59,9.69-15.32a75,75,0,0,0,4.38-7.56c1.21-2.66,2.41-5.34,3.57-8q7-16.1,12.76-32.67a697.75,697.75,0,0,0,19.73-67.69c2.74-11.36,5-22.81,7.46-34.23q4.07-18.87,8.11-37.73t8.11-37.74c2.39-11.14,5-22.26,6.82-33.52,3.08-19.37,6.5-38.74,14.83-56.67a66.35,66.35,0,0,1,3.09-5.91c1-1.75-4.28-2.06-5.27-.71Z"/><path class="cls-17" d="M666.51,1562.23a50.61,50.61,0,0,0-21.8,4.38,45.44,45.44,0,0,0-16.77,13,28.89,28.89,0,0,0-2.94,4.46c-.4.76-.76,1.53-1.09,2.33a7.84,7.84,0,0,0-.93,3.44c.36,2.82,4.34,3.51,6.57,3.65,2.8.19,6.57-.16,8.33-2.66.81-1.15,1.06-2.88,1.66-4.19a27.54,27.54,0,0,1,2.09-3.75c.41-.62.85-1.23,1.31-1.82l.6-.75c.1-.13.58-.64.15-.18l.15-.16a41.1,41.1,0,0,1,3.29-3.18,40.54,40.54,0,0,1,3.54-2.72c.31-.22.65-.42,1-.65.46-.33-.45.28-.45.28a2.89,2.89,0,0,0,.57-.35c.66-.4,1.33-.79,2-1.16,2.52-1.37,5.1-2.54,7.66-3.83.65-.32,1.31-.63,2-.92a8.36,8.36,0,0,0,.87-.36c-.07,0-1,.37-.31.12l.52-.18a34.22,34.22,0,0,1,4.08-1.12c.93-.19,2.46-1.09,1.86-2.25s-2.72-1.43-3.91-1.46Z"/><path class="cls-17" d="M617,1659.47c-2.23,5-1.53,11-.69,16.24a71,71,0,0,0,2.16,8.19,69.44,69.44,0,0,1,1.53,9.45c2,14.43,3.76,28.88,6.12,43.25,1.28,7.81,3,15.52,4.52,23.3,1.36,7.24,2.54,14.52,3.93,21.76,3.52,18.36,7.06,36.72,11.15,55,4.33,19.29,9.15,38.54,15.53,57.27a205.27,205.27,0,0,0,9.56,23.78c1.65,3.37,3.41,6.69,5.36,9.89s3.84,6.41,6.52,8.87c.59.54,1.19,1.06,1.81,1.58.33.28.67.55,1,.82l.47.36.18.14c1.17.72,1.3.81.38.28.77.84,2.6,1.23,3.63,1.37a11.25,11.25,0,0,0,4.69-.3c2-.65,4-2.07,2.19-4.08l-.15-.15.84,1.5a22.28,22.28,0,0,0-2-4.22,40.39,40.39,0,0,0-2.55-4,96.21,96.21,0,0,1-5.33-9.16,200,200,0,0,1-9.69-22.65c-3.22-8.79-6-17.73-8.54-26.73-.32-1.12-.63-2.24-.94-3.37.22.78-.22-.79-.28-1-.18-.68-.37-1.36-.55-2q-1-3.58-1.87-7.19-1.83-7.17-3.5-14.37c-4.31-18.47-8-37.06-11.61-55.68-2.66-13.75-5.81-27.36-9-41-3.31-14.15-5.49-28.53-8.14-42.82-.65-3.49-1.52-7-2.36-10.4a78.11,78.11,0,0,0-2.76-10.13c-1-2.56-1.92-5.22-3.09-7.71a51.59,51.59,0,0,1-3.13-8.21,16.92,16.92,0,0,1-.55-7.51c.29-1.55-4.3-1.55-4.85-.32Z"/><path class="cls-17" d="M542.57,1225.18c-16.24,14.9-26.35,34.5-34.35,54.75-4.19,10.6-8.19,21.31-11.4,32.24-3.12,10.61-5.95,21.3-8.91,32-5.64,20.28-9.6,41-13.62,61.69-6.39,32.87-12.25,65.86-17.1,99q-7.94,54.29-14.88,108.71c-2,16-3.82,32-5.3,48q-1,10.35-1.8,20.73a72.79,72.79,0,0,0,.42,17.7c.21,1.28.43,2.55.69,3.81a16.27,16.27,0,0,1,.81,3.78c-.09,1.39,4.13,1.48,4.23,0a15.52,15.52,0,0,1,1.28-3.52c.49-1.34.92-2.69,1.36-4a90.4,90.4,0,0,0,2.17-8.8c1.43-6.37,1.9-13,2.71-19.43,1.92-15.21,4.08-30.39,6-45.59,4.59-35.75,9.67-71.43,15-107.07q7.63-50.94,14.77-102c3.13-22,6-44.23,10.38-66.08,3.56-17.89,7.85-35.65,12-53.42,5-21.4,13.56-42.65,26.91-60.25a100.23,100.23,0,0,1,10.44-11.74c.68-.65-1.35-1-1.83-.52Z"/><path class="cls-4" d="M522.89,1465.33c19.24-16.94,30.11-16.64,114.86-19.74-1.16,19.63-12,19.32-37.73,22.68.17,0,8.47-2,9.13-2,10.5-.6,17.48-3.24,22.05-.11,7.59,5.24,6.4,17.2,2.47,36-.67,3.09-9.39,9.59-9.83,13s-8.43,8.8-10.06,12.25c-2.83,6-6.36,2.93-12,5.68-2.73,1.31-5.33,3.76-8.21,4.55-18.69,5.1-35.38-11.24-49-21.37-10.71-8-26.63-19.64-28.94-34C514.58,1475.88,518.21,1469.47,522.89,1465.33Z"/><path class="cls-4" d="M531.63,1459.08S412.2,1391.22,352.8,1289.39c0,0-30.31,24.2-42.68,49.39,0,0-30.07,65.75,68.33,100.22,114.6,40.12,89.94,37.46,144.43,53.61Z"/><path class="cls-1" d="M1050.17,572.14c34.56,49.53,87,94.68,149.44,99.48,2.16.07,4.25.19,6.35.25,6,0,12.13.49,18.17.55,8.87-.06,17.68-.73,26.49-1.47a246.44,246.44,0,0,1,30.3-2.28c3.64.24,8.75-2,8.63,3.63,1.42,7.52,2.22,15.16,3.88,22.61,1.6,5.54,3.14,11.09,5,16.57,12.14,28.46,28.46,56,46.69,81.13a438.13,438.13,0,0,1,3.88-50.76c1.79-10.54,1.91-21.56,3.52-32.16,1.35-15.58,3-31.17,4.37-46.75-.43-1.91,1.35-3.27,3-3.76,7-2.83,13.92-5.91,20.76-9,2.58-1.11,5.23-2.16,7.82-3.27,1.79-.8,3.51-1.54,5.24-2.4,8.37-4.44,16.57-9.36,24.64-14.42,2.21-1.41,4.37-2.89,6.53-4.37,18.29-13.8,34.74-29.94,50.08-46.88,10.78-12.44,22.11-24.95,29.63-39.73a182,182,0,0,0,19.28-48.23c10.41-37.27,8.74-77.8-2.1-114.83-12.75-37.63-37.26-72.25-68-97.51a209.53,209.53,0,0,0-36.29-25.87,125.12,125.12,0,0,0-21.12-9.8c-12.45-4.92-24.89-9.6-37.7-13.42a363.69,363.69,0,0,0-36.47-6c-13.62-1.17-27.35-1.91-41.15-2-5.67.18-11.33.49-17,.8-31.66,1.79-63.27,6.59-93.7,15.34a235,235,0,0,0-55,22.24c-12.39,6.52-25.14,12.62-36.47,20.88-22.24,17.74-43.06,38.19-55.32,64.31-10.29,19-12.87,40.9-13.86,62.15C1007.36,464.34,1018.08,523.72,1050.17,572.14Z"/><path class="cls-2" d="M1165.55,557.42c7.88,6.71,16,12.93,24.45,19.15a2.66,2.66,0,0,0,.43-.55c20.15-25.56,42.26-49.46,62.47-75,4.43-5.91,9-11.76,13.3-17.86a53.38,53.38,0,0,1,8.38-10.23c1.42-.86,2.71.5,3.63,1.48,5,5.11,9.06,11,13.86,16.33,1.61,1.66,3.21,3.26,4.75,5,9.18,10.22,18.54,20.32,28,30.3,11.34,13.25,22.86,26.06,33.88,39.55a242.17,242.17,0,0,0,28.89-25.5c-5.6-6.47-11.82-12.51-17.55-18.85-8.75-10.1-17.5-20.08-26.43-30.06-6.53-6.72-13.12-13.31-19.65-20a3.18,3.18,0,0,1-1.29-1.23c-2.77-2.59-5.36-5.67-8.07-8.32.06.06.12.06.18.12-3.08-3.38-6.65-6.34-9.54-9.91-1-1.36-3-3-1.67-4.81,3.27-4.25,7.27-7.82,10.91-11.76a86.18,86.18,0,0,1,7.63-8.14c25.69-24.64,50.33-50.38,72.38-78.41-9.48-7.58-19-15.28-29-22.49-24.39,29-48.54,58.22-73.67,86.55-.43.62-.8,1.17-1.17,1.79-2.84,4.19-5.18,9-9.12,12.32-1.48.92-3,0-4-1.11-9.92-9.18-18.67-19.47-28.22-28.95-4.18-3.95-8.37-7.95-12.62-11.83-17.44-15.09-33.14-32-50.15-47.56-7.57,5.86-14,13.13-20.26,20.46,8.07,8.44,15.09,17.74,22.91,26.42,7.46,8.81,15.53,17.07,23.35,25.5,5,5.12,10.1,10.35,15.21,15.47a206,206,0,0,1,19,19.15c1.17,1,2.59,3,1.29,4.56-8,9-15.09,18.67-22.3,28.28-2,2.89-4.06,5.79-6,8.74C1203.12,511,1183.6,533.52,1165.55,557.42Z"/><path class="cls-3" d="M1005.45,424.73A336,336,0,0,0,1012,490.4c7.94,33.57,21.13,66.09,41.15,94.24,38.62,53.17,99.17,96,167.24,92,2.59.24,5.18.43,7.76.61,19-.06,38.07-1.79,56.92-3.88,1.67,8.32,1.73,17.31,3.94,25.44,4.87,22.42,16.58,42.26,28.4,61.54,8.56,13,16,26.8,27.29,37.7.93,1.17,2.9,1.48,3.64,0,1.23-20.51,2.09-41.33,5.6-61.6,2-24.15,5.55-48.17,7.64-72.32,16.26-6.71,33.45-12.32,48.17-22,6.28-4.44,12.69-8.69,18.91-13.12a177.83,177.83,0,0,0,49.65-45.52c1.11-1.36,2.22-2.78,3.33-4.19a223.45,223.45,0,0,0,22.54-29.57c4.69-8.63,9.37-17.25,13.19-26.18A226.66,226.66,0,0,0,1534,459.84c1.85-40.72-.55-84.45-22.67-119.87a197.35,197.35,0,0,0-46.63-58.77c-2.65-2.59-5.42-5.17-8.07-7.76-8-6.53-15.71-13.31-24.39-18.91-5.79-3.2-11.71-6-17.74-8.75-19.84-10.66-41.28-18.36-63-24.39-8.5-1.85-17.12-3.14-25.75-4.19a459.23,459.23,0,0,0-59,.68l-5.61.18c-32.21.43-64.49,4.93-95.29,14.54-13.55,3.88-26.92,8.32-39.55,14.6-49.9,22.48-95,58.52-113.53,111.68C1006.62,380.19,1005.08,402.62,1005.45,424.73Zm4.31-17.62c1-21.25,3.57-43.18,13.86-62.15,12.26-26.12,33.08-46.57,55.32-64.31,11.33-8.26,24.08-14.36,36.47-20.88a235,235,0,0,1,55-22.24c30.43-8.75,62-13.55,93.7-15.34,5.67-.31,11.33-.62,17-.8,13.8.12,27.53.86,41.15,2a363.69,363.69,0,0,1,36.47,6c12.81,3.82,25.25,8.5,37.7,13.42a125.12,125.12,0,0,1,21.12,9.8,209.53,209.53,0,0,1,36.29,25.87c30.74,25.26,55.25,59.88,68,97.51,10.84,37,12.51,77.56,2.1,114.83a182,182,0,0,1-19.28,48.23c-7.52,14.78-18.85,27.29-29.63,39.73-15.34,16.94-31.79,33.08-50.08,46.88-2.16,1.48-4.32,3-6.53,4.37-8.07,5.06-16.27,10-24.64,14.42-1.73.86-3.45,1.6-5.24,2.4-2.59,1.11-5.24,2.16-7.82,3.27-6.84,3.14-13.8,6.22-20.76,9-1.67.49-3.45,1.85-3,3.76-1.42,15.58-3,31.17-4.37,46.75-1.61,10.6-1.73,21.62-3.52,32.16a438.13,438.13,0,0,0-3.88,50.76c-18.23-25.14-34.55-52.67-46.69-81.13-1.91-5.48-3.45-11-5-16.57-1.66-7.45-2.46-15.09-3.88-22.61.12-5.67-5-3.39-8.63-3.63a246.44,246.44,0,0,0-30.3,2.28c-8.81.74-17.62,1.41-26.49,1.47-6-.06-12.14-.55-18.17-.55-2.1-.06-4.19-.18-6.35-.25-62.4-4.8-114.88-50-149.44-99.48C1018.08,523.72,1007.36,464.34,1009.76,407.11Z"/><path class="cls-3" d="M1161.54,556.8c-.37,1.66.74,3,1.91,4,7.46,6,14.79,12.38,22.67,17.74,1.73,1,3.94,3,5.73,1.29,18.6-23.78,39.36-45.77,58.09-69.49,2.09-2.46,4.07-5,6-7.51,3.2-3.82,6.46-7.64,9.54-11.46,4.19-4,7.34-9.05,10.17-14,2.52,3,5.17,5.91,7.82,8.74,18.54,20.7,36.84,41.77,54.76,62.9,5.61,6.53,11.4,12.81,17.19,19.09.8.93,1.79,1.85,3.08,1.67,4.68-1.91,8.5-5.79,12.51-8.87,5.6-4.87,11.08-9.92,16.38-15.16,1.85-2,6.59-5.54,3-8-7.21-8.07-14.91-15.84-21.81-24.15-7.82-9-15.89-17.62-23.9-26.49-5.54-5.42-11.27-10.6-16.63-16.2-2.59-2.46-5-5.18-7.51-7.89-4.19-5.05-8.44-10-13.06-14.66,3.63-4.06,7.2-7.94,10.84-11.89,27.53-26.18,54.14-53.09,77.8-83,1.35-1.85,5-4.37,2.34-6.59-8.38-7.52-17.43-14.42-26.49-21.19-2.89-1.6-6.47-6.9-9.36-2.59q-32.81,39.92-66.1,79.22c-5.85,6.34-11.76,12.5-16.57,19.65-5.79-6.28-12.13-11.89-18.29-17.8-5.18-5.18-10.48-10.41-15.84-15.47-15.7-15.52-31.72-30.73-47.3-46.26-2.84-2.65-6-5-8.81-7.64-1.11-1.29-3-2.77-4.56-1.41a92,92,0,0,0-14.42,12.81c-2.4,2.4-4.62,4.93-6.83,7.45-1.48,1.61-4,3.95-2.16,6.16,17.43,20.7,35.67,41.15,54.89,60.31,1.1,1.36,2.21,2.65,3.32,4.07,8,7.7,15.16,16.07,23.35,23.53a125.93,125.93,0,0,0-11.71,15.64c-14.29,19.78-29,39.3-43.55,58.77-7,8.38-14,16.69-20.2,25.56C1165.86,550.7,1163,553.54,1161.54,556.8Zm4,.62c18-23.9,37.57-46.45,54.21-71.34,2-2.95,4-5.85,6-8.74,7.21-9.61,14.29-19.28,22.3-28.28,1.3-1.6-.12-3.57-1.29-4.56a206,206,0,0,0-19-19.15c-5.11-5.12-10.16-10.35-15.21-15.47-7.82-8.43-15.89-16.69-23.35-25.5-7.82-8.68-14.84-18-22.91-26.42,6.28-7.33,12.69-14.6,20.26-20.46,17,15.59,32.71,32.47,50.15,47.56,4.25,3.88,8.44,7.88,12.62,11.83,9.55,9.48,18.3,19.77,28.22,28.95,1,1.11,2.52,2,4,1.11,3.94-3.33,6.28-8.13,9.12-12.32.37-.62.74-1.17,1.17-1.79,25.13-28.33,49.28-57.53,73.67-86.55,9.92,7.21,19.47,14.91,29,22.49-22,28-46.69,53.77-72.38,78.41a86.18,86.18,0,0,0-7.63,8.14c-3.64,3.94-7.64,7.51-10.91,11.76-1.29,1.79.62,3.45,1.67,4.81,2.89,3.57,6.46,6.53,9.54,9.91-.06-.06-.12-.06-.18-.12,2.71,2.65,5.3,5.73,8.07,8.32a3.18,3.18,0,0,0,1.29,1.23c6.53,6.65,13.12,13.24,19.65,20,8.93,10,17.68,20,26.43,30.06,5.73,6.34,12,12.38,17.55,18.85a242.17,242.17,0,0,1-28.89,25.5c-11-13.49-22.54-26.3-33.88-39.55-9.42-10-18.78-20.08-28-30.3-1.54-1.73-3.14-3.33-4.75-5-4.8-5.36-8.87-11.22-13.86-16.33-.92-1-2.21-2.34-3.63-1.48a53.38,53.38,0,0,0-8.38,10.23c-4.25,6.1-8.87,11.95-13.3,17.86-20.21,25.51-42.32,49.41-62.47,75a2.66,2.66,0,0,1-.43.55C1181.56,570.35,1173.43,564.13,1165.55,557.42Z"/></svg>